<svg width="511" height="299" viewBox="0 0 511 299" fill="none" xmlns="http://www.w3.org/2000/svg">
<path d="M295.403 132.575C406.403 138.575 363.326 61.5743 458.403 132.575C505.019 163.792 533.203 203.08 486.403 246.575C454.189 276.514 468.403 235.575 427.403 263.575C386.403 291.575 312.403 281.575 276.403 253.575C240.403 225.575 200.403 285.575 160.403 278.575C120.403 271.575 28.4033 333.575 7.40323 269.401C-18.3917 190.575 30.3996 203.2 44.403 132.575C67.4033 16.5745 211.799 128.056 295.403 132.575Z" fill="#D4E1E7"/>
<g clip-path="url(#clip0_515_2294)">
<path d="M153.706 45.3051H134.778L131.164 54.0641H121.493L139.665 13.1601H148.991L167.232 54.0641H157.32L153.706 45.3051ZM150.738 38.1167L144.268 22.4368L137.806 38.0995L150.738 38.1167Z" fill="#1A6EA6"/>
<path d="M204.986 38.3497C204.986 48.2219 198.163 54.5387 189.37 54.5387C185.171 54.5387 181.79 53.1925 179.518 50.4483V54.0641H170.837V10.7093H179.931V25.9577C182.263 23.3688 185.464 22.1607 189.396 22.1607C198.163 22.1607 204.986 28.4775 204.986 38.3497ZM195.78 38.3497C195.78 32.9131 192.338 29.6425 187.795 29.6425C183.252 29.6425 179.776 32.9131 179.776 38.3497C179.776 43.7863 183.218 47.0569 187.761 47.0569C192.304 47.0569 195.78 43.7863 195.78 38.3497V38.3497Z" fill="#1A6EA6"/>
<path d="M208.711 38.3497C208.711 28.8572 215.99 22.1607 225.919 22.1607C235.848 22.1607 243.127 28.8831 243.127 38.3497C243.127 47.8163 235.899 54.5387 225.919 54.5387C215.938 54.5387 208.711 47.8163 208.711 38.3497ZM233.938 38.3497C233.938 32.9131 230.496 29.6425 225.953 29.6425C221.41 29.6425 217.917 32.9131 217.917 38.3497C217.917 43.7863 221.41 47.0569 225.953 47.0569C230.496 47.0569 233.981 43.7863 233.981 38.3497H233.938Z" fill="#1A6EA6"/>
<path d="M280.786 22.6267V54.0641H272.182V50.3275C270.958 51.6909 269.455 52.7731 267.776 53.4999C266.096 54.2268 264.28 54.5811 262.451 54.5387C254.579 54.5387 249.046 50.0945 249.046 40.3949V22.6267H258.141V39.0228C258.141 44.2868 260.464 46.6168 264.49 46.6168C268.68 46.6168 271.709 43.933 271.709 38.1426V22.6094L280.786 22.6267Z" fill="#1A6EA6"/>
<path d="M309.454 52.5453C307.241 53.9424 304.659 54.6371 302.046 54.5387C294.647 54.5387 290.336 50.7331 290.336 43.2599V30.3156H285.501V23.2998H290.336V15.6712H299.431V23.2998H307.234V30.3156H299.431V43.1477C299.431 45.8401 300.885 47.2985 303.328 47.2985C304.647 47.3135 305.935 46.902 307.002 46.1249L309.454 52.5453Z" fill="#1A6EA6"/>
<path d="M362.644 22.6267V54.0641H354.04V50.3275C352.816 51.6909 351.313 52.7731 349.633 53.4999C347.954 54.2268 346.137 54.5811 344.309 54.5387C336.445 54.5387 330.904 50.0945 330.904 40.3949V22.6267H339.981V39.0228C339.981 44.2868 342.313 46.6168 346.331 46.6168C350.529 46.6168 353.558 43.933 353.558 38.1426V22.6094L362.644 22.6267Z" fill="#1A6EA6"/>
<path d="M368.064 51.1473L371.093 44.5975C374.382 46.567 378.137 47.616 381.968 47.6351C386.167 47.6351 387.741 46.5305 387.741 44.7787C387.741 39.601 368.813 44.8909 368.813 32.3263C368.813 26.3719 374.173 22.1607 383.319 22.1607C387.621 22.1607 392.413 23.1531 395.364 24.9049L392.336 31.3943C389.58 29.8349 386.465 29.0285 383.301 29.0557C379.223 29.0557 377.477 30.3415 377.477 31.9811C377.477 37.3573 396.405 32.1537 396.405 44.5457C396.405 50.3879 390.985 54.5387 381.607 54.5387C376.341 54.5387 370.981 53.0717 368.064 51.1473Z" fill="#1A6EA6"/>
<path d="M79.6011 35.7781C79.6011 36.0974 77.2609 36.3563 74.3614 36.3563C71.4618 36.3563 69.1216 36.0974 69.1216 35.7781C69.1216 35.4588 71.4705 35.1913 74.3614 35.1913C77.2523 35.1913 79.6011 35.4502 79.6011 35.7781Z" fill="#263238"/>
<path d="M85.1331 21.4789C85.4514 21.4789 85.7096 23.8693 85.7096 26.812C85.7096 29.7547 85.4514 32.1451 85.1331 32.1451C84.8148 32.1451 84.5566 29.7547 84.5566 26.812C84.5566 23.8693 84.8492 21.4789 85.1331 21.4789Z" fill="#263238"/>
<path d="M91.0957 35.4329C91.0957 35.1136 93.436 34.8547 96.3355 34.8547C99.235 34.8547 101.575 35.1136 101.575 35.4329C101.575 35.7522 99.2264 36.0111 96.3355 36.0111C93.4446 36.0111 91.0957 35.7522 91.0957 35.4329Z" fill="#263238"/>
<path d="M85.5291 49.7234C85.2108 49.7234 84.9526 47.3417 84.9526 44.399C84.9526 41.4563 85.2108 39.0659 85.5291 39.0659C85.8474 39.0659 86.1056 41.4477 86.1056 44.399C86.1056 47.3503 85.8474 49.7234 85.5291 49.7234Z" fill="#263238"/>
<path d="M93.9952 43.5965C93.7542 43.8036 92.7218 42.9665 91.6893 41.7325C90.6568 40.4985 90.0288 39.3248 90.2697 39.1436C90.5106 38.9624 91.5516 39.7649 92.5755 41.0076C93.5994 42.2502 94.2447 43.3893 93.9952 43.5965Z" fill="#263238"/>
<path d="M93.5049 27.3816C93.7372 27.6145 93.0575 28.6674 91.982 29.7547C90.9065 30.842 89.8654 31.5237 89.6417 31.2994C89.418 31.075 90.0977 30.0136 91.1646 28.9349C92.2315 27.8562 93.2812 27.1572 93.5049 27.3816Z" fill="#263238"/>
<path d="M81.5022 31.5151C81.2957 31.7654 80.3062 31.2735 79.2823 30.4278C78.2585 29.5821 77.6132 28.7019 77.8197 28.443C78.0262 28.1841 79.007 28.6846 80.0309 29.5303C81.0548 30.376 81.6914 31.2648 81.5022 31.5151Z" fill="#263238"/>
<path d="M81.029 38.6604C81.2613 38.8761 80.6676 39.9203 79.704 40.9817C78.7404 42.0432 77.7509 42.7076 77.5186 42.5264C77.2863 42.3452 77.8714 41.2665 78.8436 40.1964C79.8158 39.1264 80.8311 38.4446 81.029 38.6604Z" fill="#263238"/>
<path d="M375.231 8.11177C375.231 8.30162 373.898 8.44832 372.254 8.44832C370.611 8.44832 369.277 8.30162 369.277 8.11177C369.277 7.92192 370.611 7.76659 372.254 7.76659C373.898 7.76659 375.231 7.93055 375.231 8.11177Z" fill="#263238"/>
<path d="M378.389 0C378.57 0 378.716 1.35484 378.716 3.02897C378.716 4.7031 378.57 6.04068 378.389 6.04068C378.208 6.04068 378.062 4.68584 378.062 3.01171C378.062 1.33758 378.208 0 378.389 0Z" fill="#263238"/>
<path d="M381.753 7.92192C381.753 7.7407 383.087 7.59399 384.73 7.59399C386.373 7.59399 387.698 7.7407 387.698 7.92192C387.698 8.10314 386.373 8.24984 384.73 8.24984C383.087 8.24984 381.753 8.10314 381.753 7.92192Z" fill="#263238"/>
<path d="M378.595 16.0337C378.415 16.0337 378.269 14.6789 378.269 13.0134C378.269 11.3479 378.415 9.98439 378.595 9.98439C378.776 9.98439 378.922 11.3392 378.922 13.0134C378.922 14.6875 378.776 16.0337 378.595 16.0337Z" fill="#263238"/>
<path d="M383.405 12.556C383.259 12.6682 382.674 12.2022 382.089 11.4946C381.504 10.7869 381.151 10.1311 381.289 10.0189C381.426 9.90671 382.011 10.3727 382.596 11.0717C383.181 11.7707 383.543 12.4352 383.405 12.556Z" fill="#263238"/>
<path d="M383.121 3.34826C383.25 3.4777 382.863 4.08177 382.261 4.69447C381.658 5.30716 381.056 5.70412 380.927 5.55742C380.798 5.41072 381.185 4.82391 381.788 4.21121C382.39 3.59851 382.992 3.22744 383.121 3.34826Z" fill="#263238"/>
<path d="M376.307 5.6955C376.186 5.83358 375.627 5.55743 375.051 5.07418C374.474 4.59092 374.096 4.09041 374.19 3.95234C374.285 3.81426 374.87 4.09041 375.446 4.57366C376.023 5.05692 376.419 5.55743 376.307 5.6955Z" fill="#263238"/>
<path d="M376.04 9.75139C376.169 9.8722 375.834 10.4676 375.283 11.0717C374.732 11.6758 374.182 12.0727 374.044 11.9347C373.906 11.7966 374.251 11.227 374.801 10.623C375.352 10.0189 375.945 9.63057 376.04 9.75139Z" fill="#263238"/>
<path d="M240.107 75.9918C238.605 76.3255 237.049 76.3255 235.547 75.9918C237.049 75.658 238.605 75.658 240.107 75.9918V75.9918Z" fill="#263238"/>
<path d="M242.533 69.7699C242.777 70.5176 242.862 71.3085 242.783 72.0912C242.863 72.874 242.778 73.665 242.533 74.4126C242.283 73.6662 242.195 72.8746 242.275 72.0912C242.196 71.3078 242.284 70.5165 242.533 69.7699V69.7699Z" fill="#263238"/>
<path d="M245.114 75.8451C245.844 75.5941 246.619 75.5057 247.386 75.5862C248.158 75.506 248.939 75.5943 249.674 75.8451C248.938 76.0906 248.158 76.1759 247.386 76.0953C246.619 76.1758 245.845 76.0905 245.114 75.8451V75.8451Z" fill="#263238"/>
<path d="M242.688 82.067C242.444 81.3193 242.359 80.5284 242.439 79.7456C242.358 78.9629 242.443 78.1718 242.688 77.4243C242.933 78.1718 243.018 78.9629 242.938 79.7456C243.018 80.5284 242.933 81.3193 242.688 82.067V82.067Z" fill="#263238"/>
<path d="M246.371 79.3918C246.267 79.4867 245.82 79.1243 245.373 78.5806C244.925 78.037 244.65 77.5365 244.753 77.4502C244.856 77.3639 245.312 77.7263 245.76 78.2614C246.207 78.7964 246.483 79.3055 246.371 79.3918Z" fill="#263238"/>
<path d="M246.164 72.3415C246.259 72.4364 245.966 72.9024 245.502 73.3684C245.037 73.8344 244.581 74.1451 244.478 74.0415C244.375 73.9379 244.676 73.4806 245.14 73.0146C245.605 72.5486 246.027 72.2466 246.164 72.3415Z" fill="#263238"/>
<path d="M240.933 74.1364C240.847 74.2486 240.417 74.0329 239.969 73.6618C239.522 73.2907 239.247 72.911 239.333 72.7988C239.419 72.6867 239.849 72.9024 240.296 73.2735C240.744 73.6445 241.028 74.0329 240.933 74.1364Z" fill="#263238"/>
<path d="M240.726 77.2431C240.829 77.338 240.571 77.7953 240.15 78.2613C239.728 78.7273 239.289 79.0207 239.203 78.9258C239.117 78.8309 239.358 78.3822 239.78 77.9162C240.201 77.4502 240.623 77.1568 240.726 77.2431Z" fill="#263238"/>
<path d="M361.241 85.6655C361.241 85.8467 359.908 85.9934 358.264 85.9934C356.621 85.9934 355.296 85.8467 355.296 85.6655C355.296 85.4843 356.621 85.3376 358.264 85.3376C359.908 85.3376 361.241 85.4843 361.241 85.6655Z" fill="#E0E0E0"/>
<path d="M364.399 77.5537C364.579 77.5537 364.726 78.9086 364.726 80.5741C364.726 82.2396 364.579 83.603 364.399 83.603C364.218 83.603 364.072 82.2482 364.072 80.5741C364.072 78.9 364.218 77.5537 364.399 77.5537Z" fill="#E0E0E0"/>
<path d="M367.763 85.4757C367.763 85.2858 369.097 85.1391 370.74 85.1391C372.384 85.1391 373.717 85.2858 373.717 85.4757C373.717 85.6655 372.384 85.8036 370.74 85.8036C369.097 85.8036 367.763 85.6569 367.763 85.4757Z" fill="#E0E0E0"/>
<path d="M364.605 93.5874C364.425 93.5874 364.278 92.2326 364.278 90.5585C364.278 88.8843 364.425 87.5295 364.605 87.5295C364.786 87.5295 364.932 88.8843 364.932 90.5585C364.932 92.2326 364.76 93.5874 364.605 93.5874Z" fill="#E0E0E0"/>
<path d="M369.415 90.1097C369.277 90.2219 368.684 89.7473 368.107 89.0483C367.531 88.3493 367.161 87.6848 367.298 87.564C367.436 87.4432 368.021 87.9264 368.606 88.6254C369.191 89.3244 369.553 89.9889 369.415 90.1097Z" fill="#E0E0E0"/>
<path d="M369.131 80.902C369.26 81.0314 368.873 81.6355 368.271 82.2482C367.668 82.8609 367.066 83.2492 366.937 83.1112C366.808 82.9731 367.195 82.3776 367.797 81.7649C368.4 81.1522 369.002 80.7725 369.131 80.902Z" fill="#E0E0E0"/>
<path d="M362.317 83.2492C362.205 83.3873 361.637 83.1112 361.061 82.6279C360.484 82.1447 360.114 81.6441 360.2 81.5061C360.286 81.368 360.88 81.6355 361.457 82.1188C362.033 82.602 362.437 83.1112 362.317 83.2492Z" fill="#E0E0E0"/>
<path d="M362.05 87.3051C362.188 87.4259 361.843 88.0214 361.293 88.6254C360.742 89.2295 360.191 89.6178 360.054 89.4884C359.916 89.3589 360.26 88.7721 360.811 88.1681C361.362 87.564 361.912 87.1584 362.05 87.3051Z" fill="#E0E0E0"/>
<path d="M204.444 8.62955L204.831 9.56154C205.166 10.3662 205.657 11.0967 206.274 11.7112C206.891 12.3257 207.623 12.8122 208.427 13.1428L209.443 13.5484L208.47 13.9453C207.654 14.277 206.912 14.7705 206.289 15.3962C205.667 16.0219 205.177 16.767 204.848 17.587L204.573 18.2687L204.16 17.4058C203.42 15.8514 202.101 14.6517 200.486 14.0662L199.625 13.7469L200.778 13.1859C202.223 12.4822 203.362 11.273 203.979 9.78591L204.444 8.62955Z" fill="#E0E0E0"/>
<path d="M53.2986 78.4771L53.5567 79.0898C54.0077 80.1703 54.868 81.027 55.9486 81.4716L56.6197 81.7391L55.9744 82.0066C55.4325 82.2279 54.9402 82.5557 54.5265 82.9706C54.1128 83.3856 53.7859 83.8793 53.5653 84.4229L53.3846 84.8802L53.1179 84.3107C52.6303 83.2904 51.7711 82.4966 50.7174 82.0929L50.1323 81.8771L50.8981 81.5061C51.8575 81.0373 52.6132 80.2333 53.0232 79.2451L53.2986 78.4771Z" fill="#E0E0E0"/>
<path d="M434.099 18.2774L434.357 18.8987C434.58 19.4334 434.905 19.9185 435.316 20.3259C435.727 20.7332 436.214 21.0548 436.749 21.2718L437.412 21.548L436.775 21.8069C436.231 22.027 435.737 22.3554 435.323 22.7721C434.909 23.1889 434.583 23.6854 434.366 24.2318L434.177 24.6805L433.91 24.1109C433.412 23.0824 432.536 22.2875 431.466 21.8932L430.881 21.6774L431.647 21.3063C432.611 20.8436 433.368 20.0376 433.772 19.0454L434.099 18.2774Z" fill="#E0E0E0"/>
<path d="M435.243 44.4335L435.631 45.3655C435.967 46.1689 436.457 46.8979 437.074 47.5109C437.691 48.124 438.423 48.6089 439.227 48.9382L440.242 49.3524L439.27 49.7407C438.453 50.0742 437.711 50.5693 437.089 51.1964C436.467 51.8236 435.977 52.5699 435.648 53.391L435.373 54.0641L434.96 53.2012C434.22 51.6468 432.9 50.447 431.286 49.8615L430.425 49.5336L431.578 48.9813C433.031 48.2636 434.17 47.0351 434.779 45.5295L435.243 44.4335Z" fill="#263238"/>
<path d="M276.269 2.99445L276.45 3.42592C276.609 3.80802 276.844 4.15398 277.139 4.44311C277.435 4.73224 277.786 4.95861 278.171 5.10868L278.644 5.29853L278.188 5.47975C277.8 5.63601 277.447 5.86949 277.151 6.16611C276.856 6.46274 276.623 6.81636 276.467 7.20566L276.338 7.52496L276.14 7.11074C275.789 6.38664 275.173 5.82687 274.419 5.54879L274.006 5.39346L274.548 5.13457C275.228 4.80484 275.764 4.23692 276.054 3.53811L276.269 2.99445Z" fill="#263238"/>
<path d="M156.331 74.5247L156.546 75.077C156.746 75.5633 157.041 76.0045 157.413 76.375C157.785 76.7454 158.228 77.0376 158.714 77.2344L159.325 77.4847L158.74 77.7263C158.245 77.9274 157.795 78.2267 157.418 78.6063C157.041 78.9859 156.744 79.438 156.546 79.9355L156.382 80.3411L156.133 79.8319C155.698 78.903 154.92 78.1793 153.965 77.8126L153.431 77.6141L154.128 77.2776C155.005 76.8577 155.695 76.1256 156.064 75.2237L156.331 74.5247Z" fill="#263238"/>
<path d="M133.444 90.2651C133.298 93.0351 129.702 96.7286 130.812 99.2743C132.868 103.952 131.672 109.543 129.031 113.945C126.389 118.346 122.406 121.711 118.508 124.973C118.705 118.156 118.113 111.339 116.744 104.659C116.314 102.562 115.609 100.232 113.707 99.2829C111.238 98.0575 108.106 99.8352 105.576 98.7393C102.883 97.5743 102.341 93.8808 100.07 92.0168C98.0135 90.2909 94.9935 90.5067 92.4726 91.3524C89.9517 92.1981 87.6372 93.6219 85.0474 94.2001C82.4577 94.7783 79.3344 94.2605 77.8976 92.0255C77.0372 90.6448 77.6481 91.4818 76.8049 90.0752C76.8049 90.0752 71.7544 90.2478 70.0164 84.3538C70.0164 84.3538 67.6417 77.8126 72.8987 74.9131C72.8987 74.9131 74.0947 63.082 85.9681 68.4064C89.4096 69.9338 93.4104 65.0064 96.7401 66.6805C99.5106 68.0957 100.337 71.9532 103.098 73.3684C106.282 74.9908 109.982 72.5831 113.544 72.4278C115.825 72.4278 118.014 73.337 119.627 74.9553C121.241 76.5737 122.147 78.7686 122.147 81.0573C122.147 81.0573 122.707 78.6928 126.57 79.737C130.433 80.7812 133.728 84.8716 133.444 90.2651Z" fill="#263238"/>
<path d="M128.411 109.319C128.484 107.98 128.237 106.642 127.688 105.419C127.189 104.409 125.322 102.113 123.274 101.967L123.575 89.7732C123.598 88.5632 123.169 87.3883 122.374 86.4785C121.578 85.5687 120.473 84.9895 119.273 84.8543L95.4062 82.3345C93.4582 82.1281 91.4887 82.3193 89.6163 82.8965C87.7439 83.4738 86.0074 84.4253 84.5113 85.6936C83.0153 86.9619 81.7907 88.5207 80.9113 90.2763C80.0319 92.0319 79.5159 93.9479 79.3944 95.9088C78.8179 105.099 78.4737 116.335 79.5578 123.195C81.7432 137.003 92.2744 138.729 92.2744 138.729L92.0163 148.359C91.6119 158.62 99.2694 164.798 107.168 164.798C115.066 164.798 122.362 157.964 122.13 147.798L122.904 116.732C124.222 116.593 125.445 115.98 126.346 115.006C127.696 113.423 128.43 111.403 128.411 109.319V109.319Z" fill="#FFBE9D"/>
<path d="M84.7288 103.391C84.7219 103.622 84.7613 103.852 84.8447 104.067C84.928 104.282 85.0537 104.479 85.2142 104.645C85.3747 104.81 85.5667 104.942 85.7789 105.032C85.9911 105.122 86.2192 105.168 86.4496 105.168C86.899 105.187 87.3379 105.029 87.6724 104.727C88.0069 104.426 88.2104 104.005 88.2392 103.555C88.2473 103.323 88.2088 103.092 88.1259 102.876C88.0431 102.659 87.9176 102.462 87.757 102.295C87.5964 102.128 87.4039 101.996 87.1911 101.905C86.9783 101.815 86.7496 101.768 86.5184 101.768C86.0676 101.749 85.6275 101.909 85.2927 102.212C84.958 102.516 84.7555 102.939 84.7288 103.391Z" fill="#263238"/>
<path d="M81.8294 101.751C82.0445 101.984 83.3781 100.992 85.271 101C87.1639 101.009 88.5577 101.958 88.7642 101.725C88.8588 101.622 88.6351 101.207 88.0328 100.759C87.2125 100.187 86.2353 99.8856 85.2366 99.8956C84.2536 99.8842 83.2925 100.186 82.4919 100.759C81.9155 101.233 81.6918 101.647 81.8294 101.751Z" fill="#263238"/>
<path d="M103.038 103.744C103.031 103.975 103.07 104.205 103.154 104.421C103.237 104.636 103.363 104.833 103.523 104.998C103.684 105.164 103.876 105.296 104.088 105.386C104.3 105.476 104.528 105.522 104.759 105.522C105.208 105.548 105.65 105.397 105.99 105.1C106.329 104.803 106.539 104.385 106.574 103.934C106.582 103.703 106.544 103.472 106.461 103.255C106.378 103.039 106.252 102.841 106.092 102.675C105.931 102.508 105.739 102.375 105.526 102.285C105.313 102.194 105.084 102.148 104.853 102.148C104.402 102.122 103.959 102.275 103.62 102.573C103.28 102.872 103.071 103.293 103.038 103.744Z" fill="#263238"/>
<path d="M100.474 102.113C100.689 102.338 102.023 101.345 103.916 101.354C105.809 101.363 107.202 102.312 107.409 102.079C107.615 101.846 107.289 101.561 106.678 101.112C105.856 100.545 104.88 100.243 103.881 100.249C102.899 100.242 101.939 100.544 101.137 101.112C100.56 101.587 100.362 102.01 100.474 102.113Z" fill="#263238"/>
<path d="M93.5908 116.214C92.5876 115.904 91.5503 115.718 90.502 115.662C90.0202 115.61 89.5642 115.515 89.4782 115.179C89.4418 114.679 89.5556 114.18 89.8051 113.746L91.2333 110.044C93.2295 104.78 94.6749 100.448 94.4512 100.37C94.2275 100.293 92.4551 104.495 90.4676 109.759C89.9858 111.062 89.5298 112.296 89.0996 113.479C88.7934 114.064 88.702 114.739 88.8415 115.386C88.9139 115.557 89.0232 115.71 89.1615 115.834C89.2999 115.958 89.4638 116.049 89.6416 116.102C89.9226 116.176 90.2117 116.213 90.502 116.214C91.5273 116.348 92.5655 116.348 93.5908 116.214Z" fill="#263238"/>
<path d="M92.2745 138.729C98.7477 138.832 105.122 137.129 110.687 133.81C110.687 133.81 105.92 144.165 92.1626 142.888L92.2745 138.729Z" fill="#EB996E"/>
<path d="M99.6137 98.7824C99.803 99.3002 101.696 99.0499 103.916 99.3174C106.135 99.585 107.942 100.18 108.218 99.7317C108.347 99.5073 108.037 99.024 107.357 98.5235C106.392 97.8978 105.292 97.5131 104.148 97.4017C103.011 97.2605 101.857 97.3966 100.784 97.7986C99.9492 98.1266 99.5363 98.5321 99.6137 98.7824Z" fill="#263238"/>
<path d="M81.5196 97.324C81.8552 97.7555 83.163 97.324 84.7289 97.324C86.2948 97.324 87.6284 97.6174 87.9381 97.1601C88.0758 96.9443 87.8607 96.5128 87.2842 96.0986C86.5146 95.6072 85.6149 95.3605 84.7031 95.391C83.7738 95.4006 82.871 95.7025 82.1219 96.254C81.554 96.6509 81.3733 97.1169 81.5196 97.324Z" fill="#263238"/>
<path d="M94.0039 126.984C94.0039 126.941 94.133 126.708 94.5201 126.475C95.0391 126.161 95.6352 126 96.2409 126.009C96.8447 125.997 97.4401 126.152 97.9617 126.457C98.3489 126.69 98.521 126.923 98.4865 126.967C97.7754 126.689 97.0275 126.517 96.2667 126.457C95.4909 126.521 94.7285 126.698 94.0039 126.984V126.984Z" fill="#EB996E"/>
<path d="M122.018 112.995C122.018 112.918 122.577 112.849 123.317 112.357C123.788 112.044 124.178 111.623 124.454 111.13C124.731 110.636 124.887 110.083 124.909 109.518C124.916 108.949 124.791 108.387 124.543 107.876C124.295 107.365 123.931 106.92 123.481 106.575C123.088 106.309 122.641 106.135 122.173 106.066C122.13 106.014 122.81 105.79 123.661 106.316C124.198 106.659 124.637 107.134 124.939 107.696C125.24 108.258 125.392 108.888 125.382 109.526C125.371 110.231 125.149 110.917 124.745 111.494C124.425 111.961 124.001 112.348 123.507 112.624C123.072 112.926 122.543 113.058 122.018 112.995V112.995Z" fill="#EB996E"/>
<path d="M76.8045 79.0466C74.5847 85.001 79.8588 89.3244 83.9715 90.265C89.7189 91.6113 95.8363 87.9696 99.7597 89.5229C102.694 90.6793 105.464 92.9747 108.579 92.4915C110.093 92.2671 111.59 91.3955 113.07 91.8011C114.946 92.3102 115.711 94.6143 115.651 96.5646C115.599 98.9809 114.791 101.38 115.092 103.779C115.393 106.178 117.527 108.655 119.858 108.025C120.954 107.657 121.913 106.966 122.61 106.042C123.307 105.118 123.71 104.004 123.765 102.847C124.04 99.5332 123.438 95.5722 123.593 92.2498C123.739 89.3158 123.747 86.0883 121.872 83.8188C119.996 81.5492 116.83 80.9279 113.913 80.5309C101.611 78.8392 89.1896 78.1839 76.7786 78.572" fill="#263238"/>
<path d="M69.5687 80.3152C69.493 80.1166 69.4522 79.9064 69.4482 79.6939C69.4165 79.0801 69.5408 78.4684 69.8096 77.9162C70.233 77.0227 70.9719 76.3185 71.8831 75.94C72.4579 75.7172 73.0799 75.6459 73.6899 75.7329C74.3352 75.8019 74.9805 75.9659 75.6602 76.009C76.3656 76.041 77.0667 75.8831 77.6908 75.5517C78.3709 75.1846 79.0037 74.7354 79.575 74.2141C80.1945 73.6791 80.8226 73.0923 81.5453 72.5658C82.2972 72.0154 83.1609 71.6383 84.0749 71.4613C86.0481 71.1602 88.0657 71.502 89.8309 72.4364C91.6637 73.4516 93.373 74.6765 94.9244 76.0867C96.4357 77.4884 98.1501 78.6523 100.009 79.5385C100.893 79.9063 101.853 80.0515 102.806 79.9614C103.708 79.8217 104.581 79.5299 105.387 79.0984C106.895 78.1839 108.499 77.44 110.171 76.8806C111.673 76.4562 113.256 76.4058 114.782 76.7339C116.042 77.0193 117.2 77.6461 118.129 78.5461C118.825 79.2222 119.368 80.0404 119.721 80.9451C119.942 81.5123 120.061 82.1141 120.074 82.7228C120.085 82.8808 120.085 83.0395 120.074 83.1975C120.084 83.2516 120.084 83.3072 120.074 83.3614C120.062 82.5544 119.905 81.7561 119.609 81.0055C119.239 80.1429 118.694 79.367 118.009 78.7273C117.105 77.8656 115.983 77.2686 114.765 77.0014C113.291 76.7092 111.768 76.7773 110.325 77.1999C108.68 77.7675 107.102 78.5141 105.619 79.4263C104.757 79.8692 103.826 80.1611 102.866 80.2893C101.843 80.3893 100.812 80.2352 99.863 79.8406C97.9722 78.9471 96.2307 77.7652 94.7007 76.337C93.1761 74.947 91.4957 73.7394 89.6932 72.7384C88.0162 71.8373 86.0955 71.4986 84.2125 71.7719C82.4143 72.0653 81.1151 73.3339 79.9106 74.4039C79.3154 74.9517 78.6534 75.4215 77.9403 75.8019C77.2624 76.1558 76.4999 76.3142 75.7377 76.2593C75.0149 76.2075 74.3697 76.0263 73.7588 75.9573C73.1813 75.8614 72.5891 75.9149 72.038 76.1126C71.3319 76.3942 70.7242 76.8785 70.2911 77.5047C69.858 78.131 69.6187 78.8714 69.6031 79.6334C69.5343 80.0994 69.5945 80.3152 69.5687 80.3152Z" fill="#1A6EA6"/>
<path d="M76.2196 89.9112C76.0231 89.9697 75.8138 89.9697 75.6173 89.9112C75.3278 89.8521 75.0541 89.7324 74.8139 89.5599C74.5737 89.3874 74.3725 89.166 74.2235 88.9102C73.8317 88.0757 73.7346 87.1323 73.9482 86.235C74.144 85.0258 74.6248 83.8808 75.3506 82.8954C76.2196 81.6932 77.4227 80.7747 78.8094 80.2548C80.4207 79.6544 82.1854 79.6089 83.8254 80.1253C85.5672 80.7704 87.1963 81.6879 88.6522 82.8436C90.1693 84.0905 91.8895 85.0656 93.7371 85.7259C95.6182 86.202 97.5995 86.0906 99.4157 85.4066C101.135 84.7931 102.787 84.0037 104.346 83.0507C105.778 82.1907 107.257 81.4128 108.777 80.7208C110.114 80.1029 111.55 79.7288 113.019 79.6162C114.083 79.5329 115.154 79.6658 116.167 80.0068C117.179 80.3478 118.113 80.89 118.912 81.601C119.319 82.0141 119.659 82.4888 119.919 83.0076C120.01 83.1855 120.079 83.3738 120.125 83.5685C119.791 82.8828 119.339 82.2608 118.792 81.7304C117.998 81.0654 117.08 80.5645 116.092 80.2565C115.105 79.9484 114.066 79.8393 113.036 79.9355C111.611 80.0714 110.22 80.4508 108.923 81.0573C107.426 81.7647 105.967 82.5511 104.552 83.4132C102.973 84.3892 101.298 85.1989 99.5534 85.8295C97.6542 86.5439 95.5826 86.6583 93.6167 86.1574C91.7397 85.4901 89.9928 84.5002 88.4543 83.232C87.0402 82.0913 85.4584 81.1772 83.7652 80.5223C82.2076 80.0215 80.5286 80.0519 78.99 80.6086C77.6486 81.0857 76.476 81.9467 75.6173 83.0853C74.9058 84.025 74.4226 85.1183 74.2063 86.2782C73.9905 87.1427 74.0723 88.0551 74.4386 88.8671C74.5659 89.1084 74.7405 89.3215 74.9519 89.4935C75.1634 89.6655 75.4072 89.7929 75.6689 89.8681C75.8512 89.8962 76.0352 89.9107 76.2196 89.9112V89.9112Z" fill="#1A6EA6"/>
<path d="M128.91 112.909C128.91 112.909 129.228 112.503 129.676 111.701C130.301 110.567 130.652 109.302 130.699 108.007C130.738 107.132 130.627 106.257 130.373 105.419C130.062 104.445 129.603 103.525 129.013 102.692C128.411 101.829 127.697 100.879 127.069 99.8438C126.353 98.7827 125.961 97.5351 125.941 96.2539C126.064 94.9935 126.457 93.7747 127.094 92.6813C127.643 91.7031 127.972 90.6162 128.058 89.497C128.077 88.5501 127.849 87.6146 127.396 86.7835C126.944 85.9524 126.282 85.2546 125.477 84.7594C124.364 84.1049 123.063 83.8493 121.786 84.0345C121.32 84.1192 120.86 84.2346 120.409 84.3797C120.409 84.3797 120.512 84.302 120.728 84.1898C121.059 84.0426 121.405 83.9326 121.76 83.8619C123.083 83.5999 124.456 83.8202 125.632 84.4832C126.497 84.9995 127.212 85.7358 127.703 86.6177C128.194 87.4995 128.444 88.4957 128.428 89.5056C128.356 90.6841 128.021 91.8313 127.447 92.8625C126.847 93.9064 126.472 95.0646 126.346 96.2626C126.367 97.4607 126.735 98.6269 127.404 99.6195C128.006 100.629 128.712 101.535 129.314 102.467C129.932 103.324 130.411 104.274 130.734 105.28C131.037 106.37 131.112 107.51 130.955 108.629C130.799 109.749 130.413 110.824 129.822 111.787C129.64 112.098 129.423 112.388 129.177 112.65C129.013 112.831 128.918 112.926 128.91 112.909Z" fill="#1A6EA6"/>
<path d="M92.8767 102.838C92.7958 102.119 92.6751 101.404 92.5153 100.698C92.0019 98.7858 90.8663 97.1001 89.2889 95.9088C88.1303 95.0356 86.772 94.4675 85.3382 94.2565C83.9043 94.0455 82.4406 94.1981 81.0808 94.7006C79.4813 95.2932 78.0903 96.3434 77.0799 97.721C75.9912 99.2037 75.4039 100.997 75.4039 102.838C75.4039 104.68 75.9912 106.473 77.0799 107.956C77.5848 108.663 78.2008 109.284 78.904 109.794C79.5648 110.3 80.2989 110.701 81.0808 110.985C82.2247 111.398 83.442 111.568 84.6551 111.484C85.8682 111.399 87.0504 111.062 88.1263 110.494C89.2022 109.925 90.1482 109.138 90.9039 108.183C91.6596 107.227 92.2084 106.124 92.5153 104.944C92.6764 104.235 92.797 103.518 92.8767 102.795C92.9308 103.531 92.8669 104.271 92.6874 104.987C92.2217 106.993 91.0712 108.773 89.4351 110.018C88.3264 110.884 87.0293 111.476 85.6494 111.744C84.0616 112.047 82.422 111.918 80.9001 111.373C79.2149 110.76 77.7481 109.661 76.6842 108.215C75.5331 106.66 74.9116 104.775 74.9116 102.838C74.9116 100.902 75.5331 99.0168 76.6842 97.4621C77.2182 96.7229 77.8658 96.0733 78.6028 95.5377C79.301 95.0128 80.0759 94.5995 80.9001 94.3123C82.3207 93.7982 83.8478 93.652 85.3398 93.8874C86.8317 94.1227 88.2404 94.7319 89.4351 95.6585C91.0475 96.9029 92.1813 98.6681 92.6444 100.655C92.8384 101.366 92.9168 102.103 92.8767 102.838V102.838Z" fill="#263238"/>
<path d="M113.044 102.838C112.984 102.838 113.044 102.053 112.683 100.698C112.166 98.7851 111.028 97.0997 109.448 95.9088C108.291 95.0356 106.934 94.4675 105.502 94.2565C104.069 94.0454 102.607 94.1981 101.248 94.7006C100.464 94.9808 99.7272 95.3795 99.063 95.8829C98.3638 96.3973 97.7485 97.0173 97.239 97.721C96.1502 99.2037 95.5629 100.997 95.5629 102.838C95.5629 104.68 96.1502 106.473 97.239 107.956C98.2529 109.335 99.6464 110.388 101.248 110.985C102.702 111.515 104.269 111.649 105.791 111.373C107.118 111.131 108.37 110.581 109.448 109.768C111.028 108.581 112.167 106.898 112.683 104.987C113.027 103.632 112.984 102.838 113.044 102.838C113.097 103.575 113.031 104.315 112.846 105.03C112.386 107.014 111.255 108.776 109.646 110.018C108.536 110.883 107.239 111.474 105.86 111.744C104.272 112.047 102.633 111.919 101.111 111.373C99.4249 110.757 97.9561 109.659 96.8862 108.215C95.7403 106.658 95.1221 104.773 95.1221 102.838C95.1221 100.903 95.7403 99.019 96.8862 97.4621C97.4237 96.723 98.0742 96.0735 98.8135 95.5377C99.5106 95.0112 100.286 94.5977 101.111 94.3123C102.531 93.7982 104.058 93.652 105.55 93.8874C107.042 94.1227 108.451 94.7319 109.646 95.6585C111.257 96.9028 112.388 98.6685 112.846 100.655C113.031 101.367 113.097 102.105 113.044 102.838V102.838Z" fill="#263238"/>
<path d="M95.8281 101.354V101.449V101.294V101.475C95.3533 101.577 94.8679 101.62 94.3826 101.604C93.5222 101.604 92.8081 101.509 92.8081 101.38C92.8081 101.25 93.5136 101.156 94.3826 101.156C94.8683 101.141 95.3538 101.188 95.8281 101.294V101.475V101.319V101.414V101.354Z" fill="#263238"/>
<path d="M123.661 103.313C121.853 103.407 120.04 103.352 118.241 103.149C116.432 103.091 114.631 102.886 112.855 102.536C114.663 102.437 116.476 102.492 118.275 102.7C120.085 102.753 121.886 102.958 123.661 103.313V103.313Z" fill="#263238"/>
<path d="M101.481 115.739C101.639 116.189 101.66 116.676 101.541 117.137C101.353 118.284 100.755 119.322 99.8585 120.058C98.9619 120.793 97.8286 121.176 96.6711 121.133C96.1976 121.157 95.7276 121.04 95.3203 120.796C95.3203 120.719 95.8538 120.857 96.6711 120.796C97.7344 120.756 98.7555 120.369 99.5788 119.693C100.402 119.016 100.982 118.089 101.231 117.051C101.481 116.275 101.42 115.739 101.481 115.739Z" fill="#263238"/>
<path d="M67.3919 177.7C67.4029 177.791 67.4029 177.884 67.3919 177.976V178.787C67.3919 179.529 67.3919 180.573 67.3919 181.902C67.3919 184.638 67.3919 188.556 67.4607 193.371C67.4607 203.053 67.1596 216.438 66.411 231.194C65.6625 245.951 64.9742 259.283 64.4838 268.974C64.2429 273.79 64.045 277.69 63.9073 280.426C63.8385 281.755 63.7868 282.799 63.7524 283.541C63.7524 283.878 63.7524 284.145 63.7008 284.352C63.7098 284.444 63.7098 284.536 63.7008 284.628C63.6876 284.534 63.6876 284.438 63.7008 284.344C63.7008 284.136 63.7008 283.869 63.7008 283.532C63.7008 282.79 63.7008 281.746 63.7782 280.417C63.8557 277.716 63.9933 273.798 64.2084 268.957C64.6128 259.283 65.3958 245.925 66.1271 231.168C66.8584 216.412 67.2542 203.053 67.3058 193.371C67.3058 188.547 67.3661 184.638 67.3833 181.902C67.3833 180.573 67.3833 179.529 67.3833 178.787V177.976C67.3751 177.884 67.378 177.791 67.3919 177.7V177.7Z" fill="#263238"/>
<path d="M150.523 162.831C145.894 157.472 136.851 156.687 132.842 159.595C128.832 162.503 126.604 167.448 126.199 172.392C125.795 177.337 127.06 182.291 128.936 186.881C131.956 194.234 136.421 200.18 143.089 207.756L160.297 230.392L127.129 262.873L140.895 284.628L169.09 261.846L192.407 237.054" fill="#26A8E4"/>
<path d="M30.5845 232.592C31.1241 232.198 31.7305 231.906 32.3741 231.729C33.8996 231.217 35.5085 231 37.1148 231.091C38.7246 231.176 40.3037 231.566 41.7696 232.238C42.3867 232.487 42.9548 232.843 43.4473 233.291C43.4473 233.36 42.759 232.972 41.6405 232.532C38.7136 231.38 35.4943 231.204 32.4601 232.031C31.3072 232.351 30.6189 232.661 30.5845 232.592Z" fill="#263238"/>
<path d="M154.98 167.914C143.399 152.519 130.941 153.787 124.591 153.606V146.849C119.902 146.849 113.492 151.086 110.179 154.124L106.91 158.628C106.066 156.158 104.658 153.919 102.798 152.091C100.938 150.263 98.678 148.897 96.1981 148.1C94.4091 147.531 92.5758 147.112 90.7174 146.849V152.89C75.1615 153.321 66.8415 157.584 56.4566 169.648C55.9146 170.278 54.8563 171.374 53.6431 172.531L22.8842 208.835C16.6033 215.739 10.8817 225.369 12.1895 234.672C13.6608 245.157 19.7438 252.069 31.4365 259.974L63.7872 281.013L63.6237 284.628H140.827C140.827 284.628 193.181 245.89 194.463 231.539C195.487 220.2 177.453 196.175 154.98 167.914ZM65.1122 250.171L42.4667 233.222L66.919 207.843L65.1122 250.171ZM139.235 251.517L138.624 238.969L141.868 206.039C148.321 213.46 160.263 228.182 160.263 230.392L139.235 251.517Z" fill="#26A8E4"/>
<path d="M124.582 153.606C124.418 153.965 124.222 154.309 123.997 154.633C123.584 155.28 122.99 156.203 122.216 157.317C120.194 160.231 117.925 162.965 115.436 165.489C114.705 166.24 113.965 166.93 113.242 167.594L112.881 167.931V167.439C112.859 165.88 112.504 164.344 111.84 162.934C111.309 161.803 110.59 160.77 109.714 159.88C109.191 159.251 108.511 158.772 107.744 158.49C107.45 158.436 107.146 158.485 106.884 158.628C106.884 158.628 107.09 158.266 107.744 158.335C108.574 158.565 109.319 159.032 109.887 159.681C110.821 160.564 111.59 161.607 112.158 162.762C112.87 164.217 113.258 165.81 113.294 167.43L112.932 167.275C113.638 166.611 114.378 165.912 115.101 165.178C117.586 162.665 119.886 159.974 121.984 157.127L123.877 154.538C124.082 154.206 124.319 153.894 124.582 153.606Z" fill="#263238"/>
<path d="M90.7085 152.933C90.9589 153.173 91.1838 153.44 91.3796 153.727C91.8442 154.339 92.4207 155.099 93.1004 156.005C94.5372 157.938 96.4817 160.622 98.6155 163.608C99.0887 164.281 99.5619 164.928 100.009 165.558L99.6221 165.618C100.04 164.224 100.617 162.883 101.343 161.623C101.948 160.605 102.805 159.761 103.829 159.172C104.508 158.777 105.274 158.561 106.058 158.542C106.35 158.516 106.644 158.557 106.918 158.663C106.918 158.663 106.617 158.663 106.058 158.663C105.315 158.743 104.601 158.991 103.967 159.388C103.01 159.984 102.217 160.812 101.661 161.795C100.971 163.043 100.417 164.363 100.009 165.73L99.8717 166.136L99.6221 165.782C99.1747 165.152 98.7015 164.505 98.2283 163.832C96.0945 160.855 94.1845 158.136 92.8251 156.152L91.2247 153.796C91.0209 153.528 90.8478 153.239 90.7085 152.933V152.933Z" fill="#263238"/>
<g opacity="0.1">
<path d="M106.901 158.663C108.187 160.084 109.153 161.766 109.734 163.594C110.314 165.423 110.495 167.355 110.265 169.26C110.093 170.52 109.956 172.194 111.126 172.66C111.986 172.988 112.847 172.427 113.509 171.875C118.527 167.816 122.657 162.763 125.641 157.032C125.927 156.579 126.085 156.057 126.097 155.522C126.09 155.255 125.981 155 125.791 154.812C125.602 154.624 125.348 154.516 125.081 154.512C124.729 154.608 124.423 154.828 124.221 155.133C120.642 159.276 116.684 163.582 113.105 167.724C113.269 165.423 112.559 163.145 111.117 161.347C109.698 159.621 108.149 157.826 106.936 158.663" fill="black"/>
</g>
<path d="M139.906 283.179C139.803 283.072 139.713 282.953 139.639 282.825L138.916 281.737L136.283 277.621L127.232 263.279L127.146 263.141L127.266 263.02L135.337 254.951C142.22 248.151 148.372 242.007 152.897 237.52L158.249 232.273L159.729 230.858C159.893 230.687 160.071 230.531 160.262 230.392C160.116 230.579 159.958 230.758 159.789 230.927L158.378 232.394L153.104 237.744L135.638 255.271L127.55 263.322V263.054L136.455 277.483L139.037 281.66L139.699 282.782C139.778 282.908 139.848 283.041 139.906 283.179Z" fill="#263238"/>
<path d="M130.415 162.391C130.382 162.455 130.339 162.514 130.286 162.563L129.891 163.029C129.521 163.418 129.03 164.039 128.411 164.85C126.711 167.181 125.583 169.88 125.115 172.729C124.567 176.981 125.233 181.302 127.034 185.19C128.015 187.506 129.288 189.687 130.82 191.679C132.48 193.725 134.201 195.839 135.931 198.039C142.874 206.807 148.836 214.979 153.224 220.856L158.387 227.811L159.789 229.71C159.936 229.908 160.047 230.072 160.142 230.21C160.237 230.348 160.262 230.383 160.254 230.392C160.199 230.346 160.15 230.294 160.108 230.236L159.72 229.762L158.266 227.915C157.002 226.301 155.195 223.963 152.975 221.011C148.535 215.186 142.521 207.049 135.595 198.281C133.874 196.089 132.153 193.966 130.484 191.921C128.932 189.895 127.648 187.676 126.664 185.32C124.851 181.359 124.209 176.959 124.814 172.643C125.302 169.758 126.483 167.036 128.256 164.712C128.732 164.086 129.25 163.492 129.805 162.934L130.235 162.494L130.415 162.391Z" fill="#263238"/>
<path d="M159.437 173.54C159.437 173.583 158.963 173.739 158.155 174.17C157.024 174.796 155.994 175.59 155.1 176.526C153.783 177.929 152.628 179.478 151.659 181.143C150.506 182.99 149.361 185.121 147.813 187.183C146.514 188.956 144.835 190.413 142.898 191.447C140.962 192.481 138.819 193.065 136.628 193.155C135.312 193.224 133.994 193.101 132.713 192.793C132.365 192.712 132.023 192.608 131.689 192.482C131.465 192.404 131.345 192.353 131.353 192.335C133.071 192.762 134.843 192.931 136.61 192.836C138.735 192.7 140.805 192.099 142.674 191.075C144.542 190.05 146.164 188.628 147.426 186.907C148.948 184.923 150.101 182.808 151.272 180.953C152.274 179.277 153.473 177.727 154.842 176.336C155.776 175.402 156.857 174.629 158.043 174.049C158.365 173.894 158.698 173.764 159.041 173.661C159.308 173.557 159.428 173.523 159.437 173.54Z" fill="#FAFAFA"/>
<path d="M138.916 249.394C138.85 249.402 138.784 249.402 138.718 249.394L138.133 249.264C137.819 249.187 137.5 249.13 137.178 249.092C136.746 249.015 136.309 248.966 135.87 248.945C133.062 248.816 130.252 249.178 127.568 250.015C125.712 250.544 123.895 251.201 122.13 251.983C120.22 252.846 118.241 253.89 116.107 254.9C113.881 256.005 111.553 256.89 109.155 257.54C107.876 257.874 106.568 258.085 105.249 258.17C103.885 258.237 102.518 258.135 101.179 257.868C98.5446 257.291 96.0276 256.267 93.737 254.839C91.5172 253.51 89.5297 252.009 87.6282 250.602C83.8683 247.772 80.2719 245.424 76.8561 244.406C75.3311 243.929 73.7468 243.671 72.1498 243.638C70.9465 243.617 69.7458 243.756 68.5792 244.052C67.5876 244.332 66.6297 244.719 65.7227 245.209C65.77 245.159 65.8253 245.119 65.8861 245.088L66.4024 244.768C67.0791 244.402 67.7949 244.112 68.5361 243.906C69.714 243.567 70.9332 243.396 72.1584 243.396C73.7789 243.413 75.3891 243.657 76.9422 244.121C80.4353 245.105 84.092 247.47 87.8691 250.291C89.7792 251.681 91.7667 253.174 93.9607 254.477C96.1941 255.875 98.6459 256.887 101.214 257.471C102.516 257.731 103.845 257.83 105.172 257.765C106.461 257.684 107.74 257.481 108.992 257.16C111.362 256.515 113.666 255.648 115.875 254.572C118.009 253.579 119.996 252.526 121.898 251.681C123.691 250.897 125.537 250.24 127.421 249.713C130.141 248.896 132.986 248.58 135.819 248.781C136.875 248.833 137.919 249.04 138.916 249.394V249.394Z" fill="#FAFAFA"/>
<path d="M53.8666 241.757C53.8666 241.757 53.9097 241.852 53.9441 242.05C53.9785 242.249 54.0215 242.542 54.0387 242.913C54.1247 243.985 54.0785 245.063 53.9011 246.123C53.6463 247.71 53.0343 249.219 52.1114 250.533C50.9293 252.102 49.4238 253.397 47.6976 254.33C45.9338 255.391 44.1958 256.272 42.7762 257.307C41.495 258.183 40.3719 259.272 39.4551 260.526C38.8507 261.378 38.5068 262.389 38.4656 263.434C38.4656 264.168 38.5775 264.582 38.5259 264.59C38.4809 264.497 38.4462 264.398 38.4226 264.297C38.3483 264.015 38.305 263.726 38.2936 263.434C38.2536 262.342 38.5544 261.265 39.154 260.353C40.0583 259.034 41.192 257.888 42.5009 256.971C43.9463 255.892 45.6929 254.994 47.4395 253.942C49.1104 253.037 50.5754 251.794 51.7415 250.291C52.647 249.032 53.2667 247.588 53.5569 246.063C53.7588 245.028 53.8511 243.976 53.8322 242.922C53.8156 242.533 53.8271 242.144 53.8666 241.757V241.757Z" fill="#FAFAFA"/>
<path d="M183.708 206.039C181.94 206.325 180.222 206.863 178.606 207.635C176.873 208.484 175.317 209.656 174.02 211.087C173.262 211.94 172.609 212.882 172.076 213.892C171.508 214.927 171.12 216.11 170.561 217.283C170.052 218.456 169.277 219.493 168.298 220.312C167.382 221.067 166.339 221.651 165.218 222.038C163.334 222.662 161.347 222.911 159.368 222.772C158.046 222.69 156.73 222.531 155.427 222.297C154.946 222.238 154.471 222.137 154.007 221.995C154.492 221.997 154.976 222.04 155.453 222.124C156.382 222.228 157.724 222.401 159.376 222.452C161.311 222.551 163.247 222.279 165.081 221.65C166.195 221.286 167.222 220.694 168.096 219.911C168.969 219.128 169.671 218.172 170.157 217.102C170.699 215.963 171.095 214.763 171.688 213.65C172.238 212.611 172.918 211.645 173.71 210.777C175.051 209.308 176.668 208.121 178.468 207.282C179.669 206.71 180.943 206.309 182.254 206.091C182.609 206.024 182.968 205.983 183.329 205.97C183.459 205.97 183.587 205.993 183.708 206.039V206.039Z" fill="#FAFAFA"/>
<path d="M140.947 213.322C140.882 213.346 140.816 213.363 140.749 213.374L140.164 213.504C139.647 213.616 138.882 213.754 137.884 213.918C135.077 214.353 132.24 214.552 129.4 214.513C125.17 214.487 120.972 213.776 116.968 212.408C114.625 211.546 112.362 210.481 110.205 209.223C107.924 207.876 105.535 206.722 103.064 205.772C101.807 205.326 100.501 205.036 99.1747 204.909C97.8837 204.814 96.586 204.88 95.3115 205.107C92.9065 205.591 90.5867 206.432 88.4284 207.601C84.2469 209.819 80.7365 212.287 77.5616 214.004C75.1062 215.441 72.4321 216.465 69.6461 217.033C68.8904 217.194 68.1211 217.28 67.3488 217.292H66.7465C66.6089 217.292 66.54 217.292 66.54 217.292H66.7465L67.3402 217.223C68.1057 217.178 68.8658 217.065 69.6116 216.886C72.3565 216.225 74.981 215.136 77.3896 213.659C80.5214 211.933 84.006 209.43 88.2047 207.161C90.4068 205.953 92.7759 205.08 95.2341 204.572C96.5482 204.337 97.8868 204.27 99.2177 204.374C100.579 204.492 101.921 204.782 103.21 205.236C105.705 206.207 108.115 207.388 110.411 208.766C112.546 210.019 114.786 211.081 117.105 211.942C121.064 213.314 125.213 214.053 129.4 214.134C132.227 214.194 135.055 214.039 137.858 213.668C138.856 213.538 139.622 213.435 140.146 213.348L140.74 213.262C140.812 213.268 140.883 213.288 140.947 213.322V213.322Z" fill="#FAFAFA"/>
<path d="M56.8438 218.328C56.9418 217.89 56.9418 217.436 56.8438 216.999C56.6013 216.439 56.2288 215.945 55.7573 215.559C55.2858 215.174 54.729 214.907 54.1335 214.781C53.385 214.556 52.5332 214.427 51.6212 214.211C50.6102 214.024 49.6613 213.588 48.8593 212.943C48.0186 212.182 47.3648 211.237 46.9493 210.181C46.5255 209.061 46.1973 207.906 45.9684 206.729C45.7371 205.585 45.409 204.462 44.9876 203.373C44.5662 202.377 44.0228 201.438 43.37 200.577C42.2634 199.115 40.8469 197.918 39.223 197.073C38.1075 196.509 36.9163 196.111 35.6868 195.891C34.8264 195.718 34.3359 195.684 34.3359 195.64C34.4555 195.62 34.5777 195.62 34.6973 195.64C35.0372 195.647 35.3763 195.676 35.7126 195.727C36.9672 195.901 38.185 196.28 39.3176 196.849C41.0023 197.683 42.4739 198.893 43.6196 200.387C44.3137 201.27 44.892 202.238 45.3403 203.269C45.7793 204.387 46.1163 205.542 46.347 206.721C46.5715 207.865 46.8939 208.989 47.3106 210.078C47.6953 211.066 48.3018 211.952 49.083 212.667C49.8282 213.283 50.7158 213.701 51.6642 213.883C52.5246 214.108 53.385 214.254 54.1852 214.505C54.8158 214.656 55.3994 214.962 55.8842 215.394C56.369 215.826 56.7399 216.371 56.9642 216.981C57.0461 217.325 57.0461 217.682 56.9642 218.025C56.9382 218.131 56.8977 218.233 56.8438 218.328V218.328Z" fill="#FAFAFA"/>
<path d="M124.797 174.049C124.001 173.597 123.151 173.249 122.268 173.014C121.226 172.784 120.149 172.769 119.101 172.971C117.71 173.249 116.36 173.705 115.083 174.325C113.647 174.981 112.132 175.818 110.48 176.699C108.731 177.676 106.875 178.447 104.948 178.994C102.781 179.526 100.528 179.599 98.3316 179.21C95.99 178.785 93.7194 178.032 91.5861 176.975C87.1895 174.826 83.5328 171.944 80.0052 169.7C76.9629 167.582 73.5687 166.024 69.9817 165.1C67.5573 164.504 65.0285 164.474 62.5909 165.014C61.7162 165.257 60.8547 165.545 60.0098 165.877C60.8199 165.419 61.6882 165.074 62.5909 164.85C65.0526 164.239 67.6237 164.221 70.0935 164.798C73.735 165.686 77.1843 167.233 80.272 169.363C83.834 171.599 87.4906 174.464 91.827 176.578C93.921 177.615 96.1474 178.358 98.4434 178.787C100.581 179.175 102.775 179.113 104.888 178.606C106.788 178.071 108.62 177.321 110.351 176.371C112.003 175.508 113.535 174.645 114.997 174.041C116.304 173.43 117.683 172.989 119.101 172.729C120.183 172.547 121.29 172.591 122.354 172.858C123.015 173.04 123.651 173.304 124.247 173.644C124.441 173.763 124.625 173.899 124.797 174.049V174.049Z" fill="#FAFAFA"/>
<path d="M119.936 283.61L122.337 284.801H136.103L138.882 282.531L128.824 265.937C127.594 266.472 122.19 267.317 120.444 267.939C118.938 268.471 117.351 268.737 115.755 268.724C113.975 268.762 112.196 268.617 110.446 268.293C110.32 268.256 110.197 268.213 110.076 268.163C109.84 268.062 109.585 268.012 109.327 268.016C107.839 267.887 106.66 269.449 107.495 270.683C108.329 271.917 112.399 273.565 117.596 273.41H117.845C122.405 273.41 118.224 277.241 115.514 279.511C115.035 279.898 114.663 280.403 114.435 280.975C114.206 281.548 114.127 282.17 114.206 282.782C114.221 283.002 114.284 283.216 114.389 283.409C114.495 283.603 114.641 283.771 114.817 283.903C116.004 284.628 119.936 283.61 119.936 283.61Z" fill="#FFBE9D"/>
<path d="M63.7613 281.539C63.7516 281.459 63.7516 281.378 63.7613 281.297C63.7613 281.107 63.7613 280.874 63.7613 280.581C63.7613 279.917 63.813 279.002 63.856 277.837C63.9592 275.412 64.1055 271.969 64.2776 267.732C64.6389 259.163 65.138 247.392 65.6628 234.387C66.1876 221.382 66.5232 209.569 66.7727 201.034C66.8587 196.788 66.9276 193.345 66.9792 190.92C66.9792 189.755 67.0222 188.84 67.0394 188.176C67.0394 187.882 67.0394 187.649 67.0394 187.46C67.0281 187.379 67.0281 187.298 67.0394 187.218C67.0529 187.298 67.0529 187.38 67.0394 187.46C67.0394 187.649 67.0394 187.882 67.0394 188.176C67.0394 188.84 67.0394 189.755 67.0394 190.929C67.0394 193.31 67.0394 196.771 66.9706 201.043C66.8501 209.586 66.506 221.382 65.9983 234.404C65.4907 247.426 64.9315 259.214 64.4841 267.74C64.2431 271.977 64.0539 275.421 63.9162 277.846C63.8416 278.996 63.7814 279.911 63.7355 280.59L63.6753 281.297C63.714 281.374 63.7429 281.455 63.7613 281.539V281.539Z" fill="#263238"/>
<path d="M101.214 283.179C101.2 283.073 101.2 282.965 101.214 282.859C101.214 282.626 101.214 282.316 101.137 281.919L100.887 278.294C100.784 276.715 100.655 274.791 100.586 272.547C100.517 270.303 100.354 267.749 100.336 264.927C100.319 262.105 100.216 259.016 100.259 255.693C100.259 254.028 100.259 252.311 100.259 250.516C100.259 248.721 100.336 246.926 100.379 245.053C100.603 237.597 100.982 229.391 101.584 220.796C102.788 203.606 104.32 188.081 105.301 176.785C105.791 171.184 106.161 166.637 106.454 163.469C106.583 161.916 106.695 160.699 106.763 159.845C106.807 159.448 106.832 159.137 106.858 158.904C106.865 158.797 106.882 158.69 106.91 158.585C106.91 158.585 106.91 158.697 106.91 158.913L106.867 159.854C106.807 160.717 106.738 161.925 106.634 163.478C106.437 166.637 106.084 171.184 105.628 176.819C104.767 188.038 103.244 203.571 102.04 220.787C101.438 229.373 101.042 237.571 100.801 245.027C100.801 246.891 100.706 248.712 100.663 250.473C100.62 252.233 100.663 253.924 100.603 255.65C100.551 258.973 100.603 262.062 100.603 264.884C100.603 267.706 100.732 270.251 100.784 272.495C100.835 274.739 100.93 276.663 101.016 278.242C101.102 279.822 101.137 281.013 101.18 281.867V282.816C101.206 282.935 101.218 283.057 101.214 283.179Z" fill="#263238"/>
<path d="M107.547 198.169C107.547 198.169 107.985 197.919 108.519 198.385C108.671 198.518 108.789 198.687 108.863 198.876C108.936 199.066 108.963 199.27 108.94 199.472C108.886 199.723 108.758 199.953 108.573 200.131C108.387 200.309 108.153 200.426 107.9 200.469C107.647 200.512 107.387 200.478 107.154 200.371C106.921 200.264 106.725 200.089 106.591 199.869C106.499 199.687 106.45 199.486 106.45 199.282C106.45 199.078 106.499 198.877 106.591 198.695C106.944 198.091 107.452 198.126 107.452 198.178C107.452 198.229 107.082 198.333 106.884 198.833C106.821 198.968 106.788 199.116 106.788 199.265C106.788 199.414 106.821 199.561 106.884 199.696C106.979 199.832 107.11 199.937 107.262 200C107.415 200.063 107.582 200.08 107.744 200.05C107.911 200.028 108.067 199.957 108.194 199.847C108.321 199.736 108.413 199.591 108.459 199.429C108.478 199.287 108.467 199.142 108.426 199.005C108.384 198.868 108.313 198.742 108.218 198.635C107.942 198.195 107.547 198.238 107.547 198.169Z" fill="#263238"/>
<path d="M105.129 236.898C105.129 236.898 105.576 236.648 106.11 237.114C106.259 237.252 106.374 237.423 106.448 237.613C106.521 237.803 106.549 238.007 106.531 238.21C106.483 238.465 106.356 238.698 106.167 238.874C105.978 239.051 105.738 239.163 105.481 239.194C105.23 239.246 104.968 239.217 104.734 239.11C104.501 239.003 104.307 238.824 104.182 238.598C104.089 238.418 104.041 238.219 104.041 238.016C104.041 237.813 104.089 237.613 104.182 237.433C104.535 236.821 105.043 236.855 105.043 236.907C105.043 236.959 104.673 237.062 104.475 237.571C104.411 237.706 104.377 237.854 104.377 238.003C104.377 238.152 104.411 238.3 104.475 238.434C104.564 238.581 104.695 238.698 104.85 238.77C105.006 238.842 105.18 238.865 105.349 238.838C105.518 238.81 105.675 238.732 105.8 238.614C105.925 238.496 106.012 238.343 106.049 238.175C106.069 238.032 106.058 237.886 106.017 237.748C105.975 237.609 105.904 237.481 105.808 237.373C105.533 236.924 105.129 236.967 105.129 236.898Z" fill="#263238"/>
<path d="M166.87 263.529C166.482 263.525 166.095 263.476 165.718 263.382C164.677 263.163 163.662 262.837 162.689 262.407C159.449 260.978 156.74 258.563 154.945 255.504C154.039 253.792 153.321 251.986 152.803 250.119C152.378 248.627 151.737 247.205 150.902 245.899C150.33 245.026 149.586 244.28 148.716 243.707C148.088 243.31 147.692 243.181 147.71 243.146C147.727 243.112 147.813 243.146 148.002 243.206C148.278 243.299 148.546 243.414 148.802 243.552C149.738 244.09 150.544 244.829 151.16 245.718C152.053 247.029 152.741 248.469 153.199 249.989C153.729 251.822 154.447 253.595 155.341 255.279C157.089 258.282 159.697 260.687 162.827 262.183C164.139 262.733 165.491 263.183 166.87 263.529V263.529Z" fill="#FAFAFA"/>
<path d="M255 284.775L240.374 242.205L247.136 201.345C249.107 190.333 250.208 180.634 247.257 175.085C239.367 160.302 229.851 158.982 216.833 155.591C214.149 154.892 193.732 154.201 191.486 154.728C173.779 156.721 162.431 166.136 156.21 181.479L149.465 208.74L140.198 237.218C139.423 238.871 138.286 240.329 136.873 241.482C135.46 242.636 133.805 243.455 132.033 243.88L96.3184 256.134L96.6195 263.158L96.3184 272.651L143.898 263.693C153.431 261.898 163.128 258.369 165.864 249.135L171.026 233.938C173.53 240.376 176.257 246.27 176.257 246.27L172.816 284.611L255 284.775Z" fill="#1A6EA6"/>
<path d="M242.748 209.137L229.154 254.718C228.118 258.195 226.24 261.36 223.688 263.932C221.136 266.504 217.988 268.402 214.527 269.458L157.948 284.585L150.445 264.987L201.578 245.942L214.131 200.283C214.131 200.283 217.031 174.766 240.046 176.12" fill="#1A6EA6"/>
<path d="M240.046 176.043H239.358C238.911 176.043 238.231 175.982 237.345 176.043C234.753 176.116 232.194 176.642 229.782 177.596C228.038 178.278 226.396 179.198 224.904 180.332C223.132 181.698 221.565 183.31 220.249 185.121C217.094 189.615 215.051 194.797 214.286 200.24V200.24C210.845 212.934 206.543 228.493 201.785 245.908V246.011H201.69L150.523 265.203L150.652 264.91L151.985 268.362L158.146 284.473L157.879 284.335L206.491 271.391L211.972 269.932C212.832 269.682 213.77 269.466 214.648 269.207C215.509 268.933 216.354 268.607 217.177 268.232C221.896 266.09 225.689 262.316 227.863 257.601C228.512 256.143 229.047 254.637 229.464 253.096L232.045 244.466C235.357 233.481 238.016 224.618 239.849 218.578C240.769 215.54 241.483 213.193 241.974 211.588L242.533 209.776C242.662 209.37 242.739 209.172 242.739 209.172C242.739 209.172 242.688 209.379 242.576 209.793C242.464 210.207 242.283 210.82 242.051 211.614C241.587 213.219 240.89 215.583 240.003 218.621C238.197 224.731 235.581 233.576 232.337 244.579C231.517 247.329 230.657 250.205 229.756 253.208C229.346 254.768 228.811 256.291 228.156 257.765C227.458 259.295 226.593 260.742 225.575 262.079C223.388 264.887 220.561 267.127 217.332 268.612C216.492 268.994 215.63 269.326 214.751 269.604C213.891 269.872 212.97 270.088 212.067 270.338L206.586 271.805L157.991 284.775L157.802 284.827L157.733 284.637L151.564 268.526L150.23 265.074L150.153 264.858L150.359 264.78L201.51 245.735L201.38 245.873C206.19 228.459 210.483 212.917 213.985 200.223C214.768 194.732 216.851 189.509 220.06 184.992C221.395 183.169 222.986 181.55 224.783 180.185C226.294 179.048 227.956 178.13 229.722 177.458C232.155 176.516 234.736 176.013 237.345 175.974C238.205 175.913 238.911 175.974 239.358 175.974C239.806 175.974 240.046 176.043 240.046 176.043Z" fill="#263238"/>
<path d="M204.401 235.673C204.401 235.673 204.16 235.725 203.721 235.725C203.104 235.724 202.49 235.654 201.888 235.518C199.886 235.044 198.037 234.063 196.52 232.67C194.985 231.305 193.789 229.6 193.026 227.691C192.889 227.366 192.777 227.031 192.691 226.69C192.613 226.433 192.555 226.17 192.519 225.904C192.45 225.473 192.424 225.24 192.459 225.231C192.493 225.223 192.691 226.172 193.319 227.57C194.144 229.387 195.336 231.012 196.821 232.342C198.299 233.683 200.065 234.663 201.983 235.207C203.437 235.587 204.401 235.587 204.401 235.673Z" fill="#263238"/>
<path d="M170.802 200.999C170.688 201.459 170.529 201.907 170.329 202.337C169.994 203.2 169.469 204.425 168.927 205.953C167.808 209.008 166.234 213.322 166.07 218.302C165.989 220.64 166.306 222.974 167.008 225.205C167.583 227.016 168.366 228.753 169.34 230.383C169.995 231.491 170.71 232.563 171.482 233.593C171.793 233.957 172.08 234.341 172.342 234.741C172.342 234.741 172.239 234.663 172.067 234.491C171.895 234.318 171.663 234.051 171.37 233.697C170.534 232.703 169.769 231.65 169.082 230.547C168.06 228.905 167.236 227.146 166.629 225.309C165.899 223.045 165.564 220.671 165.64 218.293C165.896 214.002 166.894 209.788 168.591 205.841C169.202 204.313 169.753 203.105 170.131 202.268C170.324 201.829 170.548 201.405 170.802 200.999V200.999Z" fill="#263238"/>
<path d="M206.56 251.983C205.591 249.38 203.727 247.21 201.303 245.864C201.721 245.905 202.123 246.047 202.473 246.279C204.265 247.244 205.638 248.839 206.328 250.757C206.504 251.141 206.584 251.561 206.56 251.983V251.983Z" fill="#263238"/>
<path d="M151.486 267.714C151.486 267.714 135.303 269.164 135.526 279.709L155.685 278.734L151.486 267.714Z" fill="#B78876"/>
<path d="M177.573 91.0158C176.094 98.1898 174.683 105.381 173.34 112.59C171.62 121.728 170.071 131.264 172.643 140.204C174.054 145.097 176.653 149.559 179.225 153.951C180.671 156.428 182.254 159.034 184.818 160.302C188.26 162.028 192.716 160.665 195.487 157.929C198.257 155.194 199.668 151.388 200.649 147.574C202.508 140.204 202.921 132.541 203.23 124.947C203.54 117.353 203.686 109.414 201.553 102.088C199.419 94.761 194.609 87.7366 187.511 84.8284" fill="#263238"/>
<path d="M178.744 85.2427C180.784 83.6721 183.256 82.7684 185.825 82.6538C187.89 78.4598 192.785 76.5441 197.363 75.6466C204.108 74.3349 203.385 74.1451 209.657 76.9238C215.93 79.7025 224.861 87.564 226.005 94.3555C227.036 100.321 228.938 106.101 231.649 111.511C233.37 115.092 236.725 117.552 238.721 121.004C239.79 122.878 240.418 124.973 240.558 127.127C240.698 129.282 240.347 131.441 239.53 133.439C237.913 137.322 234.48 140.757 234.807 144.959C234.996 147.393 234.901 149.144 235.865 151.388C239.126 159.017 237.586 169.191 230.582 173.592C223.579 177.993 213.443 176.457 208.031 170.14C203.342 164.678 202.43 156.894 202.869 149.697C203.308 142.5 204.96 135.354 204.495 128.123" fill="#263238"/>
<path d="M186.78 284.577L186.685 282.091L150.196 278.234L134.176 232.135L65.7144 230.581L86.424 284.568C120.295 284.844 153.747 284.847 186.78 284.577Z" fill="#263238"/>
<path d="M103.735 258.325C104.088 258.941 104.615 259.437 105.249 259.752C105.884 260.067 106.597 260.186 107.299 260.095C108.001 260.003 108.66 259.705 109.193 259.237C109.726 258.77 110.109 258.154 110.293 257.469C110.477 256.783 110.454 256.058 110.228 255.385C110.001 254.713 109.581 254.123 109.02 253.69C108.458 253.257 107.782 253 107.076 252.953C106.369 252.906 105.665 253.07 105.051 253.424C104.229 253.899 103.628 254.682 103.381 255.601C103.134 256.52 103.261 257.5 103.735 258.325V258.325Z" fill="white"/>
<path d="M203.394 173.454C211.602 173.454 218.984 166.438 218.743 156.014L220.223 96.4697C220.247 95.2236 219.805 94.0138 218.983 93.0791C218.161 92.1444 217.019 91.5529 215.784 91.4214L191.323 88.8325C189.329 88.6201 187.313 88.8136 185.396 89.4015C183.478 89.9893 181.699 90.9594 180.165 92.2535C178.63 93.5477 177.372 95.1393 176.465 96.9329C175.559 98.7265 175.023 100.685 174.889 102.692C174.304 112.124 173.951 123.653 175.061 130.686C177.298 144.838 188.113 146.633 188.113 146.633L187.847 156.514C187.434 167.077 195.263 173.454 203.394 173.454Z" fill="#B78876"/>
<path d="M180.361 110.406C180.359 110.875 180.536 111.326 180.856 111.667C181.177 112.008 181.616 112.211 182.082 112.236C182.313 112.256 182.546 112.229 182.766 112.157C182.986 112.084 183.189 111.968 183.364 111.815C183.538 111.662 183.68 111.475 183.781 111.265C183.881 111.056 183.938 110.828 183.949 110.596C183.952 110.128 183.775 109.676 183.454 109.336C183.134 108.995 182.695 108.791 182.228 108.767C181.998 108.747 181.765 108.774 181.545 108.846C181.324 108.918 181.121 109.035 180.947 109.188C180.772 109.341 180.631 109.528 180.53 109.737C180.429 109.947 180.372 110.174 180.361 110.406Z" fill="#263238"/>
<path d="M177.384 108.732C177.608 108.965 178.985 107.947 180.929 107.956C182.874 107.964 184.302 108.931 184.508 108.698C184.715 108.465 184.388 108.163 183.769 107.705C182.922 107.128 181.918 106.827 180.895 106.842C179.889 106.821 178.903 107.124 178.081 107.705C177.479 108.197 177.281 108.62 177.384 108.732Z" fill="#263238"/>
<path d="M199.152 110.769C199.147 111.238 199.324 111.691 199.645 112.032C199.966 112.373 200.406 112.576 200.873 112.598C201.104 112.618 201.337 112.591 201.557 112.519C201.777 112.447 201.981 112.33 202.155 112.177C202.329 112.024 202.471 111.837 202.572 111.628C202.672 111.419 202.73 111.191 202.74 110.959C202.745 110.49 202.569 110.037 202.248 109.696C201.927 109.355 201.487 109.152 201.019 109.129C200.789 109.109 200.556 109.136 200.336 109.209C200.116 109.281 199.912 109.397 199.738 109.55C199.563 109.703 199.422 109.89 199.321 110.1C199.221 110.309 199.163 110.537 199.152 110.769V110.769Z" fill="#263238"/>
<path d="M196.519 109.095C196.743 109.328 198.111 108.309 200.064 108.318C202.017 108.327 203.437 109.302 203.643 109.06C203.747 108.957 203.523 108.525 202.895 108.076C202.053 107.495 201.051 107.194 200.03 107.213C199.017 107.209 198.029 107.526 197.208 108.12C196.614 108.56 196.407 108.983 196.519 109.095Z" fill="#263238"/>
<path d="M189.456 123.566C188.431 123.246 187.37 123.054 186.298 122.997C185.799 122.945 185.326 122.85 185.24 122.505C185.202 121.991 185.319 121.477 185.575 121.029C186.04 119.821 186.53 118.561 187.046 117.232C189.086 111.83 190.565 107.386 190.342 107.308C190.118 107.231 188.294 111.537 186.255 116.948L184.844 120.762C184.535 121.366 184.447 122.059 184.594 122.721C184.664 122.896 184.774 123.052 184.914 123.178C185.054 123.304 185.222 123.395 185.403 123.446C185.684 123.519 185.973 123.56 186.264 123.566C187.323 123.702 188.396 123.702 189.456 123.566V123.566Z" fill="#263238"/>
<path d="M188.113 146.702C194.753 146.803 201.29 145.056 206.999 141.654C206.999 141.654 202.413 151.371 188.303 150.042L188.113 146.702Z" fill="#AA6550"/>
<path d="M190.281 128.27C190.653 127.804 191.135 127.44 191.684 127.213C192.234 126.985 192.831 126.9 193.422 126.967C193.851 127.007 194.268 127.133 194.648 127.337C195.027 127.542 195.363 127.821 195.633 128.157C195.894 128.483 196.049 128.881 196.077 129.298C196.104 129.715 196.004 130.13 195.788 130.487C195.471 130.84 195.056 131.091 194.596 131.206C194.136 131.321 193.652 131.296 193.207 131.135C192.289 130.805 191.444 130.298 190.72 129.642C190.503 129.484 190.316 129.288 190.17 129.063C190.096 128.957 190.057 128.831 190.057 128.701C190.057 128.572 190.096 128.445 190.17 128.339" fill="#AA6550"/>
<path d="M195.186 124.921C194.868 124.921 194.859 127.018 193.052 128.52C191.245 130.021 189 129.797 188.982 130.09C188.982 130.22 189.481 130.505 190.436 130.531C191.688 130.554 192.907 130.132 193.878 129.34C194.796 128.584 195.388 127.502 195.53 126.319C195.564 125.43 195.332 124.904 195.186 124.921Z" fill="#263238"/>
<path d="M195.642 105.677C195.831 106.204 197.776 105.954 200.064 106.23C202.353 106.506 204.194 107.093 204.495 106.653C204.633 106.428 204.306 105.928 203.566 105.41C202.572 104.781 201.447 104.387 200.279 104.258C199.11 104.13 197.927 104.27 196.821 104.668C195.986 105.004 195.564 105.419 195.642 105.677Z" fill="#263238"/>
<path d="M178.107 103.08C178.443 103.52 179.785 103.08 181.402 103.08C183.02 103.08 184.379 103.382 184.689 102.916C184.827 102.692 184.612 102.251 184.018 101.829C183.216 101.327 182.284 101.075 181.339 101.104C180.394 101.133 179.479 101.442 178.709 101.993C178.141 102.407 177.952 102.864 178.107 103.08Z" fill="#263238"/>
<path d="M175.182 100.379C180.49 97.2895 185.661 94.4245 188.948 89.2468C190.781 94.4245 194.36 97.0134 199.109 99.7662C203.858 102.519 209.167 104.133 214.424 105.712C211.765 108.301 211.413 112.486 212.024 116.154C212.634 119.821 214.037 123.351 214.269 127.061C214.57 132.023 212.764 136.882 212.652 141.844C212.497 148.644 215.491 155.073 218.425 161.209L231.167 153.77L229.335 120.581L229.489 97.0997L209.657 78.5893L184.5 81.3507L175.182 100.379Z" fill="#263238"/>
<path d="M172.351 170.14C178.813 176.699 178.124 188.374 185.257 194.225C189.611 197.815 195.969 198.152 201.312 196.339C206.655 194.527 211.146 190.86 215.268 187.002C219.389 183.145 223.286 178.985 227.976 175.844C232.536 172.798 240.322 170.925 241.423 165.549C242.232 161.606 238.111 156.868 237.328 152.924C236.098 146.659 242.852 141.818 243.979 135.536C246.233 122.988 239.625 108.249 232.742 97.5656C225.859 86.8823 221.936 74.8009 204.521 73.7912C188.905 73.0923 178.271 80.6086 173.074 91.4732C170.493 96.9271 169.865 103.089 169.357 109.112C168.178 123.178 167.524 138.081 174.003 150.611C175.345 153.2 176.946 156.497 175.139 158.792C173.487 160.889 169.744 160.803 168.695 163.271C167.645 165.739 170.407 168.164 172.351 170.14ZM191.822 86.7615C193.913 86.6752 200.116 86.7615 207.034 96.0037C211.172 101.535 211.172 110.501 211.077 118.311C211.009 124.119 211.077 138.815 211.077 138.815C211.077 138.815 211.989 157.368 205.7 159.017C197.956 161.036 191.22 159.647 185.455 154.124C179.69 148.601 176.335 140.869 175.018 132.99C173.702 125.111 172.962 117.06 173.995 109.129C174.542 104.252 176.155 99.5552 178.718 95.3737C180.173 93.0926 182.093 91.1459 184.351 89.6616C186.61 88.1773 189.156 87.189 191.822 86.7615V86.7615Z" fill="#26A8E4"/>
<g opacity="0.3">
<path d="M240.046 159.474C234.884 162.287 231.322 166.473 227.141 170.606C222.959 174.74 218.244 178.718 212.514 180.202C206.784 181.686 199.892 179.917 197.027 174.757C213.176 177.51 231.924 164.574 237.465 149.101C237.122 150.446 237.093 151.851 237.379 153.209C238.142 155.349 239.032 157.441 240.046 159.474Z" fill="black"/>
</g>
<g opacity="0.3">
<path d="M175.836 155.211C176.397 157.305 177.379 159.262 178.721 160.963C180.063 162.663 181.736 164.071 183.64 165.1C184.524 165.464 185.353 165.952 186.1 166.55C186.469 166.857 186.738 167.268 186.873 167.729C187.008 168.19 187.002 168.681 186.857 169.139C186.586 169.608 186.159 169.966 185.651 170.152C185.144 170.338 184.587 170.34 184.078 170.157C183.085 169.763 182.199 169.136 181.497 168.328C178.684 165.601 175.784 162.848 174.993 159.008C175.45 158.45 175.769 157.79 175.922 157.084C175.961 156.458 175.932 155.83 175.836 155.211V155.211Z" fill="black"/>
</g>
<path d="M236.184 152.165C236.124 152.344 236.043 152.515 235.943 152.674C235.762 152.993 235.53 153.476 235.16 154.063C234.15 155.752 233.035 157.374 231.821 158.922C230.04 161.229 228.068 163.383 225.928 165.359C223.323 167.818 220.368 169.874 217.16 171.46C215.465 172.205 213.72 172.83 211.938 173.333C210.284 173.823 208.6 174.2 206.896 174.464C204.018 174.932 201.093 175.039 198.189 174.783C196.23 174.609 194.293 174.239 192.407 173.678C191.736 173.506 191.237 173.29 190.893 173.178C190.716 173.119 190.543 173.047 190.376 172.962C190.376 172.919 191.116 173.16 192.459 173.514C194.345 174.003 196.272 174.324 198.215 174.472C201.089 174.675 203.978 174.533 206.819 174.049C208.502 173.779 210.166 173.398 211.8 172.91C213.561 172.41 215.286 171.79 216.963 171.055C220.13 169.488 223.055 167.467 225.644 165.057C227.777 163.103 229.757 160.985 231.563 158.723C232.791 157.201 233.94 155.617 235.005 153.977C235.392 153.399 235.65 152.933 235.865 152.631C235.961 152.469 236.068 152.313 236.184 152.165V152.165Z" fill="#263238"/>
<path d="M196.588 168.173C196.256 168.304 195.909 168.394 195.556 168.44C194.607 168.613 193.646 168.7 192.682 168.699C189.463 168.715 186.302 167.845 183.541 166.186C180.78 164.526 178.526 162.139 177.023 159.284C176.572 158.429 176.195 157.537 175.896 156.618C175.771 156.284 175.69 155.936 175.655 155.582C176.144 156.792 176.695 157.976 177.307 159.129C178.845 161.879 181.073 164.18 183.77 165.802C186.466 167.424 189.538 168.313 192.682 168.38C193.987 168.38 195.291 168.311 196.588 168.173V168.173Z" fill="#263238"/>
<path d="M193.233 189.557C193.396 189.501 193.563 189.457 193.732 189.427C194.059 189.358 194.592 189.28 195.177 189.134C196.946 188.748 198.689 188.259 200.4 187.667C206.03 185.663 211.329 182.824 216.119 179.244C220.903 175.646 225.433 171.722 229.679 167.499L233.585 163.694L234.652 162.667C234.775 162.544 234.907 162.432 235.048 162.33C234.957 162.479 234.847 162.615 234.721 162.736L233.706 163.815C232.845 164.747 231.529 166.093 229.903 167.724C225.709 172.025 221.193 175.997 216.395 179.607C211.573 183.217 206.213 186.039 200.512 187.969C198.781 188.538 197.013 188.985 195.22 189.306C194.592 189.427 194.093 189.47 193.758 189.522C193.585 189.559 193.409 189.571 193.233 189.557V189.557Z" fill="#263238"/>
<path d="M496.228 207.67L465.873 171.728L465.805 171.806C464.609 170.615 463.559 169.571 463.026 168.949C452.512 156.738 444.157 152.553 428.059 152.329L396.784 153.01C390.968 153.485 377.769 150.991 365.552 167.223C343.319 195.183 325.475 218.949 326.482 230.167C327.746 244.363 381.736 284.844 381.736 284.844L455.962 284.775L455.807 279.114L487.796 258.3C499.343 250.473 505.374 243.629 506.837 233.274C508.11 224.058 502.423 214.565 496.228 207.67ZM360.286 229.028C360.286 226.845 371.988 213.081 378.354 205.728L381.676 237.511L381.073 249.92L360.286 229.028ZM454.422 248.6L452.623 206.729L476.818 231.833L454.422 248.6Z" fill="#1A6EA6"/>
<path d="M408.054 225.214L353.205 252.402C351.748 253.125 351.151 254.895 351.871 256.356L369.601 292.337C370.321 293.799 372.086 294.398 373.543 293.675L428.392 266.487C429.849 265.764 430.446 263.994 429.726 262.533L411.996 226.552C411.276 225.09 409.511 224.491 408.054 225.214Z" fill="#E0E0E0"/>
<path d="M390.572 256.065C391.144 255.713 391.806 255.54 392.476 255.566C393.146 255.593 393.793 255.818 394.335 256.213C394.878 256.608 395.291 257.156 395.523 257.786C395.755 258.417 395.796 259.103 395.639 259.757C395.483 260.411 395.137 261.003 394.645 261.46C394.153 261.916 393.537 262.216 392.874 262.322C392.212 262.427 391.534 262.333 390.925 262.052C390.316 261.771 389.804 261.315 389.453 260.742C389.219 260.361 389.063 259.938 388.992 259.497C388.922 259.055 388.939 258.605 389.043 258.17C389.147 257.735 389.336 257.325 389.598 256.964C389.86 256.603 390.191 256.297 390.572 256.065V256.065Z" fill="white"/>
<path d="M452.193 176.906C452.205 176.994 452.205 177.084 452.193 177.173C452.193 177.38 452.193 177.648 452.193 177.976C452.193 178.709 452.193 179.702 452.236 181.065C452.236 183.775 452.236 187.641 452.314 192.404C452.365 201.983 452.735 215.212 453.475 229.805C454.215 244.397 454.972 257.618 455.377 267.188C455.583 271.977 455.721 275.818 455.798 278.527C455.798 279.848 455.85 280.874 455.876 281.608V282.411C455.885 282.502 455.885 282.595 455.876 282.687C455.867 282.598 455.867 282.508 455.876 282.419C455.876 282.212 455.859 281.945 455.824 281.617C455.824 280.883 455.738 279.891 455.669 278.536C455.532 275.826 455.342 271.969 455.101 267.205C454.577 257.618 453.863 244.415 453.071 229.831C452.279 215.247 452.004 201.992 452.038 192.404C452.038 187.641 452.082 183.775 452.099 181.065C452.099 179.745 452.099 178.709 452.142 177.976C452.142 177.648 452.142 177.38 452.142 177.173C452.185 176.992 452.193 176.906 452.193 176.906Z" fill="#263238"/>
<path d="M374.939 158.128C378.896 155.246 383.5 156.117 387.466 158.991C391.432 161.864 393.635 166.757 394.031 171.65C394.426 176.543 393.17 181.445 391.32 185.984C388.335 193.259 383.921 199.144 377.322 206.643L360.321 229.028L393.153 261.165L379.55 282.687L352.069 260.509C342.683 252.561 334.698 244.423 328.839 236.018" fill="#1A6EA6"/>
<path d="M328.822 236.018L329.02 236.277L329.596 237.054C330.104 237.744 330.861 238.78 331.885 240.039C334.83 243.733 337.99 247.249 341.349 250.568C343.5 252.708 345.952 255.012 348.688 257.428C351.424 259.844 354.504 262.304 357.774 264.936L379.628 282.531L379.327 282.575L392.912 261.052V261.32L375.98 244.751L360.097 229.218L359.959 229.08L360.071 228.925C366.094 221.029 371.79 213.521 377.09 206.54C380.33 202.97 383.334 199.191 386.081 195.226C388.532 191.611 390.518 187.7 391.992 183.585C393.341 179.969 393.969 176.122 393.841 172.263C393.697 168.97 392.697 165.772 390.942 162.986C389.497 160.748 387.483 158.937 385.109 157.739C383.368 156.812 381.407 156.379 379.439 156.488C378.234 156.592 377.063 156.942 375.997 157.515C375.257 157.912 374.922 158.188 374.904 158.162L375.162 157.972C375.417 157.784 375.684 157.614 375.963 157.463C377.04 156.846 378.237 156.469 379.473 156.359C381.47 156.224 383.465 156.645 385.238 157.576C387.658 158.769 389.714 160.593 391.191 162.857C392.987 165.671 394.016 168.908 394.177 172.246C394.32 176.146 393.7 180.036 392.353 183.697C390.887 187.846 388.898 191.79 386.434 195.433C383.686 199.417 380.683 203.216 377.442 206.807L360.45 229.244V228.95L376.333 244.484L393.265 261.061L393.385 261.182L393.291 261.337L379.679 282.851L379.559 283.04L379.378 282.902C371.437 276.473 364.106 270.536 357.567 265.255C354.307 262.606 351.218 260.164 348.507 257.704C345.797 255.245 343.345 252.949 341.177 250.801C337.821 247.458 334.675 243.91 331.756 240.178C330.749 238.883 330.035 237.856 329.519 237.157L328.968 236.355C328.873 236.113 328.822 236.018 328.822 236.018Z" fill="#263238"/>
<path d="M488.657 231.211C488.071 231.08 487.495 230.904 486.936 230.685C484.186 229.8 481.209 229.953 478.564 231.116C478.03 231.398 477.475 231.637 476.904 231.833C477.348 231.411 477.864 231.072 478.427 230.832C479.749 230.154 481.198 229.763 482.681 229.686C484.164 229.609 485.646 229.846 487.031 230.383C487.616 230.564 488.166 230.844 488.657 231.211V231.211Z" fill="#263238"/>
<path d="M399.864 281.686L393.893 284.663C392.443 285.382 390.817 285.668 389.21 285.487C387.602 285.307 386.08 284.667 384.824 283.645L381.107 280.59L391.432 264.306C392.645 264.832 397.627 265.54 399.348 266.152C400.838 266.675 402.406 266.941 403.985 266.938C405.748 266.971 407.509 266.826 409.242 266.506C409.354 266.463 409.509 266.429 409.612 266.377C409.844 266.279 410.092 266.229 410.344 266.23C411.823 266.101 412.985 267.645 412.159 268.871C411.333 270.096 407.306 271.719 402.161 271.572H401.92C397.403 271.572 401.55 275.369 404.226 277.612C404.699 277.996 405.067 278.495 405.293 279.061C405.519 279.628 405.596 280.243 405.517 280.849C405.503 281.067 405.442 281.28 405.338 281.472C405.234 281.664 405.09 281.831 404.914 281.962C403.762 282.687 399.864 281.686 399.864 281.686Z" fill="#A36853"/>
<path d="M413.682 167.361C405.766 167.361 398.651 160.596 398.72 150.517L397.292 93.1128H397.455C397.432 91.9089 397.862 90.7403 398.659 89.84C399.456 88.9396 400.562 88.3735 401.757 88.2544L425.349 85.7518C427.279 85.5502 429.229 85.7433 431.083 86.3193C432.936 86.8953 434.654 87.8423 436.132 89.1031C437.611 90.3639 438.818 91.9122 439.683 93.6545C440.548 95.3968 441.051 97.2968 441.163 99.2398C441.731 108.335 442.075 119.45 440.999 126.233C438.84 139.799 428.429 141.568 428.429 141.568L428.679 151.06C429.083 161.217 421.503 167.327 413.691 167.327L413.682 167.361Z" fill="#A36853"/>
<path d="M435.889 106.601C435.889 107.051 435.713 107.484 435.4 107.806C435.086 108.129 434.66 108.315 434.211 108.327C433.989 108.345 433.766 108.319 433.555 108.25C433.343 108.181 433.148 108.07 432.98 107.923C432.813 107.777 432.676 107.598 432.578 107.397C432.481 107.197 432.424 106.979 432.413 106.756C432.412 106.306 432.588 105.873 432.901 105.551C433.215 105.228 433.641 105.041 434.09 105.03C434.312 105.013 434.534 105.039 434.745 105.109C434.956 105.179 435.151 105.29 435.318 105.437C435.486 105.583 435.623 105.761 435.72 105.961C435.818 106.161 435.876 106.378 435.889 106.601V106.601Z" fill="#263238"/>
<path d="M438.754 104.987C438.539 105.211 437.222 104.236 435.312 104.236C433.402 104.236 432.06 105.186 431.871 104.953C431.681 104.72 431.991 104.443 432.594 104.003C433.401 103.431 434.367 103.129 435.355 103.14C436.33 103.134 437.281 103.436 438.074 104.003C438.668 104.469 438.866 104.884 438.754 104.987Z" fill="#263238"/>
<path d="M417.777 106.955C417.777 107.412 417.596 107.851 417.273 108.175C416.951 108.499 416.513 108.681 416.057 108.681C415.611 108.702 415.175 108.55 414.839 108.255C414.504 107.961 414.296 107.547 414.258 107.101C414.258 106.644 414.44 106.205 414.762 105.881C415.085 105.557 415.523 105.375 415.979 105.375C416.424 105.354 416.861 105.506 417.196 105.801C417.532 106.095 417.74 106.509 417.777 106.955V106.955Z" fill="#263238"/>
<path d="M420.307 105.341C420.092 105.565 418.776 104.581 416.866 104.59C414.955 104.599 413.613 105.539 413.424 105.306C413.235 105.073 413.544 104.789 414.147 104.357C414.956 103.789 415.921 103.487 416.909 103.494C417.883 103.488 418.834 103.79 419.627 104.357C420.221 104.823 420.419 105.28 420.307 105.341Z" fill="#263238"/>
<path d="M427.122 119.295C428.11 118.986 429.133 118.8 430.167 118.743C430.649 118.691 431.105 118.596 431.183 118.268C431.223 117.772 431.112 117.275 430.864 116.844C430.417 115.679 429.944 114.462 429.445 113.185C427.474 108.007 426.055 103.693 426.261 103.615C426.468 103.537 428.24 107.697 430.21 112.909L431.561 116.585C431.865 117.166 431.953 117.835 431.811 118.475C431.743 118.644 431.637 118.795 431.501 118.917C431.365 119.038 431.203 119.126 431.028 119.174C430.761 119.247 430.487 119.288 430.21 119.295C429.185 119.421 428.147 119.421 427.122 119.295V119.295Z" fill="#263238"/>
<path d="M428.429 141.568C422.025 141.668 415.718 139.98 410.215 136.692C410.215 136.692 414.93 146.953 428.533 145.684L428.429 141.568Z" fill="#8F5039"/>
<path d="M421.159 102.044C420.97 102.554 419.094 102.312 416.857 102.579C414.62 102.847 412.882 103.442 412.555 102.985C412.417 102.769 412.727 102.286 413.415 101.785C414.376 101.182 415.46 100.805 416.586 100.681C417.712 100.557 418.852 100.689 419.92 101.069C420.832 101.397 421.236 101.829 421.159 102.044Z" fill="#263238"/>
<path d="M438.065 99.5418C437.738 99.9647 436.448 99.5418 434.891 99.5418C433.333 99.5418 432.017 99.8352 431.716 99.3865C431.587 99.1707 431.793 98.7393 432.37 98.3337C433.141 97.849 434.04 97.6057 434.95 97.6349C435.86 97.6641 436.741 97.9645 437.48 98.4976C438.031 98.886 438.212 99.3261 438.065 99.5418Z" fill="#263238"/>
<path d="M397.455 106.143C399.77 105.729 401.619 106.437 402.273 108.732C403.254 112.184 402.583 113.832 402.747 116.18L406.188 115.144C405.328 107.283 407.281 101.458 406.429 93.5702C411.213 95.1235 417.786 92.1636 419.825 87.1929C421.856 88.6873 424.267 89.5744 426.779 89.7515C429.292 89.9287 431.803 89.3886 434.022 88.194C434.582 89.2106 435.45 90.023 436.499 90.5145C437.549 91.006 438.727 91.1513 439.864 90.9295C442.445 90.196 445.181 86.5198 445.93 83.9051C447.272 79.202 446.618 72.4537 442.815 69.3902C439.012 66.3267 431.389 67.0516 428.429 70.9435C427.259 72.4796 427.121 75.3187 425.237 75.707C423.559 76.0522 422.037 74.844 420.505 74.0501C415.73 71.6856 409.139 74.8268 407.952 80.039C403.96 77.6487 399.124 76.0953 394.659 77.3811C390.193 78.6669 386.631 83.6289 388.154 88.0386C388.791 89.8767 390.202 91.4904 390.357 93.4062C390.658 97.1601 386.167 100.56 387.604 104.046C388.404 105.997 390.753 106.86 391.811 108.681C392.998 110.717 392.267 113.28 392.362 115.636C392.525 119.571 394.53 125.396 398.29 126.518" fill="#263238"/>
<path d="M397.799 106.143C397.221 106.222 396.676 106.457 396.221 106.824C395.766 107.19 395.419 107.674 395.218 108.223C394.716 109.268 394.477 110.421 394.521 111.58C394.445 113.389 395.026 115.165 396.156 116.577C396.734 117.266 397.513 117.756 398.384 117.979C399.254 118.202 400.172 118.146 401.009 117.819" fill="#A36853"/>
<path d="M400.148 114.825C400.148 114.868 399.64 115.066 398.84 114.773C398.376 114.604 397.97 114.304 397.67 113.91C397.297 113.425 397.075 112.839 397.033 112.227C396.994 111.631 397.116 111.034 397.386 110.501C397.619 110.069 397.949 109.697 398.35 109.414C399.055 108.939 399.606 108.974 399.597 109.017C399.589 109.06 399.124 109.181 398.548 109.664C398.175 109.977 397.883 110.376 397.697 110.827C397.511 111.278 397.437 111.767 397.481 112.253C397.505 112.732 397.655 113.197 397.917 113.598C398.178 114 398.542 114.325 398.969 114.54C399.353 114.67 399.748 114.765 400.148 114.825Z" fill="#8F5039"/>
<path d="M421.15 125.991C422.828 127.174 426.123 126.544 427.345 124.792C424.718 123.359 422.298 121.574 420.152 119.485C420.152 119.485 417.709 123.541 421.15 125.991Z" fill="#FAFAFA"/>
<path d="M426.708 129.944C426.008 129.669 425.272 129.495 424.523 129.426C423.775 129.492 423.04 129.66 422.337 129.926C422.337 129.883 422.466 129.659 422.854 129.417C423.363 129.123 423.94 128.969 424.527 128.969C425.114 128.969 425.691 129.123 426.201 129.417C426.579 129.676 426.751 129.901 426.708 129.944Z" fill="#AA6550"/>
<path d="M405.766 185.207C409.398 179.831 412.7 174.237 415.652 168.457C419.206 161.657 418.612 161.312 417.752 161.01C415.463 160.199 411.058 172.72 410.464 169.441C409.871 166.162 417.614 154.771 415.179 154.046C412.013 153.071 407.642 166.274 407.186 167.361C406.73 168.449 405.164 167.793 405.629 166.835C406.291 165.454 412.882 150.793 409.776 149.809C408.055 149.257 407.436 152.484 407.436 152.484C407.436 152.484 402.273 166.68 400.819 166.171C399.365 165.661 402.11 157.196 403.237 154.417C404.364 151.638 403.521 149.99 401.912 150.473C400.811 150.801 397.163 159.224 396.104 162.002C395.046 164.781 392.301 172.436 390.632 167.474C390.632 167.396 390.572 167.327 390.546 167.249C389.032 162.322 386.244 159.025 384.782 158.62C383.319 158.214 382.278 159.836 382.871 161.209C382.949 161.45 383.078 161.67 383.25 161.856C383.334 161.955 383.411 162.058 383.482 162.166C384.347 163.706 385.05 165.331 385.582 167.016C386.096 168.515 386.349 170.091 386.33 171.676C386.33 173.506 387.234 178.856 387.122 180.185" fill="#FFAD9D"/>
<path d="M386.27 178.269L365.457 219.691C365.457 219.691 353.704 185.535 347.355 171.926C344.937 166.749 340.093 163.159 335.43 160.777V160.682L334.457 160.294C331.108 158.697 327.59 157.484 323.969 156.678C302.012 150.378 281.328 152.579 257.383 160.993C257.383 160.993 244.951 164.35 238.928 180.616C233.499 195.287 227.416 217.723 226.375 221.684C218.915 246.865 229.567 260.888 244.392 259.163C250.5 258.196 255.697 253.122 257.994 251.154L265.833 243.767L266.005 249.489L257.211 284.775L347.329 284.594L331.067 242.74L334.681 223.557L340.867 238.305C342.811 242.939 346.062 246.904 350.22 249.712C354.378 252.52 359.262 254.05 364.275 254.114C369.287 254.179 374.209 252.774 378.437 250.073C382.665 247.372 386.016 243.492 388.077 238.909L409.156 185.699L386.27 178.269Z" fill="#26A8E4"/>
<path d="M277.74 229.865C277.509 230.279 277.238 230.669 276.932 231.03C276.39 231.764 275.572 232.756 274.531 234.051C272.458 236.57 269.472 239.936 266.005 243.5C262.537 247.064 259.233 250.127 256.756 252.25C255.525 253.312 254.501 254.14 253.779 254.701C253.42 255.018 253.037 255.306 252.634 255.564C252.946 255.208 253.291 254.884 253.667 254.597C254.355 254.002 255.345 253.139 256.549 252.009C258.958 249.834 262.219 246.736 265.678 243.189C269.137 239.642 272.165 236.286 274.282 233.843C275.357 232.627 276.2 231.617 276.785 230.918C277.082 230.548 277.401 230.196 277.74 229.865V229.865Z" fill="#263238"/>
<path d="M331.351 241.429C331.346 241.266 331.363 241.103 331.403 240.946C331.463 240.583 331.54 240.126 331.626 239.573L332.564 234.56C333.356 230.323 334.44 224.463 335.309 217.956C335.515 216.325 335.713 214.729 335.885 213.193C336.098 211.727 336.181 210.246 336.135 208.766C335.974 206.257 335.603 203.765 335.025 201.319C334.56 199.222 334.165 197.53 333.898 196.339C333.777 195.753 333.709 195.287 333.674 194.967C333.653 194.807 333.653 194.644 333.674 194.484C333.729 194.637 333.764 194.797 333.777 194.959C333.841 195.269 333.944 195.718 334.087 196.305C334.371 197.47 334.844 199.153 335.352 201.25C335.981 203.707 336.387 206.217 336.565 208.749C336.621 210.251 336.546 211.755 336.341 213.245C336.178 214.781 335.98 216.377 335.765 218.017C334.905 224.541 333.76 230.4 332.891 234.62C332.444 236.683 332.082 238.365 331.816 239.608C331.695 240.16 331.583 240.6 331.506 240.963C331.468 241.123 331.417 241.278 331.351 241.429V241.429Z" fill="#263238"/>
<path d="M363.616 229.779C363.706 228.07 363.945 226.372 364.33 224.705C364.57 223.012 364.956 221.343 365.483 219.717C365.397 221.426 365.158 223.125 364.769 224.791C364.53 226.484 364.144 228.153 363.616 229.779Z" fill="#263238"/>
<path d="M366.791 231.004C366.357 229.087 366.069 227.14 365.93 225.179C365.629 223.238 365.477 221.276 365.474 219.311C365.907 221.225 366.195 223.17 366.335 225.128C366.636 227.072 366.788 229.037 366.791 231.004Z" fill="#263238"/>
<path d="M300.317 284.62C300.197 284.62 300.093 270.743 300.093 253.631C300.093 236.519 300.231 222.642 300.317 222.642C300.403 222.642 300.541 236.519 300.541 253.631C300.541 270.743 300.437 284.62 300.317 284.62Z" fill="#263238"/>
<g opacity="0.2">
<path d="M334.13 196.978C338.355 205.098 342.029 213.184 342.364 222.332C342.622 229.46 339.783 235.388 342.717 241.886C342.571 241.998 340.067 236.406 338.957 233.774C336.686 228.372 334.655 223.557 334.655 223.557C334.655 223.557 336.221 211.355 336.376 209.275C336.531 207.195 334.13 196.978 334.13 196.978Z" fill="black"/>
</g>
<g opacity="0.2">
<path d="M229.567 238.245C229.567 242.309 227.046 228.873 229.412 225.559C231.064 223.246 233.904 222.107 236.657 221.434C239.41 220.761 242.292 220.295 244.736 218.845C247.893 216.973 249.898 213.668 252.109 210.777C254.321 207.886 257.272 195.451 260.92 195.192V213.314C252.183 218.986 243.096 224.096 233.714 228.614C232.38 229.831 231.32 231.32 230.605 232.98C229.89 234.641 229.536 236.436 229.567 238.245V238.245Z" fill="black"/>
</g>
<g opacity="0.2">
<path d="M265.815 243.75C271.709 240.428 276.011 235.984 282.67 234.836C289.08 233.705 295.68 234.836 302.167 234.396C301.817 231.099 301.461 227.806 301.1 224.515L282.533 224.308L265.815 243.75Z" fill="black"/>
</g>
<path d="M260.92 194.967C261.04 194.967 261.143 198.997 261.143 203.977C261.143 208.956 261.04 212.986 260.92 212.986C260.693 209.988 260.618 206.982 260.696 203.977C260.618 200.972 260.693 197.965 260.92 194.967V194.967Z" fill="#263238"/>
<path d="M229.55 238.175C229.41 237.655 229.375 237.113 229.447 236.579C229.537 235.279 229.845 234.004 230.359 232.808C230.87 231.61 231.583 230.509 232.467 229.555C232.802 229.134 233.217 228.785 233.688 228.528C232.526 229.877 231.545 231.374 230.772 232.98C230.136 234.65 229.725 236.397 229.55 238.175V238.175Z" fill="#263238"/>
<path d="M233.258 228.769C233.721 228.64 234.173 228.472 234.609 228.269C235.47 227.924 236.708 227.406 238.214 226.698C241.226 225.309 245.33 223.246 249.683 220.657C254.037 218.069 257.831 215.48 260.498 213.564C261.823 212.589 262.89 211.778 263.604 211.191C263.994 210.915 264.357 210.603 264.688 210.259C264.267 210.488 263.864 210.751 263.484 211.044L260.292 213.288C257.582 215.169 253.779 217.689 249.434 220.243C245.089 222.798 241.028 224.895 238.059 226.353L234.532 228.079C234.086 228.268 233.66 228.499 233.258 228.769Z" fill="#263238"/>
<path d="M346.313 117.664C344.833 115.722 342.485 114.212 342.011 111.848C341.426 108.655 344.593 105.677 344.016 102.476C343.638 100.293 341.633 98.7652 339.585 97.9108C337.537 97.0565 335.283 96.6595 333.408 95.5377C331.156 94.0855 329.428 91.947 328.477 89.4366C328.194 88.7549 327.961 88.0559 327.746 87.3483C327.564 85.8156 327.224 84.306 326.731 82.8436C326.653 82.4639 326.585 82.0842 326.516 81.7045L326.61 82.5675C326.325 81.8466 325.949 81.1651 325.492 80.5396C323.917 78.4339 320.768 77.2603 318.609 78.7446L319.641 78.0456C318.334 74.8797 316.236 72.1048 313.549 69.9887C310.862 67.8726 307.677 66.4865 304.301 65.9643C303.012 65.7872 301.709 65.7438 300.412 65.8348C295.774 65.5932 289.072 66.9566 286.241 68.7516C282.627 71.0471 278.928 74.2055 277.121 78.0974C276.14 80.1944 275.486 82.6106 273.636 84.0086C271.175 85.8726 267.725 85.1564 264.654 85.5015C259.595 86.0711 255.189 89.9716 253.469 94.7697C252.665 97.2034 252.375 99.7781 252.616 102.33C252.858 104.883 253.625 107.357 254.871 109.595C255.404 110.596 256.033 111.735 255.611 112.788C255.176 113.564 254.494 114.172 253.675 114.514C251.612 115.585 249.964 117.316 248.995 119.433C248.134 121.573 248.461 124.291 250.199 125.81C250.93 126.393 251.801 126.77 252.725 126.903C253.649 127.037 254.591 126.922 255.456 126.57C254.936 127.865 254.662 129.246 254.647 130.643C254.612 132.171 254.985 133.682 255.728 135.017C256.471 136.352 257.556 137.464 258.872 138.237C261.565 139.643 265.333 138.901 266.917 136.295C266.905 138.211 267.41 140.094 268.38 141.745C269.349 143.396 270.746 144.753 272.422 145.673C274.098 146.592 275.99 147.039 277.899 146.967C279.808 146.894 281.662 146.305 283.264 145.261C284.537 144.398 285.845 143.25 287.351 143.492C288.856 143.734 289.708 145.218 290.741 146.271C293.494 149.144 298.192 149.481 301.814 147.841C305.436 146.202 308.103 142.957 310.022 139.462C310.69 140.466 311.627 141.261 312.725 141.755C313.823 142.249 315.038 142.423 316.23 142.257C317.422 142.09 318.543 141.59 319.465 140.813C320.386 140.036 321.071 139.015 321.439 137.866C322.779 139.611 324.621 140.9 326.716 141.559C328.811 142.218 331.058 142.214 333.151 141.547C335.244 140.881 337.081 139.585 338.414 137.834C339.747 136.084 340.51 133.965 340.6 131.765C342.115 131.543 343.545 130.927 344.75 129.98C345.955 129.033 346.892 127.787 347.468 126.364C348.044 124.942 348.24 123.393 348.036 121.872C347.832 120.35 347.235 118.909 346.305 117.69L346.313 117.664ZM259.792 120.33C259.792 120.33 259.792 120.33 259.792 120.279H259.887L259.792 120.33Z" fill="#263238"/>
<path d="M314.367 142.025C314.367 142.025 325.389 140.187 327.669 125.776C328.804 118.604 328.443 106.851 327.841 97.2377C327.714 95.1874 327.175 93.1841 326.255 91.3486C325.335 89.513 324.055 87.8833 322.49 86.5576C320.926 85.2319 319.11 84.2377 317.152 83.635C315.194 83.0323 313.134 82.8336 311.098 83.0507L286.146 85.6914C284.881 85.8255 283.712 86.4329 282.874 87.3925C282.035 88.3521 281.588 89.5934 281.621 90.8691L284.245 153.502C282.429 153.891 278.308 154.797 276.286 155.384C276.286 155.384 295.576 198.618 300.3 198.117C305.023 197.617 323.9 156.695 323.9 156.695C320.613 155.701 317.275 154.881 313.902 154.236C313.825 147.565 314.367 142.025 314.367 142.025Z" fill="#FFAD9D"/>
<path d="M322.266 105.065C322.271 105.546 322.088 106.01 321.757 106.358C321.426 106.706 320.973 106.911 320.493 106.929C320.259 106.947 320.023 106.919 319.8 106.845C319.576 106.771 319.37 106.653 319.193 106.498C319.016 106.343 318.871 106.153 318.768 105.941C318.665 105.729 318.605 105.499 318.592 105.263C318.587 104.781 318.769 104.316 319.1 103.967C319.431 103.617 319.884 103.411 320.364 103.391C320.599 103.373 320.835 103.403 321.059 103.478C321.282 103.553 321.488 103.672 321.665 103.827C321.842 103.983 321.987 104.173 322.09 104.385C322.193 104.598 322.253 104.829 322.266 105.065V105.065Z" fill="#263238"/>
<path d="M325.303 103.356C325.07 103.598 323.676 102.562 321.689 102.562C319.701 102.562 318.247 103.563 318.041 103.322C317.834 103.08 318.17 102.778 318.798 102.312C319.662 101.73 320.683 101.429 321.723 101.449C322.755 101.441 323.762 101.764 324.597 102.372C325.182 102.812 325.414 103.244 325.303 103.356Z" fill="#263238"/>
<path d="M303.122 105.436C303.126 105.918 302.943 106.383 302.61 106.732C302.277 107.08 301.822 107.284 301.341 107.3C301.106 107.324 300.868 107.299 300.643 107.226C300.418 107.154 300.211 107.036 300.033 106.88C299.855 106.724 299.712 106.533 299.611 106.318C299.511 106.104 299.455 105.871 299.448 105.634C299.443 105.152 299.625 104.688 299.956 104.338C300.287 103.989 300.74 103.782 301.22 103.762C301.455 103.744 301.691 103.774 301.915 103.849C302.138 103.924 302.344 104.043 302.521 104.198C302.698 104.354 302.843 104.544 302.946 104.757C303.049 104.969 303.109 105.2 303.122 105.436V105.436Z" fill="#263238"/>
<path d="M305.806 103.727C305.574 103.969 304.172 102.933 302.193 102.933C300.214 102.933 298.751 103.934 298.545 103.693C298.433 103.58 298.665 103.149 299.302 102.683C300.165 102.101 301.187 101.8 302.227 101.82C303.259 101.813 304.265 102.137 305.101 102.743C305.703 103.183 305.918 103.615 305.806 103.727Z" fill="#263238"/>
<path d="M312.999 118.484C312.999 118.363 314.221 118.156 316.226 117.897C316.733 117.845 317.206 117.742 317.292 117.396C317.335 116.873 317.218 116.35 316.957 115.895C316.484 114.661 315.985 113.375 315.46 112.02C313.378 106.514 311.872 101.984 312.096 101.906C312.319 101.829 314.178 106.221 316.26 111.727L317.697 115.636C318.015 116.249 318.109 116.954 317.964 117.629C317.887 117.811 317.769 117.972 317.62 118.101C317.471 118.23 317.294 118.322 317.103 118.371C316.823 118.449 316.534 118.489 316.243 118.492C315.166 118.626 314.076 118.623 312.999 118.484V118.484Z" fill="#263238"/>
<path d="M314.367 142.025C307.597 142.118 300.935 140.325 295.12 136.847C295.12 136.847 299.792 146.754 314.178 145.399L314.367 142.025Z" fill="#ED9482"/>
<path d="M307.415 121.59C307.85 121.282 308.346 121.07 308.869 120.969C309.132 120.92 309.403 120.954 309.645 121.067C309.887 121.18 310.088 121.366 310.22 121.599C310.274 121.773 310.346 121.941 310.435 122.099C310.719 122.496 311.295 122.358 311.803 122.496C311.978 122.571 312.136 122.679 312.268 122.815C312.401 122.95 312.505 123.111 312.575 123.288C312.646 123.464 312.681 123.653 312.678 123.843C312.676 124.033 312.635 124.22 312.56 124.395C312.392 124.741 312.157 125.05 311.869 125.305C311.581 125.559 311.246 125.755 310.882 125.879C309.906 126.285 308.842 126.431 307.794 126.302C307.428 126.289 307.07 126.199 306.742 126.037C306.414 125.874 306.125 125.644 305.892 125.361C305.675 124.98 305.573 124.544 305.599 124.106C305.625 123.667 305.778 123.246 306.038 122.893C306.576 122.194 307.246 121.608 308.009 121.167" fill="#ED9482"/>
<path d="M307.166 119.856C307.484 119.856 307.492 121.996 309.334 123.532C311.175 125.068 313.464 124.826 313.481 125.128C313.481 125.266 312.973 125.543 312.001 125.577C310.747 125.586 309.53 125.156 308.559 124.36C307.608 123.597 306.991 122.492 306.839 121.28C306.778 120.382 307.019 119.847 307.166 119.856Z" fill="#263238"/>
<path d="M306.693 100.241C306.495 100.784 304.516 100.526 302.193 100.81C299.87 101.095 297.985 101.725 297.676 101.242C297.538 101.009 297.865 100.5 298.622 99.9733C299.637 99.3313 300.784 98.9292 301.976 98.7977C303.169 98.6661 304.376 98.8084 305.505 99.2139C306.348 99.5591 306.779 99.9819 306.693 100.241Z" fill="#263238"/>
<path d="M324.571 98.8601C324.219 99.3088 322.85 98.8601 321.216 98.8601C319.581 98.8601 318.179 99.1707 317.86 98.6961C317.714 98.4631 317.938 98.0144 318.54 97.5829C319.354 97.0589 320.31 96.7997 321.276 96.8408C322.242 96.856 323.178 97.1761 323.952 97.7555C324.537 98.1697 324.726 98.6357 324.571 98.8601Z" fill="#263238"/>
<path d="M319.435 80.9106C318.898 83.4651 317.856 85.8859 316.372 88.0302C314.887 90.1746 312.99 91.999 310.791 93.3961C308.592 94.7931 306.137 95.7344 303.569 96.1645C301.002 96.5946 298.375 96.5047 295.843 95.9002C295.424 99.0634 294.199 102.065 292.287 104.615C290.374 107.165 287.838 109.178 284.924 110.458C288.901 117.693 290.523 125.993 289.562 134.198C289.14 137.693 288.134 141.343 285.518 143.691C281.535 147.272 274.798 146.4 270.96 142.655C267.278 139.065 265.979 133.43 267.02 128.39C268.061 123.351 271.218 118.898 275.185 115.645C273.514 115.359 271.955 114.612 270.685 113.486C269.415 112.361 268.483 110.902 267.995 109.274C267.506 107.646 267.481 105.914 267.921 104.272C268.362 102.63 269.25 101.144 270.487 99.9819C271.614 98.9119 273.068 98.1179 273.929 96.8063C274.789 95.4946 274.927 94.0534 275.417 92.6727C276.699 89.0397 279.943 86.5198 283.014 84.2157C285.596 82.2655 288.486 80.2203 291.739 80.2289C293.46 80.2289 295.18 80.833 296.901 80.6C299.267 80.2807 301.117 78.4857 303.079 77.1482C305.792 75.1121 309.175 74.1866 312.543 74.5593C315.873 75.0771 318.979 77.571 319.607 80.8847" fill="#263238"/>
<path d="M318.153 82.3345C317.645 85.1132 319.013 87.9696 321.095 89.9199C323.178 91.8701 325.759 93.0869 328.323 94.2346C327.424 91.4937 326.172 88.8826 324.597 86.468C323.801 85.2571 322.773 84.2159 321.574 83.4043C320.376 82.5928 319.029 82.0268 317.611 81.7391" fill="#263238"/>
<path d="M254.931 115.567C254.838 115.289 254.811 114.994 254.854 114.704C254.982 113.823 255.444 113.025 256.144 112.478C257.274 111.644 258.672 111.259 260.068 111.399C261.677 111.399 263.458 111.934 265.428 111.813C266.493 111.725 267.523 111.385 268.432 110.821C269.341 110.257 270.105 109.485 270.659 108.568C271.274 107.542 271.612 106.374 271.64 105.177C271.726 103.934 271.64 102.64 271.683 101.294C271.695 99.8847 272.133 98.5126 272.939 97.3585C273.836 96.2032 275.024 95.3093 276.381 94.7697C279.091 93.5443 282.18 93.5184 285.14 92.9661C286.61 92.7341 288.027 92.2371 289.321 91.4991C290.537 90.726 291.592 89.7237 292.427 88.5478C294.105 86.2351 295.232 83.6462 296.772 81.4543C298.12 79.4836 299.915 77.8611 302.008 76.7196C304.102 75.5782 306.435 74.9502 308.818 74.8872C312.034 74.8246 315.185 75.7986 317.809 77.6659C318.773 78.3263 319.629 79.1327 320.347 80.0563C320.347 80.0563 320.278 80.0132 320.175 79.901C320.071 79.7888 319.891 79.6248 319.701 79.4264C319.08 78.837 318.416 78.2947 317.714 77.804C315.103 76.0112 311.998 75.0846 308.835 75.1547C306.51 75.2395 304.237 75.8709 302.2 76.9981C300.163 78.1253 298.419 79.7167 297.108 81.6441C295.602 83.8015 294.483 86.3904 292.806 88.7635C291.941 89.9897 290.845 91.0335 289.579 91.8356C288.248 92.5991 286.791 93.1164 285.277 93.3631C282.249 93.924 279.255 93.9499 276.613 95.089C275.322 95.5942 274.19 96.4376 273.335 97.5311C272.576 98.6203 272.163 99.9134 272.148 101.242C272.07 102.545 272.148 103.831 272.087 105.125C272.036 106.404 271.654 107.647 270.978 108.732C270.389 109.693 269.581 110.5 268.621 111.087C267.661 111.674 266.575 112.023 265.454 112.106C263.398 112.201 261.634 111.666 260.059 111.623C258.718 111.472 257.367 111.812 256.256 112.581C255.572 113.095 255.103 113.845 254.94 114.687C254.902 114.979 254.899 115.274 254.931 115.567Z" fill="#FAFAFA"/>
<path d="M276.304 182.187L277.216 205.176L279.522 227.181L303.896 226.137L302.141 182.679L276.304 182.187Z" fill="#263238"/>
<path d="M272.724 182.101L273.636 205.176L275.942 227.181L300.317 226.137L298.562 182.61L272.724 182.101Z" fill="#1A6EA6"/>
<path d="M270.444 229.865C276.91 229.583 283.352 228.9 289.734 227.82C297.288 226.612 297.211 225.921 296.944 225.059C296.221 222.729 283.574 226.681 285.845 224.239C288.116 221.797 301.823 221.218 300.962 218.819C299.852 215.695 286.68 220.071 285.544 220.364C284.408 220.657 283.995 218.992 285.036 218.793C286.533 218.5 302.184 215.022 301.126 211.942C300.532 210.216 297.581 211.665 297.581 211.665C297.581 211.665 283.143 215.98 282.687 214.531C282.231 213.081 290.629 210.216 293.52 209.448C296.411 208.68 297.228 207.023 295.877 205.996C294.957 205.314 286.043 207.42 283.204 208.231C280.364 209.042 272.586 211.415 275.546 207.1C275.594 207.038 275.637 206.971 275.675 206.902C278.712 202.734 279.676 198.514 279.117 197.107C278.558 195.701 276.647 195.822 275.916 197.107C275.774 197.316 275.675 197.551 275.624 197.798C275.593 197.923 275.556 198.047 275.512 198.169C274.809 199.783 273.944 201.321 272.931 202.76C272.038 204.069 270.93 205.216 269.652 206.151C268.181 207.23 264.49 211.174 263.329 211.873" fill="#FFAD9D"/>
<path d="M264.851 210.57L277.74 229.865L256.497 251.603L257.22 216.351L264.851 210.57Z" fill="#26A8E4"/>
</g>
<defs>
<clipPath id="clip0_515_2294">
<rect width="495" height="294" fill="white" transform="translate(12)"/>
</clipPath>
</defs>
</svg>
