<?xml version="1.0" encoding="UTF-8"?><svg id="Layer_2" xmlns="http://www.w3.org/2000/svg" xmlns:xlink="http://www.w3.org/1999/xlink" viewBox="0 0 1922.9 371.21"><defs><clipPath id="clippath"><rect width="1922.9" height="371.21" style="fill:none;"/></clipPath></defs><g id="Layer_1-2"><g style="clip-path:url(#clippath);"><g><g style="opacity:.5;"><polygon points="52.91 157.29 51.72 155.91 316.27 -108.64 317.46 -107.26 52.91 157.29" style="fill:#fff;"/></g><g style="opacity:.5;"><polygon points="377.64 590.49 376.45 589.11 641 324.57 642.19 325.95 377.64 590.49" style="fill:#fff;"/></g><g style="opacity:.5;"><polygon points="1610.97 502.84 1609.78 501.46 1874.33 236.92 1875.52 238.29 1610.97 502.84" style="fill:#fff;"/></g><g style="opacity:.5;"><path d="M262.88,424.93c-28.53,0-51.75-23.21-51.75-51.75s23.22-51.75,51.75-51.75,51.75,23.22,51.75,51.75-23.21,51.75-51.75,51.75Zm0-100.36c-26.81,0-48.61,21.81-48.61,48.61s21.81,48.61,48.61,48.61,48.61-21.81,48.61-48.61-21.81-48.61-48.61-48.61Z" style="fill:#fff;"/></g><g style="opacity:.5;"><path d="M1945.71,391.94c-13.5,0-24.49-10.99-24.49-24.49s10.99-24.49,24.49-24.49,24.49,10.99,24.49,24.49-10.99,24.49-24.49,24.49Zm0-45.08c-11.35,0-20.59,9.24-20.59,20.59s9.24,20.59,20.59,20.59,20.59-9.24,20.59-20.59-9.24-20.59-20.59-20.59Z" style="fill:#fff;"/></g><g style="opacity:.5;"><path d="M1342.52,40.8c-16.31,0-29.58-13.27-29.58-29.58s13.27-29.58,29.58-29.58,29.58,13.27,29.58,29.58-13.27,29.58-29.58,29.58Zm0-56.28c-14.72,0-26.7,11.98-26.7,26.7s11.98,26.7,26.7,26.7,26.7-11.98,26.7-26.7-11.98-26.7-26.7-26.7Z" style="fill:#fff;"/></g><g style="opacity:.1;"><path d="M1557.91,131.02s.06-.03,.06-.06-.03-.06-.06-.06-.06,.03-.06,.06,.03,.06,.06,.06Z" style="fill:#fff;"/><path d="M1580.36,131.02s.06-.03,.06-.06-.03-.06-.06-.06-.06,.03-.06,.06,.03,.06,.06,.06Z" style="fill:#fff;"/><path d="M1602.8,131.02s.06-.03,.06-.06-.03-.06-.06-.06-.06,.03-.06,.06,.03,.06,.06,.06Z" style="fill:#fff;"/><path d="M1625.24,131.02s.06-.03,.06-.06-.03-.06-.06-.06-.06,.03-.06,.06,.03,.06,.06,.06Z" style="fill:#fff;"/><path d="M1647.68,131.02s.06-.03,.06-.06-.03-.06-.06-.06-.06,.03-.06,.06,.03,.06,.06,.06Z" style="fill:#fff;"/><path d="M1445.71,153.46s.06-.03,.06-.06-.03-.06-.06-.06-.06,.03-.06,.06,.03,.06,.06,.06Z" style="fill:#fff;"/><path d="M1468.15,153.52c.07,0,.12-.06,.12-.12s-.06-.12-.12-.12-.12,.06-.12,.12,.06,.12,.12,.12Z" style="fill:#fff;"/><path d="M1490.59,153.58c.1,0,.19-.08,.19-.19s-.08-.19-.19-.19-.19,.08-.19,.19,.08,.19,.19,.19Z" style="fill:#fff;"/><path d="M1513.03,153.65c.14,0,.25-.11,.25-.25s-.11-.25-.25-.25-.25,.11-.25,.25,.11,.25,.25,.25Z" style="fill:#fff;"/><path d="M1535.47,153.71c.17,0,.31-.14,.31-.31s-.14-.31-.31-.31-.31,.14-.31,.31,.14,.31,.31,.31Z" style="fill:#fff;"/><path d="M1557.91,153.77c.21,0,.37-.17,.37-.37s-.17-.37-.37-.37-.37,.17-.37,.37,.17,.37,.37,.37Z" style="fill:#fff;"/><path d="M1580.36,153.77c.21,0,.37-.17,.37-.37s-.17-.37-.37-.37-.37,.17-.37,.37,.17,.37,.37,.37Z" style="fill:#fff;"/><path d="M1602.8,153.77c.21,0,.37-.17,.37-.37s-.17-.37-.37-.37-.37,.17-.37,.37,.17,.37,.37,.37Z" style="fill:#fff;"/><path d="M1625.24,153.77c.21,0,.37-.17,.37-.37s-.17-.37-.37-.37-.37,.17-.37,.37,.17,.37,.37,.37Z" style="fill:#fff;"/><path d="M1647.68,153.77c.21,0,.37-.17,.37-.37s-.17-.37-.37-.37-.37,.17-.37,.37,.17,.37,.37,.37Z" style="fill:#fff;"/><path d="M1670.12,153.71c.17,0,.31-.14,.31-.31s-.14-.31-.31-.31-.31,.14-.31,.31,.14,.31,.31,.31Z" style="fill:#fff;"/><path d="M1692.56,153.65c.14,0,.25-.11,.25-.25s-.11-.25-.25-.25-.25,.11-.25,.25,.11,.25,.25,.25Z" style="fill:#fff;"/><path d="M1715,153.58c.1,0,.19-.08,.19-.19s-.08-.19-.19-.19-.19,.08-.19,.19,.08,.19,.19,.19Z" style="fill:#fff;"/><path d="M1737.44,153.52c.07,0,.12-.06,.12-.12s-.06-.12-.12-.12-.12,.06-.12,.12,.06,.12,.12,.12Z" style="fill:#fff;"/><path d="M1759.88,153.46s.06-.03,.06-.06-.03-.06-.06-.06-.06,.03-.06,.06,.03,.06,.06,.06Z" style="fill:#fff;"/><path d="M1400.83,175.96c.07,0,.12-.06,.12-.12s-.06-.12-.12-.12-.12,.06-.12,.12,.06,.12,.12,.12Z" style="fill:#fff;"/><path d="M1423.27,176.02c.1,0,.19-.08,.19-.19s-.08-.19-.19-.19-.19,.08-.19,.19,.08,.19,.19,.19Z" style="fill:#fff;"/><path d="M1445.71,176.15c.17,0,.31-.14,.31-.31s-.14-.31-.31-.31-.31,.14-.31,.31,.14,.31,.31,.31Z" style="fill:#fff;"/><path d="M1468.15,176.27c.24,0,.44-.19,.44-.44s-.19-.44-.44-.44-.44,.19-.44,.44,.19,.44,.44,.44Z" style="fill:#fff;"/><path d="M1490.59,176.34c.27,0,.5-.22,.5-.5s-.22-.5-.5-.5-.5,.22-.5,.5,.22,.5,.5,.5Z" style="fill:#fff;"/><path d="M1513.03,176.4c.31,0,.56-.25,.56-.56s-.25-.56-.56-.56-.56,.25-.56,.56,.25,.56,.56,.56Z" style="fill:#fff;"/><path d="M1535.47,176.46c.34,0,.62-.28,.62-.62s-.28-.62-.62-.62-.62,.28-.62,.62,.28,.62,.62,.62Z" style="fill:#fff;"/><path d="M1557.91,176.52c.38,0,.68-.31,.68-.68s-.31-.68-.68-.68-.68,.31-.68,.68,.31,.68,.68,.68Z" style="fill:#fff;"/><path d="M1580.36,176.52c.38,0,.68-.31,.68-.68s-.31-.68-.68-.68-.68,.31-.68,.68,.31,.68,.68,.68Z" style="fill:#fff;"/><path d="M1602.8,176.58c.41,0,.75-.33,.75-.75s-.33-.75-.75-.75-.75,.33-.75,.75,.33,.75,.75,.75Z" style="fill:#fff;"/><path d="M1625.24,176.52c.38,0,.68-.31,.68-.68s-.31-.68-.68-.68-.68,.31-.68,.68,.31,.68,.68,.68Z" style="fill:#fff;"/><path d="M1647.68,176.52c.38,0,.68-.31,.68-.68s-.31-.68-.68-.68-.68,.31-.68,.68,.31,.68,.68,.68Z" style="fill:#fff;"/><path d="M1670.12,176.46c.34,0,.62-.28,.62-.62s-.28-.62-.62-.62-.62,.28-.62,.62,.28,.62,.62,.62Z" style="fill:#fff;"/><path d="M1692.56,176.46c.34,0,.62-.28,.62-.62s-.28-.62-.62-.62-.62,.28-.62,.62,.28,.62,.62,.62Z" style="fill:#fff;"/><path d="M1715,176.4c.31,0,.56-.25,.56-.56s-.25-.56-.56-.56-.56,.25-.56,.56,.25,.56,.56,.56Z" style="fill:#fff;"/><path d="M1737.44,176.27c.24,0,.44-.19,.44-.44s-.19-.44-.44-.44-.44,.19-.44,.44,.19,.44,.44,.44Z" style="fill:#fff;"/><path d="M1759.88,176.15c.17,0,.31-.14,.31-.31s-.14-.31-.31-.31-.31,.14-.31,.31,.14,.31,.31,.31Z" style="fill:#fff;"/><path d="M1782.33,176.09c.14,0,.25-.11,.25-.25s-.11-.25-.25-.25-.25,.11-.25,.25,.11,.25,.25,.25Z" style="fill:#fff;"/><path d="M1804.77,175.96c.07,0,.12-.06,.12-.12s-.06-.12-.12-.12-.12,.06-.12,.12,.06,.12,.12,.12Z" style="fill:#fff;"/><path d="M1355.95,198.4c.07,0,.12-.06,.12-.12s-.06-.12-.12-.12-.12,.06-.12,.12,.06,.12,.12,.12Z" style="fill:#fff;"/><path d="M1378.39,198.53c.14,0,.25-.11,.25-.25s-.11-.25-.25-.25-.25,.11-.25,.25,.11,.25,.25,.25Z" style="fill:#fff;"/><path d="M1400.83,198.65c.21,0,.37-.17,.37-.37s-.17-.37-.37-.37-.37,.17-.37,.37,.17,.37,.37,.37Z" style="fill:#fff;"/><path d="M1423.27,198.84c.31,0,.56-.25,.56-.56s-.25-.56-.56-.56-.56,.25-.56,.56,.25,.56,.56,.56Z" style="fill:#fff;"/><path d="M1445.71,198.9c.34,0,.62-.28,.62-.62s-.28-.62-.62-.62-.62,.28-.62,.62,.28,.62,.62,.62Z" style="fill:#fff;"/><path d="M1468.15,199.03c.41,0,.75-.33,.75-.75s-.33-.75-.75-.75-.75,.33-.75,.75,.33,.75,.75,.75Z" style="fill:#fff;"/><path d="M1490.59,199.15c.48,0,.87-.39,.87-.87s-.39-.87-.87-.87-.87,.39-.87,.87,.39,.87,.87,.87Z" style="fill:#fff;"/><path d="M1513.03,199.21c.52,0,.93-.42,.93-.93s-.42-.93-.93-.93-.93,.42-.93,.93,.42,.93,.93,.93Z" style="fill:#fff;"/><path d="M1535.47,199.27c.55,0,1-.45,1-1s-.45-1-1-1-1,.45-1,1,.45,1,1,1Z" style="fill:#fff;"/><path d="M1557.91,199.34c.58,0,1.06-.47,1.06-1.06s-.47-1.06-1.06-1.06-1.06,.47-1.06,1.06,.47,1.06,1.06,1.06Z" style="fill:#fff;"/><path d="M1580.36,199.34c.58,0,1.06-.47,1.06-1.06s-.47-1.06-1.06-1.06-1.06,.47-1.06,1.06,.47,1.06,1.06,1.06Z" style="fill:#fff;"/><path d="M1602.8,199.34c.58,0,1.06-.47,1.06-1.06s-.47-1.06-1.06-1.06-1.06,.47-1.06,1.06,.47,1.06,1.06,1.06Z" style="fill:#fff;"/><path d="M1625.24,199.34c.58,0,1.06-.47,1.06-1.06s-.47-1.06-1.06-1.06-1.06,.47-1.06,1.06,.47,1.06,1.06,1.06Z" style="fill:#fff;"/><path d="M1647.68,199.34c.58,0,1.06-.47,1.06-1.06s-.47-1.06-1.06-1.06-1.06,.47-1.06,1.06,.47,1.06,1.06,1.06Z" style="fill:#fff;"/><path d="M1670.12,199.27c.55,0,1-.45,1-1s-.45-1-1-1-1,.45-1,1,.45,1,1,1Z" style="fill:#fff;"/><path d="M1692.56,199.21c.52,0,.93-.42,.93-.93s-.42-.93-.93-.93-.93,.42-.93,.93,.42,.93,.93,.93Z" style="fill:#fff;"/><path d="M1715,199.15c.48,0,.87-.39,.87-.87s-.39-.87-.87-.87-.87,.39-.87,.87,.39,.87,.87,.87Z" style="fill:#fff;"/><path d="M1737.44,199.03c.41,0,.75-.33,.75-.75s-.33-.75-.75-.75-.75,.33-.75,.75,.33,.75,.75,.75Z" style="fill:#fff;"/><path d="M1759.88,198.96c.38,0,.68-.31,.68-.68s-.31-.68-.68-.68-.68,.31-.68,.68,.31,.68,.68,.68Z" style="fill:#fff;"/><path d="M1782.33,198.84c.31,0,.56-.25,.56-.56s-.25-.56-.56-.56-.56,.25-.56,.56,.25,.56,.56,.56Z" style="fill:#fff;"/><path d="M1804.77,198.71c.24,0,.44-.19,.44-.44s-.19-.44-.44-.44-.44,.19-.44,.44,.19,.44,.44,.44Z" style="fill:#fff;"/><path d="M1827.21,198.53c.14,0,.25-.11,.25-.25s-.11-.25-.25-.25-.25,.11-.25,.25,.11,.25,.25,.25Z" style="fill:#fff;"/><path d="M1849.65,198.4c.07,0,.12-.06,.12-.12s-.06-.12-.12-.12-.12,.06-.12,.12,.06,.12,.12,.12Z" style="fill:#fff;"/><path d="M1311.06,220.78s.06-.03,.06-.06-.03-.06-.06-.06-.06,.03-.06,.06,.03,.06,.06,.06Z" style="fill:#fff;"/><path d="M1333.5,220.91c.1,0,.19-.08,.19-.19s-.08-.19-.19-.19-.19,.08-.19,.19,.08,.19,.19,.19Z" style="fill:#fff;"/><path d="M1355.95,221.09c.21,0,.37-.17,.37-.37s-.17-.37-.37-.37-.37,.17-.37,.37,.17,.37,.37,.37Z" style="fill:#fff;"/><path d="M1378.39,221.28c.31,0,.56-.25,.56-.56s-.25-.56-.56-.56-.56,.25-.56,.56,.25,.56,.56,.56Z" style="fill:#fff;"/><path d="M1400.83,221.4c.38,0,.68-.31,.68-.68s-.31-.68-.68-.68-.68,.31-.68,.68,.31,.68,.68,.68Z" style="fill:#fff;"/><path d="M1423.27,221.59c.48,0,.87-.39,.87-.87s-.39-.87-.87-.87-.87,.39-.87,.87,.39,.87,.87,.87Z" style="fill:#fff;"/><path d="M1445.71,221.72c.55,0,1-.45,1-1s-.45-1-1-1-1,.45-1,1,.45,1,1,1Z" style="fill:#fff;"/><path d="M1468.15,221.78c.58,0,1.06-.47,1.06-1.06s-.47-1.06-1.06-1.06-1.06,.47-1.06,1.06,.47,1.06,1.06,1.06Z" style="fill:#fff;"/><path d="M1490.59,221.9c.65,0,1.18-.53,1.18-1.18s-.53-1.18-1.18-1.18-1.18,.53-1.18,1.18,.53,1.18,1.18,1.18Z" style="fill:#fff;"/><path d="M1513.03,221.96c.69,0,1.24-.56,1.24-1.24s-.56-1.24-1.24-1.24-1.24,.56-1.24,1.24,.56,1.24,1.24,1.24Z" style="fill:#fff;"/><path d="M1535.47,222.03c.72,0,1.31-.59,1.31-1.31s-.59-1.31-1.31-1.31-1.31,.59-1.31,1.31,.59,1.31,1.31,1.31Z" style="fill:#fff;"/><path d="M1557.91,222.09c.76,0,1.37-.61,1.37-1.37s-.61-1.37-1.37-1.37-1.37,.61-1.37,1.37,.61,1.37,1.37,1.37Z" style="fill:#fff;"/><path d="M1580.36,222.09c.76,0,1.37-.61,1.37-1.37s-.61-1.37-1.37-1.37-1.37,.61-1.37,1.37,.61,1.37,1.37,1.37Z" style="fill:#fff;"/><path d="M1602.8,222.15c.79,0,1.43-.64,1.43-1.43s-.64-1.43-1.43-1.43-1.43,.64-1.43,1.43,.64,1.43,1.43,1.43Z" style="fill:#fff;"/><path d="M1625.24,222.09c.76,0,1.37-.61,1.37-1.37s-.61-1.37-1.37-1.37-1.37,.61-1.37,1.37,.61,1.37,1.37,1.37Z" style="fill:#fff;"/><path d="M1647.68,222.09c.76,0,1.37-.61,1.37-1.37s-.61-1.37-1.37-1.37-1.37,.61-1.37,1.37,.61,1.37,1.37,1.37Z" style="fill:#fff;"/><path d="M1670.12,222.03c.72,0,1.31-.59,1.31-1.31s-.59-1.31-1.31-1.31-1.31,.59-1.31,1.31,.59,1.31,1.31,1.31Z" style="fill:#fff;"/><path d="M1692.56,221.96c.69,0,1.24-.56,1.24-1.24s-.56-1.24-1.24-1.24-1.24,.56-1.24,1.24,.56,1.24,1.24,1.24Z" style="fill:#fff;"/><path d="M1715,221.9c.65,0,1.18-.53,1.18-1.18s-.53-1.18-1.18-1.18-1.18,.53-1.18,1.18,.53,1.18,1.18,1.18Z" style="fill:#fff;"/><path d="M1737.44,221.84c.62,0,1.12-.5,1.12-1.12s-.5-1.12-1.12-1.12-1.12,.5-1.12,1.12,.5,1.12,1.12,1.12Z" style="fill:#fff;"/><path d="M1759.88,221.72c.55,0,1-.45,1-1s-.45-1-1-1-1,.45-1,1,.45,1,1,1Z" style="fill:#fff;"/><path d="M1782.33,221.59c.48,0,.87-.39,.87-.87s-.39-.87-.87-.87-.87,.39-.87,.87,.39,.87,.87,.87Z" style="fill:#fff;"/><path d="M1804.77,221.47c.41,0,.75-.33,.75-.75s-.33-.75-.75-.75-.75,.33-.75,.75,.33,.75,.75,.75Z" style="fill:#fff;"/><path d="M1827.21,221.28c.31,0,.56-.25,.56-.56s-.25-.56-.56-.56-.56,.25-.56,.56,.25,.56,.56,.56Z" style="fill:#fff;"/><path d="M1849.65,221.09c.21,0,.37-.17,.37-.37s-.17-.37-.37-.37-.37,.17-.37,.37,.17,.37,.37,.37Z" style="fill:#fff;"/><path d="M1872.09,220.97c.14,0,.25-.11,.25-.25s-.11-.25-.25-.25-.25,.11-.25,.25,.11,.25,.25,.25Z" style="fill:#fff;"/><path d="M1894.53,220.78s.06-.03,.06-.06-.03-.06-.06-.06-.06,.03-.06,.06,.03,.06,.06,.06Z" style="fill:#fff;"/><path d="M1288.62,243.28c.07,0,.12-.06,.12-.12s-.06-.12-.12-.12-.12,.06-.12,.12,.06,.12,.12,.12Z" style="fill:#fff;"/><path d="M1311.06,243.47c.17,0,.31-.14,.31-.31s-.14-.31-.31-.31-.31,.14-.31,.31,.14,.31,.31,.31Z" style="fill:#fff;"/><path d="M1333.5,243.66c.27,0,.5-.22,.5-.5s-.22-.5-.5-.5-.5,.22-.5,.5,.22,.5,.5,.5Z" style="fill:#fff;"/><path d="M1355.95,243.85c.38,0,.68-.31,.68-.68s-.31-.68-.68-.68-.68,.31-.68,.68,.31,.68,.68,.68Z" style="fill:#fff;"/><path d="M1378.39,244.03c.48,0,.87-.39,.87-.87s-.39-.87-.87-.87-.87,.39-.87,.87,.39,.87,.87,.87Z" style="fill:#fff;"/><path d="M1400.83,244.16c.55,0,1-.45,1-1s-.45-1-1-1-1,.45-1,1,.45,1,1,1Z" style="fill:#fff;"/><path d="M1423.27,244.34c.65,0,1.18-.53,1.18-1.18s-.53-1.18-1.18-1.18-1.18,.53-1.18,1.18,.53,1.18,1.18,1.18Z" style="fill:#fff;"/><path d="M1445.71,244.47c.72,0,1.31-.59,1.31-1.31s-.59-1.31-1.31-1.31-1.31,.59-1.31,1.31,.59,1.31,1.31,1.31Z" style="fill:#fff;"/><path d="M1468.15,244.59c.79,0,1.43-.64,1.43-1.43s-.64-1.43-1.43-1.43-1.43,.64-1.43,1.43,.64,1.43,1.43,1.43Z" style="fill:#fff;"/><path d="M1490.59,244.65c.82,0,1.49-.67,1.49-1.49s-.67-1.49-1.49-1.49-1.49,.67-1.49,1.49,.67,1.49,1.49,1.49Z" style="fill:#fff;"/><path d="M1513.03,244.78c.89,0,1.62-.72,1.62-1.62s-.72-1.62-1.62-1.62-1.62,.72-1.62,1.62,.72,1.62,1.62,1.62Z" style="fill:#fff;"/><path d="M1535.47,244.84c.93,0,1.68-.75,1.68-1.68s-.75-1.68-1.68-1.68-1.68,.75-1.68,1.68,.75,1.68,1.68,1.68Z" style="fill:#fff;"/><path d="M1557.91,244.9c.96,0,1.74-.78,1.74-1.74s-.78-1.74-1.74-1.74-1.74,.78-1.74,1.74,.78,1.74,1.74,1.74Z" style="fill:#fff;"/><path d="M1580.36,244.9c.96,0,1.74-.78,1.74-1.74s-.78-1.74-1.74-1.74-1.74,.78-1.74,1.74,.78,1.74,1.74,1.74Z" style="fill:#fff;"/><path d="M1602.8,244.9c.96,0,1.74-.78,1.74-1.74s-.78-1.74-1.74-1.74-1.74,.78-1.74,1.74,.78,1.74,1.74,1.74Z" style="fill:#fff;"/><path d="M1625.24,244.9c.96,0,1.74-.78,1.74-1.74s-.78-1.74-1.74-1.74-1.74,.78-1.74,1.74,.78,1.74,1.74,1.74Z" style="fill:#fff;"/><path d="M1647.68,244.9c.96,0,1.74-.78,1.74-1.74s-.78-1.74-1.74-1.74-1.74,.78-1.74,1.74,.78,1.74,1.74,1.74Z" style="fill:#fff;"/><path d="M1670.12,244.84c.93,0,1.68-.75,1.68-1.68s-.75-1.68-1.68-1.68-1.68,.75-1.68,1.68,.75,1.68,1.68,1.68Z" style="fill:#fff;"/><path d="M1692.56,244.78c.89,0,1.62-.72,1.62-1.62s-.72-1.62-1.62-1.62-1.62,.72-1.62,1.62,.72,1.62,1.62,1.62Z" style="fill:#fff;"/><path d="M1715,244.72c.86,0,1.56-.7,1.56-1.56s-.7-1.56-1.56-1.56-1.56,.7-1.56,1.56,.7,1.56,1.56,1.56Z" style="fill:#fff;"/><path d="M1737.44,244.59c.79,0,1.43-.64,1.43-1.43s-.64-1.43-1.43-1.43-1.43,.64-1.43,1.43,.64,1.43,1.43,1.43Z" style="fill:#fff;"/><path d="M1759.88,244.47c.72,0,1.31-.59,1.31-1.31s-.59-1.31-1.31-1.31-1.31,.59-1.31,1.31,.59,1.31,1.31,1.31Z" style="fill:#fff;"/><path d="M1782.33,244.34c.65,0,1.18-.53,1.18-1.18s-.53-1.18-1.18-1.18-1.18,.53-1.18,1.18,.53,1.18,1.18,1.18Z" style="fill:#fff;"/><path d="M1804.77,244.22c.58,0,1.06-.47,1.06-1.06s-.47-1.06-1.06-1.06-1.06,.47-1.06,1.06,.47,1.06,1.06,1.06Z" style="fill:#fff;"/><path d="M1827.21,244.03c.48,0,.87-.39,.87-.87s-.39-.87-.87-.87-.87,.39-.87,.87,.39,.87,.87,.87Z" style="fill:#fff;"/><path d="M1849.65,243.85c.38,0,.68-.31,.68-.68s-.31-.68-.68-.68-.68,.31-.68,.68,.31,.68,.68,.68Z" style="fill:#fff;"/><path d="M1872.09,243.66c.27,0,.5-.22,.5-.5s-.22-.5-.5-.5-.5,.22-.5,.5,.22,.5,.5,.5Z" style="fill:#fff;"/><path d="M1894.53,243.47c.17,0,.31-.14,.31-.31s-.14-.31-.31-.31-.31,.14-.31,.31,.14,.31,.31,.31Z" style="fill:#fff;"/><path d="M1916.97,243.28c.07,0,.12-.06,.12-.12s-.06-.12-.12-.12-.12,.06-.12,.12,.06,.12,.12,.12Z" style="fill:#fff;"/><path d="M1266.18,265.73c.07,0,.12-.06,.12-.12s-.06-.12-.12-.12-.12,.06-.12,.12,.06,.12,.12,.12Z" style="fill:#fff;"/><path d="M1288.62,265.97c.21,0,.37-.17,.37-.37s-.17-.37-.37-.37-.37,.17-.37,.37,.17,.37,.37,.37Z" style="fill:#fff;"/><path d="M1311.06,266.16c.31,0,.56-.25,.56-.56s-.25-.56-.56-.56-.56,.25-.56,.56,.25,.56,.56,.56Z" style="fill:#fff;"/><path d="M1333.5,266.41c.45,0,.81-.36,.81-.81s-.36-.81-.81-.81-.81,.36-.81,.81,.36,.81,.81,.81Z" style="fill:#fff;"/><path d="M1355.95,266.6c.55,0,1-.45,1-1s-.45-1-1-1-1,.45-1,1,.45,1,1,1Z" style="fill:#fff;"/><path d="M1378.39,266.78c.65,0,1.18-.53,1.18-1.18s-.53-1.18-1.18-1.18-1.18,.53-1.18,1.18,.53,1.18,1.18,1.18Z" style="fill:#fff;"/><path d="M1400.83,266.91c.72,0,1.31-.59,1.31-1.31s-.59-1.31-1.31-1.31-1.31,.59-1.31,1.31,.59,1.31,1.31,1.31Z" style="fill:#fff;"/><path d="M1423.27,267.1c.82,0,1.49-.67,1.49-1.49s-.67-1.49-1.49-1.49-1.49,.67-1.49,1.49,.67,1.49,1.49,1.49Z" style="fill:#fff;"/><path d="M1445.71,267.22c.89,0,1.62-.72,1.62-1.62s-.72-1.62-1.62-1.62-1.62,.72-1.62,1.62,.72,1.62,1.62,1.62Z" style="fill:#fff;"/><path d="M1468.15,267.34c.96,0,1.74-.78,1.74-1.74s-.78-1.74-1.74-1.74-1.74,.78-1.74,1.74,.78,1.74,1.74,1.74Z" style="fill:#fff;"/><path d="M1490.59,267.47c1.03,0,1.87-.84,1.87-1.87s-.84-1.87-1.87-1.87-1.87,.84-1.87,1.87,.84,1.87,1.87,1.87Z" style="fill:#fff;"/><path d="M1513.03,267.53c1.07,0,1.93-.86,1.93-1.93s-.86-1.93-1.93-1.93-1.93,.86-1.93,1.93,.86,1.93,1.93,1.93Z" style="fill:#fff;"/><path d="M1535.47,267.59c1.1,0,1.99-.89,1.99-1.99s-.89-1.99-1.99-1.99-1.99,.89-1.99,1.99,.89,1.99,1.99,1.99Z" style="fill:#fff;"/><path d="M1557.91,267.65c1.13,0,2.05-.92,2.05-2.05s-.92-2.05-2.05-2.05-2.05,.92-2.05,2.05,.92,2.05,2.05,2.05Z" style="fill:#fff;"/><path d="M1580.36,267.65c1.13,0,2.05-.92,2.05-2.05s-.92-2.05-2.05-2.05-2.05,.92-2.05,2.05,.92,2.05,2.05,2.05Z" style="fill:#fff;"/><path d="M1602.8,267.72c1.17,0,2.12-.95,2.12-2.12s-.95-2.12-2.12-2.12-2.12,.95-2.12,2.12,.95,2.12,2.12,2.12Z" style="fill:#fff;"/><path d="M1625.24,267.65c1.13,0,2.05-.92,2.05-2.05s-.92-2.05-2.05-2.05-2.05,.92-2.05,2.05,.92,2.05,2.05,2.05Z" style="fill:#fff;"/><path d="M1647.68,267.65c1.13,0,2.05-.92,2.05-2.05s-.92-2.05-2.05-2.05-2.05,.92-2.05,2.05,.92,2.05,2.05,2.05Z" style="fill:#fff;"/><path d="M1670.12,267.59c1.1,0,1.99-.89,1.99-1.99s-.89-1.99-1.99-1.99-1.99,.89-1.99,1.99,.89,1.99,1.99,1.99Z" style="fill:#fff;"/><path d="M1692.56,267.53c1.07,0,1.93-.86,1.93-1.93s-.86-1.93-1.93-1.93-1.93,.86-1.93,1.93,.86,1.93,1.93,1.93Z" style="fill:#fff;"/><path d="M1715,267.47c1.03,0,1.87-.84,1.87-1.87s-.84-1.87-1.87-1.87-1.87,.84-1.87,1.87,.84,1.87,1.87,1.87Z" style="fill:#fff;"/><path d="M1737.44,267.34c.96,0,1.74-.78,1.74-1.74s-.78-1.74-1.74-1.74-1.74,.78-1.74,1.74,.78,1.74,1.74,1.74Z" style="fill:#fff;"/><path d="M1759.88,267.22c.89,0,1.62-.72,1.62-1.62s-.72-1.62-1.62-1.62-1.62,.72-1.62,1.62,.72,1.62,1.62,1.62Z" style="fill:#fff;"/><path d="M1782.33,267.1c.82,0,1.49-.67,1.49-1.49s-.67-1.49-1.49-1.49-1.49,.67-1.49,1.49,.67,1.49,1.49,1.49Z" style="fill:#fff;"/><path d="M1804.77,266.91c.72,0,1.31-.59,1.31-1.31s-.59-1.31-1.31-1.31-1.31,.59-1.31,1.31,.59,1.31,1.31,1.31Z" style="fill:#fff;"/><path d="M1827.21,266.78c.65,0,1.18-.53,1.18-1.18s-.53-1.18-1.18-1.18-1.18,.53-1.18,1.18,.53,1.18,1.18,1.18Z" style="fill:#fff;"/><path d="M1849.65,266.6c.55,0,1-.45,1-1s-.45-1-1-1-1,.45-1,1,.45,1,1,1Z" style="fill:#fff;"/><path d="M1872.09,266.41c.45,0,.81-.36,.81-.81s-.36-.81-.81-.81-.81,.36-.81,.81,.36,.81,.81,.81Z" style="fill:#fff;"/><path d="M1894.53,266.22c.34,0,.62-.28,.62-.62s-.28-.62-.62-.62-.62,.28-.62,.62,.28,.62,.62,.62Z" style="fill:#fff;"/><path d="M1916.97,265.97c.21,0,.37-.17,.37-.37s-.17-.37-.37-.37-.37,.17-.37,.37,.17,.37,.37,.37Z" style="fill:#fff;"/><path d="M1243.74,288.23c.1,0,.19-.08,.19-.19s-.08-.19-.19-.19-.19,.08-.19,.19,.08,.19,.19,.19Z" style="fill:#fff;"/><path d="M1266.18,288.42c.21,0,.37-.17,.37-.37s-.17-.37-.37-.37-.37,.17-.37,.37,.17,.37,.37,.37Z" style="fill:#fff;"/><path d="M1288.62,288.66c.34,0,.62-.28,.62-.62s-.28-.62-.62-.62-.62,.28-.62,.62,.28,.62,.62,.62Z" style="fill:#fff;"/><path d="M1311.06,288.91c.48,0,.87-.39,.87-.87s-.39-.87-.87-.87-.87,.39-.87,.87,.39,.87,.87,.87Z" style="fill:#fff;"/><path d="M1333.5,289.1c.58,0,1.06-.47,1.06-1.06s-.47-1.06-1.06-1.06-1.06,.47-1.06,1.06,.47,1.06,1.06,1.06Z" style="fill:#fff;"/><path d="M1355.95,289.29c.69,0,1.24-.56,1.24-1.24s-.56-1.24-1.24-1.24-1.24,.56-1.24,1.24,.56,1.24,1.24,1.24Z" style="fill:#fff;"/><path d="M1378.39,289.47c.79,0,1.43-.64,1.43-1.43s-.64-1.43-1.43-1.43-1.43,.64-1.43,1.43,.64,1.43,1.43,1.43Z" style="fill:#fff;"/><path d="M1400.83,289.66c.89,0,1.62-.72,1.62-1.62s-.72-1.62-1.62-1.62-1.62,.72-1.62,1.62,.72,1.62,1.62,1.62Z" style="fill:#fff;"/><path d="M1423.27,289.85c1,0,1.8-.81,1.8-1.8s-.81-1.8-1.8-1.8-1.8,.81-1.8,1.8,.81,1.8,1.8,1.8Z" style="fill:#fff;"/><path d="M1445.71,289.97c1.07,0,1.93-.86,1.93-1.93s-.86-1.93-1.93-1.93-1.93,.86-1.93,1.93,.86,1.93,1.93,1.93Z" style="fill:#fff;"/><path d="M1468.15,290.1c1.13,0,2.05-.92,2.05-2.05s-.92-2.05-2.05-2.05-2.05,.92-2.05,2.05,.92,2.05,2.05,2.05Z" style="fill:#fff;"/><path d="M1490.59,290.22c1.2,0,2.18-.98,2.18-2.18s-.98-2.18-2.18-2.18-2.18,.98-2.18,2.18,.98,2.18,2.18,2.18Z" style="fill:#fff;"/><path d="M1513.03,290.34c1.27,0,2.3-1.03,2.3-2.3s-1.03-2.3-2.3-2.3-2.3,1.03-2.3,2.3,1.03,2.3,2.3,2.3Z" style="fill:#fff;"/><path d="M1535.47,290.41c1.31,0,2.36-1.06,2.36-2.36s-1.06-2.36-2.36-2.36-2.36,1.06-2.36,2.36,1.06,2.36,2.36,2.36Z" style="fill:#fff;"/><path d="M1557.91,290.41c1.31,0,2.36-1.06,2.36-2.36s-1.06-2.36-2.36-2.36-2.36,1.06-2.36,2.36,1.06,2.36,2.36,2.36Z" style="fill:#fff;"/><path d="M1580.36,290.47c1.34,0,2.43-1.09,2.43-2.43s-1.09-2.43-2.43-2.43-2.43,1.09-2.43,2.43,1.09,2.43,2.43,2.43Z" style="fill:#fff;"/><path d="M1602.8,290.47c1.34,0,2.43-1.09,2.43-2.43s-1.09-2.43-2.43-2.43-2.43,1.09-2.43,2.43,1.09,2.43,2.43,2.43Z" style="fill:#fff;"/><path d="M1625.24,290.47c1.34,0,2.43-1.09,2.43-2.43s-1.09-2.43-2.43-2.43-2.43,1.09-2.43,2.43,1.09,2.43,2.43,2.43Z" style="fill:#fff;"/><path d="M1647.68,290.41c1.31,0,2.36-1.06,2.36-2.36s-1.06-2.36-2.36-2.36-2.36,1.06-2.36,2.36,1.06,2.36,2.36,2.36Z" style="fill:#fff;"/><path d="M1670.12,290.41c1.31,0,2.36-1.06,2.36-2.36s-1.06-2.36-2.36-2.36-2.36,1.06-2.36,2.36,1.06,2.36,2.36,2.36Z" style="fill:#fff;"/><path d="M1692.56,290.34c1.27,0,2.3-1.03,2.3-2.3s-1.03-2.3-2.3-2.3-2.3,1.03-2.3,2.3,1.03,2.3,2.3,2.3Z" style="fill:#fff;"/><path d="M1715,290.22c1.2,0,2.18-.98,2.18-2.18s-.98-2.18-2.18-2.18-2.18,.98-2.18,2.18,.98,2.18,2.18,2.18Z" style="fill:#fff;"/><path d="M1737.44,290.1c1.13,0,2.05-.92,2.05-2.05s-.92-2.05-2.05-2.05-2.05,.92-2.05,2.05,.92,2.05,2.05,2.05Z" style="fill:#fff;"/><path d="M1759.88,289.97c1.07,0,1.93-.86,1.93-1.93s-.86-1.93-1.93-1.93-1.93,.86-1.93,1.93,.86,1.93,1.93,1.93Z" style="fill:#fff;"/><path d="M1782.33,289.85c1,0,1.8-.81,1.8-1.8s-.81-1.8-1.8-1.8-1.8,.81-1.8,1.8,.81,1.8,1.8,1.8Z" style="fill:#fff;"/><path d="M1804.77,289.66c.89,0,1.62-.72,1.62-1.62s-.72-1.62-1.62-1.62-1.62,.72-1.62,1.62,.72,1.62,1.62,1.62Z" style="fill:#fff;"/><path d="M1827.21,289.54c.82,0,1.49-.67,1.49-1.49s-.67-1.49-1.49-1.49-1.49,.67-1.49,1.49,.67,1.49,1.49,1.49Z" style="fill:#fff;"/><path d="M1849.65,289.35c.72,0,1.31-.59,1.31-1.31s-.59-1.31-1.31-1.31-1.31,.59-1.31,1.31,.59,1.31,1.31,1.31Z" style="fill:#fff;"/><path d="M1872.09,289.1c.58,0,1.06-.47,1.06-1.06s-.47-1.06-1.06-1.06-1.06,.47-1.06,1.06,.47,1.06,1.06,1.06Z" style="fill:#fff;"/><path d="M1894.53,288.91c.48,0,.87-.39,.87-.87s-.39-.87-.87-.87-.87,.39-.87,.87,.39,.87,.87,.87Z" style="fill:#fff;"/><path d="M1916.97,288.66c.34,0,.62-.28,.62-.62s-.28-.62-.62-.62-.62,.28-.62,.62,.28,.62,.62,.62Z" style="fill:#fff;"/><path d="M1221.3,310.61c.07,0,.12-.06,.12-.12s-.06-.12-.12-.12-.12,.06-.12,.12,.06,.12,.12,.12Z" style="fill:#fff;"/><path d="M1243.74,310.86c.21,0,.37-.17,.37-.37s-.17-.37-.37-.37-.37,.17-.37,.37,.17,.37,.37,.37Z" style="fill:#fff;"/><path d="M1266.18,311.11c.34,0,.62-.28,.62-.62s-.28-.62-.62-.62-.62,.28-.62,.62,.28,.62,.62,.62Z" style="fill:#fff;"/><path d="M1288.62,311.35c.48,0,.87-.39,.87-.87s-.39-.87-.87-.87-.87,.39-.87,.87,.39,.87,.87,.87Z" style="fill:#fff;"/><path d="M1311.06,311.6c.62,0,1.12-.5,1.12-1.12s-.5-1.12-1.12-1.12-1.12,.5-1.12,1.12,.5,1.12,1.12,1.12Z" style="fill:#fff;"/><path d="M1333.5,311.79c.72,0,1.31-.59,1.31-1.31s-.59-1.31-1.31-1.31-1.31,.59-1.31,1.31,.59,1.31,1.31,1.31Z" style="fill:#fff;"/><path d="M1355.95,312.04c.86,0,1.56-.7,1.56-1.56s-.7-1.56-1.56-1.56-1.56,.7-1.56,1.56,.7,1.56,1.56,1.56Z" style="fill:#fff;"/><path d="M1378.39,312.23c.96,0,1.74-.78,1.74-1.74s-.78-1.74-1.74-1.74-1.74,.78-1.74,1.74,.78,1.74,1.74,1.74Z" style="fill:#fff;"/><path d="M1400.83,312.41c1.07,0,1.93-.86,1.93-1.93s-.86-1.93-1.93-1.93-1.93,.86-1.93,1.93,.86,1.93,1.93,1.93Z" style="fill:#fff;"/><path d="M1423.27,312.6c1.17,0,2.12-.95,2.12-2.12s-.95-2.12-2.12-2.12-2.12,.95-2.12,2.12,.95,2.12,2.12,2.12Z" style="fill:#fff;"/><path d="M1445.71,312.72c1.24,0,2.24-1,2.24-2.24s-1-2.24-2.24-2.24-2.24,1-2.24,2.24,1,2.24,2.24,2.24Z" style="fill:#fff;"/><path d="M1468.15,312.85c1.31,0,2.36-1.06,2.36-2.36s-1.06-2.36-2.36-2.36-2.36,1.06-2.36,2.36,1.06,2.36,2.36,2.36Z" style="fill:#fff;"/><path d="M1490.59,312.97c1.37,0,2.49-1.11,2.49-2.49s-1.11-2.49-2.49-2.49-2.49,1.11-2.49,2.49,1.11,2.49,2.49,2.49Z" style="fill:#fff;"/><path d="M1513.03,313.1c1.44,0,2.61-1.17,2.61-2.61s-1.17-2.61-2.61-2.61-2.61,1.17-2.61,2.61,1.17,2.61,2.61,2.61Z" style="fill:#fff;"/><path d="M1535.47,313.16c1.48,0,2.68-1.2,2.68-2.68s-1.2-2.68-2.68-2.68-2.68,1.2-2.68,2.68,1.2,2.68,2.68,2.68Z" style="fill:#fff;"/><path d="M1557.91,313.22c1.51,0,2.74-1.23,2.74-2.74s-1.23-2.74-2.74-2.74-2.74,1.23-2.74,2.74,1.23,2.74,2.74,2.74Z" style="fill:#fff;"/><path d="M1580.36,313.28c1.55,0,2.8-1.25,2.8-2.8s-1.25-2.8-2.8-2.8-2.8,1.25-2.8,2.8,1.25,2.8,2.8,2.8Z" style="fill:#fff;"/><path d="M1602.8,313.28c1.55,0,2.8-1.25,2.8-2.8s-1.25-2.8-2.8-2.8-2.8,1.25-2.8,2.8,1.25,2.8,2.8,2.8Z" style="fill:#fff;"/><path d="M1625.24,313.28c1.55,0,2.8-1.25,2.8-2.8s-1.25-2.8-2.8-2.8-2.8,1.25-2.8,2.8,1.25,2.8,2.8,2.8Z" style="fill:#fff;"/><path d="M1647.68,313.22c1.51,0,2.74-1.23,2.74-2.74s-1.23-2.74-2.74-2.74-2.74,1.23-2.74,2.74,1.23,2.74,2.74,2.74Z" style="fill:#fff;"/><path d="M1670.12,313.16c1.48,0,2.68-1.2,2.68-2.68s-1.2-2.68-2.68-2.68-2.68,1.2-2.68,2.68,1.2,2.68,2.68,2.68Z" style="fill:#fff;"/><path d="M1692.56,313.1c1.44,0,2.61-1.17,2.61-2.61s-1.17-2.61-2.61-2.61-2.61,1.17-2.61,2.61,1.17,2.61,2.61,2.61Z" style="fill:#fff;"/><path d="M1715,312.97c1.37,0,2.49-1.11,2.49-2.49s-1.11-2.49-2.49-2.49-2.49,1.11-2.49,2.49,1.11,2.49,2.49,2.49Z" style="fill:#fff;"/><path d="M1737.44,312.85c1.31,0,2.36-1.06,2.36-2.36s-1.06-2.36-2.36-2.36-2.36,1.06-2.36,2.36,1.06,2.36,2.36,2.36Z" style="fill:#fff;"/><path d="M1759.88,312.72c1.24,0,2.24-1,2.24-2.24s-1-2.24-2.24-2.24-2.24,1-2.24,2.24,1,2.24,2.24,2.24Z" style="fill:#fff;"/><path d="M1782.33,312.6c1.17,0,2.12-.95,2.12-2.12s-.95-2.12-2.12-2.12-2.12,.95-2.12,2.12,.95,2.12,2.12,2.12Z" style="fill:#fff;"/><path d="M1804.77,312.41c1.07,0,1.93-.86,1.93-1.93s-.86-1.93-1.93-1.93-1.93,.86-1.93,1.93,.86,1.93,1.93,1.93Z" style="fill:#fff;"/><path d="M1827.21,312.23c.96,0,1.74-.78,1.74-1.74s-.78-1.74-1.74-1.74-1.74,.78-1.74,1.74,.78,1.74,1.74,1.74Z" style="fill:#fff;"/><path d="M1849.65,312.04c.86,0,1.56-.7,1.56-1.56s-.7-1.56-1.56-1.56-1.56,.7-1.56,1.56,.7,1.56,1.56,1.56Z" style="fill:#fff;"/><path d="M1872.09,311.85c.76,0,1.37-.61,1.37-1.37s-.61-1.37-1.37-1.37-1.37,.61-1.37,1.37,.61,1.37,1.37,1.37Z" style="fill:#fff;"/><path d="M1894.53,311.6c.62,0,1.12-.5,1.12-1.12s-.5-1.12-1.12-1.12-1.12,.5-1.12,1.12,.5,1.12,1.12,1.12Z" style="fill:#fff;"/><path d="M1916.97,311.42c.52,0,.93-.42,.93-.93s-.42-.93-.93-.93-.93,.42-.93,.93,.42,.93,.93,.93Z" style="fill:#fff;"/><path d="M1198.86,333.05c.07,0,.12-.06,.12-.12s-.06-.12-.12-.12-.12,.06-.12,.12,.06,.12,.12,.12Z" style="fill:#fff;"/><path d="M1221.3,333.3c.21,0,.37-.17,.37-.37s-.17-.37-.37-.37-.37,.17-.37,.37,.17,.37,.37,.37Z" style="fill:#fff;"/><path d="M1243.74,333.55c.34,0,.62-.28,.62-.62s-.28-.62-.62-.62-.62,.28-.62,.62,.28,.62,.62,.62Z" style="fill:#fff;"/><path d="M1266.18,333.8c.48,0,.87-.39,.87-.87s-.39-.87-.87-.87-.87,.39-.87,.87,.39,.87,.87,.87Z" style="fill:#fff;"/><path d="M1288.62,334.04c.62,0,1.12-.5,1.12-1.12s-.5-1.12-1.12-1.12-1.12,.5-1.12,1.12,.5,1.12,1.12,1.12Z" style="fill:#fff;"/><path d="M1311.06,334.29c.76,0,1.37-.61,1.37-1.37s-.61-1.37-1.37-1.37-1.37,.61-1.37,1.37,.61,1.37,1.37,1.37Z" style="fill:#fff;"/><path d="M1333.5,334.54c.89,0,1.62-.72,1.62-1.62s-.72-1.62-1.62-1.62-1.62,.72-1.62,1.62,.72,1.62,1.62,1.62Z" style="fill:#fff;"/><path d="M1355.95,334.73c1,0,1.8-.81,1.8-1.8s-.81-1.8-1.8-1.8-1.8,.81-1.8,1.8,.81,1.8,1.8,1.8Z" style="fill:#fff;"/><path d="M1378.39,334.92c1.1,0,1.99-.89,1.99-1.99s-.89-1.99-1.99-1.99-1.99,.89-1.99,1.99,.89,1.99,1.99,1.99Z" style="fill:#fff;"/><path d="M1400.83,335.16c1.24,0,2.24-1,2.24-2.24s-1-2.24-2.24-2.24-2.24,1-2.24,2.24,1,2.24,2.24,2.24Z" style="fill:#fff;"/><path d="M1423.27,335.29c1.31,0,2.36-1.06,2.36-2.36s-1.06-2.36-2.36-2.36-2.36,1.06-2.36,2.36,1.06,2.36,2.36,2.36Z" style="fill:#fff;"/><path d="M1445.71,335.48c1.41,0,2.55-1.14,2.55-2.55s-1.14-2.55-2.55-2.55-2.55,1.14-2.55,2.55,1.14,2.55,2.55,2.55Z" style="fill:#fff;"/><path d="M1468.15,335.66c1.51,0,2.74-1.23,2.74-2.74s-1.23-2.74-2.74-2.74-2.74,1.23-2.74,2.74,1.23,2.74,2.74,2.74Z" style="fill:#fff;"/><path d="M1490.59,335.79c1.58,0,2.86-1.28,2.86-2.86s-1.28-2.86-2.86-2.86-2.86,1.28-2.86,2.86,1.28,2.86,2.86,2.86Z" style="fill:#fff;"/><path d="M1513.03,335.91c1.65,0,2.99-1.34,2.99-2.99s-1.34-2.99-2.99-2.99-2.99,1.34-2.99,2.99,1.34,2.99,2.99,2.99Z" style="fill:#fff;"/><path d="M1535.47,335.97c1.68,0,3.05-1.37,3.05-3.05s-1.37-3.05-3.05-3.05-3.05,1.37-3.05,3.05,1.37,3.05,3.05,3.05Z" style="fill:#fff;"/><path d="M1557.91,336.04c1.72,0,3.11-1.39,3.11-3.11s-1.39-3.11-3.11-3.11-3.11,1.39-3.11,3.11,1.39,3.11,3.11,3.11Z" style="fill:#fff;"/><path d="M1580.36,336.04c1.72,0,3.11-1.39,3.11-3.11s-1.39-3.11-3.11-3.11-3.11,1.39-3.11,3.11,1.39,3.11,3.11,3.11Z" style="fill:#fff;"/><path d="M1602.8,336.1c1.75,0,3.17-1.42,3.17-3.17s-1.42-3.17-3.17-3.17-3.17,1.42-3.17,3.17,1.42,3.17,3.17,3.17Z" style="fill:#fff;"/><path d="M1625.24,336.1c1.75,0,3.17-1.42,3.17-3.17s-1.42-3.17-3.17-3.17-3.17,1.42-3.17,3.17,1.42,3.17,3.17,3.17Z" style="fill:#fff;"/><path d="M1647.68,336.04c1.72,0,3.11-1.39,3.11-3.11s-1.39-3.11-3.11-3.11-3.11,1.39-3.11,3.11,1.39,3.11,3.11,3.11Z" style="fill:#fff;"/><path d="M1670.12,335.97c1.68,0,3.05-1.37,3.05-3.05s-1.37-3.05-3.05-3.05-3.05,1.37-3.05,3.05,1.37,3.05,3.05,3.05Z" style="fill:#fff;"/><path d="M1692.56,335.91c1.65,0,2.99-1.34,2.99-2.99s-1.34-2.99-2.99-2.99-2.99,1.34-2.99,2.99,1.34,2.99,2.99,2.99Z" style="fill:#fff;"/><path d="M1715,335.79c1.58,0,2.86-1.28,2.86-2.86s-1.28-2.86-2.86-2.86-2.86,1.28-2.86,2.86,1.28,2.86,2.86,2.86Z" style="fill:#fff;"/><path d="M1737.44,335.66c1.51,0,2.74-1.23,2.74-2.74s-1.23-2.74-2.74-2.74-2.74,1.23-2.74,2.74,1.23,2.74,2.74,2.74Z" style="fill:#fff;"/><path d="M1759.88,335.48c1.41,0,2.55-1.14,2.55-2.55s-1.14-2.55-2.55-2.55-2.55,1.14-2.55,2.55,1.14,2.55,2.55,2.55Z" style="fill:#fff;"/><path d="M1782.33,335.35c1.34,0,2.43-1.09,2.43-2.43s-1.09-2.43-2.43-2.43-2.43,1.09-2.43,2.43,1.09,2.43,2.43,2.43Z" style="fill:#fff;"/><path d="M1804.77,335.16c1.24,0,2.24-1,2.24-2.24s-1-2.24-2.24-2.24-2.24,1-2.24,2.24,1,2.24,2.24,2.24Z" style="fill:#fff;"/><path d="M1827.21,334.98c1.13,0,2.05-.92,2.05-2.05s-.92-2.05-2.05-2.05-2.05,.92-2.05,2.05,.92,2.05,2.05,2.05Z" style="fill:#fff;"/><path d="M1849.65,334.73c1,0,1.8-.81,1.8-1.8s-.81-1.8-1.8-1.8-1.8,.81-1.8,1.8,.81,1.8,1.8,1.8Z" style="fill:#fff;"/><path d="M1872.09,334.54c.89,0,1.62-.72,1.62-1.62s-.72-1.62-1.62-1.62-1.62,.72-1.62,1.62,.72,1.62,1.62,1.62Z" style="fill:#fff;"/><path d="M1894.53,334.29c.76,0,1.37-.61,1.37-1.37s-.61-1.37-1.37-1.37-1.37,.61-1.37,1.37,.61,1.37,1.37,1.37Z" style="fill:#fff;"/><path d="M1916.97,334.11c.65,0,1.18-.53,1.18-1.18s-.53-1.18-1.18-1.18-1.18,.53-1.18,1.18,.53,1.18,1.18,1.18Z" style="fill:#fff;"/><path d="M1176.42,355.43s.06-.03,.06-.06-.03-.06-.06-.06-.06,.03-.06,.06,.03,.06,.06,.06Z" style="fill:#fff;"/><path d="M1198.86,355.68c.17,0,.31-.14,.31-.31s-.14-.31-.31-.31-.31,.14-.31,.31,.14,.31,.31,.31Z" style="fill:#fff;"/><path d="M1221.3,355.93c.31,0,.56-.25,.56-.56s-.25-.56-.56-.56-.56,.25-.56,.56,.25,.56,.56,.56Z" style="fill:#fff;"/><path d="M1243.74,356.24c.48,0,.87-.39,.87-.87s-.39-.87-.87-.87-.87,.39-.87,.87,.39,.87,.87,.87Z" style="fill:#fff;"/><path d="M1266.18,356.49c.62,0,1.12-.5,1.12-1.12s-.5-1.12-1.12-1.12-1.12,.5-1.12,1.12,.5,1.12,1.12,1.12Z" style="fill:#fff;"/><path d="M1288.62,356.73c.76,0,1.37-.61,1.37-1.37s-.61-1.37-1.37-1.37-1.37,.61-1.37,1.37,.61,1.37,1.37,1.37Z" style="fill:#fff;"/><path d="M1311.06,356.98c.89,0,1.62-.72,1.62-1.62s-.72-1.62-1.62-1.62-1.62,.72-1.62,1.62,.72,1.62,1.62,1.62Z" style="fill:#fff;"/><path d="M1333.5,357.23c1.03,0,1.87-.84,1.87-1.87s-.84-1.87-1.87-1.87-1.87,.84-1.87,1.87,.84,1.87,1.87,1.87Z" style="fill:#fff;"/><path d="M1355.95,357.42c1.13,0,2.05-.92,2.05-2.05s-.92-2.05-2.05-2.05-2.05,.92-2.05,2.05,.92,2.05,2.05,2.05Z" style="fill:#fff;"/><path d="M1378.39,357.67c1.27,0,2.3-1.03,2.3-2.3s-1.03-2.3-2.3-2.3-2.3,1.03-2.3,2.3,1.03,2.3,2.3,2.3Z" style="fill:#fff;"/><path d="M1400.83,357.85c1.37,0,2.49-1.11,2.49-2.49s-1.11-2.49-2.49-2.49-2.49,1.11-2.49,2.49,1.11,2.49,2.49,2.49Z" style="fill:#fff;"/><path d="M1423.27,358.04c1.48,0,2.68-1.2,2.68-2.68s-1.2-2.68-2.68-2.68-2.68,1.2-2.68,2.68,1.2,2.68,2.68,2.68Z" style="fill:#fff;"/><path d="M1445.71,358.23c1.58,0,2.86-1.28,2.86-2.86s-1.28-2.86-2.86-2.86-2.86,1.28-2.86,2.86,1.28,2.86,2.86,2.86Z" style="fill:#fff;"/><path d="M1468.15,358.42c1.68,0,3.05-1.37,3.05-3.05s-1.37-3.05-3.05-3.05-3.05,1.37-3.05,3.05,1.37,3.05,3.05,3.05Z" style="fill:#fff;"/><path d="M1490.59,358.54c1.75,0,3.17-1.42,3.17-3.17s-1.42-3.17-3.17-3.17-3.17,1.42-3.17,3.17,1.42,3.17,3.17,3.17Z" style="fill:#fff;"/><path d="M1513.03,358.66c1.82,0,3.3-1.48,3.3-3.3s-1.48-3.3-3.3-3.3-3.3,1.48-3.3,3.3,1.48,3.3,3.3,3.3Z" style="fill:#fff;"/><path d="M1535.47,358.73c1.86,0,3.36-1.5,3.36-3.36s-1.5-3.36-3.36-3.36-3.36,1.5-3.36,3.36,1.5,3.36,3.36,3.36Z" style="fill:#fff;"/><path d="M1557.91,358.79c1.89,0,3.42-1.53,3.42-3.42s-1.53-3.42-3.42-3.42-3.42,1.53-3.42,3.42,1.53,3.42,3.42,3.42Z" style="fill:#fff;"/><path d="M1580.36,358.85c1.92,0,3.48-1.56,3.48-3.48s-1.56-3.48-3.48-3.48-3.48,1.56-3.48,3.48,1.56,3.48,3.48,3.48Z" style="fill:#fff;"/><path d="M1602.8,358.85c1.92,0,3.48-1.56,3.48-3.48s-1.56-3.48-3.48-3.48-3.48,1.56-3.48,3.48,1.56,3.48,3.48,3.48Z" style="fill:#fff;"/><path d="M1625.24,358.85c1.92,0,3.48-1.56,3.48-3.48s-1.56-3.48-3.48-3.48-3.48,1.56-3.48,3.48,1.56,3.48,3.48,3.48Z" style="fill:#fff;"/><path d="M1647.68,358.79c1.89,0,3.42-1.53,3.42-3.42s-1.53-3.42-3.42-3.42-3.42,1.53-3.42,3.42,1.53,3.42,3.42,3.42Z" style="fill:#fff;"/><path d="M1670.12,358.73c1.86,0,3.36-1.5,3.36-3.36s-1.5-3.36-3.36-3.36-3.36,1.5-3.36,3.36,1.5,3.36,3.36,3.36Z" style="fill:#fff;"/><path d="M1692.56,358.66c1.82,0,3.3-1.48,3.3-3.3s-1.48-3.3-3.3-3.3-3.3,1.48-3.3,3.3,1.48,3.3,3.3,3.3Z" style="fill:#fff;"/><path d="M1715,358.54c1.75,0,3.17-1.42,3.17-3.17s-1.42-3.17-3.17-3.17-3.17,1.42-3.17,3.17,1.42,3.17,3.17,3.17Z" style="fill:#fff;"/><path d="M1737.44,358.42c1.68,0,3.05-1.37,3.05-3.05s-1.37-3.05-3.05-3.05-3.05,1.37-3.05,3.05,1.37,3.05,3.05,3.05Z" style="fill:#fff;"/><path d="M1759.88,358.29c1.62,0,2.92-1.31,2.92-2.92s-1.31-2.92-2.92-2.92-2.92,1.31-2.92,2.92,1.31,2.92,2.92,2.92Z" style="fill:#fff;"/><path d="M1782.33,358.1c1.51,0,2.74-1.23,2.74-2.74s-1.23-2.74-2.74-2.74-2.74,1.23-2.74,2.74,1.23,2.74,2.74,2.74Z" style="fill:#fff;"/><path d="M1804.77,357.92c1.41,0,2.55-1.14,2.55-2.55s-1.14-2.55-2.55-2.55-2.55,1.14-2.55,2.55,1.14,2.55,2.55,2.55Z" style="fill:#fff;"/><path d="M1827.21,357.67c1.27,0,2.3-1.03,2.3-2.3s-1.03-2.3-2.3-2.3-2.3,1.03-2.3,2.3,1.03,2.3,2.3,2.3Z" style="fill:#fff;"/><path d="M1849.65,357.48c1.17,0,2.12-.95,2.12-2.12s-.95-2.12-2.12-2.12-2.12,.95-2.12,2.12,.95,2.12,2.12,2.12Z" style="fill:#fff;"/><path d="M1872.09,357.23c1.03,0,1.87-.84,1.87-1.87s-.84-1.87-1.87-1.87-1.87,.84-1.87,1.87,.84,1.87,1.87,1.87Z" style="fill:#fff;"/><path d="M1894.53,356.98c.89,0,1.62-.72,1.62-1.62s-.72-1.62-1.62-1.62-1.62,.72-1.62,1.62,.72,1.62,1.62,1.62Z" style="fill:#fff;"/><path d="M1916.97,356.73c.76,0,1.37-.61,1.37-1.37s-.61-1.37-1.37-1.37-1.37,.61-1.37,1.37,.61,1.37,1.37,1.37Z" style="fill:#fff;"/></g><g style="opacity:.1;"><circle cx="-3.54" cy="3.99" r="7.08" style="fill:#fff;"/><circle cx="18.27" cy="3.99" r="7.44" style="fill:#fff;"/><path d="M40.08,11.61c4.21,0,7.62-3.41,7.62-7.62s-3.41-7.62-7.62-7.62-7.62,3.41-7.62,7.62,3.41,7.62,7.62,7.62Z" style="fill:#fff;"/><circle cx="61.88" cy="3.99" r="7.44" style="fill:#fff;"/><circle cx="83.69" cy="3.99" r="7.14" style="fill:#fff;"/><circle cx="105.5" cy="3.99" r="6.77" style="fill:#fff;"/><path d="M127.3,10.46c3.57,0,6.47-2.9,6.47-6.47s-2.9-6.47-6.47-6.47-6.47,2.9-6.47,6.47,2.9,6.47,6.47,6.47Z" style="fill:#fff;"/><path d="M149.11,10.09c3.37,0,6.11-2.73,6.11-6.11s-2.73-6.11-6.11-6.11-6.11,2.73-6.11,6.11,2.73,6.11,6.11,6.11Z" style="fill:#fff;"/><path d="M170.92,9.79c3.21,0,5.81-2.6,5.81-5.81s-2.6-5.81-5.81-5.81-5.81,2.6-5.81,5.81,2.6,5.81,5.81,5.81Z" style="fill:#fff;"/><path d="M192.73,9.43c3.01,0,5.44-2.44,5.44-5.44s-2.44-5.44-5.44-5.44-5.44,2.44-5.44,5.44,2.44,5.44,5.44,5.44Z" style="fill:#fff;"/><circle cx="214.53" cy="3.99" r="5.14" style="fill:#fff;"/><circle cx="236.34" cy="3.99" r="4.78" style="fill:#fff;"/><circle cx="258.15" cy="3.99" r="4.41" style="fill:#fff;"/><circle cx="279.95" cy="3.99" r="4.11" style="fill:#fff;"/><circle cx="301.76" cy="3.99" r="3.75" style="fill:#fff;"/><circle cx="323.57" cy="3.99" r="3.45" style="fill:#fff;"/><circle cx="345.37" cy="3.99" r="3.08" style="fill:#fff;"/><path d="M367.18,6.77c1.54,0,2.78-1.25,2.78-2.78s-1.25-2.78-2.78-2.78-2.78,1.25-2.78,2.78,1.25,2.78,2.78,2.78Z" style="fill:#fff;"/><path d="M388.99,6.41c1.34,0,2.42-1.08,2.42-2.42s-1.08-2.42-2.42-2.42-2.42,1.08-2.42,2.42,1.08,2.42,2.42,2.42Z" style="fill:#fff;"/><path d="M410.8,6.04c1.14,0,2.06-.92,2.06-2.06s-.92-2.06-2.06-2.06-2.06,.92-2.06,2.06,.92,2.06,2.06,2.06Z" style="fill:#fff;"/><circle cx="432.6" cy="3.99" r="1.75" style="fill:#fff;"/><circle cx="454.41" cy="3.99" r="1.39" style="fill:#fff;"/><circle cx="476.22" cy="3.99" r="1.09" style="fill:#fff;"/><circle cx="498.02" cy="3.99" r=".73" style="fill:#fff;"/><circle cx="519.83" cy="3.99" r=".42" style="fill:#fff;"/><circle cx="541.64" cy="3.99" r=".06" style="fill:#fff;"/><circle cx="-3.54" cy="25.79" r="7.01" style="fill:#fff;"/><path d="M18.27,33.11c4.04,0,7.32-3.28,7.32-7.32s-3.28-7.32-7.32-7.32-7.32,3.28-7.32,7.32,3.28,7.32,7.32,7.32Z" style="fill:#fff;"/><circle cx="40.08" cy="25.79" r="7.44" style="fill:#fff;"/><path d="M61.88,33.11c4.04,0,7.32-3.28,7.32-7.32s-3.28-7.32-7.32-7.32-7.32,3.28-7.32,7.32,3.28,7.32,7.32,7.32Z" style="fill:#fff;"/><circle cx="83.69" cy="25.79" r="7.08" style="fill:#fff;"/><circle cx="105.5" cy="25.79" r="6.77" style="fill:#fff;"/><circle cx="127.3" cy="25.79" r="6.41" style="fill:#fff;"/><path d="M149.11,31.9c3.37,0,6.11-2.73,6.11-6.11s-2.73-6.11-6.11-6.11-6.11,2.73-6.11,6.11,2.73,6.11,6.11,6.11Z" style="fill:#fff;"/><path d="M170.92,31.54c3.17,0,5.74-2.57,5.74-5.74s-2.57-5.74-5.74-5.74-5.74,2.57-5.74,5.74,2.57,5.74,5.74,5.74Z" style="fill:#fff;"/><path d="M192.73,31.24c3.01,0,5.44-2.44,5.44-5.44s-2.44-5.44-5.44-5.44-5.44,2.44-5.44,5.44,2.44,5.44,5.44,5.44Z" style="fill:#fff;"/><path d="M214.53,30.87c2.81,0,5.08-2.27,5.08-5.08s-2.27-5.08-5.08-5.08-5.08,2.27-5.08,5.08,2.27,5.08,5.08,5.08Z" style="fill:#fff;"/><circle cx="236.34" cy="25.79" r="4.78" style="fill:#fff;"/><circle cx="258.15" cy="25.79" r="4.41" style="fill:#fff;"/><circle cx="279.95" cy="25.79" r="4.11" style="fill:#fff;"/><circle cx="301.76" cy="25.79" r="3.75" style="fill:#fff;"/><circle cx="323.57" cy="25.79" r="3.45" style="fill:#fff;"/><circle cx="345.37" cy="25.79" r="3.08" style="fill:#fff;"/><path d="M367.18,28.58c1.54,0,2.78-1.25,2.78-2.78s-1.25-2.78-2.78-2.78-2.78,1.25-2.78,2.78,1.25,2.78,2.78,2.78Z" style="fill:#fff;"/><path d="M388.99,28.21c1.34,0,2.42-1.08,2.42-2.42s-1.08-2.42-2.42-2.42-2.42,1.08-2.42,2.42,1.08,2.42,2.42,2.42Z" style="fill:#fff;"/><path d="M410.8,27.85c1.14,0,2.06-.92,2.06-2.06s-.92-2.06-2.06-2.06-2.06,.92-2.06,2.06,.92,2.06,2.06,2.06Z" style="fill:#fff;"/><circle cx="432.6" cy="25.79" r="1.75" style="fill:#fff;"/><circle cx="454.41" cy="25.79" r="1.39" style="fill:#fff;"/><circle cx="476.22" cy="25.79" r="1.09" style="fill:#fff;"/><circle cx="498.02" cy="25.79" r=".73" style="fill:#fff;"/><circle cx="519.83" cy="25.79" r=".42" style="fill:#fff;"/><circle cx="541.64" cy="25.79" r=".06" style="fill:#fff;"/><path d="M-3.54,54.43c3.77,0,6.83-3.06,6.83-6.83s-3.06-6.83-6.83-6.83-6.83,3.06-6.83,6.83,3.06,6.83,6.83,6.83Z" style="fill:#fff;"/><circle cx="18.27" cy="47.6" r="7.01" style="fill:#fff;"/><circle cx="40.08" cy="47.6" r="7.14" style="fill:#fff;"/><circle cx="61.88" cy="47.6" r="7.08" style="fill:#fff;"/><path d="M83.69,54.43c3.77,0,6.83-3.06,6.83-6.83s-3.06-6.83-6.83-6.83-6.83,3.06-6.83,6.83,3.06,6.83,6.83,6.83Z" style="fill:#fff;"/><circle cx="105.5" cy="47.6" r="6.59" style="fill:#fff;"/><circle cx="127.3" cy="47.6" r="6.29" style="fill:#fff;"/><circle cx="149.11" cy="47.6" r="5.99" style="fill:#fff;"/><circle cx="170.92" cy="47.6" r="5.68" style="fill:#fff;"/><path d="M192.73,52.98c2.97,0,5.38-2.41,5.38-5.38s-2.41-5.38-5.38-5.38-5.38,2.41-5.38,5.38,2.41,5.38,5.38,5.38Z" style="fill:#fff;"/><path d="M214.53,52.62c2.77,0,5.02-2.25,5.02-5.02s-2.25-5.02-5.02-5.02-5.02,2.25-5.02,5.02,2.25,5.02,5.02,5.02Z" style="fill:#fff;"/><circle cx="236.34" cy="47.6" r="4.72" style="fill:#fff;"/><circle cx="258.15" cy="47.6" r="4.35" style="fill:#fff;"/><circle cx="279.95" cy="47.6" r="4.05" style="fill:#fff;"/><circle cx="301.76" cy="47.6" r="3.69" style="fill:#fff;"/><circle cx="323.57" cy="47.6" r="3.39" style="fill:#fff;"/><circle cx="345.37" cy="47.6" r="3.08" style="fill:#fff;"/><circle cx="367.18" cy="47.6" r="2.72" style="fill:#fff;"/><path d="M388.99,49.96c1.3,0,2.36-1.06,2.36-2.36s-1.06-2.36-2.36-2.36-2.36,1.06-2.36,2.36,1.06,2.36,2.36,2.36Z" style="fill:#fff;"/><path d="M410.8,49.66c1.14,0,2.06-.92,2.06-2.06s-.92-2.06-2.06-2.06-2.06,.92-2.06,2.06,.92,2.06,2.06,2.06Z" style="fill:#fff;"/><path d="M432.6,49.29c.93,0,1.69-.76,1.69-1.69s-.76-1.69-1.69-1.69-1.69,.76-1.69,1.69,.76,1.69,1.69,1.69Z" style="fill:#fff;"/><circle cx="454.41" cy="47.6" r="1.39" style="fill:#fff;"/><circle cx="476.22" cy="47.6" r="1.03" style="fill:#fff;"/><circle cx="498.02" cy="47.6" r=".73" style="fill:#fff;"/><circle cx="519.83" cy="47.6" r=".36" style="fill:#fff;"/><circle cx="541.64" cy="47.6" r=".06" style="fill:#fff;"/><circle cx="-3.54" cy="69.41" r="6.59" style="fill:#fff;"/><circle cx="18.27" cy="69.41" r="6.71" style="fill:#fff;"/><circle cx="40.08" cy="69.41" r="6.77" style="fill:#fff;"/><circle cx="61.88" cy="69.41" r="6.77" style="fill:#fff;"/><circle cx="83.69" cy="69.41" r="6.59" style="fill:#fff;"/><circle cx="105.5" cy="69.41" r="6.41" style="fill:#fff;"/><path d="M127.3,75.58c3.41,0,6.17-2.76,6.17-6.17s-2.76-6.17-6.17-6.17-6.17,2.76-6.17,6.17,2.76,6.17,6.17,6.17Z" style="fill:#fff;"/><circle cx="149.11" cy="69.41" r="5.87" style="fill:#fff;"/><circle cx="170.92" cy="69.41" r="5.56" style="fill:#fff;"/><circle cx="192.73" cy="69.41" r="5.26" style="fill:#fff;"/><circle cx="214.53" cy="69.41" r="4.9" style="fill:#fff;"/><path d="M236.34,74c2.54,0,4.6-2.06,4.6-4.6s-2.06-4.6-4.6-4.6-4.6,2.06-4.6,4.6,2.06,4.6,4.6,4.6Z" style="fill:#fff;"/><path d="M258.15,73.7c2.37,0,4.29-1.92,4.29-4.29s-1.92-4.29-4.29-4.29-4.29,1.92-4.29,4.29,1.92,4.29,4.29,4.29Z" style="fill:#fff;"/><circle cx="279.95" cy="69.41" r="3.99" style="fill:#fff;"/><circle cx="301.76" cy="69.41" r="3.63" style="fill:#fff;"/><circle cx="323.57" cy="69.41" r="3.33" style="fill:#fff;"/><circle cx="345.37" cy="69.41" r="2.96" style="fill:#fff;"/><circle cx="367.18" cy="69.41" r="2.66" style="fill:#fff;"/><circle cx="388.99" cy="69.41" r="2.3" style="fill:#fff;"/><path d="M410.8,71.4c1.1,0,2-.89,2-2s-.89-2-2-2-2,.89-2,2,.89,2,2,2Z" style="fill:#fff;"/><path d="M432.6,71.04c.9,0,1.63-.73,1.63-1.63s-.73-1.63-1.63-1.63-1.63,.73-1.63,1.63,.73,1.63,1.63,1.63Z" style="fill:#fff;"/><path d="M454.41,70.74c.73,0,1.33-.6,1.33-1.33s-.6-1.33-1.33-1.33-1.33,.6-1.33,1.33,.6,1.33,1.33,1.33Z" style="fill:#fff;"/><circle cx="476.22" cy="69.41" r="1.03" style="fill:#fff;"/><circle cx="498.02" cy="69.41" r=".67" style="fill:#fff;"/><circle cx="519.83" cy="69.41" r=".36" style="fill:#fff;"/><circle cx="541.64" cy="69.41" r=".06" style="fill:#fff;"/><circle cx="-3.54" cy="91.21" r="6.29" style="fill:#fff;"/><circle cx="18.27" cy="91.21" r="6.41" style="fill:#fff;"/><path d="M40.08,97.68c3.57,0,6.47-2.9,6.47-6.47s-2.9-6.47-6.47-6.47-6.47,2.9-6.47,6.47,2.9,6.47,6.47,6.47Z" style="fill:#fff;"/><circle cx="61.88" cy="91.21" r="6.41" style="fill:#fff;"/><circle cx="83.69" cy="91.21" r="6.29" style="fill:#fff;"/><path d="M105.5,97.38c3.41,0,6.17-2.76,6.17-6.17s-2.76-6.17-6.17-6.17-6.17,2.76-6.17,6.17,2.76,6.17,6.17,6.17Z" style="fill:#fff;"/><circle cx="127.3" cy="91.21" r="5.93" style="fill:#fff;"/><circle cx="149.11" cy="91.21" r="5.68" style="fill:#fff;"/><path d="M170.92,96.6c2.97,0,5.38-2.41,5.38-5.38s-2.41-5.38-5.38-5.38-5.38,2.41-5.38,5.38,2.41,5.38,5.38,5.38Z" style="fill:#fff;"/><path d="M192.73,96.29c2.81,0,5.08-2.27,5.08-5.08s-2.27-5.08-5.08-5.08-5.08,2.27-5.08,5.08,2.27,5.08,5.08,5.08Z" style="fill:#fff;"/><circle cx="214.53" cy="91.21" r="4.78" style="fill:#fff;"/><circle cx="236.34" cy="91.21" r="4.47" style="fill:#fff;"/><circle cx="258.15" cy="91.21" r="4.17" style="fill:#fff;"/><path d="M279.95,95.08c2.14,0,3.87-1.73,3.87-3.87s-1.73-3.87-3.87-3.87-3.87,1.73-3.87,3.87,1.73,3.87,3.87,3.87Z" style="fill:#fff;"/><path d="M301.76,94.78c1.97,0,3.57-1.6,3.57-3.57s-1.6-3.57-3.57-3.57-3.57,1.6-3.57,3.57,1.6,3.57,3.57,3.57Z" style="fill:#fff;"/><path d="M323.57,94.42c1.77,0,3.2-1.43,3.2-3.2s-1.43-3.2-3.2-3.2-3.21,1.43-3.21,3.2,1.43,3.2,3.21,3.2Z" style="fill:#fff;"/><circle cx="345.37" cy="91.21" r="2.9" style="fill:#fff;"/><circle cx="367.18" cy="91.21" r="2.6" style="fill:#fff;"/><circle cx="388.99" cy="91.21" r="2.24" style="fill:#fff;"/><circle cx="410.8" cy="91.21" r="1.94" style="fill:#fff;"/><circle cx="432.6" cy="91.21" r="1.57" style="fill:#fff;"/><path d="M454.41,92.48c.7,0,1.27-.57,1.27-1.27s-.57-1.27-1.27-1.27-1.27,.57-1.27,1.27,.57,1.27,1.27,1.27Z" style="fill:#fff;"/><path d="M476.22,92.18c.53,0,.97-.43,.97-.97s-.43-.97-.97-.97-.97,.43-.97,.97,.43,.97,.97,.97Z" style="fill:#fff;"/><path d="M498.02,91.82c.33,0,.6-.27,.6-.6s-.27-.6-.6-.6-.6,.27-.6,.6,.27,.6,.6,.6Z" style="fill:#fff;"/><circle cx="519.83" cy="91.21" r=".3" style="fill:#fff;"/><circle cx="-3.54" cy="113.02" r="5.99" style="fill:#fff;"/><path d="M18.27,119.13c3.37,0,6.11-2.73,6.11-6.11s-2.73-6.11-6.11-6.11-6.11,2.73-6.11,6.11,2.73,6.11,6.11,6.11Z" style="fill:#fff;"/><path d="M40.08,119.13c3.37,0,6.11-2.73,6.11-6.11s-2.73-6.11-6.11-6.11-6.11,2.73-6.11,6.11,2.73,6.11,6.11,6.11Z" style="fill:#fff;"/><path d="M61.88,119.13c3.37,0,6.11-2.73,6.11-6.11s-2.73-6.11-6.11-6.11-6.11,2.73-6.11,6.11,2.73,6.11,6.11,6.11Z" style="fill:#fff;"/><circle cx="83.69" cy="113.02" r="5.99" style="fill:#fff;"/><circle cx="105.5" cy="113.02" r="5.87" style="fill:#fff;"/><circle cx="127.3" cy="113.02" r="5.68" style="fill:#fff;"/><path d="M149.11,118.46c3.01,0,5.44-2.44,5.44-5.44s-2.44-5.44-5.44-5.44-5.44,2.44-5.44,5.44,2.44,5.44,5.44,5.44Z" style="fill:#fff;"/><circle cx="170.92" cy="113.02" r="5.2" style="fill:#fff;"/><circle cx="192.73" cy="113.02" r="4.9" style="fill:#fff;"/><path d="M214.53,117.68c2.57,0,4.66-2.08,4.66-4.66s-2.08-4.66-4.66-4.66-4.66,2.08-4.66,4.66,2.08,4.66,4.66,4.66Z" style="fill:#fff;"/><circle cx="236.34" cy="113.02" r="4.35" style="fill:#fff;"/><circle cx="258.15" cy="113.02" r="4.05" style="fill:#fff;"/><circle cx="279.95" cy="113.02" r="3.75" style="fill:#fff;"/><circle cx="301.76" cy="113.02" r="3.45" style="fill:#fff;"/><path d="M323.57,116.17c1.74,0,3.14-1.41,3.14-3.14s-1.41-3.14-3.14-3.14-3.14,1.41-3.14,3.14,1.41,3.14,3.14,3.14Z" style="fill:#fff;"/><path d="M345.37,115.86c1.57,0,2.84-1.27,2.84-2.84s-1.27-2.84-2.84-2.84-2.84,1.27-2.84,2.84,1.27,2.84,2.84,2.84Z" style="fill:#fff;"/><path d="M367.18,115.5c1.37,0,2.48-1.11,2.48-2.48s-1.11-2.48-2.48-2.48-2.48,1.11-2.48,2.48,1.11,2.48,2.48,2.48Z" style="fill:#fff;"/><circle cx="388.99" cy="113.02" r="2.18" style="fill:#fff;"/><circle cx="410.8" cy="113.02" r="1.81" style="fill:#fff;"/><circle cx="432.6" cy="113.02" r="1.51" style="fill:#fff;"/><circle cx="454.41" cy="113.02" r="1.21" style="fill:#fff;"/><circle cx="476.22" cy="113.02" r=".85" style="fill:#fff;"/><path d="M498.02,113.57c.3,0,.54-.24,.54-.54s-.24-.54-.54-.54-.54,.24-.54,.54,.24,.54,.54,.54Z" style="fill:#fff;"/><path d="M519.83,113.26c.13,0,.24-.11,.24-.24s-.11-.24-.24-.24-.24,.11-.24,.24,.11,.24,.24,.24Z" style="fill:#fff;"/><circle cx="-3.54" cy="134.83" r="5.68" style="fill:#fff;"/><path d="M18.27,140.57c3.17,0,5.74-2.57,5.74-5.74s-2.57-5.74-5.74-5.74-5.74,2.57-5.74,5.74,2.57,5.74,5.74,5.74Z" style="fill:#fff;"/><path d="M40.08,140.63c3.21,0,5.81-2.6,5.81-5.81s-2.6-5.81-5.81-5.81-5.81,2.6-5.81,5.81,2.6,5.81,5.81,5.81Z" style="fill:#fff;"/><path d="M61.88,140.57c3.17,0,5.74-2.57,5.74-5.74s-2.57-5.74-5.74-5.74-5.74,2.57-5.74,5.74,2.57,5.74,5.74,5.74Z" style="fill:#fff;"/><circle cx="83.69" cy="134.83" r="5.68" style="fill:#fff;"/><circle cx="105.5" cy="134.83" r="5.56" style="fill:#fff;"/><path d="M127.3,140.21c2.97,0,5.38-2.41,5.38-5.38s-2.41-5.38-5.38-5.38-5.38,2.41-5.38,5.38,2.41,5.38,5.38,5.38Z" style="fill:#fff;"/><circle cx="149.11" cy="134.83" r="5.2" style="fill:#fff;"/><path d="M170.92,139.79c2.74,0,4.96-2.22,4.96-4.96s-2.22-4.96-4.96-4.96-4.96,2.22-4.96,4.96,2.22,4.96,4.96,4.96Z" style="fill:#fff;"/><circle cx="192.73" cy="134.83" r="4.72" style="fill:#fff;"/><circle cx="214.53" cy="134.83" r="4.41" style="fill:#fff;"/><circle cx="236.34" cy="134.83" r="4.17" style="fill:#fff;"/><path d="M258.15,138.7c2.14,0,3.87-1.73,3.87-3.87s-1.73-3.87-3.87-3.87-3.87,1.73-3.87,3.87,1.73,3.87,3.87,3.87Z" style="fill:#fff;"/><circle cx="279.95" cy="134.83" r="3.63" style="fill:#fff;"/><circle cx="301.76" cy="134.83" r="3.33" style="fill:#fff;"/><circle cx="323.57" cy="134.83" r="3.02" style="fill:#fff;"/><circle cx="345.37" cy="134.83" r="2.66" style="fill:#fff;"/><path d="M367.18,137.19c1.3,0,2.36-1.06,2.36-2.36s-1.06-2.36-2.36-2.36-2.36,1.06-2.36,2.36,1.06,2.36,2.36,2.36Z" style="fill:#fff;"/><path d="M388.99,136.88c1.14,0,2.06-.92,2.06-2.06s-.92-2.06-2.06-2.06-2.06,.92-2.06,2.06,.92,2.06,2.06,2.06Z" style="fill:#fff;"/><circle cx="410.8" cy="134.83" r="1.75" style="fill:#fff;"/><circle cx="432.6" cy="134.83" r="1.39" style="fill:#fff;"/><circle cx="454.41" cy="134.83" r="1.09" style="fill:#fff;"/><circle cx="476.22" cy="134.83" r=".79" style="fill:#fff;"/><circle cx="498.02" cy="134.83" r=".48" style="fill:#fff;"/><circle cx="519.83" cy="134.83" r=".12" style="fill:#fff;"/><path d="M-3.54,162.02c2.97,0,5.38-2.41,5.38-5.38s-2.41-5.38-5.38-5.38-5.38,2.41-5.38,5.38,2.41,5.38,5.38,5.38Z" style="fill:#fff;"/><path d="M18.27,162.08c3.01,0,5.44-2.44,5.44-5.44s-2.44-5.44-5.44-5.44-5.44,2.44-5.44,5.44,2.44,5.44,5.44,5.44Z" style="fill:#fff;"/><path d="M40.08,162.08c3.01,0,5.44-2.44,5.44-5.44s-2.44-5.44-5.44-5.44-5.44,2.44-5.44,5.44,2.44,5.44,5.44,5.44Z" style="fill:#fff;"/><path d="M61.88,162.08c3.01,0,5.44-2.44,5.44-5.44s-2.44-5.44-5.44-5.44-5.44,2.44-5.44,5.44,2.44,5.44,5.44,5.44Z" style="fill:#fff;"/><path d="M83.69,162.02c2.97,0,5.38-2.41,5.38-5.38s-2.41-5.38-5.38-5.38-5.38,2.41-5.38,5.38,2.41,5.38,5.38,5.38Z" style="fill:#fff;"/><circle cx="105.5" cy="156.64" r="5.26" style="fill:#fff;"/><path d="M127.3,161.72c2.81,0,5.08-2.27,5.08-5.08s-2.27-5.08-5.08-5.08-5.08,2.27-5.08,5.08,2.27,5.08,5.08,5.08Z" style="fill:#fff;"/><circle cx="149.11" cy="156.64" r="4.9" style="fill:#fff;"/><circle cx="170.92" cy="156.64" r="4.72" style="fill:#fff;"/><circle cx="192.73" cy="156.64" r="4.47" style="fill:#fff;"/><path d="M214.53,160.87c2.34,0,4.23-1.9,4.23-4.23s-1.9-4.23-4.23-4.23-4.23,1.9-4.23,4.23,1.9,4.23,4.23,4.23Z" style="fill:#fff;"/><circle cx="236.34" cy="156.64" r="3.99" style="fill:#fff;"/><circle cx="258.15" cy="156.64" r="3.69" style="fill:#fff;"/><circle cx="279.95" cy="156.64" r="3.45" style="fill:#fff;"/><path d="M301.76,159.78c1.74,0,3.14-1.41,3.14-3.14s-1.41-3.14-3.14-3.14-3.14,1.41-3.14,3.14,1.41,3.14,3.14,3.14Z" style="fill:#fff;"/><path d="M323.57,159.48c1.57,0,2.84-1.27,2.84-2.84s-1.27-2.84-2.84-2.84-2.84,1.27-2.84,2.84,1.27,2.84,2.84,2.84Z" style="fill:#fff;"/><circle cx="345.37" cy="156.64" r="2.54" style="fill:#fff;"/><circle cx="367.18" cy="156.64" r="2.24" style="fill:#fff;"/><circle cx="388.99" cy="156.64" r="1.94" style="fill:#fff;"/><path d="M410.8,158.27c.9,0,1.63-.73,1.63-1.63s-.73-1.63-1.63-1.63-1.63,.73-1.63,1.63,.73,1.63,1.63,1.63Z" style="fill:#fff;"/><path d="M432.6,157.97c.73,0,1.33-.6,1.33-1.33s-.6-1.33-1.33-1.33-1.33,.6-1.33,1.33,.6,1.33,1.33,1.33Z" style="fill:#fff;"/><path d="M454.41,157.6c.53,0,.97-.43,.97-.97s-.43-.97-.97-.97-.97,.43-.97,.97,.43,.97,.97,.97Z" style="fill:#fff;"/><circle cx="476.22" cy="156.64" r=".67" style="fill:#fff;"/><circle cx="498.02" cy="156.64" r=".36" style="fill:#fff;"/><circle cx="519.83" cy="156.64" r=".06" style="fill:#fff;"/><path d="M-3.54,183.46c2.77,0,5.02-2.25,5.02-5.02s-2.25-5.02-5.02-5.02-5.02,2.25-5.02,5.02,2.25,5.02,5.02,5.02Z" style="fill:#fff;"/><path d="M18.27,183.52c2.81,0,5.08-2.27,5.08-5.08s-2.27-5.08-5.08-5.08-5.08,2.27-5.08,5.08,2.27,5.08,5.08,5.08Z" style="fill:#fff;"/><circle cx="40.08" cy="178.44" r="5.14" style="fill:#fff;"/><path d="M61.88,183.52c2.81,0,5.08-2.27,5.08-5.08s-2.27-5.08-5.08-5.08-5.08,2.27-5.08,5.08,2.27,5.08,5.08,5.08Z" style="fill:#fff;"/><path d="M83.69,183.46c2.77,0,5.02-2.25,5.02-5.02s-2.25-5.02-5.02-5.02-5.02,2.25-5.02,5.02,2.25,5.02,5.02,5.02Z" style="fill:#fff;"/><circle cx="105.5" cy="178.44" r="4.9" style="fill:#fff;"/><circle cx="127.3" cy="178.44" r="4.78" style="fill:#fff;"/><path d="M149.11,183.1c2.57,0,4.66-2.08,4.66-4.66s-2.08-4.66-4.66-4.66-4.66,2.08-4.66,4.66,2.08,4.66,4.66,4.66Z" style="fill:#fff;"/><circle cx="170.92" cy="178.44" r="4.41" style="fill:#fff;"/><path d="M192.73,182.68c2.34,0,4.23-1.9,4.23-4.23s-1.9-4.23-4.23-4.23-4.23,1.9-4.23,4.23,1.9,4.23,4.23,4.23Z" style="fill:#fff;"/><circle cx="214.53" cy="178.44" r="3.99" style="fill:#fff;"/><circle cx="236.34" cy="178.44" r="3.75" style="fill:#fff;"/><path d="M258.15,181.95c1.94,0,3.51-1.57,3.51-3.51s-1.57-3.51-3.51-3.51-3.51,1.57-3.51,3.51,1.57,3.51,3.51,3.51Z" style="fill:#fff;"/><circle cx="279.95" cy="178.44" r="3.27" style="fill:#fff;"/><circle cx="301.76" cy="178.44" r="2.96" style="fill:#fff;"/><circle cx="323.57" cy="178.44" r="2.66" style="fill:#fff;"/><path d="M345.37,180.8c1.3,0,2.36-1.06,2.36-2.36s-1.06-2.36-2.36-2.36-2.36,1.06-2.36,2.36,1.06,2.36,2.36,2.36Z" style="fill:#fff;"/><path d="M367.18,180.5c1.14,0,2.06-.92,2.06-2.06s-.92-2.06-2.06-2.06-2.06,.92-2.06,2.06,.92,2.06,2.06,2.06Z" style="fill:#fff;"/><circle cx="388.99" cy="178.44" r="1.75" style="fill:#fff;"/><circle cx="410.8" cy="178.44" r="1.45" style="fill:#fff;"/><circle cx="432.6" cy="178.44" r="1.15" style="fill:#fff;"/><circle cx="454.41" cy="178.44" r=".85" style="fill:#fff;"/><path d="M476.22,178.99c.3,0,.54-.24,.54-.54s-.24-.54-.54-.54-.54,.24-.54,.54,.24,.54,.54,.54Z" style="fill:#fff;"/><path d="M498.02,178.68c.13,0,.24-.11,.24-.24s-.11-.24-.24-.24-.24,.11-.24,.24,.11,.24,.24,.24Z" style="fill:#fff;"/><circle cx="-3.54" cy="200.25" r="4.72" style="fill:#fff;"/><circle cx="18.27" cy="200.25" r="4.78" style="fill:#fff;"/><circle cx="40.08" cy="200.25" r="4.78" style="fill:#fff;"/><circle cx="61.88" cy="200.25" r="4.78" style="fill:#fff;"/><circle cx="83.69" cy="200.25" r="4.72" style="fill:#fff;"/><path d="M105.5,204.85c2.54,0,4.6-2.06,4.6-4.6s-2.06-4.6-4.6-4.6-4.6,2.06-4.6,4.6,2.06,4.6,4.6,4.6Z" style="fill:#fff;"/><circle cx="127.3" cy="200.25" r="4.47" style="fill:#fff;"/><circle cx="149.11" cy="200.25" r="4.35" style="fill:#fff;"/><circle cx="170.92" cy="200.25" r="4.17" style="fill:#fff;"/><circle cx="192.73" cy="200.25" r="3.99" style="fill:#fff;"/><circle cx="214.53" cy="200.25" r="3.75" style="fill:#fff;"/><path d="M236.34,203.76c1.94,0,3.51-1.57,3.51-3.51s-1.57-3.51-3.51-3.51-3.51,1.57-3.51,3.51,1.57,3.51,3.51,3.51Z" style="fill:#fff;"/><circle cx="258.15" cy="200.25" r="3.27" style="fill:#fff;"/><circle cx="279.95" cy="200.25" r="3.02" style="fill:#fff;"/><path d="M301.76,203.03c1.54,0,2.78-1.25,2.78-2.78s-1.25-2.78-2.78-2.78-2.78,1.25-2.78,2.78,1.25,2.78,2.78,2.78Z" style="fill:#fff;"/><path d="M323.57,202.73c1.37,0,2.48-1.11,2.48-2.48s-1.11-2.48-2.48-2.48-2.48,1.11-2.48,2.48,1.11,2.48,2.48,2.48Z" style="fill:#fff;"/><circle cx="345.37" cy="200.25" r="2.18" style="fill:#fff;"/><circle cx="367.18" cy="200.25" r="1.94" style="fill:#fff;"/><path d="M388.99,201.88c.9,0,1.63-.73,1.63-1.63s-.73-1.63-1.63-1.63-1.63,.73-1.63,1.63,.73,1.63,1.63,1.63Z" style="fill:#fff;"/><path d="M410.8,201.58c.73,0,1.33-.6,1.33-1.33s-.6-1.33-1.33-1.33-1.33,.6-1.33,1.33,.6,1.33,1.33,1.33Z" style="fill:#fff;"/><circle cx="432.6" cy="200.25" r="1.03" style="fill:#fff;"/><circle cx="454.41" cy="200.25" r=".73" style="fill:#fff;"/><circle cx="476.22" cy="200.25" r=".42" style="fill:#fff;"/><circle cx="498.02" cy="200.25" r=".12" style="fill:#fff;"/><circle cx="-3.54" cy="222.06" r="4.35" style="fill:#fff;"/><circle cx="18.27" cy="222.06" r="4.41" style="fill:#fff;"/><circle cx="40.08" cy="222.06" r="4.41" style="fill:#fff;"/><circle cx="61.88" cy="222.06" r="4.41" style="fill:#fff;"/><circle cx="83.69" cy="222.06" r="4.35" style="fill:#fff;"/><path d="M105.5,226.35c2.37,0,4.29-1.92,4.29-4.29s-1.92-4.29-4.29-4.29-4.29,1.92-4.29,4.29,1.92,4.29,4.29,4.29Z" style="fill:#fff;"/><circle cx="127.3" cy="222.06" r="4.17" style="fill:#fff;"/><circle cx="149.11" cy="222.06" r="4.05" style="fill:#fff;"/><path d="M170.92,225.93c2.14,0,3.87-1.73,3.87-3.87s-1.73-3.87-3.87-3.87-3.87,1.73-3.87,3.87,1.73,3.87,3.87,3.87Z" style="fill:#fff;"/><circle cx="192.73" cy="222.06" r="3.69" style="fill:#fff;"/><path d="M214.53,225.56c1.94,0,3.51-1.57,3.51-3.51s-1.57-3.51-3.51-3.51-3.51,1.57-3.51,3.51,1.57,3.51,3.51,3.51Z" style="fill:#fff;"/><circle cx="236.34" cy="222.06" r="3.27" style="fill:#fff;"/><circle cx="258.15" cy="222.06" r="3.02" style="fill:#fff;"/><path d="M279.95,224.9c1.57,0,2.84-1.27,2.84-2.84s-1.27-2.84-2.84-2.84-2.84,1.27-2.84,2.84,1.27,2.84,2.84,2.84Z" style="fill:#fff;"/><circle cx="301.76" cy="222.06" r="2.54" style="fill:#fff;"/><circle cx="323.57" cy="222.06" r="2.3" style="fill:#fff;"/><path d="M345.37,224.05c1.1,0,2-.89,2-2s-.89-2-2-2-2,.89-2,2,.89,2,2,2Z" style="fill:#fff;"/><circle cx="367.18" cy="222.06" r="1.75" style="fill:#fff;"/><circle cx="388.99" cy="222.06" r="1.45" style="fill:#fff;"/><circle cx="410.8" cy="222.06" r="1.15" style="fill:#fff;"/><path d="M432.6,222.96c.5,0,.91-.41,.91-.91s-.41-.91-.91-.91-.91,.41-.91,.91,.41,.91,.91,.91Z" style="fill:#fff;"/><path d="M454.41,222.66c.33,0,.6-.27,.6-.6s-.27-.6-.6-.6-.6,.27-.6,.6,.27,.6,.6,.6Z" style="fill:#fff;"/><circle cx="476.22" cy="222.06" r=".3" style="fill:#fff;"/><circle cx="498.02" cy="222.06" r=".06" style="fill:#fff;"/><circle cx="-3.54" cy="243.86" r="4.05" style="fill:#fff;"/><circle cx="18.27" cy="243.86" r="4.11" style="fill:#fff;"/><circle cx="40.08" cy="243.86" r="4.11" style="fill:#fff;"/><circle cx="61.88" cy="243.86" r="4.11" style="fill:#fff;"/><circle cx="83.69" cy="243.86" r="4.05" style="fill:#fff;"/><circle cx="105.5" cy="243.86" r="3.99" style="fill:#fff;"/><path d="M127.3,247.73c2.14,0,3.87-1.73,3.87-3.87s-1.73-3.87-3.87-3.87-3.87,1.73-3.87,3.87,1.73,3.87,3.87,3.87Z" style="fill:#fff;"/><circle cx="149.11" cy="243.86" r="3.75" style="fill:#fff;"/><circle cx="170.92" cy="243.86" r="3.63" style="fill:#fff;"/><circle cx="192.73" cy="243.86" r="3.45" style="fill:#fff;"/><circle cx="214.53" cy="243.86" r="3.27" style="fill:#fff;"/><circle cx="236.34" cy="243.86" r="3.02" style="fill:#fff;"/><path d="M258.15,246.71c1.57,0,2.84-1.27,2.84-2.84s-1.27-2.84-2.84-2.84-2.84,1.27-2.84,2.84,1.27,2.84,2.84,2.84Z" style="fill:#fff;"/><circle cx="279.95" cy="243.86" r="2.6" style="fill:#fff;"/><circle cx="301.76" cy="243.86" r="2.3" style="fill:#fff;"/><path d="M323.57,245.92c1.14,0,2.06-.92,2.06-2.06s-.92-2.06-2.06-2.06-2.06,.92-2.06,2.06,.92,2.06,2.06,2.06Z" style="fill:#fff;"/><circle cx="345.37" cy="243.86" r="1.81" style="fill:#fff;"/><circle cx="367.18" cy="243.86" r="1.51" style="fill:#fff;"/><path d="M388.99,245.13c.7,0,1.27-.57,1.27-1.27s-.57-1.27-1.27-1.27-1.27,.57-1.27,1.27,.57,1.27,1.27,1.27Z" style="fill:#fff;"/><path d="M410.8,244.83c.53,0,.97-.43,.97-.97s-.43-.97-.97-.97-.97,.43-.97,.97,.43,.97,.97,.97Z" style="fill:#fff;"/><circle cx="432.6" cy="243.86" r=".73" style="fill:#fff;"/><circle cx="454.41" cy="243.86" r=".42" style="fill:#fff;"/><circle cx="476.22" cy="243.86" r=".12" style="fill:#fff;"/><circle cx="-3.54" cy="265.67" r="3.69" style="fill:#fff;"/><circle cx="18.27" cy="265.67" r="3.75" style="fill:#fff;"/><circle cx="40.08" cy="265.67" r="3.75" style="fill:#fff;"/><circle cx="61.88" cy="265.67" r="3.75" style="fill:#fff;"/><circle cx="83.69" cy="265.67" r="3.69" style="fill:#fff;"/><circle cx="105.5" cy="265.67" r="3.63" style="fill:#fff;"/><path d="M127.3,269.24c1.97,0,3.57-1.6,3.57-3.57s-1.6-3.57-3.57-3.57-3.57,1.6-3.57,3.57,1.6,3.57,3.57,3.57Z" style="fill:#fff;"/><circle cx="149.11" cy="265.67" r="3.45" style="fill:#fff;"/><circle cx="170.92" cy="265.67" r="3.33" style="fill:#fff;"/><path d="M192.73,268.82c1.74,0,3.14-1.41,3.14-3.14s-1.41-3.14-3.14-3.14-3.14,1.41-3.14,3.14,1.41,3.14,3.14,3.14Z" style="fill:#fff;"/><circle cx="214.53" cy="265.67" r="2.96" style="fill:#fff;"/><path d="M236.34,268.45c1.54,0,2.78-1.25,2.78-2.78s-1.25-2.78-2.78-2.78-2.78,1.25-2.78,2.78,1.25,2.78,2.78,2.78Z" style="fill:#fff;"/><circle cx="258.15" cy="265.67" r="2.54" style="fill:#fff;"/><circle cx="279.95" cy="265.67" r="2.3" style="fill:#fff;"/><path d="M301.76,267.73c1.14,0,2.06-.92,2.06-2.06s-.92-2.06-2.06-2.06-2.06,.92-2.06,2.06,.92,2.06,2.06,2.06Z" style="fill:#fff;"/><circle cx="323.57" cy="265.67" r="1.81" style="fill:#fff;"/><circle cx="345.37" cy="265.67" r="1.57" style="fill:#fff;"/><path d="M367.18,267c.73,0,1.33-.6,1.33-1.33s-.6-1.33-1.33-1.33-1.33,.6-1.33,1.33,.6,1.33,1.33,1.33Z" style="fill:#fff;"/><circle cx="388.99" cy="265.67" r="1.09" style="fill:#fff;"/><circle cx="410.8" cy="265.67" r=".79" style="fill:#fff;"/><path d="M432.6,266.21c.3,0,.54-.24,.54-.54s-.24-.54-.54-.54-.54,.24-.54,.54,.24,.54,.54,.54Z" style="fill:#fff;"/><path d="M454.41,265.91c.13,0,.24-.11,.24-.24s-.11-.24-.24-.24-.24,.11-.24,.24,.11,.24,.24,.24Z" style="fill:#fff;"/><circle cx="18.27" cy="287.48" r="3.45" style="fill:#fff;"/><circle cx="40.08" cy="287.48" r="3.45" style="fill:#fff;"/><circle cx="61.88" cy="287.48" r="3.45" style="fill:#fff;"/><circle cx="83.69" cy="287.48" r="3.39" style="fill:#fff;"/><circle cx="105.5" cy="287.48" r="3.33" style="fill:#fff;"/><path d="M127.3,290.68c1.77,0,3.2-1.43,3.2-3.2s-1.43-3.2-3.2-3.2-3.21,1.43-3.21,3.2,1.43,3.2,3.21,3.2Z" style="fill:#fff;"/><path d="M149.11,290.62c1.74,0,3.14-1.41,3.14-3.14s-1.41-3.14-3.14-3.14-3.14,1.41-3.14,3.14,1.41,3.14,3.14,3.14Z" style="fill:#fff;"/><circle cx="170.92" cy="287.48" r="3.02" style="fill:#fff;"/><path d="M192.73,290.32c1.57,0,2.84-1.27,2.84-2.84s-1.27-2.84-2.84-2.84-2.84,1.27-2.84,2.84,1.27,2.84,2.84,2.84Z" style="fill:#fff;"/><circle cx="214.53" cy="287.48" r="2.66" style="fill:#fff;"/><path d="M236.34,289.96c1.37,0,2.48-1.11,2.48-2.48s-1.11-2.48-2.48-2.48-2.48,1.11-2.48,2.48,1.11,2.48,2.48,2.48Z" style="fill:#fff;"/><circle cx="258.15" cy="287.48" r="2.3" style="fill:#fff;"/><path d="M279.95,289.53c1.14,0,2.06-.92,2.06-2.06s-.92-2.06-2.06-2.06-2.06,.92-2.06,2.06,.92,2.06,2.06,2.06Z" style="fill:#fff;"/><circle cx="301.76" cy="287.48" r="1.81" style="fill:#fff;"/><path d="M323.57,289.11c.9,0,1.63-.73,1.63-1.63s-.73-1.63-1.63-1.63-1.63,.73-1.63,1.63,.73,1.63,1.63,1.63Z" style="fill:#fff;"/><circle cx="345.37" cy="287.48" r="1.39" style="fill:#fff;"/><circle cx="367.18" cy="287.48" r="1.15" style="fill:#fff;"/><circle cx="388.99" cy="287.48" r=".85" style="fill:#fff;"/><path d="M410.8,288.08c.33,0,.6-.27,.6-.6s-.27-.6-.6-.6-.6,.27-.6,.6,.27,.6,.6,.6Z" style="fill:#fff;"/><circle cx="432.6" cy="287.48" r=".36" style="fill:#fff;"/><circle cx="454.41" cy="287.48" r=".06" style="fill:#fff;"/><circle cx="18.27" cy="309.28" r="3.08" style="fill:#fff;"/><circle cx="40.08" cy="309.28" r="3.08" style="fill:#fff;"/><circle cx="61.88" cy="309.28" r="3.08" style="fill:#fff;"/><circle cx="83.69" cy="309.28" r="3.08" style="fill:#fff;"/><circle cx="105.5" cy="309.28" r="2.96" style="fill:#fff;"/><circle cx="127.3" cy="309.28" r="2.9" style="fill:#fff;"/><path d="M149.11,312.13c1.57,0,2.84-1.27,2.84-2.84s-1.27-2.84-2.84-2.84-2.84,1.27-2.84,2.84,1.27,2.84,2.84,2.84Z" style="fill:#fff;"/><circle cx="170.92" cy="309.28" r="2.66" style="fill:#fff;"/><circle cx="192.73" cy="309.28" r="2.54" style="fill:#fff;"/><path d="M214.53,311.64c1.3,0,2.36-1.06,2.36-2.36s-1.06-2.36-2.36-2.36-2.36,1.06-2.36,2.36,1.06,2.36,2.36,2.36Z" style="fill:#fff;"/><circle cx="236.34" cy="309.28" r="2.18" style="fill:#fff;"/><path d="M258.15,311.28c1.1,0,2-.89,2-2s-.89-2-2-2-2,.89-2,2,.89,2,2,2Z" style="fill:#fff;"/><circle cx="279.95" cy="309.28" r="1.81" style="fill:#fff;"/><circle cx="301.76" cy="309.28" r="1.57" style="fill:#fff;"/><circle cx="323.57" cy="309.28" r="1.39" style="fill:#fff;"/><circle cx="345.37" cy="309.28" r="1.15" style="fill:#fff;"/><path d="M367.18,310.19c.5,0,.91-.41,.91-.91s-.41-.91-.91-.91-.91,.41-.91,.91,.41,.91,.91,.91Z" style="fill:#fff;"/><circle cx="388.99" cy="309.28" r=".67" style="fill:#fff;"/><circle cx="410.8" cy="309.28" r=".42" style="fill:#fff;"/><circle cx="432.6" cy="309.28" r=".12" style="fill:#fff;"/><circle cx="18.27" cy="331.09" r="2.72" style="fill:#fff;"/><path d="M40.08,333.87c1.54,0,2.78-1.25,2.78-2.78s-1.25-2.78-2.78-2.78-2.78,1.25-2.78,2.78,1.25,2.78,2.78,2.78Z" style="fill:#fff;"/><path d="M61.88,333.87c1.54,0,2.78-1.25,2.78-2.78s-1.25-2.78-2.78-2.78-2.78,1.25-2.78,2.78,1.25,2.78,2.78,2.78Z" style="fill:#fff;"/><circle cx="83.69" cy="331.09" r="2.72" style="fill:#fff;"/><circle cx="105.5" cy="331.09" r="2.66" style="fill:#fff;"/><circle cx="127.3" cy="331.09" r="2.6" style="fill:#fff;"/><path d="M149.11,333.57c1.37,0,2.48-1.11,2.48-2.48s-1.11-2.48-2.48-2.48-2.48,1.11-2.48,2.48,1.11,2.48,2.48,2.48Z" style="fill:#fff;"/><path d="M170.92,333.45c1.3,0,2.36-1.06,2.36-2.36s-1.06-2.36-2.36-2.36-2.36,1.06-2.36,2.36,1.06,2.36,2.36,2.36Z" style="fill:#fff;"/><circle cx="192.73" cy="331.09" r="2.24" style="fill:#fff;"/><path d="M214.53,333.15c1.14,0,2.06-.92,2.06-2.06s-.92-2.06-2.06-2.06-2.06,.92-2.06,2.06,.92,2.06,2.06,2.06Z" style="fill:#fff;"/><circle cx="236.34" cy="331.09" r="1.94" style="fill:#fff;"/><circle cx="258.15" cy="331.09" r="1.75" style="fill:#fff;"/><circle cx="279.95" cy="331.09" r="1.51" style="fill:#fff;"/><path d="M301.76,332.42c.73,0,1.33-.6,1.33-1.33s-.6-1.33-1.33-1.33-1.33,.6-1.33,1.33,.6,1.33,1.33,1.33Z" style="fill:#fff;"/><circle cx="323.57" cy="331.09" r="1.15" style="fill:#fff;"/><path d="M345.37,332c.5,0,.91-.41,.91-.91s-.41-.91-.91-.91-.91,.41-.91,.91,.41,.91,.91,.91Z" style="fill:#fff;"/><circle cx="367.18" cy="331.09" r=".67" style="fill:#fff;"/><circle cx="388.99" cy="331.09" r=".42" style="fill:#fff;"/><path d="M410.8,331.27c.1,0,.18-.08,.18-.18s-.08-.18-.18-.18-.18,.08-.18,.18,.08,.18,.18,.18Z" style="fill:#fff;"/><path d="M18.27,355.32c1.34,0,2.42-1.08,2.42-2.42s-1.08-2.42-2.42-2.42-2.42,1.08-2.42,2.42,1.08,2.42,2.42,2.42Z" style="fill:#fff;"/><path d="M40.08,355.32c1.34,0,2.42-1.08,2.42-2.42s-1.08-2.42-2.42-2.42-2.42,1.08-2.42,2.42,1.08,2.42,2.42,2.42Z" style="fill:#fff;"/><path d="M61.88,355.32c1.34,0,2.42-1.08,2.42-2.42s-1.08-2.42-2.42-2.42-2.42,1.08-2.42,2.42,1.08,2.42,2.42,2.42Z" style="fill:#fff;"/><path d="M83.69,355.26c1.3,0,2.36-1.06,2.36-2.36s-1.06-2.36-2.36-2.36-2.36,1.06-2.36,2.36,1.06,2.36,2.36,2.36Z" style="fill:#fff;"/><circle cx="105.5" cy="352.9" r="2.3" style="fill:#fff;"/><circle cx="127.3" cy="352.9" r="2.24" style="fill:#fff;"/><circle cx="149.11" cy="352.9" r="2.18" style="fill:#fff;"/><path d="M170.92,354.95c1.14,0,2.06-.92,2.06-2.06s-.92-2.06-2.06-2.06-2.06,.92-2.06,2.06,.92,2.06,2.06,2.06Z" style="fill:#fff;"/><circle cx="192.73" cy="352.9" r="1.94" style="fill:#fff;"/><circle cx="214.53" cy="352.9" r="1.75" style="fill:#fff;"/><path d="M236.34,354.53c.9,0,1.63-.73,1.63-1.63s-.73-1.63-1.63-1.63-1.63,.73-1.63,1.63,.73,1.63,1.63,1.63Z" style="fill:#fff;"/><circle cx="258.15" cy="352.9" r="1.45" style="fill:#fff;"/><path d="M279.95,354.17c.7,0,1.27-.57,1.27-1.27s-.57-1.27-1.27-1.27-1.27,.57-1.27,1.27,.57,1.27,1.27,1.27Z" style="fill:#fff;"/><circle cx="301.76" cy="352.9" r="1.09" style="fill:#fff;"/><circle cx="323.57" cy="352.9" r=".85" style="fill:#fff;"/><circle cx="345.37" cy="352.9" r=".67" style="fill:#fff;"/><circle cx="367.18" cy="352.9" r=".42" style="fill:#fff;"/><path d="M388.99,353.08c.1,0,.18-.08,.18-.18s-.08-.18-.18-.18-.18,.08-.18,.18,.08,.18,.18,.18Z" style="fill:#fff;"/></g><rect x="-20.3" y="-31.49" width="1966.01" height="1123.44" style="fill:none;"/></g></g></g></svg>