<svg width="475" height="292" viewBox="0 0 475 292" fill="none" xmlns="http://www.w3.org/2000/svg">
<g id="Layer 2">
<g id="Layer 1">
<path id="Vector" d="M414.123 58.9332L412.614 55.8903C399.833 30.2146 374.305 13.2166 345.855 12.6329C342.199 12.562 338.543 12.757 334.915 13.2165C308.761 16.5818 284.776 34.1357 273.375 58.2531C266.692 72.4439 263.756 89.169 252.442 99.9352C237.763 113.936 214.854 112.496 194.837 110.183C174.82 107.869 151.882 106.487 137.221 120.562C128.084 129.398 124.237 142.674 123.838 155.447C122.81 189.327 143.76 221.449 172.376 238.945C200.993 256.442 236.042 260.724 269.23 256.867C315.79 251.467 361.459 229.789 390.949 192.761C420.44 155.733 431.554 102.978 414.123 58.9332Z" fill="#D4E1E7" fill-opacity="0.3"/>
<path id="Vector_2" d="M85.8232 49.5689C87.5337 42.3171 83.0454 35.0509 75.7982 33.3393C68.5511 31.6277 61.2895 36.1189 59.579 43.3707C57.8686 50.6225 62.3569 57.8887 69.604 59.6003C76.8512 61.3119 84.1128 56.8207 85.8232 49.5689Z" fill="#F5F5F5"/>
<path id="Vector_3" d="M204.319 57.4934L203.411 130.452C203.267 142.842 205.562 161.082 225.165 160.436C242.126 158.594 246.68 142.496 246.763 130.954C246.823 125.464 246.883 120.895 246.931 120.321C246.931 120.321 265.493 118.814 267.059 100.455C267.824 91.5924 267.896 73.1974 267.764 56.5605C267.696 47.9413 264.387 39.6638 258.495 33.3759C252.604 27.088 244.561 23.2511 235.97 22.629L234.201 22.4974C215.017 22.1506 204.068 38.2731 204.319 57.4934Z" fill="#FFBF9D"/>
<path id="Vector_4" d="M246.931 120.261C238.444 119.623 230.318 116.564 223.515 111.447C223.515 111.447 228.368 125.297 246.811 124.974L246.931 120.261Z" fill="#FF9A6C"/>
<path id="Vector_5" d="M236.412 64.0238C236.054 64.3946 233.926 62.6842 230.854 62.6005C227.783 62.5168 225.488 64.0238 225.165 63.6291C225.009 63.4617 225.392 62.7799 226.36 62.0743C227.705 61.1673 229.305 60.7146 230.926 60.7825C232.531 60.8238 234.079 61.3863 235.337 62.3852C236.293 63.1507 236.592 63.8564 236.412 64.0238Z" fill="#1A2E35"/>
<path id="Vector_6" d="M235.767 70.3747C235.727 71.0219 235.436 71.6278 234.956 72.0635C234.476 72.4991 233.845 72.73 233.197 72.7069C232.563 72.7069 231.955 72.4549 231.507 72.0063C231.058 71.5577 230.806 70.9493 230.806 70.3149C230.852 69.6687 231.147 69.0657 231.629 68.6329C232.111 68.2001 232.741 67.9712 233.388 67.9945C234.018 67.9977 234.621 68.2495 235.067 68.6951C235.512 69.1408 235.764 69.7444 235.767 70.3747Z" fill="#1A2E35"/>
<path id="Vector_7" d="M244.11 85.4089C244.11 85.2414 245.879 85.074 248.748 84.9185C249.477 84.9185 250.17 84.7989 250.325 84.3205C250.448 83.579 250.335 82.8176 250.003 82.1437C249.453 80.3497 248.875 78.4679 248.269 76.4984C245.879 68.473 244.217 61.8829 244.54 61.7991C244.863 61.7154 247.062 68.1381 249.453 76.1516C250.014 78.137 250.564 80.0148 251.09 81.8208C251.473 82.7259 251.532 83.7356 251.258 84.6793C251.132 84.925 250.953 85.1395 250.734 85.3071C250.514 85.4747 250.261 85.5912 249.991 85.6481C249.597 85.7229 249.196 85.751 248.795 85.7318C247.226 85.8189 245.652 85.7105 244.11 85.4089Z" fill="#1A2E35"/>
<path id="Vector_8" d="M235.109 52.4581C234.811 53.1398 232.348 52.6255 229.408 52.781C226.468 52.9365 224.041 53.5824 223.695 52.9245C223.551 52.6136 224.005 51.9797 225.009 51.3697C226.327 50.6303 227.803 50.22 229.312 50.1737C230.823 50.0946 232.33 50.3904 233.699 51.0348C234.739 51.5491 235.241 52.1352 235.109 52.4581Z" fill="#1A2E35"/>
<path id="Vector_9" d="M264.286 58.1513C263.963 58.7134 261.573 58.1513 258.668 58.0077C255.764 57.8642 253.349 58.2828 253.038 57.7087C252.907 57.4336 253.385 56.9313 254.401 56.5127C255.763 55.9666 257.227 55.7258 258.692 55.807C260.177 55.8487 261.636 56.2076 262.971 56.8596C263.963 57.4097 264.429 57.8881 264.286 58.1513Z" fill="#1A2E35"/>
<path id="Vector_10" d="M204.833 71.2C204.523 71.0445 192.486 66.5474 191.972 79.1297C191.458 91.712 204.188 89.6429 204.224 89.284C204.26 88.9252 204.833 71.2 204.833 71.2Z" fill="#FFBF9D"/>
<path id="Vector_11" d="M200.578 84.3563C200.578 84.3563 200.351 84.4999 199.98 84.6553C199.455 84.865 198.869 84.865 198.343 84.6553C197.028 84.1171 195.952 81.9523 196.024 79.6798C196.042 78.6016 196.295 77.5403 196.765 76.5701C196.901 76.1825 197.129 75.8334 197.429 75.5524C197.728 75.2714 198.091 75.0666 198.486 74.9555C198.741 74.8989 199.008 74.9338 199.239 75.054C199.471 75.1743 199.653 75.3723 199.753 75.6133C199.909 75.9721 199.825 76.2113 199.885 76.2353C199.945 76.2592 200.16 76.0439 200.088 75.5176C200.028 75.202 199.864 74.9156 199.622 74.7043C199.285 74.434 198.858 74.3015 198.427 74.3336C197.901 74.4111 197.404 74.6238 196.985 74.9508C196.566 75.2778 196.239 75.708 196.036 76.1994C195.448 77.2612 195.135 78.4538 195.128 79.6679C195.128 82.2154 196.323 84.6434 198.104 85.2414C198.438 85.3509 198.793 85.3851 199.142 85.3417C199.491 85.2983 199.826 85.1783 200.124 84.9902C200.542 84.6553 200.626 84.3803 200.578 84.3563Z" fill="#FF9A6C"/>
<path id="Vector_12" d="M241.146 94.1161C241.277 93.8051 238.815 93.0635 237.082 90.7552C236.363 89.7392 235.78 88.6335 235.349 87.4661C234.978 86.5451 234.703 85.971 234.56 86.0189C234.416 86.0667 234.464 86.6767 234.667 87.6694C234.932 88.9999 235.482 90.2569 236.281 91.3532C237.113 92.4473 238.224 93.2982 239.496 93.817C240.464 94.1998 241.11 94.2237 241.146 94.1161Z" fill="#1A2E35"/>
<path id="Vector_13" d="M292.124 40.0313C291.9 39.2874 291.4 38.6579 290.725 38.2731C289.258 37.611 287.641 37.351 286.04 37.5196C281.143 37.4197 276.369 35.9668 272.246 33.3216C270.324 30.5546 268.177 27.9505 265.828 25.5354C260.27 19.8064 255.692 15.8953 250.959 13.9936C244.839 11.5298 234.607 10.5251 228.249 12.1996C221.89 13.874 216.117 19.1366 215.232 25.6191C211.646 22.5812 206.28 22.6171 201.917 24.3633H201.809C196.956 26.0975 194.195 31.2285 192.761 36.1801C191.327 41.1317 190.729 46.4301 188.099 50.8674C187.55 51.8003 186.904 52.9126 187.382 53.8814C187.602 54.2356 187.925 54.5145 188.307 54.6811C188.689 54.8477 189.113 54.8942 189.522 54.8143C190.338 54.6314 191.107 54.2812 191.781 53.7857C191.243 55.0894 190.705 56.3811 190.155 57.6728C191.919 57.9713 193.729 57.8526 195.438 57.326C196.324 61.7456 197.478 66.1072 198.893 70.3867C200.925 70.3867 202.777 70.5302 204.032 71.6545C205.73 73.1854 206.495 76.0559 209.316 74.9675C210.75 74.4054 212.065 71.3794 212.543 69.9322C215.736 60.1649 216.796 49.8253 215.65 39.6127C217.664 37.4597 220.075 35.7173 222.75 34.4817L222.535 34.6731C227.663 32.891 233.46 31.1448 238.325 33.5488C242.09 35.4146 244.301 39.3376 247.134 42.4593C249.739 45.3433 252.9 47.6702 256.427 49.3002C259.953 50.9301 263.773 51.8294 267.657 51.9438C267.92 57.1107 267.489 64.4185 267.764 69.5853L272.103 61.3088C272.462 60.6988 272.76 60.1127 273.047 59.4788L273.143 59.2994C273.569 58.2923 274.052 57.3099 274.589 56.3572C275.189 56.858 275.949 57.1244 276.73 57.1069C277.51 57.0894 278.258 56.7893 278.835 56.2621C279.411 55.735 279.777 55.0166 279.865 54.2402C279.952 53.4637 279.755 52.6818 279.311 52.0395C278.873 51.4393 278.345 50.9107 277.745 50.4727C278.386 51.0717 279.169 51.4962 280.021 51.7056C280.873 51.915 281.764 51.9023 282.609 51.6687C283.438 51.4265 284.165 50.9231 284.684 50.2334C285.204 49.5438 285.486 48.7048 285.49 47.8414C285.42 47.2469 285.196 46.6811 284.84 46.2004C284.483 45.7198 284.007 45.3412 283.458 45.1025C285.732 45.2879 288.009 44.788 289.996 43.6673C291.287 42.8659 292.566 41.646 292.124 40.0313Z" fill="#1A2E35"/>
<path id="Vector_14" d="M221.005 27.7241C220.344 28.2313 219.728 28.7956 219.165 29.4105C217.711 31.1593 216.738 33.2579 216.344 35.4983C216.033 37.0337 215.877 38.5964 215.878 40.1629C215.878 41.8613 216.009 43.6673 216.141 45.569C216.304 47.5579 216.348 49.5549 216.272 51.5491C216.214 52.6148 216.074 53.6743 215.854 54.7186C215.697 55.8416 215.253 56.9049 214.563 57.8044C214.244 58.16 213.839 58.4272 213.387 58.5802C212.934 58.7332 212.45 58.7667 211.981 58.6775C211.087 58.5191 210.269 58.0741 209.65 57.4097C208.653 56.0373 208.042 54.4223 207.881 52.7332H208.264C207.706 54.1168 206.953 55.4136 206.029 56.5844C205.127 57.668 203.843 58.362 202.443 58.522C201.792 58.59 201.134 58.4783 200.542 58.1991C200 57.912 199.555 57.4709 199.263 56.9313C198.99 56.4336 198.854 55.8723 198.869 55.3047C198.903 54.773 199.113 54.2679 199.467 53.8694L199.658 54.0488C198.566 55.3012 197.222 56.308 195.713 57.0031C195.325 57.1856 194.926 57.3454 194.518 57.4815C194.376 57.5348 194.227 57.571 194.076 57.5891L194.494 57.4097C194.769 57.3021 195.176 57.1346 195.69 56.8835C197.143 56.1452 198.435 55.1247 199.49 53.8814L199.694 54.0488C199.396 54.4357 199.225 54.9043 199.201 55.3917C199.177 55.8792 199.304 56.3621 199.562 56.7758C199.839 57.2617 200.256 57.6533 200.757 57.9001C201.291 58.1488 201.883 58.2441 202.467 58.1752C203.765 58.0066 204.949 57.3476 205.778 56.3333C206.671 55.187 207.396 53.9182 207.929 52.5658L208.192 51.9797L208.312 52.6136C208.474 54.2224 209.055 55.7606 209.997 57.0748C210.535 57.6968 211.268 58.1184 212.077 58.2709C212.477 58.3479 212.89 58.3213 213.277 58.1937C213.664 58.066 214.012 57.8414 214.288 57.5413C214.918 56.6941 215.329 55.7038 215.483 54.6588C215.694 53.6335 215.83 52.5942 215.89 51.5491C215.975 49.5554 215.939 47.5583 215.782 45.569C215.662 43.6553 215.531 41.8373 215.555 40.127C215.566 38.5382 215.742 36.955 216.081 35.4027C216.514 33.1243 217.545 31.0024 219.069 29.255C219.624 28.6399 220.279 28.1224 221.005 27.7241Z" fill="#858585"/>
<path id="Vector_15" d="M277.757 45.5809L277.613 45.7125L277.147 46.0473C276.9 46.2292 276.64 46.3931 276.37 46.5377C276.017 46.7647 275.645 46.9607 275.258 47.1238C272.798 48.2399 270.1 48.7289 267.406 48.5471C263.4 48.278 259.556 46.8576 256.337 44.4566C252.437 41.4854 249.183 37.7494 246.775 33.477C245.436 31.2524 244.385 28.9799 243.189 26.8749C242.084 24.8254 240.691 22.9445 239.054 21.2894C237.586 19.7956 235.771 18.69 233.771 18.0721C232.86 17.8254 231.917 17.7165 230.974 17.7491C230.108 17.8039 229.252 17.9687 228.428 18.2395C227.005 18.7327 225.702 19.5191 224.603 20.5479C223.772 21.3265 223.074 22.2354 222.535 23.239C222.117 24.118 221.796 25.0406 221.579 25.9898C221.573 25.9262 221.573 25.8621 221.579 25.7985C221.579 25.643 221.579 25.4636 221.663 25.2363C221.807 24.5205 222.04 23.8254 222.356 23.1672C222.897 22.107 223.617 21.1481 224.483 20.3326C225.596 19.2651 226.925 18.4493 228.38 17.9405C229.229 17.6485 230.114 17.4715 231.01 17.4143C231.988 17.36 232.969 17.4651 233.914 17.7252C235.98 18.3367 237.859 19.4598 239.376 20.9904C241.041 22.6649 242.45 24.5751 243.56 26.6596C244.755 28.7766 245.867 31.0491 247.146 33.2498C249.509 37.466 252.696 41.1634 256.517 44.1217C259.668 46.4993 263.434 47.923 267.37 48.2241C270.018 48.4573 272.683 48.047 275.139 47.0281C276.041 46.6006 276.915 46.1172 277.757 45.5809Z" fill="#858585"/>
<path id="Vector_16" d="M279.43 37.5196C279.228 37.6946 279.008 37.847 278.773 37.9741C278.145 38.3472 277.495 38.6788 276.824 38.9668C275.822 39.3894 274.786 39.7294 273.729 39.9835C272.432 40.2759 271.112 40.448 269.784 40.4978C268.456 40.5302 267.128 40.4422 265.816 40.2346C264.748 40.0498 263.696 39.7778 262.672 39.4213C261.983 39.1839 261.312 38.8961 260.664 38.5602C260.421 38.4492 260.192 38.3086 259.983 38.1416C259.983 38.0698 261.035 38.5841 262.768 39.1343C266.295 40.2163 270.04 40.3728 273.645 39.5888C274.686 39.3636 275.709 39.0597 276.705 38.6798C278.402 38.0339 279.382 37.4479 279.43 37.5196Z" fill="#858585"/>
<path id="Vector_17" d="M264.429 65.1719C264.059 65.5427 261.943 63.8443 258.871 63.7606C255.8 63.6769 253.505 65.1839 253.182 64.7892C253.026 64.6098 253.397 63.94 254.377 63.2343C255.724 62.3299 257.322 61.8737 258.943 61.9307C260.549 61.9753 262.098 62.5421 263.354 63.5453C264.298 64.3108 264.609 65.0164 264.429 65.1719Z" fill="#1A2E35"/>
<path id="Vector_18" d="M261.298 71.2717C261.255 71.9199 260.961 72.526 260.479 72.9613C259.997 73.3967 259.365 73.6272 258.716 73.604C258.082 73.604 257.474 73.3519 257.026 72.9033C256.577 72.4547 256.325 71.8463 256.325 71.2119C256.366 70.5647 256.657 69.9587 257.137 69.5231C257.617 69.0874 258.248 68.8566 258.895 68.8796C259.21 68.8781 259.522 68.9388 259.814 69.0583C260.105 69.1778 260.37 69.3537 260.593 69.576C260.817 69.7983 260.994 70.0625 261.115 70.3535C261.236 70.6445 261.298 70.9566 261.298 71.2717Z" fill="#1A2E35"/>
<path id="Vector_19" d="M375.9 138.381C375.936 137.692 375.831 137.003 375.59 136.356C375.35 135.709 374.98 135.118 374.503 134.619C374.026 134.121 373.452 133.725 372.817 133.457C372.182 133.189 371.498 133.053 370.808 133.059C368.86 130.499 366.685 131.432 366.685 131.432L358.437 136.994C357.242 139.087 349.222 146.969 349.222 146.969C347.046 145.342 347.046 142.101 344.441 138.154C341.835 134.207 335.871 134.674 335.871 134.674C335.871 134.674 340.484 145.115 340.962 151.597C341.441 158.08 337.377 176.2 337.377 176.2L360.684 182.754C360.684 182.754 362.155 172.827 364.772 171.99C367.916 171.021 369.661 166.38 369.661 166.38C373.055 159.491 379.964 149.48 380.932 144.373C381.9 139.266 375.9 138.381 375.9 138.381Z" fill="#FFBF9D"/>
<path id="Vector_20" d="M202.562 126.851C217.407 136.192 232.372 139.709 247.516 133.657L270.298 139.482L292.709 289.309L161.313 290.505L167.78 255.7L184.071 130.619L202.562 126.851Z" fill="#858585"/>
<path id="Vector_21" d="M270.298 139.482C270.298 139.482 288.024 146.837 294.777 159.742C301.53 172.648 312.407 208.78 312.407 208.78L332.428 171.99L369.589 181.498C369.589 181.498 341.931 257.829 334.986 264.778C327.384 272.385 306.67 280.064 296.522 274.143C286.374 268.223 284.319 245.749 284.319 245.749L270.298 139.482Z" fill="#858585"/>
<path id="Vector_22" d="M271.529 202.13C271.422 202.13 271.338 195.468 271.338 187.263C271.338 179.058 271.422 172.396 271.529 172.396C271.637 172.396 271.709 179.058 271.709 187.263C271.709 195.468 271.625 202.13 271.529 202.13Z" fill="#1A2E35"/>
<path id="Vector_23" d="M278.498 148.045C278.251 148.858 277.96 149.657 277.625 150.437C277.075 151.944 276.334 154.025 275.605 156.418C274.876 158.81 274.314 160.891 273.932 162.458C273.758 163.308 273.531 164.147 273.251 164.969C273.25 164.732 273.274 164.496 273.322 164.264C273.394 163.821 273.513 163.187 273.669 162.398C274.004 160.819 274.529 158.654 275.259 156.31C275.988 153.966 276.765 151.873 277.386 150.39C277.697 149.648 277.96 149.05 278.163 148.643C278.244 148.428 278.357 148.227 278.498 148.045Z" fill="#1A2E35"/>
<path id="Vector_24" d="M181.681 186.725L185.793 130.272C185.793 130.272 154.859 133.143 144.628 154.982C135.998 173.377 112.188 228.742 109.642 236.313C102.172 258.535 113.849 289.094 162.007 287.324L167.505 257.112L181.681 186.725Z" fill="#858585"/>
<path id="Vector_25" d="M147.018 263.403C147.018 263.403 147.102 263.212 147.281 262.865L148.058 261.346L151.01 255.796L152.002 253.954C152.331 253.25 152.813 252.629 153.413 252.136C154.11 251.645 154.952 251.404 155.803 251.455C156.669 251.485 157.528 251.621 158.361 251.861C160.151 252.33 161.886 252.988 163.537 253.823C164.421 254.26 165.255 254.794 166.023 255.413L166.31 255.653C166.42 255.76 166.506 255.891 166.561 256.035C166.64 256.288 166.692 256.549 166.716 256.813C166.752 257.326 166.752 257.842 166.716 258.356C166.644 260.389 166.393 262.362 166.142 264.252C165.891 266.142 165.593 267.972 165.294 269.706C164.72 273.174 164.098 276.284 163.632 278.892C163.166 281.499 162.724 283.568 162.437 285.063L162.114 286.738C162.031 287.12 161.995 287.324 161.983 287.324C161.964 287.125 161.964 286.924 161.983 286.726C162.043 286.331 162.126 285.769 162.246 285.039C162.509 283.532 162.891 281.451 163.345 278.844C163.8 276.236 164.361 273.115 164.923 269.646C165.21 267.912 165.485 266.058 165.748 264.204C166.011 262.35 166.238 260.353 166.322 258.344C166.352 257.846 166.352 257.347 166.322 256.849C166.304 256.617 166.26 256.388 166.19 256.167C166.156 256.077 166.103 255.996 166.035 255.928L165.772 255.688C165.029 255.094 164.228 254.577 163.381 254.146C161.752 253.322 160.041 252.669 158.278 252.196C157.473 251.955 156.642 251.815 155.803 251.777C155.023 251.73 154.249 251.945 153.604 252.387C153.039 252.856 152.578 253.439 152.253 254.098L151.249 255.916L148.201 261.417L147.353 262.901C147.262 263.081 147.15 263.25 147.018 263.403Z" fill="#1A2E35"/>
<path id="Vector_26" d="M124.667 236.588H125.037H126.077C126.973 236.588 128.276 236.707 129.878 236.863C131.765 237.021 133.641 237.292 135.496 237.676C137.779 238.137 139.998 238.871 142.105 239.865C144.205 240.879 146.158 242.17 147.914 243.704C149.375 244.956 150.591 246.469 151.5 248.165C152.09 249.313 152.452 250.564 152.564 251.849C152.592 252.195 152.592 252.543 152.564 252.89C152.579 253.013 152.579 253.137 152.564 253.26C152.564 253.26 152.564 252.758 152.433 251.861C152.257 250.602 151.852 249.386 151.237 248.273C150.316 246.627 149.1 245.163 147.652 243.955C145.912 242.454 143.983 241.187 141.914 240.188C139.84 239.218 137.663 238.488 135.424 238.011C133.584 237.618 131.725 237.322 129.854 237.126C128.252 236.934 126.961 236.827 126.065 236.731L125.025 236.624C124.904 236.628 124.784 236.615 124.667 236.588Z" fill="#1A2E35"/>
<path id="Vector_27" d="M157.776 233.741C157.584 234.499 157.328 235.239 157.011 235.954C156.473 237.305 155.684 239.147 154.787 241.168C153.891 243.19 153.102 244.912 152.397 246.335C152.113 247.064 151.778 247.772 151.393 248.452C151.583 247.69 151.839 246.946 152.158 246.228C152.696 244.876 153.485 243.034 154.381 241.025C155.277 239.016 156.066 237.281 156.772 235.858C157.052 235.128 157.388 234.42 157.776 233.741Z" fill="#1A2E35"/>
<path id="Vector_28" d="M174.88 189.308C174.784 189.308 174.701 185.72 174.701 181.307C174.701 176.894 174.784 173.318 174.88 173.318C174.976 173.318 175.071 176.906 175.071 181.307C175.071 185.708 174.988 189.308 174.88 189.308Z" fill="#1A2E35"/>
<g id="Group" opacity="0.3">
<path id="Vector_29" d="M152.504 253.284C144.365 256.119 138.866 263.511 136.643 271.835C136.471 272.253 136.4 272.706 136.435 273.157C136.471 273.608 136.611 274.044 136.846 274.43C137.184 274.753 137.622 274.951 138.087 274.99C138.553 275.029 139.018 274.908 139.404 274.646C140.161 274.099 140.779 273.382 141.209 272.553C145.305 266.33 149.075 259.899 152.504 253.284Z" fill="black"/>
</g>
<g id="Group_2" opacity="0.3">
<path id="Vector_30" d="M142.416 237.174C138.08 234.918 133.293 233.663 128.408 233.502C126.506 233.408 124.6 233.573 122.742 233.992C120.208 234.531 117.28 235.81 116.766 237.64C122.611 235.81 131.205 237.018 137.181 238.322C140.141 238.929 142.943 240.142 145.412 241.886C147.88 243.629 149.961 245.865 151.524 248.452C149.969 243.705 146.729 239.692 142.416 237.174Z" fill="black"/>
</g>
<path id="Vector_31" d="M170.326 165.256C170.204 164.971 170.112 164.675 170.051 164.371C169.896 163.785 169.645 162.96 169.31 161.979C167.585 156.649 164.731 151.753 160.943 147.627C160.214 146.837 159.616 146.215 159.174 145.809C158.944 145.599 158.733 145.371 158.541 145.127C158.808 145.29 159.057 145.483 159.282 145.701C159.736 146.084 160.381 146.67 161.134 147.447C165.058 151.488 167.96 156.409 169.597 161.8C169.847 162.614 170.054 163.44 170.218 164.275C170.291 164.597 170.327 164.926 170.326 165.256Z" fill="#1A2E35"/>
<path id="Vector_32" d="M181.681 290.433L147.209 207.225C145.644 203.434 147.616 200.348 151.62 200.348H158.553C161.385 200.348 163.334 198.793 163.489 196.353L163.728 193.291C163.907 190.899 165.844 189.308 168.676 189.308H201.618C204.495 189.441 207.219 190.644 209.256 192.681L211.921 195.277C213.953 197.314 216.674 198.517 219.547 198.65H261.525C263.665 198.768 265.732 199.472 267.501 200.684C269.269 201.897 270.671 203.572 271.553 205.527L305.714 290.445L181.681 290.433Z" fill="#1A6EA6"/>
<g id="Group_3" opacity="0.3">
<path id="Vector_33" d="M181.681 290.433L147.209 207.225C145.644 203.434 147.616 200.348 151.62 200.348H158.553C161.385 200.348 163.334 198.793 163.489 196.353L163.728 193.291C163.907 190.899 165.844 189.308 168.676 189.308H201.618C204.495 189.441 207.219 190.644 209.256 192.681L211.921 195.277C213.953 197.314 216.674 198.517 219.547 198.65H261.525C263.665 198.768 265.732 199.472 267.501 200.684C269.269 201.897 270.671 203.572 271.553 205.527L305.714 290.445L181.681 290.433Z" fill="black"/>
</g>
<path id="Vector_34" d="M175.991 262.171L162.999 211.937C162.138 208.624 164.302 205.299 167.326 205.299H269.21C270.248 205.347 271.24 205.742 272.027 206.421C272.813 207.099 273.35 208.023 273.549 209.043L292.47 284.656C293.307 287.981 291.968 289.967 288.956 289.931H186.438C185.415 289.87 184.44 289.472 183.667 288.799C182.893 288.126 182.363 287.217 182.159 286.211L175.991 262.171Z" fill="#E1E1E1"/>
<path id="Vector_35" d="M183.031 288.161L177.497 208.959C177.452 208.295 177.543 207.628 177.765 207.001C177.988 206.373 178.337 205.798 178.791 205.311C179.245 204.825 179.794 204.436 180.404 204.171C181.014 203.906 181.673 203.769 182.338 203.769H287.904V288.161H183.031Z" fill="#ECECEC"/>
<path id="Vector_36" d="M181.86 289.967L194.41 208.325C194.707 207.026 195.436 205.867 196.479 205.039C197.522 204.21 198.816 203.762 200.148 203.769H306.945C307.907 203.755 308.857 203.982 309.709 204.429C310.562 204.876 311.288 205.529 311.824 206.329C312.36 207.129 312.687 208.05 312.776 209.008C312.866 209.967 312.714 210.933 312.336 211.818L289.255 286.534L181.86 289.967Z" fill="#FAFAFA"/>
<path id="Vector_37" d="M181.681 290.397L207.582 213.935C208.07 212.408 209.025 211.073 210.312 210.118C211.598 209.163 213.152 208.636 214.754 208.612H324.85C325.697 208.638 326.526 208.863 327.27 209.269C328.014 209.676 328.652 210.252 329.132 210.951C329.611 211.65 329.919 212.452 330.031 213.293C330.143 214.133 330.055 214.988 329.775 215.789L305.678 290.457L181.681 290.397Z" fill="#1A6EA6"/>
<g id="Group_4" opacity="0.3">
<path id="Vector_38" d="M234.918 277.6C234.918 277.6 230.771 277.779 228.846 277.911C219.674 278.516 210.492 276.874 202.096 273.127C199.503 271.93 196.765 270.352 195.988 267.613C195.104 264.563 197.088 261.381 199.491 259.312C201.893 257.243 204.833 255.724 206.925 253.332C209.017 250.94 210.009 247.065 207.953 244.649L207.379 245.068C205.885 248.847 201.738 250.665 198.307 252.83C191.876 256.902 187.108 263.136 184.86 270.412C183.665 274.37 183.331 278.987 185.733 282.372C187.43 284.764 190.215 286.127 192.964 287.156C201.331 290.242 210.2 290.361 219.081 290.373C221.89 290.373 230.508 290.254 230.508 290.254C233.209 289.524 234.094 288.113 235.731 285.828C237.237 283.783 236.902 279.238 234.918 277.6Z" fill="black"/>
</g>
<path id="Vector_39" d="M234.918 277.6L206.232 273.27L195.08 266.859C194.349 266.451 193.732 265.866 193.285 265.158C192.838 264.45 192.576 263.641 192.522 262.805V262.709C192.492 261.673 192.778 260.653 193.342 259.783C193.905 258.914 194.72 258.236 195.678 257.841C199.263 256.358 204.821 254.373 207.212 250.187C210.642 244.206 207.212 242.915 207.212 242.915L183.235 252.483L166.262 264.037L162.844 283.317L186.462 291.079C186.462 291.079 212.854 292.574 220.145 291.749C227.436 290.924 227.424 287.539 227.424 287.539C228.775 287.12 231.512 284.716 231.512 282.48C235.038 279.155 234.894 277.6 234.894 277.6" fill="#FFBF9D"/>
<path id="Vector_40" d="M198.199 285.852C198.605 285.882 199.006 285.959 199.395 286.08C200.136 286.259 201.235 286.51 202.586 286.773C206.105 287.479 209.674 287.907 213.26 288.053C216.852 288.184 220.448 288.036 224.017 287.611C225.38 287.443 226.491 287.288 227.256 287.168C227.648 287.078 228.05 287.034 228.452 287.036C228.066 287.186 227.665 287.294 227.256 287.359C226.503 287.539 225.392 287.742 224.029 287.957C216.867 289.02 209.57 288.732 202.514 287.108C201.164 286.797 200.124 286.51 199.335 286.259C198.942 286.169 198.561 286.032 198.199 285.852Z" fill="#FF9A6C"/>
<path id="Vector_41" d="M200.805 281.451C201.211 281.481 201.612 281.558 202 281.678C202.765 281.858 203.877 282.109 205.252 282.372C208.833 283.051 212.461 283.451 216.105 283.568C219.75 283.677 223.398 283.509 227.017 283.066C228.404 282.898 229.527 282.743 230.304 282.611C230.697 282.523 231.098 282.479 231.5 282.48C231.113 282.627 230.713 282.735 230.304 282.803C229.539 282.982 228.416 283.197 227.029 283.413C223.398 283.955 219.726 284.172 216.057 284.058C212.385 283.949 208.732 283.496 205.144 282.707C203.769 282.396 202.67 282.109 201.917 281.858C201.532 281.766 201.159 281.63 200.805 281.451Z" fill="#FF9A6C"/>
<path id="Vector_42" d="M370.163 175.171L319.137 185.254C318.299 185.419 317.436 185.418 316.598 185.249C315.761 185.081 314.965 184.749 314.255 184.272C313.546 183.796 312.938 183.184 312.465 182.472C311.992 181.76 311.664 180.962 311.499 180.123L297.622 109.473C297.455 108.634 297.455 107.771 297.622 106.932C297.788 106.093 298.119 105.295 298.594 104.584C299.069 103.873 299.68 103.263 300.391 102.789C301.102 102.314 301.899 101.984 302.738 101.818L335.094 95.4197L365.238 116.302L375.314 167.517C375.48 168.358 375.477 169.223 375.307 170.064C375.138 170.904 374.804 171.702 374.325 172.413C373.847 173.124 373.233 173.734 372.519 174.207C371.804 174.68 371.004 175.008 370.163 175.171Z" fill="#ECECEC"/>
<path id="Vector_43" d="M335.034 95.4197L338.966 115.31C339.118 116.091 339.422 116.834 339.861 117.497C340.3 118.16 340.866 118.73 341.525 119.175C342.185 119.619 342.925 119.929 343.704 120.087C344.483 120.244 345.286 120.247 346.066 120.094L365.191 116.314L335.034 95.4197Z" fill="#F5F5F5"/>
<path id="Vector_44" d="M339.564 117.008C339.874 118.511 340.688 119.862 341.87 120.838C343.053 121.815 344.533 122.358 346.066 122.378C346.285 122.396 346.505 122.396 346.724 122.378C349.305 122.378 366.314 122.02 366.242 121.637C366.171 121.254 365.179 116.291 365.179 116.291L346.054 120.07C346.054 120.07 341.273 120.859 339.564 117.008Z" fill="#E1E1E1"/>
<path id="Vector_45" d="M370.163 175.171L370.438 175.088C370.717 175.027 370.989 174.939 371.251 174.824C372.596 174.296 373.724 173.331 374.454 172.083C375.185 170.836 375.475 169.379 375.279 167.947C374.908 165.878 374.406 163.486 373.88 160.771C371.753 150.078 368.705 134.781 365.035 116.29L365.095 116.386L334.938 95.5632H335.07L316.4 99.2709L306.634 101.196L304.16 101.687C303.351 101.823 302.552 102.014 301.77 102.261C300.441 102.76 299.319 103.692 298.584 104.907C297.849 106.122 297.544 107.549 297.718 108.959C297.897 110.155 298.172 111.279 298.387 112.427C298.841 114.748 299.296 117.048 299.75 119.328C300.65 123.881 301.535 128.37 302.403 132.796C304.136 141.634 305.822 150.162 307.423 158.283C308.212 162.338 309.001 166.297 309.754 170.136C310.137 172.062 310.507 173.963 310.866 175.829C311.057 176.762 311.236 177.683 311.416 178.604C311.547 179.511 311.763 180.404 312.061 181.271C312.398 182.096 312.904 182.842 313.546 183.46C314.188 184.078 314.953 184.555 315.79 184.859C316.597 185.154 317.455 185.28 318.312 185.23C319.161 185.17 320.01 184.943 320.846 184.799L330.48 182.91L359.549 177.216L367.45 175.686L369.518 175.303L370.211 175.183L369.518 175.339L367.474 175.769L359.573 177.36L330.528 183.161L320.894 185.074C320.05 185.268 319.196 185.415 318.336 185.517C317.435 185.576 316.531 185.446 315.683 185.134C314.811 184.822 314.014 184.331 313.343 183.692C312.672 183.054 312.142 182.282 311.786 181.427C311.478 180.54 311.25 179.627 311.105 178.7C310.925 177.779 310.746 176.858 310.555 175.925L309.431 170.244C308.635 166.392 307.838 162.437 307.041 158.379C305.427 150.258 303.742 141.742 301.997 132.903C301.128 128.494 300.24 124.005 299.331 119.436C298.885 117.156 298.431 114.855 297.969 112.535C297.754 111.339 297.491 110.239 297.311 109.042C297.154 107.82 297.34 106.577 297.849 105.454C298.585 103.837 299.93 102.578 301.59 101.95C302.407 101.693 303.242 101.497 304.089 101.364L306.563 100.874L316.328 98.948L334.998 95.2642H335.082H335.142L365.274 116.183L373.988 160.687C374.502 163.366 374.992 165.735 375.362 167.863C375.477 168.761 375.405 169.672 375.152 170.54C374.899 171.409 374.47 172.215 373.892 172.911C373.174 173.765 372.248 174.42 371.203 174.812C370.939 174.916 370.667 174.996 370.39 175.052L370.163 175.171Z" fill="#1A2E35"/>
<path id="Vector_46" d="M365.179 116.302C365.025 116.364 364.864 116.408 364.701 116.434L363.302 116.745L358.127 117.833L350.465 119.388L345.923 120.285C344.652 120.484 343.35 120.288 342.194 119.724C341.037 119.159 340.082 118.253 339.456 117.128C339.069 116.38 338.814 115.571 338.703 114.736C338.393 113.157 338.106 111.638 337.819 110.191C337.269 107.308 336.767 104.701 336.337 102.5C335.907 100.299 335.608 98.5772 335.381 97.3094C335.273 96.7233 335.189 96.2569 335.13 95.8981C335.096 95.7326 335.076 95.5646 335.07 95.3958C335.13 95.5544 335.174 95.7187 335.201 95.8861C335.285 96.2449 335.393 96.6994 335.524 97.2855C335.787 98.4815 336.146 100.299 336.6 102.452C337.054 104.605 337.568 107.236 338.154 110.131C338.441 111.578 338.751 113.085 339.062 114.664C339.17 115.454 339.417 116.22 339.791 116.924C340.182 117.643 340.719 118.27 341.369 118.766C342.003 119.264 342.731 119.627 343.51 119.833C344.289 120.039 345.102 120.083 345.899 119.962L350.429 119.089L358.115 117.606L363.302 116.649L364.724 116.398L365.179 116.302Z" fill="#1A2E35"/>
<path id="Vector_47" d="M337.58 113.36C337.58 113.456 331.603 114.736 324.157 116.207C316.71 117.678 310.674 118.778 310.662 118.683C310.65 118.587 316.639 117.307 324.085 115.836C331.532 114.365 337.556 113.264 337.58 113.36Z" fill="#1A2E35"/>
<path id="Vector_48" d="M352.306 120.8C352.306 120.907 343.461 122.737 332.5 124.902C321.539 127.067 312.635 128.753 312.611 128.645C312.587 128.538 321.468 126.708 332.428 124.543C343.389 122.378 352.282 120.656 352.306 120.8Z" fill="#1A2E35"/>
<path id="Vector_49" d="M354.266 130.679C354.266 130.775 345.409 132.616 334.46 134.781C323.511 136.946 314.595 138.621 314.571 138.525C314.547 138.429 323.416 136.587 334.388 134.422C345.361 132.258 354.242 130.571 354.266 130.679Z" fill="#1A2E35"/>
<path id="Vector_50" d="M316.531 148.44C316.531 148.344 325.376 146.502 336.337 144.338C347.297 142.173 356.19 140.498 356.19 140.594C356.19 140.69 347.333 142.532 336.373 144.696C325.412 146.861 316.555 148.536 316.531 148.44Z" fill="#1A2E35"/>
<path id="Vector_51" d="M358.174 150.521C358.174 150.617 349.329 152.459 338.369 154.623C327.408 156.788 318.515 158.463 318.492 158.367C318.468 158.271 327.337 156.429 338.297 154.253C349.258 152.076 358.163 150.413 358.174 150.521Z" fill="#1A2E35"/>
<path id="Vector_52" d="M360.135 160.436C360.135 160.544 351.29 162.374 340.329 164.539C329.368 166.703 320.464 168.378 320.452 168.282C320.44 168.186 329.297 166.345 340.257 164.18C351.218 162.015 360.123 160.34 360.135 160.436Z" fill="#1A2E35"/>
<path id="Vector_53" d="M351.783 144.263L299.695 154.555C296.962 155.095 295.184 157.75 295.724 160.484L297.613 170.059C298.153 172.794 300.806 174.573 303.539 174.033L355.627 163.741C358.36 163.201 360.138 160.546 359.598 157.812L357.709 148.237C357.169 145.502 354.516 143.723 351.783 144.263Z" fill="#1A6EA6"/>
<path id="Vector_54" d="M362.167 122.594C362.167 122.594 365.932 117.809 368.836 120.489C371.741 123.168 370.904 124.531 368.143 128.741C368.143 128.741 374.299 128.418 372.326 134.721C372.326 134.721 378.47 134.04 377.872 139.218C377.872 139.218 382.51 143.751 380.096 146.682C377.681 149.612 368.944 154.887 366.744 153.978C364.545 153.069 364.509 149.947 364.509 149.947C364.509 149.947 361.892 148.751 361.163 147.375C360.433 146 361.688 144.05 361.688 144.05C361.688 144.05 359.465 141.79 358.915 141.156C358.366 140.522 359.214 137.568 359.214 137.568L362.8 134.135C362.8 134.135 357.935 136.252 356.919 135.451C355.903 134.65 354.768 133.944 355.844 132.473C357.381 130.766 359.034 129.168 360.792 127.689L362.167 122.594Z" fill="#FFBF9D"/>
<path id="Vector_55" d="M364.987 150.342C365.467 149.656 365.999 149.009 366.577 148.404C367.837 146.79 369.356 145.396 371.071 144.278C372.83 143.313 374.52 142.226 376.127 141.025C376.733 140.466 377.307 139.875 377.848 139.254C377.576 140.073 377.074 140.795 376.402 141.335C374.852 142.653 373.169 143.808 371.382 144.78C369.718 145.875 368.207 147.186 366.888 148.679C366.345 149.329 365.703 149.89 364.987 150.342Z" fill="#FF9A6C"/>
<path id="Vector_56" d="M361.569 144.995C363.113 143.051 364.803 141.228 366.625 139.541C368.083 138.106 369.338 136.719 370.414 135.87C370.943 135.35 371.591 134.968 372.302 134.757C372.302 134.829 371.645 135.26 370.677 136.181C369.709 137.102 368.513 138.573 367.091 139.948C365.392 141.779 363.545 143.467 361.569 144.995Z" fill="#FF9A6C"/>
<path id="Vector_57" d="M362.728 134.183C363.59 133.192 364.538 132.279 365.561 131.456C366.446 130.508 367.28 129.514 368.059 128.478C367.78 129.817 367.045 131.018 365.979 131.875C365.068 132.862 363.961 133.648 362.728 134.183Z" fill="#FF9A6C"/>
<path id="Vector_58" d="M362.167 122.57C362.162 122.691 362.141 122.812 362.107 122.928L361.868 123.933C361.629 124.854 361.294 126.134 360.876 127.772C360.171 128.394 359.37 129.112 358.485 129.925C357.526 130.781 356.646 131.722 355.856 132.736C355.675 132.999 355.583 133.314 355.593 133.633C355.644 133.955 355.81 134.248 356.059 134.458C356.334 134.715 356.626 134.955 356.931 135.176C357.072 135.275 357.232 135.344 357.401 135.378C357.569 135.413 357.743 135.414 357.911 135.379C359.564 135.1 361.172 134.601 362.693 133.896L363.888 133.418L363.003 134.279L359.477 137.723V137.652C359.204 138.206 359.047 138.81 359.016 139.427C358.985 140.044 359.081 140.661 359.298 141.24C360.026 142.362 360.974 143.327 362.083 144.074L362.322 144.254L362.131 144.481C361.366 145.39 360.816 146.873 361.82 147.722C362.812 148.646 363.936 149.416 365.155 150.007L364.748 150.234V150.162C364.832 150.246 364.593 149.959 364.916 150.413C365.717 150.043 365.155 150.258 365.322 150.198V150.7C365.322 150.892 365.322 151.083 365.322 151.274C365.382 151.656 365.486 152.029 365.633 152.387C365.779 152.738 365.99 153.059 366.254 153.332C366.502 153.595 366.823 153.778 367.175 153.858C367.976 153.865 368.769 153.706 369.506 153.391C370.295 153.092 371.065 152.744 371.812 152.351C373.234 151.609 374.607 150.778 375.924 149.863C377.214 148.999 378.415 148.009 379.51 146.909C380.04 146.427 380.376 145.768 380.454 145.055C380.488 144.345 380.357 143.637 380.072 142.986C379.508 141.65 378.697 140.433 377.681 139.398L377.598 139.302V139.171C377.689 138.49 377.619 137.798 377.394 137.149C377.166 136.542 376.746 136.026 376.199 135.678C375.032 135.065 373.709 134.811 372.398 134.949H372.051L372.135 134.602C372.231 134.219 372.338 133.836 372.422 133.406C372.485 133.034 372.513 132.658 372.506 132.281C372.531 131.559 372.307 130.85 371.872 130.272C371.403 129.778 370.832 129.393 370.197 129.145C369.563 128.897 368.882 128.792 368.203 128.837H367.796L368.012 128.502C368.731 127.458 369.394 126.376 369.996 125.261C370.256 124.76 370.426 124.218 370.498 123.658C370.548 123.143 370.44 122.626 370.187 122.175C369.702 121.341 369.041 120.622 368.251 120.07C367.905 119.869 367.52 119.744 367.123 119.703C366.725 119.662 366.323 119.705 365.944 119.831C364.869 120.213 363.89 120.825 363.075 121.625C362.788 121.888 362.585 122.103 362.442 122.247C362.298 122.39 362.226 122.474 362.214 122.462C362.259 122.369 362.32 122.284 362.394 122.211C362.581 121.974 362.781 121.746 362.991 121.529C363.333 121.179 363.701 120.855 364.091 120.56C364.626 120.142 365.228 119.819 365.872 119.603C366.283 119.458 366.72 119.401 367.155 119.436C367.589 119.471 368.012 119.597 368.394 119.807L368.98 120.249L369.518 120.752C369.889 121.108 370.214 121.51 370.486 121.948C370.777 122.46 370.91 123.046 370.868 123.634C370.798 124.243 370.62 124.834 370.342 125.38C369.751 126.519 369.092 127.621 368.37 128.681L368.179 128.346C368.908 128.326 369.636 128.431 370.33 128.657C371.081 128.878 371.747 129.32 372.243 129.925C372.741 130.581 373.006 131.385 372.996 132.21C373.002 132.61 372.974 133.01 372.912 133.406C372.828 133.812 372.709 134.219 372.613 134.602L372.35 134.267C373.772 134.104 375.209 134.375 376.474 135.044C377.137 135.444 377.653 136.049 377.944 136.767C378.206 137.498 378.292 138.28 378.195 139.051L378.112 138.824C379.192 139.889 380.063 141.146 380.681 142.531C381.011 143.284 381.154 144.104 381.1 144.924C381.055 145.338 380.942 145.742 380.765 146.12C380.554 146.476 380.306 146.809 380.024 147.112C378.898 148.247 377.661 149.264 376.331 150.15C374.991 151.083 373.594 151.93 372.147 152.686C371.374 153.092 370.575 153.447 369.757 153.75C368.937 154.11 368.045 154.277 367.151 154.241C366.698 154.122 366.28 153.896 365.932 153.582C365.585 153.267 365.318 152.874 365.155 152.435C364.992 152.027 364.88 151.602 364.82 151.167C364.782 150.954 364.763 150.738 364.76 150.521V149.995C364.928 149.935 364.366 150.162 365.155 149.779C365.489 150.234 365.25 149.947 365.334 150.031V150.198V150.629L364.964 150.425C363.681 149.812 362.499 149.006 361.461 148.033C361.197 147.755 360.994 147.425 360.864 147.064C360.769 146.692 360.769 146.301 360.864 145.928C361.025 145.234 361.354 144.589 361.82 144.05V144.457C360.643 143.651 359.643 142.613 358.88 141.407C358.575 140.755 358.463 140.028 358.557 139.314C358.629 138.642 358.802 137.985 359.071 137.365L362.657 133.944L362.908 134.327C361.341 135.04 359.684 135.535 357.983 135.798C357.536 135.875 357.076 135.771 356.704 135.511C356.391 135.273 356.092 135.017 355.808 134.745C355.487 134.483 355.283 134.106 355.238 133.694C355.194 133.282 355.312 132.869 355.569 132.545C356.386 131.509 357.303 130.555 358.306 129.698C359.19 128.897 360.003 128.191 360.696 127.581C361.175 125.954 361.545 124.675 361.808 123.754L362.119 122.773C362.13 122.704 362.146 122.636 362.167 122.57Z" fill="#FF9A6C"/>
<path id="Vector_59" d="M303.897 163.115C304.252 163.204 304.574 163.393 304.825 163.661C305.075 163.928 305.243 164.262 305.308 164.622C305.367 164.893 305.364 165.173 305.3 165.442C305.236 165.711 305.112 165.963 304.937 166.177C304.564 166.659 304.021 166.98 303.419 167.074L300.18 167.708L298.817 160.675L301.997 160.042C302.541 159.935 303.105 160.015 303.598 160.269C303.824 160.389 304.019 160.559 304.168 160.766C304.318 160.974 304.417 161.213 304.459 161.465C304.519 161.773 304.495 162.091 304.387 162.386C304.284 162.664 304.116 162.914 303.897 163.115ZM302.618 162.589C302.666 162.518 302.698 162.439 302.715 162.356C302.731 162.272 302.731 162.187 302.715 162.103C302.698 162.02 302.665 161.941 302.618 161.87C302.571 161.8 302.51 161.739 302.439 161.692C302.283 161.605 302.099 161.579 301.925 161.62L300.957 161.812L301.196 163.008L302.176 162.816C302.346 162.796 302.503 162.715 302.618 162.589ZM302.786 165.543C302.971 165.516 303.138 165.417 303.252 165.268C303.348 165.122 303.384 164.943 303.35 164.771C303.317 164.599 303.217 164.447 303.073 164.347C302.906 164.251 302.71 164.221 302.523 164.264L301.483 164.467L301.734 165.747L302.786 165.543Z" fill="#ECECEC"/>
<path id="Vector_60" d="M310.507 165.675L308.941 163.737L308.236 163.881L308.666 166.034L306.73 166.416L305.332 159.372L308.379 158.774C309.069 158.619 309.792 158.734 310.399 159.097C310.688 159.278 310.934 159.519 311.122 159.804C311.309 160.089 311.434 160.41 311.487 160.747C311.566 161.145 311.545 161.555 311.427 161.943C311.295 162.324 311.069 162.666 310.77 162.936L312.67 165.22L310.507 165.675ZM307.614 160.723L307.913 162.254L308.798 162.075C309.029 162.044 309.239 161.923 309.384 161.74C309.445 161.654 309.487 161.557 309.508 161.454C309.528 161.351 309.527 161.244 309.503 161.142C309.485 161.038 309.446 160.939 309.389 160.85C309.331 160.762 309.256 160.686 309.168 160.628C308.963 160.518 308.725 160.488 308.499 160.544L307.614 160.723Z" fill="#ECECEC"/>
<path id="Vector_61" d="M316.997 164.574C316.3 164.722 315.577 164.693 314.894 164.491C314.264 164.306 313.7 163.945 313.268 163.45C312.822 162.937 312.52 162.313 312.396 161.644C312.248 160.976 312.289 160.28 312.515 159.635C312.729 159.011 313.114 158.459 313.627 158.044C314.181 157.6 314.839 157.303 315.539 157.183C316.068 157.082 316.612 157.082 317.141 157.183C317.63 157.263 318.098 157.442 318.515 157.709C318.928 157.964 319.279 158.307 319.543 158.714C319.83 159.149 320.029 159.637 320.129 160.149C320.23 160.658 320.23 161.183 320.129 161.692C320.036 162.184 319.841 162.651 319.557 163.063C319.273 163.475 318.906 163.823 318.48 164.084C318.018 164.334 317.517 164.5 316.997 164.574ZM315.204 162.493C315.411 162.637 315.646 162.735 315.893 162.783C316.14 162.83 316.394 162.825 316.639 162.768C316.883 162.725 317.115 162.631 317.32 162.493C317.526 162.355 317.701 162.176 317.834 161.967C318.095 161.528 318.185 161.008 318.086 160.506C317.986 160.005 317.705 159.558 317.296 159.252C317.09 159.112 316.858 159.016 316.613 158.971C316.368 158.925 316.116 158.932 315.874 158.989C315.632 159.033 315.401 159.126 315.196 159.262C314.99 159.397 314.814 159.573 314.679 159.778C314.543 159.993 314.45 160.232 314.407 160.483C314.364 160.733 314.371 160.99 314.428 161.237C314.466 161.488 314.555 161.729 314.688 161.945C314.822 162.16 314.997 162.347 315.204 162.493Z" fill="#ECECEC"/>
<path id="Vector_62" d="M325.221 162.948C324.553 163.087 323.861 163.05 323.213 162.84C322.593 162.641 322.04 162.277 321.611 161.788C321.166 161.279 320.869 160.659 320.75 159.994C320.617 159.333 320.654 158.65 320.858 158.008C321.064 157.386 321.441 156.835 321.946 156.417C322.461 155.969 323.09 155.672 323.763 155.556C324.615 155.369 325.506 155.498 326.27 155.921C327.033 156.344 327.616 157.031 327.91 157.853L325.95 158.247C325.776 157.917 325.499 157.652 325.161 157.494C324.838 157.336 324.473 157.29 324.121 157.362C323.887 157.403 323.664 157.493 323.469 157.627C323.273 157.761 323.108 157.936 322.986 158.14C322.732 158.581 322.655 159.103 322.77 159.599C322.863 160.078 323.132 160.505 323.524 160.795C323.713 160.935 323.931 161.033 324.162 161.083C324.393 161.132 324.632 161.132 324.862 161.082C325.231 161.014 325.565 160.82 325.806 160.532C326.049 160.233 326.187 159.864 326.201 159.479L328.185 159.085C328.255 159.976 327.989 160.861 327.441 161.567C326.893 162.272 326.101 162.748 325.221 162.9V162.948Z" fill="#ECECEC"/>
<path id="Vector_63" d="M332.357 154.037L334.317 153.655L335.703 160.687L333.755 161.082L333.217 158.379L331.102 158.798L331.639 161.489L329.691 161.883L328.293 154.839L330.253 154.456L330.755 156.992L332.859 156.585L332.357 154.037Z" fill="#ECECEC"/>
<path id="Vector_64" d="M342.146 158.762C341.643 159.413 340.905 159.843 340.09 159.958C339.687 160.058 339.268 160.077 338.857 160.014C338.447 159.95 338.053 159.805 337.699 159.587C337.36 159.377 337.071 159.096 336.85 158.764C336.629 158.432 336.483 158.056 336.42 157.661L335.572 153.356L337.556 152.961L338.393 157.243C338.443 157.549 338.61 157.823 338.859 158.008C338.982 158.091 339.121 158.147 339.268 158.172C339.414 158.197 339.564 158.19 339.707 158.152C339.854 158.131 339.994 158.08 340.12 158.001C340.245 157.923 340.353 157.82 340.437 157.697C340.597 157.432 340.649 157.115 340.58 156.812L339.731 152.53L341.715 152.136L342.564 156.453C342.666 156.845 342.682 157.255 342.61 157.654C342.537 158.052 342.379 158.431 342.146 158.762Z" fill="#ECECEC"/>
<path id="Vector_65" d="M348.194 158.223L346.628 156.286L345.935 156.429L346.353 158.582L344.417 158.965L343.042 151.896L346.09 151.287C346.777 151.128 347.5 151.248 348.098 151.621C348.389 151.802 348.637 152.042 348.827 152.327C349.017 152.612 349.143 152.934 349.198 153.272C349.281 153.67 349.258 154.084 349.129 154.471C349.001 154.857 348.773 155.203 348.469 155.473L350.369 157.757L348.194 158.223ZM345.301 153.272L345.612 154.803L346.497 154.623C346.724 154.592 346.931 154.472 347.07 154.289C347.129 154.202 347.17 154.105 347.191 154.003C347.211 153.901 347.212 153.796 347.192 153.694C347.172 153.591 347.132 153.494 347.074 153.407C347.016 153.32 346.942 153.246 346.855 153.188C346.653 153.069 346.413 153.034 346.186 153.093L345.301 153.272Z" fill="#ECECEC"/>
<path id="Vector_66" d="M352.808 155.556L355.461 155.042L355.796 156.717L351.206 157.626L349.819 150.581L354.314 149.696L354.648 151.37L352.078 151.885L352.282 152.925L354.588 152.459L354.911 154.049L352.592 154.516L352.808 155.556Z" fill="#ECECEC"/>
<path id="Vector_67" d="M103.068 160.974H59.1777C57.7195 160.974 56.321 160.395 55.2898 159.363C54.2587 158.331 53.6794 156.932 53.6794 155.473V94.6782C53.6826 93.2211 54.2633 91.8247 55.2941 90.7956C56.3248 89.7664 57.7215 89.1884 59.1777 89.1884H87.0155L108.53 111.411V155.485C108.527 156.935 107.951 158.326 106.928 159.355C105.905 160.383 104.518 160.965 103.068 160.974Z" fill="#ECECEC"/>
<path id="Vector_68" d="M87.0156 89.1884V106.292C87.0156 107.647 87.553 108.947 88.5098 109.907C89.4666 110.867 90.7647 111.408 92.1194 111.411H108.566L87.0156 89.1884Z" fill="#F5F5F5"/>
<path id="Vector_69" d="M87.2546 107.799C87.2622 109.093 87.7121 110.346 88.5297 111.349C89.3473 112.352 90.4833 113.045 91.7489 113.312L92.2987 113.432C94.4263 113.815 108.566 116.338 108.566 116.015V111.411H92.1194C92.1194 111.411 88.0196 111.231 87.2546 107.799Z" fill="#E1E1E1"/>
<path id="Vector_70" d="M103.068 160.974C103.068 160.974 103.403 160.974 104.012 160.855C105.213 160.639 106.306 160.025 107.115 159.111C107.924 158.198 108.401 157.038 108.471 155.819C108.471 154.049 108.471 151.992 108.471 149.696C108.471 140.486 108.471 127.318 108.471 111.423V111.53L86.9559 89.3199H87.0874H60.4209C59.7146 89.2933 59.0073 89.3213 58.3053 89.4036C57.1323 89.6031 56.0597 90.1895 55.2583 91.0695C54.4569 91.9494 53.9727 93.0724 53.8828 94.2595C53.8828 95.2283 53.8828 96.245 53.8828 97.2377V114.819C53.8828 122.426 53.8828 129.758 53.8828 136.743C53.8828 140.223 53.8828 143.632 53.8828 146.945V154.217C53.8456 154.992 53.8816 155.769 53.9904 156.537C54.1355 157.266 54.4317 157.957 54.8599 158.565C55.2881 159.173 55.8388 159.684 56.4765 160.065C57.0926 160.443 57.7806 160.687 58.4965 160.783C59.2017 160.867 59.9428 160.783 60.66 160.843H68.9432L93.9482 160.903H100.749H102.518H103.116H102.518H100.749H93.9482H68.9432H60.6121C59.8785 160.924 59.1443 160.904 58.4129 160.843C57.6544 160.746 56.9252 160.489 56.2733 160.089C55.5998 159.687 55.0179 159.149 54.565 158.508C54.1121 157.867 53.7983 157.139 53.6437 156.37C53.532 155.578 53.492 154.777 53.5242 153.978V146.706C53.5242 143.393 53.5242 139.984 53.5242 136.503C53.5242 129.519 53.5242 122.151 53.5242 114.58V97.2855C53.5242 96.2808 53.5242 95.3001 53.5242 94.2835C53.5881 93.2392 53.9489 92.235 54.5641 91.3891C55.4387 90.1636 56.762 89.3338 58.2455 89.0807C58.9676 88.9996 59.6947 88.9716 60.4209 88.997H87.0874L108.602 111.231V111.291C108.602 127.198 108.602 140.367 108.602 149.564C108.602 151.861 108.602 153.906 108.602 155.7C108.554 156.462 108.348 157.206 107.996 157.884C107.644 158.561 107.154 159.158 106.558 159.635C105.824 160.23 104.946 160.622 104.012 160.771C103.776 160.818 103.536 160.842 103.295 160.843L103.068 160.974Z" fill="#1A2E35"/>
<path id="Vector_71" d="M108.566 111.411H108.136H106.941L102.482 111.47H95.8845H91.9641C91.2393 111.451 90.5264 111.281 89.8702 110.972C89.214 110.664 88.6288 110.222 88.1512 109.676C87.6618 109.126 87.2951 108.478 87.0754 107.775C86.8679 107.098 86.7869 106.388 86.8364 105.682V101.89C86.8364 99.4145 86.8364 97.1779 86.8364 95.2762C86.8364 93.3745 86.8364 91.9273 86.8364 90.815V89.6189C86.8211 89.4798 86.8211 89.3394 86.8364 89.2003C86.8517 89.3394 86.8517 89.4798 86.8364 89.6189C86.8364 89.9419 86.8364 90.3365 86.8364 90.815C86.8364 91.9273 86.8364 93.4343 86.8364 95.2762C86.8364 97.1181 86.8364 99.4145 86.8364 101.89C86.8364 103.086 86.8364 104.438 86.8364 105.789C86.7974 106.459 86.8743 107.131 87.0635 107.775C87.3929 108.82 88.0598 109.727 88.9597 110.353C89.8596 110.978 90.9415 111.287 92.0358 111.231H95.9324H102.53H106.989H108.184C108.317 111.278 108.445 111.338 108.566 111.411Z" fill="#1A2E35"/>
<path id="Vector_72" d="M86.179 104.45C86.179 104.557 81.0035 104.641 74.6088 104.641C68.2141 104.641 63.0266 104.557 63.0266 104.45C63.0266 104.342 68.2141 104.27 74.6088 104.27C81.0035 104.27 86.179 104.354 86.179 104.45Z" fill="#1A2E35"/>
<path id="Vector_73" d="M97.1755 112.989C97.1755 113.097 89.5257 113.169 80.0951 113.169C70.6644 113.169 63.0266 113.097 63.0266 112.989C63.0266 112.882 70.6644 112.798 80.0951 112.798C89.5257 112.798 97.1755 112.882 97.1755 112.989Z" fill="#1A2E35"/>
<path id="Vector_74" d="M97.1755 121.529C97.1755 121.625 89.5257 121.709 80.0951 121.709C70.6644 121.709 63.0266 121.625 63.0266 121.529C63.0266 121.433 70.6644 121.338 80.0951 121.338C89.5257 121.338 97.1755 121.421 97.1755 121.529Z" fill="#1A2E35"/>
<path id="Vector_75" d="M97.1755 130.057C97.1755 130.164 89.5257 130.248 80.0951 130.248C70.6644 130.248 63.0266 130.164 63.0266 130.057C63.0266 129.949 70.6644 129.877 80.0951 129.877C89.5257 129.877 97.1755 129.961 97.1755 130.057Z" fill="#1A2E35"/>
<path id="Vector_76" d="M97.1755 138.597C97.1755 138.692 89.5257 138.776 80.0951 138.776C70.6644 138.776 63.0266 138.692 63.0266 138.597C63.0266 138.501 70.6644 138.405 80.0951 138.405C89.5257 138.405 97.1755 138.489 97.1755 138.597Z" fill="#1A2E35"/>
<path id="Vector_77" d="M97.1755 147.112C97.1755 147.22 89.5257 147.304 80.0951 147.304C70.6644 147.304 63.0266 147.22 63.0266 147.112C63.0266 147.005 70.6644 146.933 80.0951 146.933C89.5257 146.933 97.1755 147.029 97.1755 147.112Z" fill="#1A2E35"/>
<path id="Vector_78" d="M75.1107 261.142H31.6866C30.2546 261.13 28.8853 260.552 27.8761 259.536C26.8668 258.519 26.299 257.145 26.2959 255.712V195.564C26.3084 194.137 26.8803 192.772 27.8886 191.763C28.8968 190.754 30.2607 190.182 31.6866 190.17H59.1778L80.5014 212.165V255.712C80.4983 257.145 79.9305 258.519 78.9212 259.536C77.9119 260.552 76.5427 261.13 75.1107 261.142Z" fill="#ECECEC"/>
<path id="Vector_79" d="M59.2256 190.17V207.105C59.2256 207.769 59.3564 208.427 59.6107 209.04C59.8649 209.653 60.2375 210.21 60.7072 210.679C61.1768 211.147 61.7343 211.519 62.3476 211.772C62.961 212.025 63.6182 212.154 64.2816 212.153H80.5492L59.2256 190.17Z" fill="#F5F5F5"/>
<path id="Vector_80" d="M59.4526 208.541C59.4632 209.822 59.911 211.061 60.7219 212.053C61.5327 213.045 62.6579 213.73 63.911 213.995L64.4369 214.114C66.5645 214.497 80.5491 216.985 80.5491 216.662V212.117H64.2815C64.2815 212.117 60.2176 211.973 59.4526 208.541Z" fill="#E1E1E1"/>
<path id="Vector_81" d="M75.1108 261.142C75.4272 261.123 75.7424 261.087 76.0551 261.035C76.9646 260.854 77.8125 260.442 78.5173 259.839C79.0881 259.368 79.555 258.783 79.8883 258.122C80.2216 257.461 80.4141 256.739 80.4537 255.999C80.4537 254.253 80.4537 252.208 80.4537 249.947C80.4537 240.834 80.4537 227.809 80.4537 212.069V212.177L59.0942 190.253H59.2257H32.9298C32.2317 190.229 31.5328 190.253 30.838 190.325C30.148 190.451 29.49 190.714 28.903 191.098C28.3159 191.482 27.8115 191.98 27.4196 192.562C26.8513 193.345 26.5194 194.275 26.4633 195.241C26.4633 196.198 26.4633 197.202 26.4633 198.183V254.504C26.4324 255.267 26.4684 256.032 26.5709 256.789C26.7137 257.511 27.0066 258.195 27.4308 258.797C27.855 259.399 28.401 259.904 29.0332 260.281C29.6415 260.654 30.3217 260.895 31.0293 260.987C31.7407 261.049 32.4551 261.069 33.1688 261.047H41.3684L66.0985 261.106H72.8278H74.5729H75.1706H74.5729H72.7681H66.0387H41.3086H33.109C32.3919 261.106 31.6867 261.106 30.9337 261.106C30.187 260.999 29.4684 260.747 28.818 260.365C28.1511 259.964 27.575 259.428 27.1264 258.791C26.6778 258.155 26.3665 257.432 26.2123 256.669C26.0988 255.877 26.0587 255.076 26.0928 254.277V198.135C26.0928 197.154 26.0928 196.174 26.0928 195.169C26.1785 193.91 26.6867 192.717 27.5351 191.784C28.3834 190.85 29.522 190.231 30.7663 190.026C31.4804 189.945 32.1996 189.917 32.9178 189.942H59.2974L80.5971 211.949V212.021C80.5971 227.761 80.5971 240.786 80.5254 249.9C80.5254 252.172 80.5254 254.193 80.5254 255.963C80.4764 256.718 80.2716 257.454 79.9239 258.125C79.5763 258.796 79.0932 259.388 78.5054 259.863C77.7774 260.451 76.9078 260.839 75.9833 260.987C75.7501 261.024 75.5144 261.044 75.2781 261.047L75.1108 261.142Z" fill="#1A2E35"/>
<path id="Vector_82" d="M80.5491 212.117C80.4101 212.132 80.2698 212.132 80.1307 212.117H78.9355L74.5369 212.177H67.9988H64.1261C63.0492 212.135 62.0116 211.76 61.1557 211.105C60.2997 210.45 59.6673 209.546 59.345 208.517C59.1427 207.847 59.0618 207.146 59.106 206.448C59.106 205.108 59.106 203.816 59.106 202.584C59.106 200.133 59.106 197.92 59.106 196.042C59.106 194.164 59.106 192.729 59.1657 191.641V190.445C59.1504 190.306 59.1504 190.165 59.1657 190.026C59.181 190.165 59.181 190.306 59.1657 190.445C59.1657 190.768 59.1657 191.162 59.1657 191.641C59.1657 192.729 59.1657 194.224 59.1657 196.042C59.1657 197.86 59.1657 200.133 59.1657 202.584C59.1657 203.781 59.1657 205.108 59.1657 206.448C59.1267 207.11 59.2035 207.774 59.3928 208.409C59.7021 209.372 60.3009 210.216 61.1073 210.826C61.9137 211.436 62.8886 211.783 63.899 211.818H67.7477H74.2859H78.6845H79.8797L80.5491 212.117Z" fill="#1A2E35"/>
<path id="Vector_83" d="M58.4009 205.228C58.4009 205.335 53.2732 205.419 46.9502 205.419C40.6272 205.419 35.4995 205.335 35.4995 205.228C35.4995 205.12 40.6272 205.048 46.9502 205.048C53.2732 205.048 58.4009 205.132 58.4009 205.228Z" fill="#1A2E35"/>
<path id="Vector_84" d="M69.3257 213.672C69.3257 213.779 61.7596 213.863 52.4365 213.863C43.1134 213.863 35.5474 213.779 35.5474 213.672C35.5474 213.564 43.1015 213.492 52.4365 213.492C61.7716 213.492 69.3257 213.576 69.3257 213.672Z" fill="#1A2E35"/>
<path id="Vector_85" d="M69.3257 222.116C69.3257 222.223 61.7596 222.307 52.4365 222.307C43.1134 222.307 35.5474 222.223 35.5474 222.116C35.5474 222.008 43.1015 221.936 52.4365 221.936C61.7716 221.936 69.3257 222.02 69.3257 222.116Z" fill="#1A2E35"/>
<path id="Vector_86" d="M69.3257 230.56C69.3257 230.667 61.7596 230.751 52.4365 230.751C43.1134 230.751 35.5474 230.667 35.5474 230.56C35.5474 230.452 43.1015 230.38 52.4365 230.38C61.7716 230.38 69.3257 230.464 69.3257 230.56Z" fill="#1A2E35"/>
<path id="Vector_87" d="M69.3257 239.004C69.3257 239.111 61.7596 239.195 52.4365 239.195C43.1134 239.195 35.5474 239.111 35.5474 239.004C35.5474 238.896 43.1015 238.824 52.4365 238.824C61.7716 238.824 69.3257 238.908 69.3257 239.004Z" fill="#1A2E35"/>
<path id="Vector_88" d="M69.3256 247.448C69.3256 247.555 61.7596 247.639 52.4365 247.639C43.1134 247.639 35.4995 247.579 35.4995 247.448C35.4995 247.316 43.0536 247.268 52.3887 247.268C61.7237 247.268 69.3256 247.352 69.3256 247.448Z" fill="#1A2E35"/>
<path id="Vector_89" d="M160.501 89.3319H117.352C116.643 89.3334 115.94 89.1951 115.285 88.9247C114.63 88.6543 114.034 88.2572 113.532 87.7562C113.03 87.2551 112.632 86.66 112.36 86.0048C112.089 85.3495 111.949 84.6471 111.949 83.9378V24.136C111.949 22.7022 112.518 21.3272 113.531 20.3133C114.545 19.2995 115.919 18.7299 117.352 18.7299H144.711L165.891 40.6652V83.9378C165.891 85.3684 165.324 86.7404 164.313 87.752C163.302 88.7636 161.93 89.3319 160.501 89.3319Z" fill="#ECECEC"/>
<path id="Vector_90" d="M144.711 18.7658V35.594C144.711 36.9263 145.24 38.204 146.182 39.1461C147.123 40.0881 148.4 40.6174 149.731 40.6174H165.891L144.711 18.7658Z" fill="#F5F5F5"/>
<path id="Vector_91" d="M144.938 37.0771C144.946 38.3498 145.39 39.5813 146.194 40.5669C146.999 41.5526 148.116 42.233 149.361 42.4952L149.899 42.6148C152.002 42.9975 165.891 45.4614 165.891 45.1504V40.6653H149.731C149.731 40.6653 145.703 40.4739 144.938 37.0771Z" fill="#E1E1E1"/>
<path id="Vector_92" d="M160.501 89.3319C160.813 89.3125 161.124 89.2766 161.433 89.2242C162.611 89.0071 163.681 88.4013 164.474 87.5038C165.267 86.6062 165.737 85.4686 165.808 84.2727C165.808 82.5264 165.808 80.5051 165.808 78.2925C165.808 69.2505 165.808 56.3094 165.736 40.6652V40.7729L144.628 18.8974H144.759H118.571C117.877 18.8729 117.182 18.8968 116.491 18.9691C115.337 19.1646 114.281 19.7425 113.494 20.6101C112.708 21.4777 112.235 22.5846 112.152 23.7533C112.152 24.7101 112.152 25.7148 112.152 26.6836V32.5083C112.152 36.3675 112.152 40.1669 112.152 43.9065C112.152 51.3817 112.152 58.5818 112.152 65.4351V75.4698C112.152 77.0964 112.152 78.6991 112.152 80.254V82.646C112.117 83.4049 112.149 84.1653 112.248 84.9185C112.386 85.6319 112.669 86.3092 113.081 86.908C113.492 87.5068 114.022 88.0144 114.638 88.399C115.245 88.7672 115.92 89.0073 116.622 89.1046C117.331 89.1406 118.041 89.1406 118.75 89.1046H126.89H151.477H158.158H159.891H160.489H159.891H158.158H151.477H126.89H118.762C118.057 89.1046 117.34 89.1046 116.599 89.1046C115.854 89.0062 115.137 88.7537 114.495 88.3631C113.832 87.9643 113.259 87.432 112.812 86.7999C112.366 86.1678 112.056 85.4497 111.901 84.6913C111.79 83.8991 111.754 83.0982 111.794 82.2992V79.9071C111.794 78.3284 111.794 76.7257 111.794 75.123V65.4949C111.794 58.6297 111.794 51.4295 111.794 43.9663V26.7314C111.794 25.7507 111.794 24.7819 111.794 23.7772C111.861 22.7503 112.217 21.7634 112.822 20.9306C113.241 20.3366 113.774 19.8312 114.39 19.4433C115.005 19.0554 115.691 18.7927 116.407 18.6701C117.117 18.583 117.833 18.555 118.547 18.5864H144.759L144.819 18.6462L165.987 40.5097V40.6652C165.987 56.3094 165.987 69.2505 165.987 78.2925C165.987 80.5649 165.987 82.5743 165.987 84.2727C165.937 85.0234 165.732 85.7555 165.384 86.4226C165.036 87.0897 164.554 87.6772 163.967 88.1478C163.244 88.7282 162.384 89.1114 161.469 89.2601C161.238 89.2781 161.006 89.2781 160.776 89.2601C160.687 89.2949 160.595 89.319 160.501 89.3319Z" fill="#1A2E35"/>
<path id="Vector_93" d="M165.891 40.6652H165.485H164.29H159.915H153.425H149.576C148.872 40.6598 148.177 40.5119 147.532 40.2302C146.887 39.9486 146.305 39.5392 145.823 39.0266C145.348 38.4791 144.99 37.8401 144.771 37.1489C144.575 36.4816 144.494 35.786 144.532 35.0917C144.532 33.7641 144.532 32.4724 144.532 31.2524C144.532 28.8603 144.532 26.6238 144.532 24.7579C144.532 22.8921 144.532 21.4569 144.592 20.3805C144.592 19.8901 144.592 19.4954 144.592 19.1844C144.576 19.0453 144.576 18.9049 144.592 18.7658C144.607 18.9049 144.607 19.0453 144.592 19.1844C144.592 19.4954 144.592 19.8901 144.592 20.3805C144.592 21.4569 144.592 22.94 144.651 24.7579C144.711 26.5759 144.651 28.8245 144.651 31.2524C144.651 32.4484 144.651 33.7641 144.651 35.0917C144.612 35.7498 144.689 36.4097 144.878 37.0412C145.083 37.6827 145.422 38.2737 145.871 38.7755C146.307 39.2734 146.841 39.6768 147.439 39.9606C148.037 40.2445 148.687 40.4028 149.349 40.426H153.186H159.676H164.051H165.246L165.891 40.6652Z" fill="#1A2E35"/>
<path id="Vector_94" d="M143.899 33.7761C143.899 33.8837 138.807 33.9674 132.52 33.9674C126.232 33.9674 121.129 33.8837 121.129 33.7761C121.129 33.6684 126.232 33.5967 132.52 33.5967C138.807 33.5967 143.899 33.6804 143.899 33.7761Z" fill="#1A2E35"/>
<path id="Vector_95" d="M154.704 42.1722C154.704 42.2679 147.185 42.3516 137.97 42.3516C128.754 42.3516 121.236 42.2679 121.236 42.1722C121.236 42.0765 128.754 41.9808 137.97 41.9808C147.185 41.9808 154.704 42.0646 154.704 42.1722Z" fill="#1A2E35"/>
<path id="Vector_96" d="M154.704 50.5564C154.704 50.664 147.185 50.7477 137.97 50.7477C128.754 50.7477 121.236 50.664 121.236 50.5564C121.236 50.4487 128.754 50.377 137.97 50.377C147.185 50.377 154.704 50.4607 154.704 50.5564Z" fill="#1A2E35"/>
<path id="Vector_97" d="M154.704 58.9526C154.704 59.0483 147.185 59.132 137.97 59.132C128.754 59.132 121.236 59.0483 121.236 58.9526C121.236 58.8569 128.754 58.7612 137.97 58.7612C147.185 58.7612 154.704 58.845 154.704 58.9526Z" fill="#1A2E35"/>
<path id="Vector_98" d="M154.704 67.3368C154.704 67.4444 147.185 67.5281 137.97 67.5281C128.754 67.5281 121.236 67.4444 121.236 67.3368C121.236 67.2291 128.754 67.1573 137.97 67.1573C147.185 67.1573 154.704 67.2411 154.704 67.3368Z" fill="#1A2E35"/>
<path id="Vector_99" d="M154.704 75.733C154.704 75.8287 147.185 75.9124 137.97 75.9124C128.754 75.9124 121.236 75.8287 121.236 75.733C121.236 75.6373 128.754 75.5416 137.97 75.5416C147.185 75.5416 154.704 75.6253 154.704 75.733Z" fill="#1A2E35"/>
<path id="Vector_100" d="M164.266 61.213H107.323C104.538 61.213 102.279 63.4728 102.279 66.2603V72.6471C102.279 75.4346 104.538 77.6944 107.323 77.6944H164.266C167.052 77.6944 169.31 75.4346 169.31 72.6471V66.2603C169.31 63.4728 167.052 61.213 164.266 61.213Z" fill="#1A6EA6"/>
<path id="Vector_101" d="M427.381 269.586H383.55C382.096 269.583 380.702 269.004 379.674 267.975C378.646 266.946 378.067 265.552 378.064 264.097V203.386C378.064 201.93 378.642 200.533 379.671 199.504C380.7 198.474 382.095 197.896 383.55 197.896H411.352L432.867 220.082V264.097C432.867 265.553 432.289 266.949 431.26 267.978C430.231 269.008 428.836 269.586 427.381 269.586Z" fill="#ECECEC"/>
<path id="Vector_102" d="M411.352 197.896V214.975C411.352 216.33 411.89 217.629 412.847 218.587C413.804 219.544 415.102 220.082 416.456 220.082H432.867L411.352 197.896Z" fill="#F5F5F5"/>
<path id="Vector_103" d="M411.579 216.482C411.589 217.775 412.041 219.025 412.858 220.025C413.675 221.026 414.81 221.717 416.073 221.984C416.25 222.035 416.43 222.075 416.611 222.104C418.763 222.487 432.867 224.998 432.867 224.675V220.071H416.456C416.456 220.071 412.368 219.951 411.579 216.482Z" fill="#E1E1E1"/>
<path id="Vector_104" d="M427.38 269.586C427.38 269.586 427.715 269.586 428.337 269.467C429.532 269.247 430.62 268.633 431.426 267.722C432.232 266.812 432.71 265.657 432.783 264.443C432.783 262.673 432.783 260.616 432.783 258.32C432.783 249.134 432.783 235.978 432.711 220.047V220.154L411.197 197.98L411.328 198.04H384.793C384.087 198.013 383.379 198.041 382.677 198.123C381.292 198.353 380.054 199.123 379.235 200.264C378.668 201.058 378.332 201.994 378.267 202.967C378.267 203.936 378.267 204.953 378.267 205.945V211.866C378.267 215.789 378.267 219.648 378.267 223.443C378.267 231.038 378.267 238.358 378.267 245.331V255.521C378.267 257.171 378.267 258.81 378.267 260.413V262.805C378.23 263.576 378.266 264.349 378.374 265.113C378.52 265.841 378.814 266.53 379.24 267.138C379.666 267.745 380.214 268.257 380.849 268.641C381.469 269.019 382.161 269.263 382.881 269.359C383.596 269.415 384.314 269.435 385.032 269.419H393.244L418.213 269.479H425.002H426.771H427.369H426.771H425.002H418.213H393.244H384.972C384.239 269.5 383.504 269.48 382.773 269.419C382.02 269.316 381.296 269.06 380.645 268.665C379.97 268.264 379.386 267.726 378.931 267.085C378.476 266.445 378.161 265.716 378.004 264.946C377.895 264.153 377.859 263.353 377.896 262.554V255.282C377.896 251.981 377.896 248.584 377.896 245.092C377.896 238.119 377.896 230.739 377.896 223.204V205.981C377.896 204.977 377.896 203.996 377.896 202.979C377.975 201.938 378.335 200.938 378.936 200.085C379.814 198.865 381.136 198.04 382.618 197.788C383.34 197.707 384.067 197.679 384.793 197.705H411.424H411.483C419.217 205.706 426.472 213.253 432.998 219.915C432.998 235.81 432.998 248.967 432.998 258.188C432.998 260.485 432.998 262.53 432.998 264.312C432.948 265.074 432.741 265.817 432.389 266.494C432.037 267.171 431.549 267.768 430.954 268.247C430.226 268.864 429.348 269.277 428.408 269.443C428.176 269.489 427.94 269.513 427.703 269.515L427.38 269.586Z" fill="#1A2E35"/>
<path id="Vector_105" d="M432.867 220.07C432.728 220.086 432.588 220.086 432.448 220.07H431.253L426.807 220.13H420.209H416.312C415.588 220.108 414.876 219.937 414.22 219.628C413.565 219.32 412.979 218.88 412.499 218.336C412.01 217.786 411.643 217.138 411.424 216.435C411.221 215.757 411.14 215.048 411.185 214.341C411.185 212.99 411.185 211.686 411.185 210.442C411.185 207.967 411.185 205.742 411.185 203.84C411.185 201.939 411.185 200.491 411.185 199.391C411.185 198.901 411.185 198.494 411.185 198.195C411.131 198.186 411.084 198.157 411.051 198.115C411.017 198.072 411.002 198.019 411.006 197.965C411.011 197.911 411.035 197.861 411.075 197.824C411.115 197.788 411.167 197.767 411.221 197.767C411.274 197.767 411.326 197.788 411.366 197.824C411.406 197.861 411.43 197.911 411.435 197.965C411.439 198.019 411.424 198.072 411.391 198.115C411.357 198.157 411.31 198.186 411.256 198.195V199.391C411.256 200.491 411.256 201.998 411.316 203.84C411.376 205.682 411.316 207.967 411.316 210.442C411.316 211.638 411.316 212.99 411.316 214.341C411.277 215.011 411.354 215.683 411.543 216.327C411.754 216.979 412.095 217.582 412.547 218.097C412.996 218.609 413.547 219.021 414.165 219.307C414.782 219.593 415.453 219.747 416.133 219.76H420.03H426.628H431.074H432.269L432.867 220.07Z" fill="#1A2E35"/>
<path id="Vector_106" d="M410.527 213.133C410.527 213.241 405.34 213.325 398.957 213.325C392.574 213.325 387.399 213.241 387.399 213.133C387.399 213.026 392.574 212.954 398.957 212.954C405.34 212.954 410.527 213.038 410.527 213.133Z" fill="#1A2E35"/>
<path id="Vector_107" d="M421.5 221.661C421.5 221.769 413.862 221.853 404.443 221.853C395.025 221.853 387.399 221.769 387.399 221.661C387.399 221.554 395.025 221.482 404.443 221.482C413.862 221.482 421.5 221.566 421.5 221.661Z" fill="#1A2E35"/>
<path id="Vector_108" d="M421.5 230.189C421.5 230.285 413.862 230.368 404.443 230.368C395.025 230.368 387.399 230.285 387.399 230.189C387.399 230.093 395.025 229.998 404.443 229.998C413.862 229.998 421.5 230.081 421.5 230.189Z" fill="#1A2E35"/>
<path id="Vector_109" d="M421.5 238.717C421.5 238.812 413.862 238.896 404.443 238.896C395.025 238.896 387.399 238.812 387.399 238.717C387.399 238.621 395.025 238.525 404.443 238.525C413.862 238.525 421.5 238.609 421.5 238.717Z" fill="#1A2E35"/>
<path id="Vector_110" d="M421.5 247.232C421.5 247.34 413.862 247.424 404.443 247.424C395.025 247.424 387.399 247.34 387.399 247.232C387.399 247.125 395.025 247.053 404.443 247.053C413.862 247.053 421.5 247.137 421.5 247.232Z" fill="#1A2E35"/>
<path id="Vector_111" d="M421.5 257.746C421.5 257.853 413.862 257.937 404.443 257.937C395.025 257.937 387.399 257.853 387.399 257.746C387.399 257.638 395.025 257.566 404.443 257.566C413.862 257.566 421.5 257.65 421.5 257.746Z" fill="#1A2E35"/>
<path id="Vector_112" d="M400.427 241.013H373.283C370.497 241.013 368.239 243.273 368.239 246.06V252.71C368.239 255.498 370.497 257.758 373.283 257.758H400.427C403.213 257.758 405.471 255.498 405.471 252.71V246.06C405.471 243.273 403.213 241.013 400.427 241.013Z" fill="#1A6EA6"/>
<path id="Vector_113" d="M372.553 246.467H375.422C375.866 246.42 376.314 246.466 376.738 246.604C377.163 246.741 377.553 246.966 377.885 247.265C378.217 247.563 378.482 247.928 378.663 248.335C378.845 248.743 378.939 249.184 378.939 249.63C378.939 250.077 378.845 250.518 378.663 250.926C378.482 251.333 378.217 251.698 377.885 251.996C377.553 252.295 377.163 252.52 376.738 252.657C376.314 252.795 375.866 252.841 375.422 252.794H372.553V246.467ZM375.35 251.586C375.87 251.586 376.369 251.379 376.737 251.011C377.104 250.644 377.311 250.145 377.311 249.624C377.311 249.104 377.104 248.605 376.737 248.237C376.369 247.87 375.87 247.663 375.35 247.663H374.012V251.586H375.35Z" fill="white"/>
<path id="Vector_114" d="M379.606 249.624C379.567 248.932 379.738 248.243 380.095 247.648C380.451 247.053 380.978 246.579 381.608 246.287C382.237 245.995 382.939 245.898 383.623 246.01C384.308 246.121 384.943 246.435 385.447 246.912C385.951 247.389 386.301 248.005 386.451 248.683C386.601 249.36 386.544 250.067 386.289 250.712C386.033 251.357 385.589 251.911 385.016 252.301C384.443 252.691 383.765 252.901 383.072 252.902C382.626 252.928 382.179 252.862 381.76 252.709C381.34 252.556 380.956 252.319 380.631 252.012C380.307 251.705 380.048 251.335 379.872 250.924C379.695 250.514 379.605 250.071 379.606 249.624ZM385.044 249.624C385.035 249.233 384.91 248.854 384.686 248.534C384.462 248.213 384.148 247.966 383.784 247.824C383.42 247.681 383.022 247.649 382.64 247.732C382.258 247.815 381.909 248.009 381.637 248.29C381.365 248.57 381.181 248.925 381.11 249.31C381.038 249.694 381.082 250.091 381.235 250.451C381.389 250.811 381.645 251.117 381.971 251.332C382.298 251.547 382.681 251.66 383.072 251.658C383.338 251.665 383.603 251.617 383.849 251.516C384.095 251.416 384.318 251.265 384.504 251.074C384.689 250.883 384.833 250.655 384.926 250.406C385.019 250.156 385.059 249.89 385.044 249.624Z" fill="white"/>
<path id="Vector_115" d="M387.267 249.625C387.319 248.955 387.564 248.315 387.971 247.782C388.378 247.248 388.931 246.844 389.563 246.618C390.194 246.391 390.878 246.353 391.531 246.506C392.184 246.66 392.779 246.999 393.244 247.484L392.299 248.345C392.107 248.11 391.864 247.922 391.589 247.794C391.314 247.665 391.013 247.6 390.71 247.603C390.199 247.642 389.722 247.873 389.375 248.249C389.027 248.625 388.833 249.118 388.833 249.63C388.833 250.143 389.027 250.636 389.375 251.012C389.722 251.388 390.199 251.619 390.71 251.658C391.014 251.659 391.315 251.591 391.59 251.461C391.865 251.331 392.107 251.14 392.299 250.904L393.244 251.765C392.779 252.25 392.184 252.589 391.531 252.743C390.878 252.896 390.194 252.858 389.563 252.631C388.931 252.405 388.378 252.001 387.971 251.467C387.564 250.934 387.319 250.294 387.267 249.625Z" fill="white"/>
<path id="Vector_116" d="M398.096 252.794L396.578 250.593L395.072 252.794H393.399L395.73 249.577L393.518 246.467H395.18L396.626 248.512L398.06 246.467H399.638L397.439 249.517L399.829 252.794H398.096Z" fill="white"/>
<path id="Vector_117" d="M111.256 68.9155C111.584 69.07 111.862 69.3147 112.056 69.6212C112.248 69.9341 112.348 70.2948 112.343 70.6618C112.349 70.9385 112.293 71.2131 112.179 71.4655C112.065 71.7178 111.897 71.9417 111.686 72.1209C111.227 72.5208 110.633 72.7304 110.025 72.707H106.726V65.5308H109.965C110.537 65.5116 111.096 65.6983 111.543 66.057C111.743 66.2117 111.905 66.4113 112.015 66.6397C112.125 66.8681 112.18 67.1191 112.176 67.3727C112.176 67.6853 112.089 67.9917 111.925 68.2577C111.76 68.5289 111.53 68.7549 111.256 68.9155ZM110.06 68.1501C110.121 68.0912 110.168 68.0203 110.199 67.942C110.229 67.8637 110.243 67.7797 110.24 67.6956C110.242 67.6116 110.227 67.5281 110.197 67.45C110.166 67.3719 110.119 67.3008 110.06 67.2411C109.924 67.1262 109.749 67.0664 109.57 67.0737H108.566V68.2697H109.57C109.662 68.2933 109.757 68.2969 109.85 68.2804C109.942 68.2639 110.031 68.2276 110.108 68.174L110.06 68.1501ZM109.642 71.0804C109.83 71.0892 110.014 71.0249 110.156 70.901C110.277 70.776 110.345 70.6087 110.345 70.4345C110.345 70.2603 110.277 70.093 110.156 69.9681C110.088 69.9023 110.008 69.8513 109.919 69.8183C109.831 69.7854 109.736 69.7712 109.642 69.7767H108.566V71.0804H109.642Z" fill="#ECECEC"/>
<path id="Vector_118" d="M117.244 72.707L116.049 70.5063H115.332V72.707H113.383V65.5308H116.491C117.2 65.5065 117.89 65.7596 118.415 66.2364C118.66 66.4752 118.852 66.7623 118.98 67.0794C119.107 67.3965 119.167 67.7367 119.156 68.0783C119.157 68.4917 119.047 68.8977 118.837 69.2535C118.626 69.6092 118.324 69.9016 117.961 70.0996L119.384 72.707H117.244ZM115.367 67.2889V68.8438H116.264C116.495 68.8578 116.723 68.7805 116.897 68.6285C116.973 68.5559 117.034 68.4687 117.075 68.3721C117.116 68.2754 117.138 68.1715 117.138 68.0664C117.138 67.9613 117.116 67.8573 117.075 67.7607C117.034 67.6641 116.973 67.5768 116.897 67.5042C116.723 67.3522 116.495 67.2749 116.264 67.2889H115.367Z" fill="#ECECEC"/>
<path id="Vector_119" d="M123.818 72.8863C123.111 72.8997 122.413 72.7352 121.786 72.4079C121.197 72.1009 120.708 71.632 120.376 71.0564C120.046 70.4639 119.873 69.797 119.873 69.1188C119.873 68.4407 120.046 67.7738 120.376 67.1813C120.7 66.588 121.19 66.1018 121.786 65.7819C122.413 65.4546 123.111 65.2901 123.818 65.3035C124.361 65.2982 124.901 65.3956 125.408 65.5905C125.853 65.7635 126.259 66.0237 126.603 66.356C126.955 66.6933 127.231 67.1008 127.416 67.552C127.814 68.5254 127.814 69.6166 127.416 70.59C127.231 71.0412 126.955 71.4487 126.603 71.786C126.259 72.1183 125.853 72.3785 125.408 72.5515C124.904 72.7628 124.364 72.8764 123.818 72.8863ZM122.467 70.4943C122.644 70.6726 122.854 70.8134 123.086 70.9079C123.318 71.0025 123.567 71.049 123.818 71.0445C124.069 71.0518 124.319 71.0067 124.551 70.9119C124.784 70.8172 124.994 70.675 125.169 70.4943C125.347 70.3115 125.487 70.0943 125.58 69.8558C125.672 69.6173 125.715 69.3625 125.706 69.1069C125.715 68.8513 125.671 68.5967 125.579 68.3583C125.486 68.12 125.347 67.9027 125.169 67.7195C124.806 67.3701 124.322 67.175 123.818 67.175C123.314 67.175 122.83 67.3701 122.467 67.7195C122.288 67.8996 122.148 68.1147 122.056 68.3513C121.963 68.5879 121.92 68.841 121.929 69.0949C121.91 69.3643 121.947 69.6348 122.04 69.8885C122.133 70.1421 122.278 70.3731 122.467 70.566V70.4943Z" fill="#ECECEC"/>
<path id="Vector_120" d="M132.209 72.8864C131.528 72.8944 130.857 72.7255 130.26 72.396C129.688 72.0794 129.212 71.612 128.886 71.0445C128.565 70.4535 128.396 69.7915 128.396 69.1188C128.396 68.4462 128.565 67.7842 128.886 67.1932C129.219 66.6225 129.703 66.1548 130.284 65.8417C130.88 65.5122 131.552 65.3432 132.233 65.3513C133.106 65.3335 133.956 65.6355 134.623 66.2005C135.282 66.7647 135.707 67.553 135.818 68.4132H133.87C133.756 68.0626 133.54 67.7542 133.249 67.5281C132.959 67.31 132.607 67.1924 132.245 67.1932C132.018 67.1972 131.795 67.2482 131.589 67.3429C131.384 67.4376 131.2 67.574 131.049 67.7434C130.71 68.1192 130.53 68.6125 130.547 69.1188C130.527 69.6256 130.708 70.1198 131.049 70.4943C131.2 70.6621 131.385 70.7966 131.59 70.8893C131.796 70.9819 132.019 71.0307 132.245 71.0325C132.619 71.0398 132.984 70.9125 133.273 70.6737C133.573 70.4303 133.783 70.0936 133.87 69.7169H135.89C135.784 70.6022 135.359 71.4184 134.695 72.0132C134.007 72.6094 133.118 72.9216 132.209 72.8864Z" fill="#ECECEC"/>
<path id="Vector_121" d="M140.934 65.5308H142.93V72.707H140.934V69.9561H138.783V72.707H136.799V65.5308H138.783V68.174H140.934V65.5308Z" fill="#ECECEC"/>
<path id="Vector_122" d="M149.612 72.0611C148.982 72.594 148.184 72.8863 147.359 72.8863C146.534 72.8863 145.736 72.594 145.106 72.0611C144.816 71.7898 144.588 71.4592 144.437 71.0919C144.287 70.7245 144.217 70.3289 144.233 69.9322V65.5308H146.253V69.8963C146.245 70.205 146.356 70.5051 146.564 70.7335C146.667 70.8416 146.791 70.9264 146.929 70.9821C147.067 71.0378 147.216 71.0632 147.365 71.0564C147.513 71.0616 147.661 71.0356 147.799 70.9799C147.937 70.9243 148.062 70.8404 148.166 70.7335C148.373 70.5051 148.485 70.205 148.476 69.8963V65.5308H150.496V69.9322C150.51 70.3297 150.438 70.7256 150.286 71.0929C150.133 71.4602 149.903 71.7904 149.612 72.0611Z" fill="#ECECEC"/>
<path id="Vector_123" d="M155.66 72.707L154.465 70.5063H153.748V72.707H151.799V65.5308H154.907C155.612 65.5071 156.299 65.7604 156.819 66.2365C157.103 66.4882 157.323 66.8038 157.46 67.1572C157.598 67.5107 157.65 67.8918 157.611 68.2692C157.573 68.6466 157.445 69.0094 157.239 69.3277C157.033 69.6459 156.754 69.9106 156.425 70.0997L157.859 72.707H155.66ZM153.783 67.289V68.8438H154.68C154.915 68.8572 155.146 68.7802 155.325 68.6286C155.47 68.4772 155.551 68.2758 155.551 68.0664C155.551 67.857 155.47 67.6556 155.325 67.5043C155.146 67.3527 154.915 67.2756 154.68 67.289H153.783Z" fill="#ECECEC"/>
<path id="Vector_124" d="M160.692 70.9966H163.405V72.707H158.732V65.5308H163.322V67.2411H160.692V68.2936H163.082V69.9202H160.692V70.9966Z" fill="#ECECEC"/>
<path id="Vector_125" d="M88.3065 133.262H31.3639C28.5781 133.262 26.3198 135.522 26.3198 138.309V144.696C26.3198 147.484 28.5781 149.744 31.3639 149.744H88.3065C91.0922 149.744 93.3505 147.484 93.3505 144.696V138.309C93.3505 135.522 91.0922 133.262 88.3065 133.262Z" fill="#1A6EA6"/>
<path id="Vector_126" d="M35.2962 140.965C35.6246 141.119 35.9024 141.364 36.097 141.67C36.3444 142.062 36.443 142.53 36.375 142.989C36.3071 143.448 36.0769 143.867 35.7265 144.17C35.2674 144.57 34.6732 144.78 34.0651 144.756H30.7661V137.58H34.0053C34.5772 137.561 35.137 137.747 35.583 138.106C35.7802 138.263 35.9388 138.464 36.0465 138.692C36.1543 138.92 36.2084 139.17 36.2046 139.422C36.2045 139.734 36.1176 140.041 35.9536 140.307C35.7947 140.579 35.5683 140.806 35.2962 140.965ZM34.1009 140.199C34.1611 140.14 34.2082 140.07 34.2391 139.991C34.27 139.913 34.284 139.829 34.2802 139.745C34.2825 139.661 34.2678 139.577 34.237 139.499C34.2062 139.421 34.1599 139.35 34.1009 139.29C33.9641 139.175 33.7893 139.116 33.6109 139.123H32.6188V140.379H33.6109C33.7082 140.39 33.8068 140.38 33.8997 140.349C33.9926 140.318 34.0777 140.267 34.1487 140.199H34.1009ZM33.6826 143.142C33.8723 143.147 34.0566 143.078 34.1965 142.95C34.3177 142.825 34.3855 142.658 34.3855 142.484C34.3855 142.31 34.3177 142.142 34.1965 142.017C34.1288 141.951 34.0481 141.9 33.9596 141.868C33.8712 141.835 33.7768 141.82 33.6826 141.826H32.6188V143.142H33.6826Z" fill="#ECECEC"/>
<path id="Vector_127" d="M41.2846 144.72L40.0893 142.52H39.4438V144.72H37.4358V137.544H40.5435C41.2486 137.52 41.935 137.774 42.4559 138.25C42.7062 138.485 42.903 138.771 43.0329 139.089C43.1629 139.406 43.2229 139.748 43.2089 140.092C43.2002 140.503 43.0857 140.905 42.8763 141.259C42.6669 141.613 42.3698 141.907 42.0137 142.113L43.4839 144.72H41.2846ZM39.4438 139.338V140.893H40.3403C40.575 140.906 40.806 140.829 40.9857 140.678C41.1304 140.526 41.2111 140.325 41.2111 140.115C41.2111 139.906 41.1304 139.705 40.9857 139.553C40.806 139.402 40.575 139.325 40.3403 139.338H39.4438Z" fill="#ECECEC"/>
<path id="Vector_128" d="M47.8707 144.936C47.16 144.95 46.4571 144.786 45.8267 144.457C45.2407 144.146 44.7525 143.678 44.4163 143.106C44.0866 142.513 43.9136 141.846 43.9136 141.168C43.9136 140.49 44.0866 139.823 44.4163 139.231C44.7525 138.658 45.2407 138.19 45.8267 137.879C46.4571 137.55 47.16 137.386 47.8707 137.401C48.4099 137.396 48.9451 137.494 49.4484 137.688C49.9138 137.856 50.3406 138.116 50.7034 138.453C51.049 138.796 51.325 139.202 51.5162 139.649C51.7097 140.128 51.8072 140.64 51.8031 141.156C51.806 141.676 51.7086 142.192 51.5162 142.675C51.3232 143.122 51.0474 143.527 50.7034 143.871C50.3382 144.208 49.9123 144.472 49.4484 144.649C48.9436 144.837 48.4094 144.934 47.8707 144.936ZM46.508 142.544C46.8716 142.896 47.3582 143.094 47.8647 143.094C48.3712 143.094 48.8578 142.896 49.2213 142.544C49.3963 142.359 49.5329 142.141 49.6232 141.903C49.7135 141.664 49.7556 141.411 49.7472 141.156C49.7615 140.642 49.5725 140.144 49.2213 139.769C49.0445 139.592 48.8335 139.453 48.6013 139.361C48.3691 139.268 48.1205 139.224 47.8707 139.231C47.6177 139.221 47.3656 139.266 47.1309 139.361C46.8961 139.455 46.6839 139.599 46.508 139.781C46.329 139.961 46.1888 140.176 46.0963 140.412C46.0038 140.649 45.9609 140.902 45.9702 141.156C45.9604 141.414 46.003 141.671 46.0955 141.911C46.1879 142.152 46.3283 142.371 46.508 142.555V142.544Z" fill="#ECECEC"/>
<path id="Vector_129" d="M56.2495 144.936C55.5688 144.942 54.8978 144.773 54.3012 144.445C53.7283 144.129 53.253 143.661 52.9266 143.094C52.5987 142.51 52.4298 141.85 52.4366 141.18C52.4284 140.502 52.5973 139.835 52.9266 139.242C53.253 138.675 53.7283 138.207 54.3012 137.891C54.8978 137.563 55.5688 137.394 56.2495 137.401C57.1231 137.383 57.9732 137.685 58.64 138.25C59.2983 138.814 59.7242 139.602 59.8353 140.462H57.875C57.7611 140.112 57.5445 139.803 57.2535 139.577C56.9651 139.358 56.612 139.24 56.2495 139.242C56.0132 139.24 55.7791 139.287 55.5626 139.382C55.3462 139.477 55.1525 139.617 54.9944 139.793C54.653 140.172 54.4729 140.67 54.4924 141.18C54.4754 141.683 54.6556 142.172 54.9944 142.543C55.1531 142.718 55.3472 142.856 55.5637 142.949C55.7802 143.041 56.014 143.087 56.2495 143.082C56.6274 143.088 56.9954 142.961 57.2894 142.723C57.5845 142.477 57.7903 142.141 57.875 141.766H59.895C59.7896 142.652 59.3645 143.468 58.6998 144.062C58.021 144.65 57.1467 144.962 56.2495 144.936Z" fill="#ECECEC"/>
<path id="Vector_130" d="M64.9747 137.544H66.935V144.72H64.9747V141.969H62.8233V144.72H60.8391V137.544H62.8233V140.139H64.9747V137.544Z" fill="#ECECEC"/>
<path id="Vector_131" d="M73.6644 144.122C73.0265 144.638 72.2313 144.919 71.4113 144.919C70.5913 144.919 69.7961 144.638 69.1582 144.122C68.8672 143.849 68.6378 143.516 68.4853 143.147C68.3328 142.778 68.2606 142.381 68.2737 141.981V137.544H70.2937V141.91C70.2854 142.218 70.3968 142.518 70.6045 142.747C70.8241 142.945 71.1095 143.055 71.4053 143.055C71.7012 143.055 71.9865 142.945 72.2062 142.747C72.4139 142.518 72.5253 142.218 72.5169 141.91V137.544H74.5369V141.945C74.5575 142.35 74.4902 142.754 74.3395 143.13C74.1889 143.506 73.9585 143.844 73.6644 144.122Z" fill="#ECECEC"/>
<path id="Vector_132" d="M79.7006 144.72L78.5053 142.52H77.7881V144.72H75.8518V137.544H78.9595C79.6646 137.52 80.351 137.774 80.8719 138.25C81.1222 138.485 81.319 138.771 81.449 139.089C81.5789 139.406 81.6389 139.748 81.625 140.092C81.6368 140.51 81.5334 140.924 81.3261 141.288C81.1234 141.637 80.8355 141.929 80.4894 142.137L81.9118 144.72H79.7006ZM77.824 139.302V140.857H78.7324C78.9633 140.869 79.1898 140.792 79.3659 140.642C79.5106 140.49 79.5913 140.289 79.5913 140.08C79.5913 139.87 79.5106 139.669 79.3659 139.517C79.1898 139.368 78.9633 139.291 78.7324 139.302H77.824Z" fill="#ECECEC"/>
<path id="Vector_133" d="M84.7447 143.046H87.446V144.72H82.7725V137.544H87.3623V139.254H84.7447V140.307H87.1352V141.934H84.7447V143.046Z" fill="#ECECEC"/>
<path id="Vector_134" d="M81.1349 234.674H24.1922C21.4065 234.674 19.1482 236.934 19.1482 239.721V246.108C19.1482 248.896 21.4065 251.155 24.1922 251.155H81.1349C83.9206 251.155 86.1789 248.896 86.1789 246.108V239.721C86.1789 236.934 83.9206 234.674 81.1349 234.674Z" fill="#1A6EA6"/>
<path id="Vector_135" d="M28.1365 242.388C28.4672 242.539 28.7459 242.785 28.9373 243.094C29.1308 243.406 29.2304 243.767 29.2242 244.135C29.2288 244.411 29.1723 244.686 29.0587 244.938C28.945 245.19 28.7771 245.414 28.5668 245.594C28.1036 245.987 27.5123 246.195 26.9054 246.18H23.6064V239.004H26.8337C27.4041 238.981 27.9637 239.164 28.4114 239.518C28.7261 239.779 28.9375 240.145 29.0076 240.548C29.0776 240.951 29.0019 241.366 28.7939 241.719C28.6322 241.992 28.4066 242.222 28.1365 242.388ZM26.9412 241.623C27.0002 241.563 27.0466 241.492 27.0774 241.414C27.1082 241.336 27.1229 241.252 27.1205 241.169C27.1251 241.084 27.1114 241 27.0805 240.922C27.0495 240.843 27.0021 240.772 26.9412 240.714C26.8765 240.652 26.7995 240.603 26.7151 240.573C26.6308 240.542 26.5409 240.529 26.4512 240.535H25.4591V241.731H26.4512C26.5432 241.745 26.6372 241.741 26.7275 241.718C26.8179 241.696 26.9028 241.655 26.9771 241.599L26.9412 241.623ZM26.5349 244.553C26.7229 244.562 26.9071 244.498 27.0488 244.374C27.113 244.312 27.1633 244.238 27.1963 244.155C27.2293 244.073 27.2442 243.984 27.2401 243.895C27.2441 243.808 27.229 243.722 27.196 243.641C27.1629 243.561 27.1127 243.488 27.0488 243.429C26.9071 243.305 26.7229 243.241 26.5349 243.25H25.4591V244.553H26.5349Z" fill="#ECECEC"/>
<path id="Vector_136" d="M34.1249 246.18L32.9296 243.979H32.2722V246.18H30.2642V239.004H33.3719C33.7215 238.988 34.0708 239.042 34.3992 239.164C34.7276 239.285 35.0285 239.47 35.2843 239.709C35.533 239.943 35.7289 240.227 35.8588 240.543C35.9887 240.858 36.0495 241.198 36.0373 241.539C36.0491 241.958 35.9458 242.372 35.7385 242.735C35.5373 243.089 35.2494 243.385 34.9018 243.596L36.3242 246.204L34.1249 246.18ZM32.2722 240.75V242.317H33.1687C33.3999 242.331 33.6273 242.253 33.8022 242.101C33.8796 242.03 33.941 241.943 33.9822 241.846C34.0234 241.749 34.0436 241.645 34.0412 241.539C34.0452 241.434 34.0258 241.329 33.9845 241.232C33.9431 241.134 33.8809 241.048 33.8022 240.977C33.718 240.897 33.6183 240.836 33.5093 240.797C33.4002 240.758 33.2842 240.742 33.1687 240.75H32.2722Z" fill="#ECECEC"/>
<path id="Vector_137" d="M40.6989 246.383C39.9876 246.391 39.2853 246.223 38.655 245.893C38.0723 245.587 37.5876 245.122 37.2565 244.553C36.9269 243.959 36.7539 243.29 36.7539 242.61C36.7539 241.93 36.9269 241.261 37.2565 240.666C37.5876 240.097 38.0723 239.633 38.655 239.327C39.2096 239.057 39.812 238.9 40.4276 238.866C41.0431 238.831 41.6594 238.918 42.2408 239.123C42.6827 239.308 43.0877 239.572 43.4361 239.901C43.7903 240.236 44.0676 240.644 44.2489 241.097C44.6467 242.066 44.6467 243.153 44.2489 244.123C44.0676 244.576 43.7903 244.984 43.4361 245.319C43.0906 245.651 42.6849 245.915 42.2408 246.096C41.7487 246.285 41.2261 246.383 40.6989 246.383ZM39.3483 243.991C39.5218 244.173 39.7319 244.316 39.9647 244.411C40.1975 244.506 40.4477 244.55 40.6989 244.541C40.9502 244.551 41.2006 244.507 41.4335 244.412C41.6664 244.317 41.8764 244.174 42.0496 243.991C42.3873 243.61 42.5738 243.119 42.5738 242.61C42.5738 242.101 42.3873 241.609 42.0496 241.228C41.8751 241.048 41.6648 240.905 41.4322 240.811C41.1997 240.716 40.9499 240.671 40.6989 240.678C40.4481 240.672 40.1988 240.718 39.9664 240.813C39.734 240.907 39.5236 241.049 39.3483 241.228C39.003 241.605 38.8116 242.098 38.8116 242.61C38.8116 243.121 39.003 243.614 39.3483 243.991Z" fill="#ECECEC"/>
<path id="Vector_138" d="M49.0777 246.383C48.3969 246.39 47.726 246.221 47.1294 245.893C46.5641 245.57 46.0941 245.104 45.7668 244.541C45.2575 243.669 45.1149 242.63 45.3704 241.652C45.6258 240.674 46.2584 239.838 47.1294 239.327C47.7269 239.002 48.3979 238.838 49.0777 238.848C49.9497 238.827 50.7996 239.125 51.4682 239.685C52.1229 240.258 52.5477 241.048 52.6635 241.91H50.7032C50.5953 241.556 50.3828 241.244 50.0936 241.013C49.8025 240.8 49.4503 240.687 49.0896 240.69C48.8521 240.683 48.616 240.728 48.3973 240.821C48.1787 240.914 47.9826 241.053 47.8226 241.228C47.5035 241.617 47.3281 242.104 47.3259 242.608C47.3238 243.111 47.4949 243.599 47.8107 243.991C47.9707 244.167 48.1667 244.306 48.3854 244.399C48.604 244.492 48.8402 244.536 49.0777 244.529C49.4522 244.537 49.8169 244.409 50.1056 244.171C50.4035 243.927 50.61 243.59 50.6913 243.214H52.7113C52.6083 244.091 52.1855 244.9 51.5239 245.484C50.8622 246.069 50.0082 246.389 49.1255 246.383H49.0777Z" fill="#ECECEC"/>
<path id="Vector_139" d="M57.8151 239.004H59.7634V246.18H57.8151V243.417H55.6636V246.18H53.6794V239.004H55.6636V241.599H57.8151V239.004Z" fill="#ECECEC"/>
<path id="Vector_140" d="M66.4928 245.534C65.8628 246.067 65.0646 246.359 64.2397 246.359C63.4148 246.359 62.6166 246.067 61.9866 245.534C61.6966 245.26 61.4685 244.928 61.318 244.558C61.1675 244.189 61.098 243.792 61.1141 243.393V239.004H63.1341V243.357C63.1243 243.513 63.1469 243.668 63.2004 243.814C63.2539 243.961 63.3371 244.094 63.4449 244.206C63.5499 244.311 63.6751 244.392 63.8129 244.445C63.9507 244.499 64.098 244.523 64.2457 244.517C64.3932 244.522 64.5401 244.497 64.6777 244.443C64.8153 244.39 64.9407 244.309 65.0465 244.206C65.2572 243.975 65.3688 243.67 65.3573 243.357V239.004H67.3773V243.393C67.3912 243.792 67.3194 244.19 67.1668 244.559C67.0143 244.929 66.7844 245.261 66.4928 245.534Z" fill="#ECECEC"/>
<path id="Vector_141" d="M72.5409 246.18L71.3456 243.979H70.6285V246.18H68.6921V239.004H71.7998C72.1494 238.989 72.4985 239.043 72.8268 239.164C73.1551 239.286 73.4561 239.471 73.7123 239.709C73.9689 239.95 74.1694 240.243 74.2996 240.57C74.4297 240.897 74.4863 241.248 74.4653 241.599C74.4586 242.012 74.345 242.417 74.1355 242.773C73.9261 243.13 73.6279 243.426 73.27 243.632L74.6924 246.24L72.5409 246.18ZM70.6643 240.75V242.317H71.5608C71.7955 242.33 72.0265 242.253 72.2062 242.101C72.2821 242.029 72.3417 241.942 72.3809 241.845C72.4201 241.748 72.438 241.644 72.4333 241.539C72.4388 241.435 72.4213 241.33 72.382 241.233C72.3428 241.136 72.2828 241.049 72.2062 240.977C72.1195 240.898 72.0176 240.837 71.9067 240.798C71.7958 240.758 71.6781 240.742 71.5608 240.75H70.6643Z" fill="#ECECEC"/>
<path id="Vector_142" d="M77.573 244.458H80.2863V246.18H75.6128V239.004H80.1907V240.714H77.573V241.766H79.9636V243.393H77.573V244.458Z" fill="#ECECEC"/>
<path id="Vector_143" d="M422.384 241.073H365.441C362.656 241.073 360.397 243.333 360.397 246.12V252.507C360.397 255.294 362.656 257.554 365.441 257.554H422.384C425.17 257.554 427.428 255.294 427.428 252.507V246.12C427.428 243.333 425.17 241.073 422.384 241.073Z" fill="#1A6EA6"/>
<path id="Vector_144" d="M369.338 248.775C369.664 248.933 369.941 249.177 370.139 249.481C370.331 249.794 370.43 250.155 370.426 250.522C370.432 250.8 370.376 251.076 370.26 251.328C370.144 251.581 369.972 251.804 369.757 251.981C369.3 252.378 368.711 252.587 368.107 252.567H364.796V245.391H368.143C368.715 245.371 369.275 245.558 369.721 245.917C369.92 246.072 370.08 246.272 370.188 246.501C370.296 246.729 370.349 246.98 370.342 247.232C370.341 247.543 370.259 247.848 370.103 248.117C369.911 248.401 369.647 248.628 369.338 248.775ZM368.143 248.01C368.203 247.951 368.25 247.88 368.281 247.802C368.312 247.723 368.326 247.639 368.322 247.555C368.324 247.471 368.31 247.388 368.279 247.31C368.248 247.232 368.202 247.161 368.143 247.101C368.007 246.984 367.832 246.924 367.653 246.933H366.661V248.129H367.653C367.751 248.156 367.854 248.159 367.954 248.139C368.054 248.118 368.147 248.074 368.227 248.01H368.143ZM367.736 250.94C367.924 250.947 368.107 250.883 368.25 250.761C368.314 250.702 368.365 250.629 368.398 250.549C368.431 250.468 368.446 250.381 368.442 250.294C368.444 250.206 368.429 250.117 368.396 250.035C368.363 249.953 368.313 249.878 368.25 249.816C368.107 249.694 367.924 249.63 367.736 249.636H366.661V250.94H367.736Z" fill="#ECECEC"/>
<path id="Vector_145" d="M375.315 252.567L374.119 250.366H373.402V252.567H371.43V245.39H374.538C375.243 245.367 375.929 245.62 376.45 246.096C376.7 246.331 376.897 246.617 377.027 246.935C377.157 247.253 377.217 247.595 377.203 247.938C377.215 248.357 377.112 248.77 376.904 249.134C376.701 249.483 376.414 249.775 376.068 249.983L377.49 252.591L375.315 252.567ZM373.438 247.149V248.703H374.346C374.577 248.715 374.804 248.638 374.98 248.488C375.056 248.416 375.116 248.328 375.158 248.232C375.199 248.135 375.22 248.031 375.22 247.926C375.22 247.821 375.199 247.717 375.158 247.62C375.116 247.524 375.056 247.436 374.98 247.364C374.804 247.214 374.577 247.137 374.346 247.149H373.438Z" fill="#ECECEC"/>
<path id="Vector_146" d="M381.948 252.746C381.238 252.761 380.535 252.596 379.904 252.268C379.323 251.955 378.839 251.487 378.506 250.916C378.176 250.324 378.003 249.657 378.003 248.979C378.003 248.3 378.176 247.634 378.506 247.041C378.839 246.47 379.323 246.003 379.904 245.689C380.458 245.416 381.061 245.258 381.678 245.225C382.294 245.192 382.911 245.285 383.49 245.498C383.956 245.667 384.382 245.927 384.745 246.264C385.097 246.601 385.374 247.008 385.558 247.46C385.957 248.433 385.957 249.524 385.558 250.498C385.374 250.949 385.097 251.356 384.745 251.694C384.382 252.03 383.956 252.291 383.49 252.459C382.998 252.649 382.476 252.747 381.948 252.746ZM380.598 250.354C380.772 250.535 380.982 250.677 381.215 250.772C381.448 250.866 381.697 250.912 381.948 250.904C382.199 250.91 382.448 250.864 382.681 250.77C382.913 250.675 383.124 250.534 383.299 250.354C383.638 249.971 383.824 249.478 383.824 248.967C383.824 248.455 383.638 247.962 383.299 247.579C383.123 247.401 382.912 247.262 382.68 247.169C382.447 247.076 382.198 247.033 381.948 247.041C381.697 247.031 381.447 247.075 381.214 247.17C380.981 247.265 380.771 247.409 380.598 247.591C380.419 247.771 380.278 247.986 380.186 248.223C380.093 248.46 380.05 248.713 380.06 248.967C380.05 249.224 380.093 249.481 380.185 249.722C380.278 249.962 380.418 250.181 380.598 250.366V250.354Z" fill="#ECECEC"/>
<path id="Vector_147" d="M390.327 252.746C389.646 252.753 388.975 252.584 388.379 252.256C387.81 251.937 387.339 251.47 387.016 250.904C386.687 250.316 386.515 249.653 386.515 248.979C386.515 248.304 386.687 247.642 387.016 247.053C387.339 246.487 387.81 246.02 388.379 245.702C388.975 245.374 389.646 245.205 390.327 245.211C391.194 245.202 392.034 245.507 392.693 246.07C393.353 246.632 393.786 247.415 393.913 248.273H391.905C391.8 247.918 391.581 247.607 391.283 247.388C390.999 247.17 390.65 247.052 390.291 247.053C390.053 247.048 389.816 247.095 389.598 247.19C389.379 247.285 389.184 247.426 389.024 247.603C388.685 247.979 388.505 248.472 388.522 248.979C388.502 249.485 388.682 249.98 389.024 250.354C389.184 250.53 389.38 250.669 389.599 250.762C389.818 250.855 390.054 250.899 390.291 250.892C390.666 250.9 391.03 250.772 391.319 250.534C391.616 250.289 391.822 249.952 391.905 249.577H393.925C393.821 250.464 393.39 251.281 392.715 251.868C392.041 252.454 391.172 252.767 390.279 252.746H390.327Z" fill="#ECECEC"/>
<path id="Vector_148" d="M399.065 245.391H401.061V252.567H399.065V249.816H396.913V252.567H394.917V245.391H396.913V247.986H399.065V245.391Z" fill="#ECECEC"/>
<path id="Vector_149" d="M407.742 251.921C407.112 252.454 406.314 252.746 405.489 252.746C404.664 252.746 403.866 252.454 403.236 251.921C402.946 251.65 402.718 251.319 402.568 250.952C402.417 250.584 402.348 250.189 402.364 249.792V245.391H404.384V249.756C404.372 250.063 404.479 250.363 404.682 250.593C404.903 250.795 405.191 250.907 405.489 250.907C405.788 250.907 406.076 250.795 406.296 250.593C406.499 250.363 406.606 250.063 406.595 249.756V245.391H408.615V249.792C408.631 250.189 408.561 250.584 408.411 250.952C408.26 251.319 408.032 251.65 407.742 251.921Z" fill="#ECECEC"/>
<path id="Vector_150" d="M413.79 252.567L412.595 250.366H411.878V252.567H409.977V245.391H413.073C413.782 245.366 414.472 245.619 414.997 246.096C415.242 246.335 415.434 246.622 415.562 246.939C415.689 247.256 415.749 247.596 415.739 247.938C415.74 248.351 415.629 248.757 415.419 249.113C415.208 249.469 414.906 249.761 414.543 249.959L415.966 252.567H413.79ZM411.914 247.149V248.704H412.81C413.041 248.718 413.269 248.64 413.444 248.488C413.52 248.416 413.58 248.328 413.621 248.232C413.663 248.135 413.684 248.031 413.684 247.926C413.684 247.821 413.663 247.717 413.621 247.62C413.58 247.524 413.52 247.437 413.444 247.364C413.269 247.212 413.041 247.135 412.81 247.149H411.914Z" fill="#ECECEC"/>
<path id="Vector_151" d="M418.822 250.856H421.524V252.567H416.862V245.391H421.44V247.101H418.822V248.153H421.213V249.78H418.822V250.856Z" fill="#ECECEC"/>
<path id="Vector_152" d="M475 290.433C475 290.541 368.621 290.613 237.512 290.613C106.403 290.613 0 290.541 0 290.433C0 290.326 106.379 290.254 237.512 290.254C368.645 290.254 475 290.326 475 290.433Z" fill="#1A2E35"/>
</g>
</g>
</svg>
