<svg width="482" height="402" viewBox="0 0 482 402" fill="none" xmlns="http://www.w3.org/2000/svg">
<mask id="mask0_516_2299" style="mask-type:alpha" maskUnits="userSpaceOnUse" x="0" y="0" width="482" height="394">
<rect width="482" height="394" fill="#D9D9D9"/>
</mask>
<g mask="url(#mask0_516_2299)">
<path d="M230 319C163.656 347.433 -23.7301 370.461 31.0002 261C75.0003 173 7.00016 111.426 67.0002 74.0001C140 28.4654 185.953 172.396 254 145C331 114 431.287 105.298 438 159C447 231 460 247 410 319C360 391 293 292 230 319Z" fill="#D4E1E7"/>
<path d="M83.6289 297.032L91.0622 575.026L130.79 573.845L140.255 287.555L83.6289 297.032Z" fill="#263238"/>
<path d="M166.189 287.082C166.189 287.082 195.671 404.928 196.576 425.023C197.481 445.118 190.27 570.788 190.27 570.788H151.378L154.635 427.649L125.152 306.649L132.293 287.694L166.189 287.082Z" fill="#263238"/>
<path d="M142.19 301.549C142.205 301.674 142.205 301.8 142.19 301.924V303.036C142.19 304.05 142.107 305.468 142.037 307.205C141.87 310.929 141.619 316.238 141.327 322.77C140.645 335.958 139.712 354.079 138.682 374.119C137.652 394.158 136.566 412.266 135.898 425.454C135.508 431.985 135.174 437.28 134.952 441.018C134.826 442.811 134.729 444.229 134.659 445.187C134.659 445.632 134.59 445.993 134.562 446.285C134.577 446.41 134.577 446.536 134.562 446.66C134.546 446.536 134.546 446.41 134.562 446.285C134.562 445.993 134.562 445.632 134.562 445.187C134.562 444.159 134.659 442.742 134.729 441.018C134.896 437.294 135.147 431.985 135.439 425.454C136.121 412.266 137.054 394.13 138.07 374.035C139.086 353.94 140.186 335.888 140.923 322.7C141.313 316.169 141.633 310.874 141.87 307.136C141.995 305.343 142.093 303.939 142.162 302.966C142.162 302.522 142.232 302.16 142.26 301.869C142.219 301.767 142.196 301.659 142.19 301.549V301.549Z" fill="#1A6EA6"/>
<path d="M137.819 135.967C137.819 135.967 152.254 207.439 152.463 227.59C152.672 247.74 159.757 287.082 159.757 287.082H97.3122L95.9202 178.172L91.4658 145.681L100.848 132.326L137.819 135.967Z" fill="#F5F5F5"/>
<path d="M138.585 138.066C138.585 138.066 153.493 142.443 157.433 147.946C160.537 152.296 164.741 234.51 164.741 234.51L171.088 306.941L164.838 306.357L156.013 279.244L138.585 138.066Z" fill="#26A8E4"/>
<path d="M157.433 147.946L199.527 186.51L251.323 169.751L261.652 191.472L206.375 216.486C198.483 219.849 193.527 218.001 188.043 213.609L159.047 190.429L157.433 147.946Z" fill="#26A8E4"/>
<path d="M241.69 176.671C241.829 176.939 241.857 177.251 241.769 177.539C241.68 177.827 241.482 178.07 241.217 178.214C241.085 178.284 240.941 178.327 240.793 178.342C240.645 178.356 240.495 178.34 240.353 178.297C240.21 178.253 240.078 178.181 239.963 178.086C239.849 177.99 239.755 177.873 239.686 177.741C239.613 177.611 239.567 177.468 239.551 177.32C239.535 177.172 239.549 177.023 239.591 176.88C239.634 176.737 239.705 176.605 239.8 176.49C239.896 176.376 240.013 176.281 240.145 176.213C240.276 176.14 240.421 176.094 240.57 176.078C240.719 176.061 240.87 176.075 241.014 176.118C241.158 176.16 241.292 176.231 241.408 176.326C241.524 176.421 241.62 176.539 241.69 176.671V176.671Z" fill="#263238"/>
<path d="M240.688 178.381C240.573 178.395 240.456 178.395 240.34 178.381C240.192 178.336 240.054 178.263 239.935 178.165C239.816 178.068 239.717 177.947 239.644 177.811C239.532 177.605 239.484 177.371 239.507 177.138C239.53 176.905 239.622 176.685 239.772 176.505C239.923 176.325 240.123 176.194 240.349 176.13C240.574 176.066 240.813 176.07 241.036 176.143C241.334 176.234 241.584 176.439 241.732 176.713C241.877 176.987 241.907 177.307 241.816 177.602C241.773 177.751 241.7 177.889 241.602 178.008C241.504 178.128 241.382 178.226 241.245 178.297C241.068 178.367 240.878 178.395 240.688 178.381V178.381ZM240.688 176.102C240.507 176.102 240.33 176.15 240.173 176.241C239.925 176.383 239.742 176.617 239.663 176.892C239.585 177.167 239.617 177.462 239.753 177.714C239.889 177.965 240.118 178.154 240.392 178.24C240.665 178.326 240.961 178.301 241.217 178.172C241.47 178.036 241.66 177.807 241.746 177.533C241.83 177.25 241.8 176.946 241.662 176.685C241.566 176.512 241.424 176.368 241.253 176.268C241.082 176.168 240.887 176.115 240.688 176.115V176.102Z" fill="#263238"/>
<path d="M246.033 175.643C246.103 175.774 246.147 175.918 246.161 176.066C246.175 176.214 246.16 176.364 246.116 176.506C246.072 176.648 246 176.78 245.905 176.894C245.809 177.009 245.692 177.103 245.56 177.172C245.43 177.244 245.286 177.29 245.138 177.306C244.99 177.322 244.84 177.309 244.697 177.266C244.554 177.223 244.422 177.152 244.307 177.057C244.192 176.962 244.097 176.845 244.029 176.713C243.956 176.582 243.91 176.438 243.893 176.289C243.877 176.14 243.891 175.989 243.933 175.845C243.976 175.702 244.047 175.568 244.143 175.452C244.238 175.336 244.355 175.24 244.488 175.171C244.756 175.032 245.068 175.004 245.357 175.092C245.646 175.181 245.889 175.378 246.033 175.643V175.643Z" fill="#263238"/>
<path d="M245.031 177.352C244.915 177.367 244.799 177.367 244.683 177.352C244.387 177.257 244.138 177.054 243.987 176.783C243.844 176.507 243.814 176.187 243.906 175.891C243.997 175.594 244.201 175.346 244.474 175.198C244.75 175.055 245.071 175.026 245.367 175.117C245.664 175.208 245.913 175.412 246.061 175.685C246.206 175.958 246.236 176.278 246.145 176.574C246.05 176.87 245.846 177.118 245.574 177.269C245.401 177.336 245.216 177.365 245.031 177.352V177.352ZM245.031 175.073C244.85 175.074 244.672 175.121 244.516 175.212C244.292 175.332 244.116 175.526 244.018 175.761C243.921 175.996 243.909 176.257 243.983 176.5C244.057 176.743 244.213 176.953 244.425 177.094C244.637 177.235 244.891 177.298 245.144 177.273C245.397 177.247 245.634 177.135 245.814 176.955C245.993 176.775 246.105 176.538 246.129 176.286C246.154 176.033 246.09 175.779 245.948 175.568C245.806 175.357 245.595 175.202 245.351 175.129C245.245 175.087 245.131 175.068 245.017 175.073H245.031Z" fill="#263238"/>
<path d="M250.154 174.809C250.226 174.939 250.272 175.082 250.288 175.23C250.304 175.378 250.291 175.528 250.248 175.671C250.205 175.813 250.134 175.946 250.039 176.06C249.944 176.175 249.826 176.269 249.694 176.338C249.563 176.408 249.42 176.452 249.272 176.467C249.125 176.482 248.976 176.468 248.833 176.425C248.691 176.383 248.559 176.312 248.444 176.219C248.329 176.125 248.233 176.01 248.163 175.879C248.093 175.749 248.049 175.606 248.034 175.458C248.019 175.311 248.033 175.162 248.076 175.02C248.118 174.878 248.188 174.746 248.282 174.631C248.376 174.516 248.492 174.421 248.622 174.351C248.752 174.278 248.896 174.232 249.044 174.216C249.192 174.2 249.342 174.214 249.485 174.256C249.628 174.299 249.761 174.37 249.875 174.465C249.99 174.56 250.085 174.677 250.154 174.809V174.809Z" fill="#263238"/>
<path d="M249.166 176.518C249.05 176.533 248.933 176.533 248.818 176.518C248.522 176.424 248.273 176.22 248.122 175.949C247.976 175.674 247.945 175.353 248.037 175.056C248.128 174.759 248.334 174.51 248.609 174.364C248.884 174.219 249.206 174.188 249.503 174.28C249.801 174.371 250.05 174.576 250.196 174.851V174.851C250.339 175.126 250.368 175.446 250.277 175.743C250.186 176.039 249.982 176.288 249.708 176.435C249.536 176.503 249.351 176.531 249.166 176.518V176.518ZM249.166 174.239C248.985 174.24 248.807 174.288 248.651 174.378C248.394 174.517 248.203 174.751 248.12 175.03C248.036 175.309 248.067 175.609 248.205 175.865C248.341 176.118 248.571 176.308 248.845 176.393C249.129 176.478 249.433 176.448 249.695 176.31C249.951 176.172 250.142 175.937 250.226 175.659C250.309 175.38 250.278 175.079 250.14 174.823C250.044 174.645 249.901 174.497 249.727 174.394C249.553 174.291 249.354 174.238 249.152 174.239H249.166Z" fill="#263238"/>
<path d="M251.838 170.835L255.847 169.375L265.048 188.72L261.136 190.388L251.838 170.835Z" fill="#E0E0E0"/>
<path d="M158.783 163.177C158.923 163.892 159.002 164.617 159.02 165.345C159.173 166.86 159.381 168.847 159.632 171.238C160.203 176.338 161.024 183.133 161.831 190.693C162.639 198.253 163.349 205.174 163.655 210.149C163.822 212.65 163.892 214.679 163.905 216.083C163.957 216.806 163.934 217.533 163.836 218.251C163.706 217.535 163.636 216.81 163.627 216.083C163.53 214.693 163.376 212.678 163.14 210.191C162.694 205.216 161.957 198.337 161.108 190.735C160.258 183.133 159.535 176.282 159.117 171.279C158.908 168.792 158.797 166.763 158.741 165.359C158.684 164.632 158.698 163.902 158.783 163.177V163.177Z" fill="#263238"/>
<path d="M167.984 172.836C167.333 176.342 166.45 179.8 165.339 183.189C164.455 186.649 163.344 190.047 162.012 193.362C162.654 189.851 163.533 186.387 164.643 182.994C165.526 179.537 166.642 176.143 167.984 172.836V172.836Z" fill="#263238"/>
<path d="M199.081 199.532C198.629 199.003 198.31 198.374 198.149 197.697C197.112 194.494 197.331 191.018 198.761 187.97C199.332 186.816 199.847 186.219 199.917 186.26C199.072 188.373 198.511 190.588 198.246 192.847C198.232 195.102 198.513 197.349 199.081 199.532V199.532Z" fill="#263238"/>
<path d="M194.265 244.21L199.652 244.627L197.522 267.057L192.316 266.473L194.265 244.21Z" fill="#E0E0E0"/>
<path d="M100.848 133.883L71.7968 152.366C68.4912 154.709 66.0294 158.054 64.7758 161.903C63.5223 165.753 63.5437 169.903 64.8368 173.739L87.1088 243.627L79.0769 307.136L142.747 304.44L141.188 276.646L135.787 226.839C134.787 217.604 132.486 208.556 128.952 199.963L100.848 133.883Z" fill="#26A8E4"/>
<path d="M70.5024 177.505L99.5534 238.207C100.712 240.626 102.399 242.756 104.489 244.439C106.58 246.122 109.022 247.317 111.636 247.935L192.261 267.001L194.321 243.571L132.78 220.586L101.822 161.274C100.706 159.137 99.163 157.252 97.2887 155.733C95.4145 154.215 93.2487 153.095 90.9247 152.444C88.6007 151.793 86.1677 151.624 83.7758 151.948C81.3839 152.271 79.0837 153.08 77.0169 154.325C73.1911 156.646 70.3905 160.33 69.1812 164.633C67.9719 168.936 68.4441 173.536 70.5024 177.505V177.505Z" fill="#26A8E4"/>
<path d="M194.321 243.627L193.987 243.543L193.04 243.21L189.393 241.917L175.891 236.956L130.386 219.974H130.261V219.835L124.902 209.246C119.863 199.421 114.837 190.193 110.133 181.855C107.78 177.686 105.511 173.753 103.367 170.084L100.249 164.776C99.7482 163.914 99.2471 163.094 98.7181 162.33C98.2202 161.562 97.6715 160.829 97.0756 160.134C94.9965 157.67 92.3371 155.76 89.336 154.575C87.069 153.665 84.6374 153.235 82.1951 153.311C80.098 153.34 78.0412 153.889 76.2095 154.909L76.5436 154.659C76.8841 154.435 77.2426 154.24 77.6154 154.075C79.0598 153.449 80.6078 153.096 82.1812 153.033C84.6681 152.897 87.1552 153.295 89.4752 154.2C92.5737 155.383 95.3223 157.328 97.4653 159.856C98.0872 160.553 98.6549 161.296 99.1636 162.08C99.7204 162.872 100.235 163.692 100.723 164.539C101.734 166.235 102.787 168 103.882 169.834C106.054 173.489 108.337 177.422 110.717 181.591C115.45 189.929 120.461 199.143 125.556 208.968C127.407 212.595 129.217 216.166 130.901 219.571L130.706 219.404L176.127 236.609L189.546 241.764L193.151 243.154L194.084 243.529C194.165 243.555 194.245 243.588 194.321 243.627V243.627Z" fill="#263238"/>
<path d="M180.623 258.232C180.623 258.535 180.503 258.824 180.289 259.038C180.075 259.252 179.784 259.372 179.482 259.372C179.179 259.372 178.889 259.252 178.675 259.038C178.461 258.824 178.34 258.535 178.34 258.232C178.34 257.93 178.461 257.64 178.675 257.427C178.889 257.213 179.179 257.093 179.482 257.093C179.784 257.093 180.075 257.213 180.289 257.427C180.503 257.64 180.623 257.93 180.623 258.232V258.232Z" fill="#263238"/>
<path d="M179.44 259.4C179.209 259.4 178.983 259.331 178.791 259.203C178.598 259.075 178.448 258.892 178.36 258.679C178.271 258.466 178.248 258.231 178.293 258.005C178.339 257.778 178.45 257.57 178.613 257.407C178.777 257.244 178.985 257.132 179.212 257.087C179.439 257.042 179.674 257.065 179.888 257.154C180.101 257.242 180.284 257.392 180.412 257.584C180.541 257.776 180.61 258.001 180.61 258.232C180.61 258.542 180.486 258.839 180.267 259.058C180.048 259.277 179.75 259.4 179.44 259.4V259.4ZM179.44 257.134C179.223 257.134 179.01 257.199 178.829 257.319C178.648 257.44 178.508 257.612 178.424 257.812C178.341 258.013 178.319 258.234 178.362 258.446C178.404 258.659 178.509 258.855 178.663 259.009C178.816 259.162 179.012 259.267 179.226 259.309C179.439 259.351 179.66 259.33 179.861 259.247C180.062 259.163 180.234 259.023 180.355 258.842C180.475 258.662 180.54 258.449 180.54 258.232C180.54 257.941 180.424 257.662 180.218 257.456C180.012 257.25 179.732 257.134 179.44 257.134Z" fill="#263238"/>
<path d="M185.008 259.372C185.008 259.674 184.888 259.964 184.674 260.178C184.46 260.391 184.169 260.511 183.867 260.511C183.564 260.511 183.273 260.391 183.059 260.178C182.845 259.964 182.725 259.674 182.725 259.372C182.725 259.07 182.845 258.78 183.059 258.566C183.273 258.352 183.564 258.232 183.867 258.232C184.169 258.232 184.46 258.352 184.674 258.566C184.888 258.78 185.008 259.07 185.008 259.372V259.372Z" fill="#263238"/>
<path d="M183.797 260.539C183.566 260.539 183.34 260.471 183.148 260.342C182.955 260.214 182.805 260.032 182.717 259.819C182.628 259.605 182.605 259.371 182.65 259.144C182.696 258.918 182.807 258.71 182.97 258.546C183.134 258.383 183.342 258.272 183.569 258.227C183.796 258.182 184.031 258.205 184.245 258.293C184.458 258.382 184.641 258.531 184.769 258.723C184.898 258.915 184.966 259.141 184.966 259.372C184.963 259.68 184.839 259.975 184.62 260.193C184.402 260.411 184.106 260.536 183.797 260.539V260.539ZM183.797 258.274C183.58 258.274 183.367 258.338 183.186 258.459C183.005 258.58 182.864 258.751 182.781 258.952C182.698 259.152 182.676 259.373 182.719 259.586C182.761 259.799 182.866 259.995 183.02 260.148C183.173 260.302 183.369 260.406 183.583 260.449C183.796 260.491 184.017 260.469 184.218 260.386C184.419 260.303 184.591 260.162 184.712 259.982C184.832 259.801 184.897 259.589 184.897 259.372C184.897 259.081 184.781 258.801 184.575 258.596C184.369 258.39 184.089 258.274 183.797 258.274V258.274Z" fill="#263238"/>
<path d="M187.834 261.72C188.464 261.72 188.975 261.21 188.975 260.581C188.975 259.952 188.464 259.441 187.834 259.441C187.203 259.441 186.692 259.952 186.692 260.581C186.692 261.21 187.203 261.72 187.834 261.72Z" fill="#263238"/>
<path d="M187.792 261.748C187.482 261.748 187.185 261.625 186.966 261.406C186.746 261.187 186.623 260.891 186.623 260.581C186.623 260.271 186.746 259.974 186.966 259.755C187.185 259.537 187.482 259.414 187.792 259.414C188.102 259.414 188.4 259.537 188.619 259.755C188.838 259.974 188.962 260.271 188.962 260.581C188.962 260.891 188.838 261.187 188.619 261.406C188.4 261.625 188.102 261.748 187.792 261.748ZM187.792 259.483C187.575 259.483 187.362 259.547 187.181 259.668C187.001 259.789 186.86 259.96 186.776 260.161C186.693 260.361 186.671 260.582 186.714 260.795C186.756 261.008 186.861 261.204 187.015 261.357C187.169 261.511 187.364 261.615 187.578 261.658C187.791 261.7 188.012 261.678 188.213 261.595C188.414 261.512 188.586 261.371 188.707 261.191C188.828 261.01 188.892 260.798 188.892 260.581C188.888 260.292 188.771 260.016 188.565 259.814C188.359 259.611 188.082 259.497 187.792 259.497V259.483Z" fill="#263238"/>
<path d="M192.261 267.057C192.131 267.078 192 267.078 191.871 267.057L190.743 266.807L186.4 265.764L170.448 261.845C156.987 258.552 138.432 253.883 117.802 249.116C115.227 248.504 112.68 248.018 110.16 247.337C107.628 246.734 105.27 245.555 103.27 243.891C101.509 242.135 100.093 240.065 99.094 237.79L96.0594 231.439L85.5776 209.468L78.6176 194.626C77.8381 192.903 77.2256 191.555 76.7663 190.582L76.293 189.512C76.2306 189.393 76.1838 189.267 76.1538 189.137C76.2378 189.243 76.3079 189.36 76.3626 189.484C76.5018 189.748 76.6688 190.096 76.8916 190.513L78.8821 194.501C80.5943 198.031 83.0581 203.062 86.0648 209.246C89.0716 215.43 92.649 222.92 96.6301 231.147C97.6184 233.218 98.6485 235.316 99.6786 237.484C100.671 239.678 102.053 241.674 103.757 243.376C105.684 244.952 107.945 246.069 110.369 246.642C112.833 247.295 115.408 247.796 117.983 248.407C138.599 253.174 157.154 257.927 170.587 261.345L186.484 265.514L190.785 266.682L191.899 267.015C192.135 267.001 192.274 267.043 192.261 267.057Z" fill="#263238"/>
<path d="M127.143 263.263C127.143 263.263 126.836 263.583 126.182 264.069C125.528 264.555 124.595 265.222 123.398 266.028C120.288 268.172 116.921 269.918 113.376 271.226C109.787 272.522 105.932 272.909 102.156 272.352C101.019 272.158 99.9076 271.837 98.8433 271.393C98.4423 271.264 98.0692 271.062 97.7437 270.795C99.2142 271.237 100.711 271.585 102.226 271.837C105.915 272.236 109.646 271.794 113.139 270.545C116.627 269.241 119.971 267.583 123.12 265.598C124.401 264.721 125.746 263.941 127.143 263.263V263.263Z" fill="#263238"/>
<path d="M130.72 271.309C130.803 271.478 130.868 271.655 130.915 271.837C131.073 272.348 131.198 272.868 131.291 273.394C131.627 275.344 131.627 277.336 131.291 279.286C130.752 282.195 129.51 284.929 127.672 287.249C125.35 290.059 122.221 292.091 118.707 293.073C115.193 294.054 111.462 293.938 108.017 292.738C105.241 291.709 102.76 290.015 100.792 287.805C99.4748 286.322 98.4203 284.625 97.6743 282.788C97.4841 282.288 97.3214 281.778 97.1871 281.26C97.1036 280.912 97.0618 280.718 97.0896 280.718C98.014 283.2 99.3975 285.486 101.168 287.458C103.121 289.545 105.546 291.136 108.24 292.099C111.555 293.222 115.133 293.32 118.506 292.38C121.879 291.441 124.889 289.507 127.143 286.832C128.948 284.611 130.194 281.99 130.776 279.189C131.25 276.582 131.232 273.909 130.72 271.309V271.309Z" fill="#263238"/>
<path d="M103.98 78.5592L104.161 130.339C104.173 132.423 104.609 134.482 105.441 136.393C106.274 138.303 107.486 140.025 109.005 141.454C110.524 142.884 112.317 143.99 114.277 144.707C116.237 145.424 118.322 145.737 120.406 145.626V145.626C124.347 145.413 128.058 143.701 130.776 140.843C133.494 137.985 135.013 134.197 135.022 130.256C135.022 126.365 135.022 123.113 135.022 122.71C135.022 122.71 148.218 121.431 149.123 108.368C149.568 102.073 149.401 89.0096 149.123 77.1834C148.978 71.0637 146.53 65.2228 142.266 60.8241C138.002 56.4254 132.235 53.7917 126.113 53.4474H124.846C111.232 53.3363 103.576 64.9402 103.98 78.5592Z" fill="#B78876"/>
<path d="M135.049 122.473C129.005 122.241 123.166 120.219 118.276 116.664C118.276 116.664 121.77 126.281 134.882 125.85L135.049 122.473Z" fill="#AA6550"/>
<path d="M145.893 84.8128C145.868 85.3006 145.653 85.7593 145.294 86.0915C144.935 86.4237 144.461 86.6031 143.972 86.5916C143.733 86.5972 143.496 86.5548 143.274 86.4671C143.052 86.3793 142.85 86.2479 142.68 86.0807C142.51 85.9135 142.375 85.7138 142.284 85.4936C142.193 85.2734 142.147 85.0372 142.148 84.7989C142.17 84.311 142.381 83.8509 142.738 83.5161C143.094 83.1814 143.566 82.9984 144.056 83.0062C144.296 83.0006 144.535 83.0433 144.759 83.1317C144.982 83.2202 145.186 83.3526 145.357 83.5211C145.529 83.6896 145.664 83.8908 145.756 84.1127C145.848 84.3345 145.895 84.5726 145.893 84.8128V84.8128Z" fill="#263238"/>
<path d="M146.255 82.6031C146.018 82.8394 144.654 81.7137 142.649 81.6026C140.645 81.4914 139.1 82.4086 138.905 82.1584C138.71 81.9083 139.058 81.6165 139.726 81.1857C140.633 80.6338 141.687 80.372 142.747 80.4352C143.793 80.4899 144.794 80.8797 145.6 81.547C146.199 82.0473 146.38 82.5059 146.255 82.6031Z" fill="#263238"/>
<path d="M126.349 84.6599C126.328 85.1465 126.116 85.6052 125.759 85.9377C125.403 86.2703 124.93 86.4501 124.442 86.4387C124.204 86.4443 123.966 86.402 123.744 86.3142C123.522 86.2264 123.32 86.0951 123.15 85.9278C122.98 85.7606 122.845 85.561 122.754 85.3408C122.663 85.1206 122.617 84.8843 122.619 84.646C122.64 84.1594 122.852 83.7007 123.209 83.3682C123.565 83.0357 124.038 82.8558 124.526 82.8672C124.764 82.8616 125.002 82.904 125.224 82.9917C125.446 83.0795 125.648 83.2109 125.818 83.3781C125.988 83.5453 126.123 83.7449 126.214 83.9651C126.305 84.1853 126.351 84.4216 126.349 84.6599Z" fill="#263238"/>
<path d="M126.252 82.1585C126.001 82.3808 124.651 81.2552 122.633 81.144C120.614 81.0328 119.097 81.9639 118.888 81.6999C118.679 81.4358 119.055 81.1579 119.723 80.7271C120.623 80.1727 121.675 79.915 122.73 79.9906C123.778 80.0441 124.782 80.4285 125.598 81.0884C126.182 81.6165 126.363 82.0473 126.252 82.1585Z" fill="#263238"/>
<path d="M132.613 97.9315C133.692 97.6606 134.8 97.5252 135.912 97.5284C136.427 97.5284 136.928 97.4312 137.026 97.0837C137.097 96.5561 137.01 96.0194 136.775 95.5412C136.358 94.2766 135.926 92.9564 135.481 91.5528C133.685 85.8828 132.418 81.2274 132.697 81.1579C132.975 81.0884 134.562 85.6327 136.358 91.3026C136.775 92.6923 137.193 94.082 137.583 95.3188C137.875 95.9552 137.929 96.6749 137.736 97.3478C137.65 97.5233 137.525 97.6771 137.37 97.7974C137.216 97.9178 137.036 98.0016 136.845 98.0426C136.557 98.1041 136.262 98.1275 135.968 98.1121C134.847 98.1965 133.719 98.1358 132.613 97.9315V97.9315Z" fill="#263238"/>
<path d="M127.059 77.9894C126.823 78.5175 124.832 78.1562 122.466 78.2951C120.099 78.4341 118.137 78.99 117.858 78.4758C117.733 78.2395 118.095 77.7393 118.888 77.2529C119.948 76.6508 121.136 76.3123 122.354 76.2662C123.569 76.1874 124.786 76.3969 125.904 76.8776C126.753 77.2807 127.157 77.7393 127.059 77.9894Z" fill="#263238"/>
<path d="M146.032 77.8226C145.656 78.2534 144.292 77.6975 142.636 77.5864C140.979 77.4752 139.546 77.7114 139.239 77.225C139.114 76.9749 139.365 76.5302 140.005 76.1411C140.848 75.6578 141.821 75.449 142.789 75.5435C143.765 75.6247 144.693 76.0031 145.448 76.6275C146.032 77.1278 146.255 77.6002 146.032 77.8226Z" fill="#263238"/>
<path d="M104.495 88.287C104.272 88.1758 95.6555 85.1185 95.4328 94.0681C95.21 103.018 104.272 101.392 104.272 101.072C104.272 100.753 104.495 88.287 104.495 88.287Z" fill="#B78876"/>
<path d="M101.613 97.6813C101.613 97.6813 101.46 97.7786 101.196 97.8897C100.82 98.0383 100.402 98.0383 100.027 97.8897C99.4585 97.5082 99.002 96.983 98.7036 96.3677C98.4053 95.7525 98.2758 95.0693 98.3283 94.3877C98.3233 93.6196 98.4897 92.86 98.8155 92.1642C98.9076 91.8862 99.0659 91.6347 99.2768 91.4314C99.4878 91.228 99.7451 91.0789 100.027 90.9969C100.207 90.9529 100.398 90.975 100.564 91.0591C100.73 91.1432 100.86 91.2838 100.931 91.4555C101.043 91.7056 100.931 91.8863 101.029 91.9002C101.126 91.9141 101.224 91.7473 101.168 91.386C101.12 91.1623 100.997 90.9615 100.82 90.8162C100.702 90.7208 100.566 90.6496 100.42 90.6067C100.275 90.5638 100.122 90.55 99.9709 90.5661C99.5947 90.6307 99.2422 90.7932 98.9489 91.0372C98.6557 91.2811 98.432 91.598 98.3005 91.9558C97.9009 92.7189 97.6954 93.5684 97.7019 94.4294C97.6476 95.2162 97.8257 96.0016 98.2142 96.6884C98.6027 97.3751 99.1844 97.9329 99.8874 98.2928C100.12 98.3605 100.364 98.3782 100.604 98.3447C100.844 98.3111 101.074 98.2271 101.279 98.0982C101.6 97.8897 101.655 97.6952 101.613 97.6813Z" fill="#AA6550"/>
<path d="M99.5393 87.7034C100.392 87.6964 101.23 87.9202 101.965 88.3509C102.701 88.7815 103.305 89.403 103.715 90.1492C104.216 91.4555 104.272 92.9286 104.773 94.221C104.967 94.8955 105.38 95.4866 105.947 95.9016C106.514 96.3166 107.203 96.532 107.905 96.514C108.367 96.3856 108.788 96.1403 109.127 95.8019C109.466 95.4634 109.711 95.0434 109.84 94.5823C110.081 93.6433 110.142 92.6674 110.021 91.7057C109.743 87.5366 109.088 83.3675 109.172 79.1012C109.109 74.855 110.311 70.6857 112.624 67.122C113.781 65.3518 115.395 63.9266 117.297 62.997C119.198 62.0674 121.316 61.6681 123.426 61.8412C126.21 62.2164 128.66 63.8146 131.388 64.3566C133.021 64.6679 134.704 64.6032 136.308 64.1673C137.912 63.7314 139.395 62.9359 140.645 61.8412L141.091 61.5355C141.546 61.2516 141.893 60.8239 142.078 60.3203C142.262 59.8167 142.272 59.2662 142.107 58.7561C142.015 58.4291 141.853 58.1258 141.633 57.8667C136.441 52.5025 126.642 50.5291 119.361 51.9327C115.631 52.6292 112.096 54.1272 109.003 56.3228C105.909 58.5184 103.331 61.3592 101.446 64.6484C97.9525 71.2355 98.3283 80.7132 99.6646 87.6617" fill="#263238"/>
<path d="M127.936 99.5018C128.27 99.5018 128.27 101.656 130.135 103.198C132.001 104.741 134.311 104.505 134.311 104.81C134.311 105.116 133.796 105.227 132.808 105.255C131.532 105.282 130.288 104.853 129.3 104.046C128.353 103.266 127.745 102.151 127.602 100.933C127.477 100.03 127.727 99.4879 127.936 99.5018Z" fill="#263238"/>
<path d="M252.952 173.044C252.952 173.044 262.765 164.428 264.617 163.803C266.468 163.177 281.251 162.9 282.239 163.636C283.228 164.373 298.192 172.558 295.714 173.822C293.236 175.087 282.866 169.167 282.866 169.167L281.126 169.389C281.126 169.389 290.174 174.212 291.775 176.074C293.375 177.936 291.844 179.826 290.16 179.048C288.476 178.269 280.708 173.781 280.096 173.961C279.483 174.142 288.364 179.312 289.185 180.271C290.285 181.563 289.575 184.064 287.863 183.342C286.861 182.925 278.676 177.505 278.676 177.505C280.994 179.398 283.205 181.416 285.302 183.55C286.026 184.94 284.634 186.205 283.2 185.329C282.225 184.732 278.008 180.59 276.699 179.77C276.699 179.77 275.307 179.659 273.122 181.924C270.936 184.19 262.57 187.316 262.57 187.316L252.952 173.044Z" fill="#B78876"/>
<path d="M295.672 173.85C294.611 174 293.531 173.929 292.498 173.642C291.361 173.419 290.247 173.088 289.171 172.655C288.016 172.099 286.749 171.46 285.413 170.779L282.629 169.389H282.824C280.289 169.531 277.746 169.456 275.224 169.167C277.734 168.786 280.271 168.609 282.81 168.639H282.894H282.991L285.775 170.029L289.408 171.946C290.431 172.397 291.488 172.769 292.568 173.058C294.475 173.6 295.686 173.725 295.672 173.85Z" fill="#AA6550"/>
<path d="M256.599 175.532C257.002 176.103 257.576 176.533 258.238 176.76C258.9 176.987 259.618 177 260.287 176.796C261.679 176.505 262.89 175.768 264.227 175.407C268.25 174.253 272.718 176.393 276.671 175.045C277.228 174.851 277.841 174.448 277.785 173.864C277.729 173.28 277.117 173.072 276.602 172.905L263.406 168.736" fill="#B78876"/>
<path d="M263.406 168.681C263.91 168.71 264.407 168.813 264.881 168.986C265.814 169.236 267.15 169.612 268.807 170.112L274.597 171.863L276.268 172.377C276.797 172.586 277.562 172.613 278.063 173.433C278.16 173.645 278.192 173.881 278.155 174.111C278.118 174.341 278.013 174.555 277.855 174.726C277.594 175.007 277.269 175.221 276.908 175.351C276.257 175.569 275.585 175.718 274.903 175.796C272.415 175.835 269.926 175.7 267.456 175.393C266.413 175.337 265.367 175.435 264.352 175.685C263.419 175.935 262.556 176.352 261.735 176.644C261.083 176.953 260.369 177.113 259.647 177.113C258.925 177.113 258.212 176.953 257.559 176.644C256.668 176.129 256.529 175.49 256.557 175.504C256.585 175.518 256.849 175.99 257.698 176.366C258.325 176.599 258.993 176.697 259.66 176.654C260.327 176.611 260.977 176.428 261.568 176.115C262.431 175.714 263.314 175.357 264.213 175.045C265.29 174.743 266.408 174.612 267.526 174.656C269.962 174.911 272.412 175.023 274.862 174.99C275.473 174.927 276.075 174.797 276.657 174.601C277.2 174.406 277.576 174.017 277.409 173.753C277.242 173.489 276.657 173.253 276.017 173.086C275.377 172.919 274.903 172.711 274.347 172.544L268.612 170.626C266.983 170.07 265.661 169.598 264.756 169.236C264.282 169.114 263.828 168.927 263.406 168.681V168.681Z" fill="#AA6550"/>
<path d="M197.23 244.752L213.502 243.14C213.502 243.14 235.023 257.857 232.99 261.095C230.958 264.333 227.422 261.095 227.422 261.095C227.422 261.095 231.25 265.806 225.056 267.279C225.056 267.279 223.58 270.517 221.228 270.211H219.752C219.752 270.211 218.36 274.381 216.426 273.422C214.491 272.463 208.435 267.251 208.435 267.251L191.731 265.778L197.23 244.752Z" fill="#B78876"/>
<path d="M207.35 261.498C207.35 261.498 203.174 263.096 202.325 264.764C201.476 266.431 200.933 270.323 203.633 271.101C205.217 271.202 206.806 271.151 208.38 270.948L207.35 266.57C208.126 265.671 208.953 264.818 209.828 264.013C210.718 263.277 209.744 260.386 207.35 261.498Z" fill="#FFBE9D"/>
<path d="M212.041 263.666C212.041 263.666 207.865 265.264 207.015 266.932C206.77 267.423 206.638 267.963 206.629 268.512C206.62 269.061 206.735 269.605 206.965 270.103C207.194 270.602 207.533 271.043 207.956 271.394C208.38 271.744 208.876 271.996 209.41 272.129C210.845 272.24 212.288 272.189 213.711 271.976L213.266 271.129C212.43 269.489 212.068 268.169 213.544 267.071C213.627 267.071 214.463 266.237 214.518 266.181C214.728 265.835 214.816 265.429 214.769 265.028C214.722 264.626 214.542 264.251 214.258 263.963C213.974 263.675 213.602 263.489 213.2 263.435C212.799 263.381 212.391 263.463 212.041 263.666V263.666Z" fill="#FFBE9D"/>
<path d="M213.043 271.879C212.706 271.508 212.492 271.041 212.432 270.543C212.372 270.045 212.469 269.54 212.709 269.1C212.978 268.655 213.334 268.269 213.755 267.964C214.175 267.658 214.653 267.44 215.159 267.321C215.474 267.189 215.819 267.147 216.156 267.201C216.494 267.255 216.809 267.403 217.066 267.627C217.192 267.807 217.28 268.01 217.325 268.225C217.371 268.44 217.373 268.662 217.331 268.877C217.064 270.02 216.497 271.07 215.688 271.921C215.298 272.407 214.825 272.935 214.199 272.921C213.572 272.907 213.113 272.324 212.807 271.796" fill="#FFBE9D"/>
<path d="M125.096 140.901L128.757 139.525L131.917 145.181L130.149 151.212L126.419 152.143L122.702 147.46L125.096 140.901Z" fill="#26A8E4"/>
<path d="M126.419 152.143C126.419 152.143 131.166 178.144 135.105 196.433C135.105 196.433 138.348 211.719 139.657 215.166C141.28 218.62 143.283 221.882 145.629 224.894L150.208 226.672L147.424 200.963L130.163 151.212L126.419 152.143Z" fill="#26A8E4"/>
<g opacity="0.4">
<path d="M125.096 140.901L128.757 139.525L131.917 145.181L130.149 151.212L126.419 152.143L122.702 147.46L125.096 140.901Z" fill="black"/>
</g>
<g opacity="0.4">
<path d="M126.419 152.143C126.419 152.143 131.166 178.144 135.105 196.433C135.105 196.433 138.822 211.511 139.657 215.166C140.144 217.32 145.629 224.894 145.629 224.894L150.208 226.672L147.424 200.963L130.163 151.212L126.419 152.143Z" fill="black"/>
</g>
<path d="M103.131 125.1L125.097 140.901L120.35 153.936L100.361 133.396L103.131 125.1Z" fill="#F5F5F5"/>
<path d="M128.757 139.525L134.882 125.85L138.362 137.121L133.532 148.975L128.757 139.525Z" fill="#F5F5F5"/>
<path d="M125.152 140.901C125.109 141.243 125.025 141.579 124.902 141.901L124.011 144.681C123.231 147.015 122.09 150.239 120.712 154.117L120.531 154.645L120.141 154.228L115.032 148.586C111.051 144.18 107.474 140.164 104.926 137.232L101.92 133.73C101.531 133.302 101.186 132.837 100.89 132.34C101.344 132.678 101.76 133.065 102.129 133.494L105.302 136.843C107.961 139.622 111.594 143.652 115.561 148.058L120.656 153.728L120.085 153.839C121.477 150.031 122.73 146.793 123.621 144.5L124.693 141.846C124.799 141.51 124.954 141.192 125.152 140.901V140.901Z" fill="#263238"/>
<path d="M138.362 137.121C138.132 138.224 137.787 139.3 137.332 140.331C136.622 142.263 135.578 144.931 134.381 147.849L133.866 149.114L133.504 149.989L133.198 149.1C131.987 145.992 130.52 142.989 128.813 140.122C129.545 140.778 130.166 141.547 130.65 142.402C131.979 144.415 133.064 146.58 133.88 148.85H133.198C133.365 148.447 133.546 148.03 133.713 147.599C134.91 144.667 136.024 142.04 136.859 140.15C137.247 139.088 137.751 138.073 138.362 137.121V137.121Z" fill="#263238"/>
<path d="M298.818 273.574L306.919 574.526L346.647 573.331L343.585 315.043L394.198 580.516L430.07 571.163L383.758 274.144L298.818 273.574Z" fill="#263238"/>
<path d="M320.589 574.957C320.38 574.957 320.227 512.573 320.227 435.626C320.227 358.679 320.38 296.296 320.589 296.296C320.798 296.296 320.951 358.665 320.951 435.626C320.951 512.587 320.784 574.957 320.589 574.957Z" fill="#1A6EA6"/>
<path d="M405.529 580.418C405.334 580.418 396.063 520.662 384.816 446.841C373.568 373.021 364.604 313.181 364.813 313.153C365.021 313.125 374.278 372.91 385.526 446.744C396.773 520.578 405.737 580.391 405.529 580.418Z" fill="#1A6EA6"/>
<path d="M355.737 85.3826C357.119 82.2892 358.241 79.0865 359.092 75.8076C359.565 73.3062 360.316 69.554 359.314 67.2193C358.312 64.8846 355.876 62.6472 352.814 63.2865C352.496 60.8307 351.556 58.4965 350.082 56.5048C348.608 54.5131 346.65 52.9299 344.392 51.9049C340.034 49.8004 335.305 48.5726 330.472 48.2917C328.705 48.1132 326.92 48.3365 325.252 48.9449C323.835 49.6623 322.72 50.8592 322.106 52.3218C320.647 51.2711 318.962 50.5757 317.185 50.291C315.409 50.0062 313.59 50.1401 311.875 50.682C308.033 51.7243 303.662 53.7949 301.978 57.3803C300.772 60.0588 300.667 63.1025 301.685 65.8574C302.423 68.206 304.901 71.8748 307.253 71.0132" fill="#263238"/>
<path d="M336.374 150.295C334.07 150.248 331.799 149.739 329.696 148.798C327.593 147.857 325.701 146.504 324.132 144.819C322.564 143.133 321.35 141.15 320.565 138.988C319.779 136.825 319.437 134.526 319.559 132.229C319.795 127.435 320.018 123.557 320.018 123.557C320.018 123.557 306.905 121.862 306.418 108.827C305.931 95.7914 307.448 65.8296 307.448 65.8296C314.796 62.4728 322.909 61.1357 330.948 61.9566C338.987 62.7775 346.66 65.7265 353.175 70.499L355.138 71.8887L353.927 133.48C353.832 138.033 351.93 142.362 348.638 145.516C345.346 148.669 340.935 150.388 336.374 150.295V150.295Z" fill="#FFBE9D"/>
<path d="M320.032 123.404C326.063 123.372 331.947 121.543 336.931 118.151C336.931 118.151 332.908 128.268 319.851 127.421L320.032 123.404Z" fill="#EB996E"/>
<path d="M353.872 85.4242C354.094 85.313 362.78 82.5476 362.711 91.4694C362.641 100.391 353.705 98.4178 353.691 98.2233C353.677 98.0287 353.872 85.4242 353.872 85.4242Z" fill="#FFBE9D"/>
<path d="M356.433 94.8602C356.433 94.8602 356.6 94.9714 356.851 95.0965C357.226 95.2465 357.645 95.2465 358.02 95.0965C358.601 94.7376 359.075 94.23 359.393 93.6265C359.712 93.0229 359.862 92.3453 359.829 91.664C359.858 90.8996 359.71 90.1389 359.398 89.4404C359.316 89.1615 359.168 88.9061 358.967 88.6958C358.766 88.4854 358.518 88.3262 358.243 88.2314C358.063 88.1847 357.873 88.2023 357.705 88.281C357.537 88.3597 357.402 88.4946 357.324 88.6622C357.199 88.8985 357.254 89.0791 357.213 89.093C357.171 89.1069 357.018 88.9402 357.087 88.5788C357.142 88.3583 357.27 88.1626 357.449 88.023C357.696 87.838 358.006 87.7581 358.312 87.8006C358.676 87.879 359.015 88.0473 359.297 88.2901C359.579 88.5328 359.796 88.8423 359.927 89.1903C360.303 89.964 360.48 90.8189 360.442 91.6778C360.483 92.4724 360.286 93.2611 359.877 93.944C359.468 94.6268 358.865 95.1731 358.145 95.5134C357.91 95.5788 357.663 95.5916 357.423 95.5508C357.182 95.5099 356.953 95.4165 356.753 95.2772C356.447 95.0826 356.405 94.8741 356.433 94.8602Z" fill="#EB996E"/>
<path d="M310.831 86.2164C310.842 86.7019 311.041 87.1644 311.386 87.5065C311.731 87.8486 312.196 88.0437 312.682 88.0508C312.919 88.0619 313.156 88.0261 313.379 87.9454C313.602 87.8646 313.807 87.7406 313.982 87.5803C314.157 87.4201 314.298 87.2269 314.397 87.0119C314.497 86.7968 314.553 86.5642 314.562 86.3275C314.554 85.8409 314.357 85.3764 314.011 85.0336C313.664 84.6907 313.198 84.4967 312.71 84.4931C312.473 84.482 312.236 84.5178 312.013 84.5985C311.79 84.6793 311.585 84.8033 311.411 84.9636C311.236 85.1238 311.095 85.317 310.995 85.532C310.896 85.7471 310.84 85.9797 310.831 86.2164V86.2164Z" fill="#263238"/>
<path d="M310.372 84.1318C310.608 84.368 312 83.298 314.005 83.2424C316.009 83.1868 317.513 84.1735 317.721 83.9234C317.93 83.6732 317.582 83.3675 316.928 82.9228C316.044 82.3466 315.004 82.0556 313.949 82.0889C312.905 82.1119 311.895 82.4673 311.068 83.1034C310.455 83.5898 310.288 84.0345 310.372 84.1318Z" fill="#263238"/>
<path d="M330.486 86.1886C330.497 86.6741 330.696 87.1366 331.041 87.4787C331.386 87.8208 331.851 88.0159 332.337 88.023C332.575 88.036 332.812 88.0016 333.036 87.9215C333.26 87.8415 333.466 87.7175 333.641 87.5569C333.816 87.3963 333.957 87.2023 334.056 86.9864C334.155 86.7705 334.209 86.537 334.216 86.2997C334.209 85.8155 334.013 85.353 333.67 85.0106C333.327 84.6681 332.864 84.4725 332.379 84.4654C332.141 84.4523 331.902 84.4867 331.678 84.5666C331.453 84.6464 331.247 84.7702 331.07 84.9306C330.894 85.091 330.752 85.2849 330.651 85.5009C330.551 85.7169 330.495 85.9506 330.486 86.1886V86.1886Z" fill="#263238"/>
<path d="M330.096 84.0206C330.347 84.2569 331.725 83.1729 333.729 83.1312C335.734 83.0895 337.237 84.0484 337.446 83.7983C337.655 83.5481 337.307 83.2563 336.652 82.7977C335.767 82.224 334.728 81.9332 333.674 81.9639C332.629 81.9868 331.62 82.3422 330.792 82.9784C330.18 83.4647 329.985 83.9094 330.096 84.0206Z" fill="#263238"/>
<path d="M323.192 99.0432C322.126 98.7433 321.028 98.5753 319.921 98.5429C319.406 98.5429 318.918 98.4178 318.821 98.0704C318.775 97.5421 318.881 97.0117 319.127 96.5417C319.587 95.291 320.06 93.9847 320.519 92.6089C322.482 87.0502 323.888 82.4225 323.665 82.3391C323.442 82.2557 321.661 86.7305 319.698 92.331L318.306 96.2916C317.996 96.9162 317.918 97.6297 318.083 98.3067C318.169 98.4805 318.29 98.6346 318.438 98.759C318.587 98.8835 318.76 98.9755 318.946 99.0293C319.235 99.0915 319.528 99.1241 319.823 99.1266C320.945 99.2522 322.078 99.2242 323.192 99.0432V99.0432Z" fill="#263238"/>
<path d="M329.136 100.28C328.802 100.28 328.857 102.448 327.034 104.032C325.21 105.616 322.858 105.422 322.858 105.755C322.858 106.089 323.387 106.158 324.375 106.158C325.649 106.147 326.878 105.684 327.841 104.852C328.77 104.054 329.353 102.929 329.47 101.711C329.54 100.808 329.289 100.266 329.136 100.28Z" fill="#263238"/>
<path d="M329.386 76.1828C329.595 76.7248 331.6 76.4051 333.952 76.6414C336.305 76.8776 338.24 77.4474 338.532 76.961C338.671 76.7248 338.323 76.2106 337.544 75.7103C336.514 75.0711 335.343 74.6942 334.133 74.6124C332.922 74.4963 331.701 74.6677 330.57 75.1127C329.776 75.4879 329.303 75.9187 329.386 76.1828Z" fill="#263238"/>
<path d="M310.97 78.3229C311.332 78.7676 312.696 78.3229 314.367 78.1978C316.037 78.0728 317.443 78.4202 317.749 77.9338C317.888 77.7114 317.652 77.2528 317.025 76.8359C316.186 76.3472 315.221 76.1156 314.251 76.1699C313.281 76.2243 312.348 76.5622 311.569 77.1417C310.984 77.6281 310.803 78.1006 310.97 78.3229Z" fill="#263238"/>
<path d="M355.835 72.9031C355.751 76.7109 356.711 80.9216 356.127 84.6599C356.043 85.2297 354.623 86.7722 354.498 87.3281C353.816 90.6495 352.48 92.0948 350.434 88.7178C349.64 87.4254 349.042 83.7983 348.735 82.3252L346.063 70.3461C343.039 72.0141 339.648 72.907 336.193 72.9448C334.47 72.9463 332.775 72.5078 331.27 71.6711C329.764 70.8344 328.498 69.6272 327.591 68.1643C326.808 69.5397 325.725 70.7212 324.422 71.621C323.12 72.5209 321.63 73.1158 320.065 73.3615C318.5 73.6072 316.899 73.4974 315.383 73.0403C313.866 72.5832 312.472 71.7906 311.304 70.7213C310.692 71.6346 309.758 72.2846 308.688 72.542C307.618 72.7995 306.489 72.6456 305.528 72.111C304.595 71.5226 303.873 70.6542 303.465 69.6305C303.057 68.6068 302.985 67.4805 303.259 66.4133C304.08 63.217 307.435 61.4104 310.595 60.3959C322.914 56.4353 336.722 59.0062 348.039 65.2042C349.726 66.062 351.275 67.1675 352.633 68.4839C353.941 69.8736 355.751 71.43 355.848 73.32" fill="#263238"/>
<path d="M346.48 71.8886C347.167 71.8871 347.849 71.9998 348.499 72.2222C349.181 72.5168 349.811 72.9205 350.364 73.4173C351.004 73.9732 351.631 74.6958 352.396 75.4046C353.105 76.1228 353.973 76.6653 354.93 76.9888C355.74 77.2175 356.597 77.2175 357.407 76.9888C358.799 76.5997 359.328 75.8354 359.273 75.7937C358.631 76.0648 357.971 76.2878 357.296 76.4607C356.578 76.5828 355.84 76.5206 355.152 76.2801C354.314 75.9447 353.551 75.4437 352.911 74.807C352.187 74.126 351.519 73.4173 350.823 72.8336C350.19 72.3117 349.462 71.9155 348.679 71.6663C347.246 71.2633 346.383 71.8053 346.48 71.8886Z" fill="#1A6EA6"/>
<path d="M347.97 75.7659C348.471 75.8789 348.944 76.0916 349.362 76.3913C349.791 76.7762 350.174 77.2099 350.503 77.6837C350.962 78.312 351.539 78.8453 352.201 79.254C353.414 80.0064 354.852 80.3112 356.266 80.1156C357.338 79.9489 357.895 79.5598 357.853 79.4764C357.811 79.393 357.199 79.5598 356.21 79.5737C354.94 79.5996 353.689 79.2621 352.605 78.6009C351.324 77.8782 350.684 76.5302 349.668 75.9466C348.652 75.3629 347.872 75.6686 347.97 75.7659Z" fill="#1A6EA6"/>
<path d="M313.545 50.4179C313.545 50.4179 313.114 50.3068 312.39 50.5291C311.374 50.8676 310.495 51.5258 309.884 52.4052C308.284 54.6426 307.908 58.6171 309.147 62.4666C310.237 65.7796 312.518 68.5718 315.55 70.3044C316.444 70.8342 317.403 71.2453 318.404 71.5273C318.763 71.6643 319.146 71.7304 319.531 71.7219C318.274 71.1609 317.048 70.5347 315.856 69.8458C313.033 68.0533 310.922 65.3365 309.884 62.1608C308.701 58.5198 308.98 54.7399 310.33 52.6553C310.855 51.8248 311.609 51.1635 312.501 50.7515C313.142 50.5152 313.545 50.4874 313.545 50.4179Z" fill="#1A6EA6"/>
<path d="M302.73 55.8238C302.581 56.6602 302.619 57.5191 302.841 58.3392C303.641 62.3908 306.019 65.9597 309.453 68.2616C310.125 68.7855 310.905 69.1556 311.736 69.3455C309.453 67.7491 307.445 65.7917 305.792 63.5505C303.189 59.6872 302.98 55.7821 302.73 55.8238Z" fill="#1A6EA6"/>
<path d="M230.749 237.443L211.651 238.401C210.479 238.462 209.377 238.974 208.575 239.829C207.773 240.684 207.334 241.816 207.35 242.987C207.447 247.337 208.185 253.313 211.526 252.715L213.697 243.224L229.552 257.121C231.151 258.569 233.131 259.533 235.259 259.9L238.99 259.525L230.749 237.443Z" fill="#FFBE9D"/>
<path d="M322.078 135.314L312.098 138.608L307.142 221.364V294.781L368.432 301.549L369.142 195.682L365.189 142.999L355.82 131.826L322.078 135.314Z" fill="#E0E0E0"/>
<path d="M319.002 139.275V131.256L355.431 126.198L353.969 144.667L345.603 159.147L331.92 159.912L322.037 153.811L319.002 139.275Z" fill="#E0E0E0"/>
<path d="M322.273 138.33C321.961 137.137 321.89 135.895 322.064 134.675C322.003 133.44 322.177 132.204 322.579 131.034C322.89 132.231 322.961 133.478 322.788 134.703C322.853 135.934 322.678 137.165 322.273 138.33V138.33Z" fill="#263238"/>
<path d="M331.377 137.677C331.095 136.304 331.053 134.894 331.252 133.508C331.213 132.129 331.421 130.755 331.864 129.45C332.145 130.822 332.183 132.233 331.975 133.619C332.022 134.996 331.819 136.371 331.377 137.677V137.677Z" fill="#263238"/>
<path d="M340.188 136.759C339.95 135.324 339.95 133.859 340.188 132.424C340.175 130.969 340.406 129.522 340.87 128.143C341.102 129.579 341.102 131.043 340.87 132.479C340.875 133.933 340.645 135.379 340.188 136.759V136.759Z" fill="#263238"/>
<path d="M348.652 135.37C348.251 134.018 348.141 132.597 348.332 131.201C348.277 129.814 348.514 128.432 349.028 127.143C349.217 128.526 349.217 129.929 349.028 131.312C349.081 132.675 348.955 134.039 348.652 135.37V135.37Z" fill="#263238"/>
<path d="M344.601 170.348C344.502 170.831 344.338 171.299 344.114 171.738C343.766 172.6 343.223 173.822 342.513 175.309C341.121 178.311 338.991 182.369 336.402 186.719C333.813 191.069 331.238 194.862 329.275 197.531C328.301 198.92 327.493 199.935 326.908 200.657C326.63 201.054 326.303 201.413 325.934 201.727C326.826 200.179 327.802 198.681 328.857 197.239C330.709 194.459 333.2 190.679 335.817 186.357C338.434 182.036 340.564 178.019 342.095 175.087C342.843 173.463 343.68 171.881 344.601 170.348V170.348Z" fill="#263238"/>
<path d="M355.64 130.534L365.523 135.286L384.621 139.983C388.656 140.684 392.266 142.911 394.698 146.201C397.13 149.491 398.197 153.59 397.678 157.646L387.67 235.469L399.613 310.915L352.285 309.526L349.501 281.454V203.631L355.64 130.534Z" fill="#1A6EA6"/>
<path d="M349.501 221.544C349.525 221.222 349.571 220.902 349.64 220.586C349.779 219.891 349.96 218.987 350.183 217.806L352.285 207.773L359.509 174.726C360.303 171.182 361.068 167.777 361.806 164.414L361.904 164.734L358.619 161.315L358.438 161.121L358.577 160.898L364.075 151.754V152.032L358.006 137.357C357.324 135.648 356.767 134.272 356.364 133.188C356.147 132.712 355.97 132.219 355.835 131.715C356.114 132.153 356.347 132.619 356.531 133.105L358.34 137.149L364.576 151.851L364.646 151.99L364.562 152.129L359.12 161.301V160.898L362.405 164.303L362.544 164.442V164.623C361.806 167.944 361.041 171.391 360.261 174.934L352.828 207.925C351.867 212.095 351.074 215.472 350.503 217.917L349.835 220.613C349.762 220.936 349.65 221.249 349.501 221.544Z" fill="#263238"/>
<path d="M231.557 234.302L273.428 210.997L293.709 156.368C295.114 152.594 297.281 149.149 300.076 146.247C302.87 143.345 306.233 141.047 309.954 139.497L315.341 137.246V281.079L316.413 315.154L293.723 308.372L305.305 239.888L301.296 206.174L297.329 222.489C296.628 225.381 295.352 228.101 293.575 230.489C291.798 232.877 289.557 234.882 286.986 236.386L243.472 258.955L231.557 234.302Z" fill="#1A6EA6"/>
<path d="M232.058 235.358L228.536 236.414L238.447 259.997L243.069 258.218L232.058 235.358Z" fill="#E0E0E0"/>
<path d="M281.056 220.697C280.197 218.829 279.148 217.055 277.924 215.402C276.521 213.9 274.968 212.544 273.289 211.358C275.315 212.057 277.111 213.297 278.48 214.943C279.85 216.59 280.741 218.58 281.056 220.697V220.697Z" fill="#263238"/>
<path d="M236.582 234.608C236.582 234.705 236.373 234.886 236.345 235.289C236.317 235.692 236.582 236.164 237.139 235.997C237.244 235.971 237.34 235.916 237.417 235.84C237.495 235.764 237.55 235.669 237.579 235.564C237.607 235.46 237.607 235.349 237.579 235.245C237.55 235.14 237.494 235.045 237.417 234.969C237.18 234.649 236.874 234.621 236.86 234.524C236.846 234.427 237.25 234.205 237.779 234.608C237.931 234.725 238.053 234.878 238.135 235.051C238.218 235.225 238.258 235.416 238.252 235.608C238.228 235.859 238.129 236.096 237.968 236.29C237.806 236.483 237.59 236.623 237.348 236.692C237.137 236.766 236.909 236.778 236.691 236.728C236.473 236.678 236.274 236.567 236.117 236.408C235.96 236.25 235.851 236.05 235.802 235.832C235.754 235.614 235.769 235.387 235.844 235.177C236.081 234.552 236.512 234.483 236.582 234.608Z" fill="#263238"/>
<path d="M239.95 233.176C239.95 233.273 239.742 233.468 239.728 233.871C239.714 234.274 239.964 234.747 240.521 234.58C240.626 234.553 240.722 234.499 240.8 234.423C240.877 234.347 240.933 234.251 240.961 234.147C240.989 234.042 240.989 233.932 240.961 233.827C240.933 233.723 240.877 233.627 240.799 233.551C240.563 233.232 240.257 233.204 240.229 233.107C240.201 233.009 240.619 232.787 241.161 233.176C241.343 233.311 241.481 233.495 241.561 233.706C241.641 233.917 241.658 234.147 241.611 234.368C241.564 234.588 241.455 234.791 241.296 234.952C241.138 235.113 240.936 235.225 240.716 235.275C240.504 235.352 240.274 235.367 240.053 235.317C239.833 235.267 239.632 235.155 239.474 234.993C239.317 234.831 239.209 234.627 239.165 234.406C239.121 234.185 239.143 233.955 239.227 233.746C239.463 233.093 239.95 233.093 239.95 233.176Z" fill="#263238"/>
<path d="M315.341 223.768C315.25 223.478 315.189 223.18 315.16 222.879C315.063 222.225 314.923 221.378 314.77 220.322C314.45 218.001 314.019 214.763 313.49 210.886C312.459 202.825 311.068 191.833 309.522 179.701C309.314 177.978 309.105 176.268 308.896 174.601V174.517V174.42C309.954 171.752 310.984 169.153 311.958 166.666V166.93C310.9 164.512 309.884 162.219 308.938 159.981V159.884V159.773C310.803 153.074 312.362 147.446 313.476 143.402C314.032 141.484 314.478 139.956 314.798 138.802C314.942 138.253 315.123 137.714 315.341 137.19C315.27 137.754 315.154 138.312 314.993 138.858C314.715 140.011 314.325 141.637 313.838 143.499C312.78 147.571 311.304 153.227 309.564 159.939V159.731L312.64 166.596V166.721V166.86C311.68 169.348 310.664 171.946 309.62 174.628V174.462C309.829 176.129 310.037 177.825 310.26 179.548C311.652 191.708 313.044 202.7 314.005 210.76C314.45 214.693 314.812 217.903 315.063 220.238L315.313 222.809C315.364 223.126 315.373 223.448 315.341 223.768V223.768Z" fill="#263238"/>
<path d="M305.263 240.291C305.195 240.069 305.148 239.841 305.124 239.61C305.054 239.082 304.957 238.429 304.846 237.637C304.623 235.817 304.331 233.371 303.955 230.411C303.217 224.296 302.173 215.847 300.92 206.55C299.667 197.253 298.442 188.817 297.552 182.73C297.12 179.756 296.758 177.324 296.494 175.504C296.401 174.726 296.317 174.073 296.243 173.545C296.206 173.314 296.206 173.08 296.243 172.85C296.326 173.065 296.387 173.289 296.424 173.517C296.535 174.045 296.661 174.684 296.814 175.462C297.134 177.158 297.579 179.631 298.094 182.647C299.124 188.72 300.433 197.128 301.686 206.452C302.939 215.777 303.899 224.227 304.47 230.355C304.776 233.412 304.999 235.914 305.138 237.609C305.138 238.401 305.235 238.999 305.263 239.597C305.299 239.827 305.299 240.061 305.263 240.291V240.291Z" fill="#263238"/>
<path d="M299.486 291.46C299.758 291.886 300.081 292.278 300.447 292.627C300.976 293.053 301.597 293.352 302.261 293.499C302.925 293.646 303.614 293.638 304.275 293.475C305.241 293.173 306.123 292.649 306.848 291.944C307.574 291.239 308.123 290.373 308.451 289.417C309.215 286.998 309.609 284.477 309.62 281.94C309.921 279.427 309.66 276.878 308.854 274.478C307.965 272.618 306.666 270.984 305.054 269.697C303.965 268.766 302.993 267.707 302.159 266.543C301.833 266.134 301.601 265.66 301.477 265.153C301.477 265.153 301.769 265.625 302.381 266.404C303.288 267.479 304.3 268.461 305.402 269.336C307.128 270.631 308.521 272.318 309.467 274.255C310.358 276.737 310.659 279.392 310.344 282.01C310.331 284.622 309.903 287.216 309.077 289.695C308.699 290.729 308.081 291.659 307.272 292.408C306.464 293.157 305.489 293.704 304.428 294.003C303.691 294.17 302.925 294.154 302.197 293.955C301.468 293.756 300.8 293.381 300.252 292.863C299.969 292.582 299.738 292.253 299.57 291.891C299.486 291.557 299.458 291.46 299.486 291.46Z" fill="#263238"/>
<path d="M283.924 237.443C283.924 237.443 285.316 221.503 297.955 220.03C297.955 220.03 298.192 233.009 283.924 237.443Z" fill="#263238"/>
<path d="M351.686 297.13L388.504 321.171L392.68 317.85L394.643 263.972L359.579 237.443L354.762 239.096L351.686 297.13Z" fill="#26A8E4"/>
<path d="M359.175 238.207L360.609 296.518H352.87L355.459 239.36L359.175 238.207Z" fill="#E0E0E0"/>
<path d="M370.757 309.901C371.1 310.724 371.68 311.427 372.423 311.922C373.166 312.416 374.04 312.68 374.933 312.68C375 312.696 375.062 312.726 375.115 312.77C375.168 312.813 375.211 312.868 375.239 312.931C375.583 313.565 376.085 314.099 376.698 314.482C377.31 314.864 378.011 315.081 378.733 315.112C380.132 315.11 381.501 314.715 382.686 313.973C384.607 312.805 388.031 305.134 388.031 305.134L396.147 287.068L382.505 283.386L365.161 288.778C365.161 289.097 361.096 305.454 361.096 305.454C362.082 305.689 363.121 305.558 364.017 305.085C364.914 304.612 365.607 303.829 365.968 302.883C366.849 300.903 367.873 298.99 369.031 297.158L370.325 304.537L365.384 306.218C365.223 306.993 365.349 307.8 365.738 308.49C366.127 309.179 366.753 309.705 367.499 309.971L370.757 309.901Z" fill="#FFBE9D"/>
<path d="M376.881 183.133L399.613 224.908L381.113 279.731L401.673 291.293L427.829 230.313C428.785 228.076 429.259 225.663 429.22 223.23C429.182 220.798 428.632 218.401 427.606 216.194L395.59 147.418L376.881 183.133Z" fill="#1A6EA6"/>
<path d="M381.113 279.731L379.192 283.983L398.597 294.42L400.629 290.709L381.113 279.731Z" fill="#E0E0E0"/>
<path d="M381.113 279.731C381.113 279.731 381.113 279.634 381.113 279.453C381.113 279.272 381.252 278.966 381.35 278.647L382.338 275.548C383.243 272.768 384.524 268.891 386.11 264.027C389.396 254.188 393.975 240.486 399.209 224.796V225.088C396.564 220.599 393.836 215.861 391.094 210.969C386.083 202.019 381.489 193.417 377.55 185.454C375.601 181.466 373.791 177.658 372.26 174.003C370.756 170.602 370.106 166.886 370.367 163.177C370.489 160.128 371.174 157.127 372.385 154.325C373.339 152.221 374.707 150.331 376.408 148.766C377.474 147.776 378.697 146.968 380.027 146.376C380.471 146.155 380.938 145.983 381.419 145.862C379.631 146.595 377.99 147.645 376.575 148.961C374.939 150.542 373.633 152.431 372.733 154.52C371.58 157.286 370.939 160.238 370.84 163.233C370.627 166.858 371.291 170.48 372.775 173.795C374.334 177.422 376.158 181.216 378.12 185.19C382.074 193.111 386.695 201.714 391.706 210.635C394.49 215.527 397.149 220.266 399.78 224.755L399.863 224.894V225.046C394.518 240.694 389.869 254.369 386.514 264.194C384.844 269.03 383.493 272.921 382.547 275.645C382.074 276.951 381.712 277.966 381.447 278.716L381.141 279.508L381.113 279.731Z" fill="#263238"/>
<path d="M414.98 224.518C414.216 224.307 413.467 224.042 412.739 223.726C410.944 223.138 409.06 222.865 407.171 222.92C405.289 222.979 403.433 223.369 401.687 224.074C400.987 224.444 400.256 224.751 399.501 224.991C400.05 224.389 400.725 223.914 401.478 223.601C403.249 222.736 405.186 222.262 407.157 222.212C409.128 222.143 411.09 222.503 412.906 223.268C413.685 223.52 414.395 223.948 414.98 224.518V224.518Z" fill="#263238"/>
<path d="M372.33 173.197L388.658 227.756L390.968 209.816L372.33 173.197Z" fill="#263238"/>
<path d="M399.376 280.342C399.376 280.44 399.167 280.62 399.153 281.023C399.14 281.426 399.39 281.899 399.947 281.732C400.052 281.705 400.148 281.651 400.226 281.575C400.303 281.499 400.359 281.404 400.387 281.299C400.415 281.194 400.415 281.084 400.387 280.979C400.358 280.875 400.303 280.78 400.225 280.704C399.989 280.384 399.682 280.356 399.669 280.259C399.655 280.162 400.044 279.939 400.587 280.342C400.739 280.46 400.861 280.612 400.944 280.786C401.026 280.96 401.066 281.151 401.061 281.343C401.037 281.596 400.937 281.836 400.772 282.03C400.608 282.224 400.388 282.362 400.142 282.427C399.896 282.517 399.627 282.525 399.376 282.45C399.125 282.375 398.905 282.22 398.75 282.01C398.643 281.85 398.574 281.668 398.55 281.477C398.526 281.287 398.547 281.093 398.611 280.912C398.819 280.342 399.376 280.342 399.376 280.342Z" fill="#263238"/>
<path d="M400.949 276.465C400.949 276.562 400.74 276.743 400.726 277.146C400.705 277.251 400.712 277.36 400.745 277.462C400.779 277.563 400.838 277.655 400.917 277.728C400.996 277.8 401.092 277.851 401.196 277.876C401.301 277.901 401.41 277.898 401.513 277.869C401.616 277.839 401.71 277.784 401.786 277.708C401.861 277.632 401.916 277.538 401.944 277.434C401.973 277.331 401.975 277.222 401.949 277.118C401.923 277.014 401.871 276.918 401.798 276.84C401.562 276.507 401.241 276.493 401.227 276.382C401.214 276.27 401.617 276.076 402.16 276.465C402.312 276.586 402.435 276.74 402.517 276.916C402.599 277.093 402.639 277.285 402.633 277.48C402.604 277.73 402.501 277.965 402.338 278.157C402.175 278.349 401.959 278.489 401.716 278.559C401.474 278.629 401.216 278.625 400.976 278.55C400.735 278.474 400.523 278.329 400.364 278.133C400.254 277.974 400.184 277.792 400.16 277.601C400.136 277.41 400.158 277.215 400.225 277.035C400.462 276.409 400.949 276.368 400.949 276.465Z" fill="#263238"/>
<path d="M423.291 206.967C420.855 208.245 420.006 211.831 420.284 214.554C420.562 217.278 421.579 219.96 421.509 222.698C421.327 224.656 420.978 226.595 420.465 228.493C419.941 230.398 419.999 232.416 420.632 234.288C420.972 235.212 421.608 235.997 422.441 236.523C423.274 237.048 424.258 237.283 425.24 237.192L427.174 233.301C428.682 230.255 429.443 226.895 429.394 223.498C429.346 220.101 428.49 216.764 426.896 213.762L423.291 206.967Z" fill="#263238"/>
<path d="M227.172 9.90843C227.407 9.8746 227.646 9.8746 227.882 9.90843H229.97C231.099 9.94224 232.225 10.0537 233.338 10.242C234.007 10.3531 234.73 10.4226 235.482 10.5755L237.89 11.1591C243.839 12.7889 249.332 15.7645 253.943 19.8551C258.554 23.9457 262.16 29.0416 264.481 34.7476C266.801 40.4536 267.775 46.6165 267.325 52.7586C266.876 58.9006 265.015 64.8568 261.888 70.1654C257.428 77.7068 250.639 83.6017 242.54 86.9668C238.277 88.7422 233.735 89.7537 229.121 89.9546C224.376 90.2478 219.618 89.6588 215.089 88.2175L214.672 88.0785H214.992L191.537 96.1943L190.59 96.5279L190.882 95.5551C192.984 88.8151 195.058 82.2974 196.979 76.0994L197.077 76.558C192.914 71.9085 189.895 66.3529 188.261 60.3335C186.628 54.3141 186.424 47.997 187.667 41.8852C188.691 36.7057 190.75 31.7854 193.722 27.4185C196.25 23.6801 199.388 20.3918 203.007 17.6907C204.554 16.5369 206.177 15.4877 207.865 14.55C209.382 13.7528 210.944 13.0429 212.542 12.4238C213.901 11.8683 215.297 11.4041 216.718 11.0341C217.904 10.6929 219.114 10.4421 220.337 10.2836C221.437 10.1308 222.411 9.96401 223.246 9.89453L225.376 9.90843H226.671C226.819 9.88752 226.969 9.88752 227.116 9.90843C226.968 9.92292 226.819 9.92292 226.671 9.90843L225.376 10.0196L223.26 10.1725C222.425 10.2697 221.465 10.4504 220.379 10.6172C219.175 10.819 217.984 11.0975 216.815 11.451C215.392 11.8129 213.996 12.2773 212.639 12.8407C211.072 13.4683 209.543 14.1876 208.06 14.9947C206.402 15.9356 204.811 16.9896 203.299 18.1493C199.777 20.8285 196.72 24.0681 194.251 27.7382C191.377 32.0377 189.389 36.8659 188.405 41.9408C187.22 47.9212 187.445 54.0949 189.064 59.9731C190.683 65.8513 193.65 71.2725 197.731 75.8076L197.926 76.0021L197.842 76.2662C195.908 82.5198 193.875 89.0513 191.787 95.7218L191.133 95.0965L214.588 86.9668H214.755H214.922L215.326 87.1058C219.739 88.5052 224.373 89.08 228.995 88.8012C233.491 88.6144 237.919 87.6456 242.08 85.9384C249.99 82.6754 256.627 76.9414 260.998 69.5957C266.096 60.9263 267.701 50.6451 265.485 40.8381C263.27 31.031 257.401 22.4326 249.068 16.7874C245.584 14.4445 241.75 12.6668 237.709 11.5205L235.343 10.8951C234.591 10.7283 233.881 10.645 233.227 10.5199C232.125 10.2997 231.009 10.1557 229.886 10.0891L227.812 9.93622C227.598 9.94167 227.384 9.93239 227.172 9.90843V9.90843Z" fill="#26A8E4"/>
<path d="M203.591 52.6136L209.758 46.4573L221.659 57.0189L245.031 34.5754L250.752 40.7457L220.782 68.9008L203.591 52.6136Z" fill="#26A8E4"/>
</g>
</svg>
