<svg width="1280" height="334" viewBox="0 0 1280 334" fill="none" xmlns="http://www.w3.org/2000/svg">
<mask id="mask0_507_1953" style="mask-type:alpha" maskUnits="userSpaceOnUse" x="0" y="0" width="1281" height="339">
<rect width="1281" height="339" fill="#2E2E2E"/>
</mask>
<g mask="url(#mask0_507_1953)">
<path opacity="0.05" d="M1141.74 46C1245.27 46 1287.89 122 1316.31 146L1363 346L-64 406L-49.2834 122C-29.6613 118 86.2731 94.5465 161.316 160C285.138 267.999 378.512 142 506.394 102C634.276 62 698.855 198.848 825.084 192C979.543 183.62 999.132 46 1141.74 46Z" fill="#D9D9D9"/>
<path opacity="0.05" d="M244.724 156.637C144.835 125.378 59.969 202.39 -5 249.813V348H1336V208.736C1083.23 302.914 976.64 61.456 761.431 165.654C546.221 269.851 369.587 195.711 244.724 156.637Z" fill="#E8E8E8"/>
</g>
</svg>
