<svg width="32" height="32" viewBox="0 0 32 32" fill="none" xmlns="http://www.w3.org/2000/svg">
<g id="Mail 1" clip-path="url(#clip0_77_186)">
<g id="Layer 2">
<g id="Layer 1">
<path id="Vector" d="M30.8478 2.2528V14.72C30.7954 15.3648 30.4916 15.9631 30.0018 16.3858C29.5121 16.8085 28.8757 17.0217 28.2302 16.9792H3.763C3.11881 17.0215 2.48392 16.808 1.99622 16.385C1.50852 15.962 1.20738 15.3637 1.1582 14.72V2.2528C1.20735 1.60961 1.50872 1.0119 1.99663 0.589927C2.48453 0.167952 3.11944 -0.0440908 3.763 1.1865e-06H28.2302C28.8755 -0.0459076 29.5128 0.165142 30.0031 0.587142C30.4934 1.00914 30.7971 1.60787 30.8478 2.2528Z" fill="#E6E6E5"/>
<path id="Vector_2" opacity="0.4" d="M30.8478 10.88V16.2496C30.7954 16.8944 30.4916 17.4927 30.0018 17.9154C29.5121 18.3381 28.8757 18.5513 28.2302 18.5088H3.763C3.11881 18.5511 2.48392 18.3376 1.99622 17.9146C1.50852 17.4916 1.20738 16.8933 1.1582 16.2496V10.88C5.7598 13.4976 10.8798 14.08 16.0062 14.08C21.1326 14.08 26.2398 13.5104 30.8478 10.88Z" fill="#778997"/>
<path id="Vector_3" d="M32 32H0V10.0992C4.79347 13.1102 10.3393 14.7075 16 14.7075C21.6607 14.7075 27.2065 13.1102 32 10.0992V32Z" fill="#C3E0F5"/>
<path id="Vector_4" d="M18.2652 8.0384V15.3792H22.6428L13.7148 26.5856V19.1168H9.35645L18.2652 8.0384Z" fill="#1A6EA6"/>
</g>
</g>
</g>
<defs>
<clipPath id="clip0_77_186">
<rect width="32" height="32" fill="white"/>
</clipPath>
</defs>
</svg>
