<?xml version="1.0" encoding="UTF-8"?><svg id="Layer_2" xmlns="http://www.w3.org/2000/svg" viewBox="0 0 24.91 24.91"><defs><style>.cls-1{fill:#196ea7;}</style></defs><g id="Layer_2-2"><path class="cls-1" d="M24.91,4.31V20.61c0,2.37-1.93,4.3-4.3,4.3H4.31c-.63,0-1.22-.13-1.76-.38-.94-.41-1.7-1.16-2.14-2.09l2.59-2.62h0L13.98,8.69l-3.09-3.01h8.35V13.83l-3.11-3.04L5.14,21.91h15.47c.72,0,1.3-.58,1.3-1.3V4.3c0-.71-.58-1.3-1.3-1.3H4.31c-.72,0-1.31,.59-1.31,1.31v7.74c0,2.25-.89,4.4-2.47,6l-.53,.54V4.31C0,1.93,1.93,0,4.31,0H20.6c2.38,0,4.31,1.93,4.31,4.31Z"/></g></svg>