<svg width="405" height="382" viewBox="0 0 405 382" fill="none" xmlns="http://www.w3.org/2000/svg">
<g clip-path="url(#clip0_94_1012)">
<path d="M2.21167 382H402.788C403.375 382 403.937 381.767 404.352 381.352C404.767 380.937 405 380.374 405 379.788C405 379.201 404.766 378.639 404.352 378.224C403.937 377.81 403.375 377.577 402.788 377.577H2.21167C1.62541 377.577 1.06314 377.81 0.648423 378.224C0.233705 378.639 0.00047897 379.201 0 379.788H0C0 380.374 0.233015 380.937 0.647784 381.352C1.06255 381.767 1.6251 382 2.21167 382Z" fill="#2D5B98"/>
<path d="M87.7715 307.128H132.538V337.65C132.538 343.589 130.18 349.284 125.982 353.483C121.784 357.683 116.09 360.042 110.154 360.042C104.217 360.041 98.5245 357.682 94.327 353.483C90.1296 349.284 87.7715 343.588 87.7715 337.65V307.128Z" fill="#5896FA"/>
<path d="M87.7719 330.197H85.291V377.577H87.7719V330.197Z" fill="#0E0E0E"/>
<path d="M135.019 330.197H132.538V377.577H135.019V330.197Z" fill="#0E0E0E"/>
<path d="M116.034 330.197H113.553V377.577H116.034V330.197Z" fill="#0E0E0E"/>
<path d="M132.654 360.044H85.291V362.525H132.654V360.044Z" fill="#0E0E0E"/>
<path d="M145.015 256.699C147.725 260.592 142.278 263.945 141.432 269.341C140.586 274.736 146.762 277.771 140.21 284.837C136.176 289.188 132.77 283.407 129.488 290.079C126.207 296.751 128.792 297.871 125.106 300.272C118.679 304.454 108.844 295.211 112.153 288.548C115.461 281.885 122.15 282.484 119.055 277.005C115.96 271.526 114.809 269.164 120.139 266.34C126.745 262.854 132.567 266.055 133.098 260.956C133.63 255.857 141.441 251.551 145.015 256.699Z" fill="#FFCA59"/>
<path d="M116.776 306.822L115.663 306.602C120.872 280.269 138.139 261.829 138.313 261.646L139.135 262.427C138.963 262.608 121.919 280.821 116.776 306.822Z" fill="#0E0E0E"/>
<path d="M58.4415 246.969C55.6498 252.664 63.519 256.007 65.7252 262.978C67.9315 269.95 59.8093 272.41 69.901 280.441C76.115 285.387 77.416 282.294 79.7017 293.36C81.7129 303.1 89.1122 293.831 94.645 299.549C101.784 306.925 112.94 290.733 107.225 282.585C101.509 274.436 94.8383 276.544 97.8288 268.667C100.819 260.789 97.256 254.864 89.6236 252.209C80.1806 248.925 76.7944 256.853 75.0562 250.221C73.3179 243.589 62.1348 239.439 58.4415 246.969Z" fill="#ED5A24"/>
<path d="M105.886 307.619C93.8481 274.227 67.6369 253.574 67.373 253.366L68.3054 252.167C68.571 252.375 95.1274 273.301 107.313 307.102L105.886 307.619Z" fill="#0E0E0E"/>
<path d="M137.655 215.962C136.862 215.962 136.059 215.937 135.272 215.91L135.326 214.332C136.101 214.359 136.891 214.377 137.675 214.384L137.655 215.962ZM140.04 215.962L140.018 214.384C140.792 214.384 141.58 214.354 142.367 214.325L142.427 215.901C141.627 215.928 140.826 215.948 140.036 215.959L140.04 215.962ZM132.888 215.8C132.095 215.754 131.295 215.697 130.509 215.63L130.642 214.057C131.414 214.122 132.202 214.178 132.991 214.225L132.888 215.8ZM144.803 215.781L144.706 214.207C145.477 214.158 146.265 214.099 147.046 214.026L147.183 215.599C146.388 215.669 145.589 215.729 144.803 215.778V215.781ZM128.136 215.402C127.346 215.315 126.55 215.221 125.767 215.114L125.977 213.549C126.747 213.654 127.531 213.748 128.306 213.833L128.136 215.402ZM149.555 215.368L149.375 213.799C150.143 213.714 150.927 213.618 151.702 213.509L151.917 215.073C151.133 215.178 150.336 215.279 149.555 215.364V215.368ZM123.413 214.764C122.632 214.641 121.841 214.504 121.064 214.361L121.351 212.808C122.117 212.951 122.894 213.085 123.662 213.206L123.413 214.764ZM154.286 214.715L154.033 213.157C154.803 213.032 155.581 212.897 156.344 212.752L156.637 214.303C155.854 214.449 155.065 214.588 154.28 214.715H154.286ZM118.715 213.898C117.941 213.735 117.157 213.56 116.387 213.377L116.749 211.843C117.506 212.024 118.278 212.193 119.038 212.354L118.715 213.898ZM158.968 213.833L158.637 212.291C159.398 212.128 160.167 211.953 160.926 211.771L161.288 213.305C160.525 213.491 159.743 213.668 158.969 213.833H158.968ZM114.073 212.799C113.312 212.6 112.539 212.385 111.773 212.165L112.212 210.648C112.965 210.867 113.726 211.076 114.474 211.273L114.073 212.799ZM163.606 212.719L163.199 211.196C163.949 210.995 164.71 210.782 165.46 210.563L165.904 212.076C165.153 212.3 164.37 212.517 163.608 212.719H163.606ZM109.499 211.472C108.742 211.232 107.978 210.979 107.226 210.719L107.741 209.227C108.48 209.482 109.232 209.732 109.977 209.967L109.499 211.472ZM168.194 211.376L167.711 209.874C168.454 209.636 169.202 209.386 169.937 209.13L170.456 210.621C169.703 210.879 168.947 211.134 168.187 211.376H168.194ZM104.973 209.911C104.23 209.634 103.481 209.343 102.742 209.047L103.331 207.582C104.053 207.873 104.794 208.159 105.524 208.432L104.973 209.911ZM172.698 209.808L172.142 208.331C172.865 208.056 173.604 207.769 174.328 207.476L174.921 208.938C174.176 209.236 173.428 209.529 172.691 209.808H172.698ZM100.534 208.127C99.8108 207.814 99.0735 207.487 98.3489 207.152L99.0103 205.719C99.7222 206.048 100.445 206.37 101.159 206.677L100.534 208.127ZM177.113 208.018L176.484 206.572C177.194 206.263 177.913 205.941 178.618 205.614L179.281 207.046C178.558 207.376 177.828 207.705 177.105 208.018H177.113ZM96.1915 206.126C95.4796 205.775 94.7622 205.412 94.0593 205.041L94.7821 203.642C95.4741 204.003 96.1806 204.365 96.8799 204.705L96.1915 206.126ZM181.426 206.015L180.727 204.602C181.424 204.257 182.125 203.899 182.812 203.537L183.545 204.934C182.841 205.301 182.127 205.665 181.415 206.015H181.426ZM91.947 203.909C91.2568 203.526 90.5575 203.129 89.8727 202.726L90.6713 201.364C91.3453 201.76 92.032 202.153 92.7114 202.53L91.947 203.909ZM185.631 203.801L184.863 202.424C185.54 202.044 186.223 201.652 186.894 201.258L187.694 202.617C187.016 203.018 186.321 203.416 185.631 203.801ZM87.8272 201.489C87.1551 201.072 86.4775 200.64 85.8143 200.204L86.6798 198.885C87.3321 199.313 87.9989 199.738 88.6675 200.15L87.8272 201.489ZM189.738 201.381L188.901 200.041C189.561 199.629 190.224 199.204 190.872 198.776L191.742 200.094C191.075 200.529 190.401 200.961 189.727 201.381H189.738ZM83.8412 198.868C83.1889 198.418 82.5348 197.952 81.8951 197.485L82.8239 196.22C83.4527 196.678 84.0978 197.137 84.7392 197.579L83.8412 198.868ZM193.713 198.758L192.809 197.462C193.449 197.019 194.091 196.558 194.718 196.101L195.65 197.366C195.008 197.842 194.356 198.306 193.702 198.758H193.713ZM79.9834 196.056C79.3546 195.573 78.7185 195.076 78.1078 194.579L79.098 193.35C79.7051 193.84 80.3249 194.329 80.9429 194.796L79.9834 196.056ZM197.558 195.944L196.595 194.693C197.213 194.217 197.831 193.728 198.434 193.247L199.428 194.472C198.808 194.962 198.178 195.459 197.551 195.938L197.558 195.944ZM76.2702 193.052C75.6667 192.54 75.0613 192.012 74.4632 191.484L75.5131 190.308C76.0949 190.826 76.6894 191.345 77.2838 191.85L76.2702 193.052ZM201.26 192.938L200.238 191.737C200.829 191.233 201.423 190.714 202.003 190.194L203.057 191.369C202.458 191.902 201.853 192.43 201.253 192.941L201.26 192.938ZM72.7087 189.876C72.1305 189.333 71.5523 188.777 70.9885 188.222L72.0962 187.097C72.6491 187.64 73.2183 188.182 73.7875 188.724L72.7087 189.876ZM204.813 189.756L203.729 188.607C204.296 188.065 204.863 187.522 205.416 186.98L206.526 188.102C205.96 188.661 205.382 189.218 204.806 189.76L204.813 189.756ZM69.3027 186.539C68.7606 185.97 68.2023 185.386 67.6656 184.804L68.8275 183.735C69.3533 184.307 69.8953 184.881 70.4374 185.442L69.3027 186.539ZM208.199 186.414L207.062 185.319C207.605 184.759 208.147 184.184 208.669 183.609L209.832 184.677C209.298 185.252 208.748 185.838 208.199 186.407V186.414ZM66.0737 183.029C65.5497 182.432 65.0293 181.823 64.5252 181.221L65.7358 180.211C66.2327 180.807 66.7459 181.406 67.259 181.993L66.0737 183.029ZM211.423 182.899L210.235 181.861C210.747 181.275 211.258 180.673 211.757 180.073L212.971 181.08C212.463 181.684 211.952 182.295 211.423 182.891V182.899ZM63.02 179.367C62.5285 178.747 62.0388 178.112 61.5636 177.481L62.8285 176.532C63.2965 177.152 63.7789 177.776 64.2614 178.387L63.02 179.367ZM214.482 179.218L213.244 178.241C213.726 177.63 214.209 177.004 214.677 176.379L215.942 177.328C215.452 177.962 214.962 178.598 214.482 179.218ZM60.1705 175.554C59.7115 174.911 59.2526 174.253 58.8081 173.599L60.1127 172.713C60.5499 173.357 61.0017 174.004 61.4534 174.634L60.1705 175.554ZM217.357 175.399L216.072 174.483C216.525 173.848 216.975 173.199 217.413 172.554L218.719 173.438C218.258 174.094 217.799 174.754 217.338 175.399H217.357ZM57.4944 171.603C57.068 170.94 56.6416 170.26 56.2296 169.586L57.5757 168.764C57.9805 169.429 58.3997 170.096 58.8189 170.752L57.4944 171.603ZM220.033 171.433L218.704 170.582C219.124 169.926 219.543 169.255 219.948 168.594L221.296 169.412C220.866 170.09 220.445 170.775 220.014 171.442L220.033 171.433ZM54.9991 167.545C54.6034 166.86 54.2131 166.161 53.8354 165.468L55.2231 164.715C55.5845 165.396 55.9766 166.083 56.3651 166.757L54.9991 167.545ZM222.501 167.364L221.133 166.58C221.52 165.902 221.905 165.212 222.275 164.527L223.663 165.277C223.278 165.965 222.886 166.667 222.492 167.355L222.501 167.364ZM52.726 163.363C52.3646 162.659 52.0032 161.942 51.6671 161.231L53.0892 160.548C53.4252 161.246 53.7758 161.953 54.1299 162.643L52.726 163.363ZM224.765 163.149L223.359 162.426C223.72 161.73 224.062 161.022 224.4 160.317L225.822 160.998C225.48 161.721 225.124 162.443 224.765 163.149ZM50.6625 159.075C50.339 158.352 50.0192 157.629 49.712 156.895L51.1666 156.282C51.4683 157.005 51.7827 157.719 52.1008 158.426L50.6625 159.075ZM226.827 158.835L225.381 158.189C225.699 157.477 226.015 156.743 226.315 156.029L227.772 156.638C227.47 157.372 227.15 158.112 226.827 158.835ZM48.8158 154.694C48.5267 153.956 48.243 153.206 47.9719 152.461L49.4536 151.919C49.7211 152.642 49.9957 153.389 50.2848 154.113L48.8158 154.694ZM228.673 154.419L227.202 153.848C227.486 153.125 227.764 152.376 228.028 151.642L229.512 152.185C229.242 152.919 228.961 153.68 228.673 154.419ZM47.1841 150.207C46.9312 149.457 46.6854 148.693 46.4523 147.937L47.9593 147.471C48.1888 148.215 48.4309 148.967 48.6821 149.705L47.1841 150.207ZM230.296 149.914L228.8 149.416C229.047 148.673 229.288 147.917 229.523 147.171L231.031 147.631C230.793 148.4 230.547 149.161 230.296 149.916V149.914ZM45.7765 145.65C45.5615 144.888 45.3537 144.112 45.1586 143.346L46.6872 142.955C46.8788 143.709 47.0829 144.472 47.2944 145.222L45.7765 145.65ZM231.691 145.343L230.171 144.92C230.381 144.168 230.581 143.405 230.771 142.652L232.302 143.037C232.108 143.803 231.904 144.579 231.691 145.343ZM44.5966 141.027C44.4159 140.257 44.2515 139.472 44.0943 138.693L45.641 138.38C45.7964 139.145 45.9627 139.917 46.1343 140.674L44.5966 141.027ZM232.854 140.714L231.315 140.369C231.487 139.606 231.651 138.832 231.803 138.071L233.35 138.38C233.196 139.154 233.03 139.939 232.854 140.714ZM43.6498 136.349C43.5125 135.572 43.3824 134.78 43.2631 133.999L44.8225 133.762C44.9399 134.534 45.0682 135.313 45.2037 136.078L43.6498 136.349ZM233.787 136.034L232.233 135.765C232.367 134.995 232.491 134.214 232.605 133.448L234.166 133.679C234.051 134.458 233.922 135.252 233.787 136.034ZM42.9361 131.631C42.8367 130.845 42.7463 130.048 42.665 129.26L44.2352 129.1C44.3129 129.876 44.4033 130.66 44.5009 131.434L42.9361 131.631ZM234.486 131.315L232.92 131.121C233.015 130.346 233.1 129.561 233.178 128.788L234.748 128.943C234.67 129.728 234.582 130.525 234.486 131.315ZM42.4626 126.89C42.4012 126.102 42.3506 125.301 42.3091 124.508L43.8847 124.426C43.9244 125.205 43.975 125.995 44.0347 126.776L42.4626 126.89ZM234.958 126.57L233.384 126.456C233.442 125.679 233.489 124.891 233.527 124.106L235.102 124.182C235.057 124.974 235.008 125.776 234.951 126.565L234.958 126.57ZM42.2079 122.118C42.1862 121.328 42.1735 120.525 42.1699 119.734H43.7474C43.7474 120.513 43.7618 121.303 43.7835 122.084L42.2079 122.118ZM235.187 121.8L233.61 121.762C233.628 120.985 233.637 120.195 233.637 119.412C233.637 119.204 233.637 118.996 233.637 118.788L235.214 118.778C235.214 118.989 235.214 119.201 235.214 119.414C235.211 120.202 235.202 121.01 235.184 121.8H235.187ZM43.769 117.38L42.1916 117.348C42.2079 116.556 42.235 115.755 42.2711 114.964L43.8467 115.034C43.8106 115.813 43.7853 116.603 43.769 117.38ZM233.588 116.444C233.565 115.665 233.53 114.877 233.487 114.094L235.063 114.007C235.106 114.797 235.14 115.6 235.166 116.392L233.588 116.444ZM43.9823 112.692L42.4084 112.581C42.4626 111.79 42.5295 110.991 42.6036 110.204L44.1738 110.353C44.1015 111.126 44.0365 111.913 43.9823 112.692ZM233.33 111.755C233.268 110.978 233.196 110.192 233.115 109.418L234.683 109.255C234.766 110.04 234.838 110.839 234.902 111.631L233.33 111.755ZM44.4232 108.019L42.8584 107.838C42.9523 107.052 43.0571 106.257 43.1691 105.472L44.7321 105.7C44.6201 106.465 44.5171 107.245 44.4232 108.019ZM232.842 107.088C232.741 106.315 232.63 105.532 232.511 104.764L234.071 104.523C234.192 105.304 234.304 106.098 234.407 106.886L232.842 107.088ZM45.1026 103.374L43.5486 103.108C43.6805 102.327 43.8251 101.537 43.9768 100.758L45.5254 101.062C45.3682 101.826 45.2272 102.604 45.0953 103.374H45.1026ZM232.132 102.45C231.993 101.685 231.844 100.91 231.685 100.145L233.23 99.8273C233.391 100.605 233.543 101.394 233.684 102.177L232.132 102.45ZM45.997 98.768L44.4503 98.4264C44.6309 97.6528 44.8116 96.8701 44.9923 96.1019L46.5246 96.4815C46.3457 97.2461 46.165 98.0071 45.997 98.768ZM231.178 97.8516C230.997 97.0979 230.816 96.3297 230.618 95.5723L232.146 95.1782C232.345 95.9483 232.536 96.7273 232.714 97.4955L231.178 97.8516ZM47.1263 94.2112L45.6049 93.7937C45.8145 93.0291 46.0367 92.2572 46.2662 91.4999L47.775 91.9554C47.5509 92.7019 47.3413 93.4593 47.1263 94.2112ZM230.003 93.3074C229.79 92.5609 229.564 91.8054 229.331 91.0588L230.836 90.5889C231.073 91.3462 231.302 92.1163 231.519 92.8754L230.003 93.3074ZM48.4833 89.7086L46.9799 89.2151C47.2275 88.4614 47.4895 87.6986 47.7569 86.9503L49.2422 87.4817C48.9856 88.2174 48.7272 88.9657 48.4833 89.7086ZM228.603 88.8283C228.353 88.0909 228.09 87.3461 227.82 86.6159L229.302 86.0736C229.575 86.8165 229.844 87.5739 230.097 88.3222L228.603 88.8283ZM50.0662 85.2747L48.5935 84.7071C48.8808 83.9642 49.179 83.2159 49.4825 82.4838L50.9389 83.0876C50.6408 83.8088 50.3481 84.5426 50.0662 85.2747ZM226.984 84.4233C226.698 83.7003 226.4 82.9773 226.095 82.2543L227.54 81.6379C227.851 82.3609 228.155 83.1056 228.444 83.8359L226.984 84.4233ZM51.8677 80.9257L50.4221 80.2859C50.7438 79.5628 51.0781 78.829 51.4196 78.1168L52.8434 78.7928C52.5146 79.4923 52.1839 80.2118 51.8677 80.9257ZM225.152 80.1196C224.832 79.4128 224.496 78.7006 224.158 78.0011L225.576 77.3124C225.921 78.0228 226.261 78.7476 226.588 79.4652L225.152 80.1196ZM53.8806 76.6744L52.473 75.9622C52.8344 75.2555 53.1958 74.5415 53.577 73.8419L54.9665 74.5885C54.5979 75.2771 54.2329 75.9785 53.8806 76.6744ZM223.11 75.917C222.748 75.2265 222.387 74.5324 222.011 73.851L223.393 73.0918C223.773 73.7841 224.149 74.4927 224.512 75.194L223.11 75.917ZM56.1031 72.5297L54.7316 71.7488C55.1237 71.0619 55.5285 70.3678 55.9387 69.6864L57.2902 70.4998C56.8873 71.1704 56.488 71.8518 56.1031 72.5297ZM220.86 71.8067C220.472 71.1342 220.067 70.4582 219.66 69.7949L221.005 68.9688C221.418 69.643 221.829 70.3317 222.224 71.0131L220.86 71.8067ZM58.528 68.5061L57.1963 67.6583C57.6227 66.9895 58.0618 66.3171 58.5027 65.6592L59.8127 66.5376C59.3791 67.1811 58.9454 67.8427 58.528 68.5061ZM218.41 67.8138C217.987 67.1613 217.552 66.5051 217.111 65.8634L218.414 64.9723C218.86 65.6248 219.304 66.2918 219.734 66.9606L218.41 67.8138ZM61.1462 64.6L59.8579 63.6962C60.3168 63.0491 60.7885 62.3984 61.2619 61.7639L62.5267 62.7075C62.0605 63.3238 61.5961 63.9637 61.1462 64.6ZM215.765 63.9402C215.311 63.313 214.843 62.6749 214.371 62.0567L215.627 61.1024C216.108 61.735 216.583 62.3785 217.044 63.0184L215.765 63.9402ZM63.9542 60.8348L62.7128 59.8606C63.2007 59.2352 63.7048 58.6097 64.209 58.0006L65.425 59.0038C64.9299 59.6039 64.4348 60.2203 63.9542 60.8348ZM212.931 60.2058C212.447 59.5985 211.947 58.9875 211.446 58.3983L212.655 57.3842C213.163 57.9898 213.67 58.6116 214.164 59.2279L212.931 60.2058ZM66.941 57.2125L65.7503 56.1768C66.2689 55.5785 66.8019 54.9784 67.3349 54.3945L68.5004 55.4574C67.9764 56.034 67.4524 56.6232 66.941 57.2125ZM209.916 56.6124C209.402 56.0304 208.873 55.4447 208.344 54.8717L209.5 53.7999C210.042 54.3801 210.584 54.9766 211.099 55.5694L209.916 56.6124ZM70.1086 53.742L68.9684 52.6575C69.5105 52.0845 70.0796 51.5115 70.6398 50.9548L71.7511 52.0737C71.1927 52.6141 70.6506 53.1781 70.1086 53.742ZM206.734 53.1708C206.192 52.6123 205.633 52.0538 205.077 51.5097L206.179 50.3818C206.744 50.9349 207.312 51.5025 207.865 52.07L206.734 53.1708ZM73.4297 50.4306L72.3455 49.2846C72.9201 48.7423 73.5092 48.2001 74.0964 47.6668L75.1535 48.8381C74.5753 49.3623 73.9953 49.8974 73.4297 50.4306ZM203.373 49.8883C202.804 49.3587 202.22 48.8273 201.636 48.3103L202.682 47.13C203.275 47.656 203.87 48.1947 204.448 48.7351L203.373 49.8883ZM76.9134 47.2909L75.8907 46.0925C76.4906 45.5773 77.105 45.0622 77.7193 44.5615L78.7167 45.7852C78.1096 46.2732 77.5043 46.7848 76.9134 47.2909ZM199.86 46.7757C199.266 46.2732 198.657 45.7725 198.053 45.2827L199.04 44.0518C199.66 44.5488 200.279 45.0586 200.883 45.5683L199.86 46.7757ZM80.5471 44.3265L79.5805 43.0793C80.2038 42.5949 80.8453 42.1104 81.4795 41.6333L82.4155 42.8985C81.7903 43.3812 81.1615 43.8493 80.5471 44.3265ZM196.19 43.8367C195.57 43.3631 194.936 42.8913 194.306 42.4358L195.231 41.1579C195.872 41.6206 196.515 42.0996 197.148 42.5822L196.19 43.8367ZM84.32 41.5447L83.4165 40.2523C84.0634 39.7986 84.7266 39.3485 85.3843 38.9093L86.257 40.2252C85.6083 40.6554 84.956 41.0982 84.32 41.5447ZM192.394 41.0801C191.752 40.6391 191.095 40.1999 190.441 39.7733L191.302 38.452C191.967 38.884 192.634 39.3322 193.29 39.7805L192.394 41.0801ZM88.223 38.9527L87.3827 37.6169C88.0531 37.1957 88.7361 36.7782 89.4137 36.3751L90.2196 37.7308C89.5529 38.1266 88.8807 38.5387 88.223 38.9527ZM188.462 38.5152C187.799 38.1067 187.121 37.7 186.447 37.306L187.242 35.9431C187.927 36.3426 188.616 36.7565 189.29 37.1722L188.462 38.5152ZM92.247 36.5577L91.4736 35.1821C92.1639 34.7953 92.8667 34.4121 93.5624 34.0416L94.3014 35.437C93.6166 35.8003 92.9246 36.1781 92.247 36.5577ZM184.4 36.1473C183.719 35.7714 183.02 35.399 182.327 35.0393L183.05 33.6385C183.757 34 184.465 34.3832 185.159 34.7646L184.4 36.1473ZM96.3866 34.3651L95.6819 32.9534C96.3885 32.6027 97.1076 32.2539 97.825 31.9177L98.4935 33.3475C97.7852 33.6782 97.0769 34.0199 96.383 34.3651H96.3866ZM180.228 33.9837C179.527 33.6403 178.809 33.3041 178.101 32.9787L178.757 31.5435C179.48 31.8725 180.203 32.2159 180.925 32.5648L180.228 33.9837ZM100.626 32.3822L99.9914 30.9362C100.714 30.6199 101.45 30.309 102.181 30.0089L102.778 31.4694C102.053 31.764 101.329 32.0713 100.62 32.3822H100.626ZM175.949 32.0207C175.226 31.7152 174.504 31.4134 173.781 31.1169L174.364 29.651C175.103 29.9438 175.846 30.2511 176.576 30.5548L175.949 32.0207ZM104.96 30.6018L104.4 29.1268C105.139 28.8449 105.893 28.5683 106.641 28.3062L107.163 29.7938C106.428 30.0613 105.683 30.3325 104.955 30.609L104.96 30.6018ZM171.576 30.2819C170.854 30.0107 170.098 29.7396 169.357 29.4938L169.867 27.9989C170.62 28.2556 171.379 28.5249 172.124 28.7997L171.576 30.2819ZM109.386 29.0437L108.9 27.5416C109.653 27.2976 110.419 27.059 111.178 26.8349L111.628 28.3478C110.875 28.5755 110.121 28.8105 109.38 29.0509L109.386 29.0437ZM167.12 28.7599C166.376 28.5267 165.621 28.3008 164.873 28.0875L165.306 26.5692C166.067 26.7879 166.835 27.0174 167.592 27.2542L167.12 28.7599ZM113.885 27.7061L113.475 26.1914C114.239 25.9853 115.016 25.7847 115.786 25.5967L116.158 27.1313C115.394 27.3157 114.629 27.5109 113.879 27.7133L113.885 27.7061ZM162.603 27.4747C161.85 27.2795 161.084 27.0897 160.326 26.9126L160.688 25.3762C161.458 25.5569 162.238 25.7485 163.004 25.9474L162.603 27.4747ZM118.438 26.6017L118.102 25.0598C118.872 24.8936 119.66 24.7327 120.44 24.5827L120.737 26.1317C119.969 26.2818 119.195 26.439 118.438 26.6035V26.6017ZM158.035 26.4083C157.273 26.251 156.498 26.101 155.731 25.9618L156.011 24.4091C156.792 24.5501 157.58 24.7038 158.36 24.8646L158.035 26.4083ZM123.051 25.7214L122.793 24.1651C123.575 24.035 124.369 23.9139 125.151 23.8036L125.37 25.3671C124.595 25.4756 123.814 25.5949 123.051 25.7214ZM153.422 25.575C152.656 25.4539 151.874 25.3418 151.1 25.2424L151.304 23.6771C152.09 23.7801 152.885 23.894 153.666 24.0151L153.422 25.575ZM127.697 25.0689L127.516 23.5017C128.302 23.4114 129.101 23.321 129.889 23.2577L130.032 24.8285C129.251 24.899 128.472 24.9803 127.692 25.0689H127.697ZM148.769 24.9659C147.998 24.8845 147.212 24.8122 146.435 24.7489L146.561 23.1764C147.351 23.2396 148.151 23.3138 148.936 23.3969L148.769 24.9659ZM132.372 24.6459L132.267 23.0715C133.058 23.0191 133.859 22.9757 134.65 22.9432L134.715 24.5212C133.931 24.5519 133.143 24.5953 132.366 24.6459H132.372ZM144.093 24.5899C143.32 24.5465 142.53 24.5122 141.744 24.4869L141.793 22.9089C142.588 22.9342 143.388 22.9703 144.176 23.0137L144.093 24.5899ZM137.055 24.4525L137.03 22.8745C137.819 22.8619 138.622 22.8583 139.413 22.8637L139.402 24.4417C138.618 24.4362 137.828 24.4399 137.05 24.4525H137.055Z" fill="#2E77E6"/>
<path d="M162.929 113.129C163.485 109.075 162.549 104.957 160.296 101.542C158.043 98.127 154.625 95.6477 150.68 94.5657C146.736 93.4838 142.532 93.8731 138.853 95.6611C135.173 97.449 132.269 100.514 130.681 104.285C128.985 102.769 126.887 101.778 124.64 101.429C122.393 101.081 120.094 101.391 118.019 102.322C115.944 103.252 114.183 104.764 112.949 106.674C111.715 108.584 111.06 110.811 111.063 113.086H108.862C105.846 113.095 102.956 114.297 100.823 116.431C98.6898 118.565 97.4876 121.456 97.4785 124.473C97.4876 127.491 98.6898 130.382 100.823 132.515C102.956 134.649 105.846 135.852 108.862 135.861H162.081C165.098 135.852 167.988 134.649 170.121 132.515C172.254 130.382 173.456 127.491 173.465 124.473C173.456 121.604 172.366 118.843 170.414 116.741C168.461 114.638 165.789 113.349 162.929 113.129Z" fill="white"/>
<path d="M173.399 168.509H102.134C99.736 168.509 97.792 170.453 97.792 172.852V232.66C97.792 235.059 99.736 237.004 102.134 237.004H173.399C175.797 237.004 177.741 235.059 177.741 232.66V172.852C177.741 170.453 175.797 168.509 173.399 168.509Z" fill="#5896FA"/>
<path d="M161.971 209.865H113.775C113.015 209.863 112.287 209.561 111.749 209.023C111.212 208.486 110.909 207.757 110.907 206.997C110.909 206.237 111.212 205.508 111.749 204.971C112.287 204.433 113.015 204.13 113.775 204.128H161.971C162.731 204.13 163.459 204.433 163.996 204.971C164.534 205.508 164.837 206.237 164.838 206.997C164.837 207.757 164.534 208.486 163.996 209.023C163.459 209.561 162.731 209.863 161.971 209.865Z" fill="white"/>
<path d="M161.971 219.104H113.775C113.015 219.102 112.287 218.799 111.75 218.262C111.213 217.725 110.91 216.997 110.907 216.237C110.909 215.477 111.212 214.748 111.749 214.211C112.287 213.673 113.015 213.37 113.775 213.368H161.971C162.731 213.37 163.459 213.673 163.996 214.211C164.534 214.748 164.837 215.477 164.838 216.237C164.836 216.997 164.533 217.725 163.996 218.262C163.458 218.799 162.73 219.102 161.971 219.104Z" fill="white"/>
<path d="M122.775 216.49C122.775 216.69 122.716 216.885 122.605 217.051C122.494 217.218 122.336 217.347 122.151 217.424C121.967 217.5 121.764 217.52 121.568 217.481C121.372 217.442 121.192 217.346 121.051 217.205C120.909 217.063 120.813 216.883 120.774 216.687C120.735 216.491 120.755 216.288 120.832 216.103C120.908 215.919 121.038 215.761 121.204 215.65C121.37 215.539 121.565 215.48 121.765 215.48C122.033 215.48 122.29 215.586 122.479 215.776C122.669 215.965 122.775 216.222 122.775 216.49Z" fill="#80B2FF"/>
<path d="M126.235 216.49C126.235 216.69 126.176 216.885 126.065 217.052C125.954 217.218 125.796 217.347 125.611 217.424C125.426 217.5 125.223 217.52 125.027 217.481C124.831 217.442 124.651 217.345 124.51 217.204C124.369 217.062 124.273 216.882 124.234 216.686C124.195 216.49 124.216 216.287 124.292 216.102C124.369 215.918 124.499 215.76 124.665 215.649C124.831 215.538 125.027 215.479 125.227 215.48C125.359 215.48 125.491 215.506 125.613 215.557C125.735 215.607 125.847 215.682 125.94 215.776C126.034 215.87 126.108 215.981 126.159 216.103C126.209 216.226 126.235 216.357 126.235 216.49Z" fill="#80B2FF"/>
<path d="M129.697 216.49C129.697 216.69 129.638 216.885 129.527 217.051C129.416 217.218 129.258 217.347 129.073 217.424C128.889 217.5 128.686 217.52 128.49 217.481C128.294 217.442 128.114 217.346 127.973 217.205C127.831 217.063 127.735 216.883 127.696 216.687C127.657 216.491 127.677 216.288 127.754 216.103C127.83 215.919 127.96 215.761 128.126 215.65C128.292 215.539 128.487 215.48 128.687 215.48C128.819 215.48 128.951 215.506 129.073 215.557C129.196 215.607 129.307 215.682 129.401 215.776C129.495 215.869 129.569 215.981 129.62 216.103C129.671 216.226 129.697 216.357 129.697 216.49Z" fill="#80B2FF"/>
<path d="M133.158 216.49C133.158 216.69 133.099 216.885 132.987 217.052C132.876 217.218 132.719 217.347 132.534 217.424C132.349 217.5 132.146 217.52 131.95 217.481C131.754 217.442 131.574 217.345 131.433 217.204C131.292 217.062 131.196 216.882 131.157 216.686C131.118 216.49 131.138 216.287 131.215 216.102C131.292 215.918 131.422 215.76 131.588 215.649C131.754 215.538 131.95 215.479 132.15 215.48C132.282 215.48 132.413 215.506 132.536 215.557C132.658 215.607 132.77 215.682 132.863 215.776C132.957 215.87 133.031 215.981 133.082 216.103C133.132 216.226 133.158 216.357 133.158 216.49Z" fill="#80B2FF"/>
<path d="M136.62 216.49C136.62 216.69 136.561 216.885 136.45 217.051C136.339 217.218 136.181 217.347 135.996 217.424C135.812 217.5 135.609 217.52 135.413 217.481C135.217 217.442 135.037 217.346 134.895 217.205C134.754 217.063 134.658 216.883 134.619 216.687C134.58 216.491 134.6 216.288 134.676 216.103C134.753 215.919 134.882 215.761 135.049 215.65C135.215 215.539 135.41 215.48 135.61 215.48C135.878 215.48 136.134 215.586 136.324 215.776C136.513 215.965 136.62 216.222 136.62 216.49Z" fill="#80B2FF"/>
<path d="M140.082 216.49C140.082 216.69 140.022 216.885 139.911 217.051C139.8 217.218 139.643 217.347 139.458 217.424C139.274 217.5 139.07 217.52 138.875 217.481C138.679 217.442 138.499 217.346 138.357 217.205C138.216 217.063 138.12 216.883 138.081 216.687C138.042 216.491 138.062 216.288 138.138 216.103C138.215 215.919 138.344 215.761 138.51 215.65C138.677 215.539 138.872 215.48 139.072 215.48C139.339 215.48 139.596 215.586 139.786 215.776C139.975 215.965 140.082 216.222 140.082 216.49Z" fill="#80B2FF"/>
<path d="M143.542 216.49C143.542 216.69 143.482 216.885 143.371 217.052C143.26 217.218 143.102 217.347 142.918 217.424C142.733 217.5 142.53 217.52 142.334 217.481C142.138 217.442 141.958 217.345 141.817 217.204C141.676 217.062 141.579 216.882 141.541 216.686C141.502 216.49 141.522 216.287 141.599 216.102C141.676 215.918 141.805 215.76 141.972 215.649C142.138 215.538 142.334 215.479 142.533 215.48C142.666 215.48 142.797 215.506 142.92 215.557C143.042 215.607 143.153 215.682 143.247 215.776C143.341 215.87 143.415 215.981 143.465 216.103C143.516 216.226 143.542 216.357 143.542 216.49Z" fill="#80B2FF"/>
<path d="M147.004 216.49C147.004 216.69 146.944 216.885 146.833 217.051C146.722 217.218 146.565 217.347 146.38 217.424C146.195 217.5 145.992 217.52 145.796 217.481C145.6 217.442 145.42 217.346 145.279 217.205C145.138 217.063 145.042 216.883 145.003 216.687C144.964 216.491 144.984 216.288 145.06 216.103C145.137 215.919 145.266 215.761 145.432 215.65C145.598 215.539 145.794 215.48 145.993 215.48C146.126 215.48 146.257 215.506 146.38 215.557C146.503 215.607 146.614 215.682 146.708 215.776C146.801 215.869 146.876 215.981 146.927 216.103C146.977 216.226 147.004 216.357 147.004 216.49Z" fill="#80B2FF"/>
<path d="M150.466 216.49C150.466 216.69 150.407 216.885 150.296 217.051C150.185 217.218 150.027 217.347 149.843 217.424C149.658 217.5 149.455 217.52 149.259 217.481C149.063 217.442 148.883 217.346 148.742 217.205C148.601 217.063 148.505 216.883 148.466 216.687C148.427 216.491 148.447 216.288 148.523 216.103C148.6 215.919 148.729 215.761 148.895 215.65C149.061 215.539 149.257 215.48 149.456 215.48C149.724 215.48 149.981 215.586 150.171 215.776C150.36 215.965 150.466 216.222 150.466 216.49Z" fill="#80B2FF"/>
<path d="M137.89 196.101C144.008 196.101 148.968 191.139 148.968 185.019C148.968 178.898 144.008 173.937 137.89 173.937C131.771 173.937 126.812 178.898 126.812 185.019C126.812 191.139 131.771 196.101 137.89 196.101Z" fill="white"/>
<path d="M137.904 184.572C138.427 184.567 138.941 184.445 139.41 184.214C139.879 183.984 140.291 183.651 140.614 183.24C141.106 182.625 141.37 181.859 141.362 181.071C141.373 180.607 141.291 180.146 141.121 179.714C140.95 179.282 140.696 178.889 140.371 178.557C140.047 178.225 139.66 177.961 139.232 177.781C138.805 177.601 138.345 177.509 137.881 177.509C137.417 177.509 136.958 177.601 136.531 177.781C136.103 177.961 135.716 178.225 135.391 178.557C135.067 178.889 134.812 179.282 134.642 179.714C134.472 180.146 134.39 180.607 134.4 181.071C134.392 181.859 134.657 182.626 135.15 183.24C135.479 183.656 135.897 183.992 136.374 184.223C136.851 184.453 137.374 184.573 137.904 184.572Z" fill="#005CEA"/>
<path d="M144.046 190.803C144.046 193.008 131.73 193.008 131.73 190.803V188.231C132.217 184.717 143.042 184.569 144.045 188.231L144.046 190.803Z" fill="#005CEA"/>
<path d="M116.165 215.707V215.554C116.171 215.402 116.146 215.25 116.092 215.108C116.038 214.965 115.956 214.836 115.851 214.726C115.745 214.616 115.619 214.529 115.479 214.469C115.339 214.41 115.189 214.379 115.036 214.379C114.884 214.379 114.734 214.41 114.594 214.469C114.454 214.529 114.327 214.616 114.222 214.726C114.117 214.836 114.035 214.965 113.981 215.108C113.927 215.25 113.902 215.402 113.908 215.554V215.707H113.736V217.741C113.736 218.102 116.344 218.102 116.344 217.741V215.707H116.165ZM114.311 215.554C114.311 215.36 114.388 215.174 114.525 215.037C114.662 214.9 114.847 214.823 115.041 214.823C115.235 214.823 115.42 214.9 115.557 215.037C115.694 215.174 115.771 215.36 115.771 215.554V215.707H114.311V215.554ZM115.229 216.732V217.32C115.229 217.345 115.224 217.37 115.214 217.393C115.204 217.416 115.189 217.437 115.17 217.454C115.152 217.471 115.13 217.484 115.106 217.492C115.082 217.5 115.057 217.503 115.032 217.5C114.984 217.5 114.938 217.481 114.904 217.447C114.87 217.414 114.851 217.368 114.851 217.32V216.725C114.797 216.695 114.752 216.652 114.72 216.599C114.688 216.546 114.671 216.485 114.671 216.423C114.67 216.36 114.686 216.299 114.717 216.244C114.748 216.19 114.792 216.144 114.846 216.112C114.9 216.08 114.961 216.062 115.024 216.06C115.087 216.059 115.149 216.074 115.204 216.104C115.259 216.134 115.305 216.177 115.338 216.231C115.372 216.284 115.39 216.345 115.393 216.407C115.396 216.47 115.382 216.532 115.353 216.588C115.324 216.644 115.281 216.691 115.229 216.725V216.732Z" fill="#5896FA"/>
<path d="M115.04 206.784C115.15 206.782 115.259 206.757 115.358 206.708C115.457 206.66 115.544 206.59 115.613 206.503C115.717 206.374 115.773 206.212 115.772 206.046C115.777 205.946 115.761 205.847 115.727 205.753C115.692 205.66 115.639 205.575 115.57 205.502C115.501 205.43 115.419 205.373 115.327 205.333C115.235 205.294 115.137 205.274 115.037 205.274C114.938 205.274 114.839 205.294 114.747 205.333C114.656 205.373 114.573 205.43 114.504 205.502C114.436 205.575 114.382 205.66 114.348 205.753C114.313 205.847 114.298 205.946 114.303 206.046C114.301 206.212 114.357 206.373 114.46 206.503C114.529 206.59 114.618 206.661 114.718 206.709C114.818 206.758 114.928 206.783 115.04 206.784Z" fill="#5896FA"/>
<path d="M116.335 208.103C116.335 208.569 113.724 208.569 113.724 208.103L113.736 207.561C113.839 206.82 116.123 206.789 116.335 207.561V208.103Z" fill="#5896FA"/>
<path d="M131.922 207.839H121.361C121.138 207.838 120.924 207.749 120.766 207.591C120.609 207.434 120.52 207.22 120.519 206.997C120.52 206.774 120.609 206.56 120.766 206.402C120.924 206.244 121.138 206.155 121.361 206.154H131.922C132.145 206.155 132.359 206.244 132.516 206.402C132.674 206.56 132.763 206.774 132.764 206.997C132.763 207.22 132.674 207.434 132.516 207.591C132.359 207.749 132.145 207.838 131.922 207.839Z" fill="#80B2FF"/>
<path d="M145.851 207.839H135.289C135.066 207.838 134.853 207.749 134.695 207.591C134.537 207.434 134.448 207.22 134.447 206.997C134.448 206.774 134.537 206.56 134.695 206.402C134.853 206.244 135.066 206.155 135.289 206.154H145.851C146.074 206.155 146.287 206.244 146.445 206.402C146.603 206.56 146.692 206.774 146.693 206.997C146.692 207.22 146.603 207.434 146.445 207.591C146.287 207.749 146.074 207.838 145.851 207.839Z" fill="#80B2FF"/>
<path d="M141.405 223.14H131.835C130.478 223.14 129.378 224.24 129.378 225.597C129.378 226.955 130.478 228.055 131.835 228.055H141.405C142.762 228.055 143.862 226.955 143.862 225.597C143.862 224.24 142.762 223.14 141.405 223.14Z" fill="#1251B3"/>
<path d="M39.7826 115.264C34.2914 121.147 25.5314 125.97 16.1571 128.023C16.1571 128.649 16.139 132.119 16.0667 148.114C15.971 169.443 36.2699 179.875 39.4212 181.476C42.4749 180.07 63.0287 169.66 63.1244 148.324C63.1949 132.331 63.2112 128.86 63.213 128.233C53.8585 126.096 45.2196 121.196 39.7826 115.264Z" fill="white"/>
<path d="M39.727 119.117C34.3496 124.05 26.8979 127.929 18.7107 130.042L18.6312 148.118C18.5932 156.389 21.8836 163.872 28.3886 170.351C31.6597 173.578 35.389 176.306 39.456 178.445L39.7668 178.282V119.163L39.727 119.117Z" fill="#296ACC"/>
<path d="M39.7725 119.163V178.297C43.7367 176.218 47.3813 173.58 50.5941 170.463C57.1731 164.035 60.5322 156.582 60.5611 148.309L60.6424 130.234C52.495 128.052 45.1011 124.124 39.7725 119.163Z" fill="#2E77E6"/>
<path d="M30.2568 145.218V159.223C30.2568 160.781 49.2892 160.781 49.2892 159.223V145.218H30.2568ZM40.737 152.655V156.631C40.7426 156.761 40.7219 156.891 40.6761 157.013C40.6303 157.134 40.5603 157.245 40.4704 157.339C40.3805 157.433 40.2725 157.508 40.153 157.559C40.0334 157.61 39.9048 157.636 39.7748 157.636C39.6448 157.636 39.5162 157.61 39.3966 157.559C39.2771 157.508 39.1691 157.433 39.0792 157.339C38.9893 157.245 38.9193 157.134 38.8735 157.013C38.8277 156.891 38.807 156.761 38.8126 156.631V152.655C38.3222 152.434 37.9222 152.053 37.6793 151.573C37.4364 151.093 37.3653 150.545 37.4779 150.019C37.5905 149.493 37.88 149.022 38.298 148.684C38.716 148.346 39.2373 148.161 39.7748 148.161C40.3123 148.161 40.8336 148.346 41.2516 148.684C41.6696 149.022 41.9591 149.493 42.0717 150.019C42.1843 150.545 42.1132 151.093 41.8703 151.573C41.6274 152.053 41.2274 152.434 40.737 152.655Z" fill="white"/>
<path d="M47.6231 144.221H45.6969V143.277C45.6969 141.706 45.0729 140.199 43.9621 139.087C42.8513 137.976 41.3448 137.352 39.7739 137.352C38.203 137.352 36.6964 137.976 35.5856 139.087C34.4748 140.199 33.8508 141.706 33.8508 143.277V144.221H31.9228V143.277C31.907 142.236 32.0984 141.202 32.4858 140.235C32.8732 139.269 33.4489 138.389 34.1795 137.647C34.91 136.905 35.7807 136.316 36.741 135.913C37.7013 135.511 38.7319 135.304 39.773 135.304C40.814 135.304 41.8446 135.511 42.8049 135.913C43.7652 136.316 44.6359 136.905 45.3665 137.647C46.097 138.389 46.6727 139.269 47.0601 140.235C47.4475 141.202 47.6389 142.236 47.6231 143.277V144.221Z" fill="white"/>
<path d="M180.663 0H146.281V42.9311H180.663V0Z" fill="#296ACC"/>
<path d="M185.122 4.43211H150.74V47.3632H185.122V4.43211Z" fill="white"/>
<path d="M185.694 47.9362H150.168V3.85912H185.694V47.9362ZM151.314 46.7902H184.548V5.0051H151.314V46.7902Z" fill="#5896FA"/>
<path d="M190.783 8.78649H156.401V51.7176H190.783V8.78649Z" fill="white"/>
<path d="M191.353 52.2906H155.829V8.2135H191.353V52.2906ZM156.975 51.1536H190.211V9.35949H156.975V51.1536Z" fill="#5896FA"/>
<path d="M194.904 13.2186H160.521V56.1497H194.904V13.2186Z" fill="#5896FA"/>
<path d="M189.553 20.2662H171.77V23.0589H189.553V20.2662Z" fill="#005CEA"/>
<path d="M189.555 26.8276H166.512V29.6203H189.555V26.8276Z" fill="#005CEA"/>
<path d="M189.555 33.3872H166.512V36.1799H189.555V33.3872Z" fill="#005CEA"/>
<path d="M189.555 39.9468H166.512V42.7395H189.555V39.9468Z" fill="#005CEA"/>
<path d="M189.555 46.5064H166.512V49.2991H189.555V46.5064Z" fill="#005CEA"/>
<path d="M82.6866 49.4353C84.1838 42.8962 80.0983 36.3811 73.5614 34.8834C67.0245 33.3858 60.5117 37.4727 59.0145 44.0118C57.5174 50.551 61.6029 57.0661 68.1398 58.5637C74.6766 60.0614 81.1895 55.9745 82.6866 49.4353Z" fill="white"/>
<path d="M90.0134 58.2808C91.5451 55.7444 92.5568 52.9283 92.9894 49.9968L93.8928 50.1287L95.6799 50.3908H95.7034C96.1837 47.1558 96.0241 43.8578 95.2336 40.6843L92.5756 41.3422C91.8637 38.4676 90.586 35.7639 88.8172 33.389L91.0198 31.7514C89.0767 29.1194 86.6326 26.8975 83.8283 25.2135L82.4098 27.5633C79.8755 26.0278 77.06 25.0144 74.1287 24.5827L74.5262 21.8713C71.2927 21.3943 67.9972 21.554 64.8249 22.3413L65.4826 24.9984C62.6091 25.7118 59.9064 26.9905 57.5321 28.7599L55.895 26.5565C53.2649 28.5007 51.044 30.9447 49.3594 33.7487L51.7084 35.1695C50.1755 37.7046 49.1637 40.5204 48.7324 43.4516L46.8135 43.1697L46.0274 43.0612H46.0184C45.5416 46.2959 45.7012 49.5925 46.4882 52.7659L49.148 52.1062C49.8627 54.9843 51.1434 57.691 52.9154 60.0684L50.7128 61.7061C52.6528 64.3362 55.0939 66.5563 57.8953 68.2386L59.3137 65.8887C61.8501 67.4238 64.6674 68.4366 67.6003 68.8676L67.2877 70.977L67.2028 71.5825C70.4336 72.0574 73.726 71.8965 76.8951 71.1089L76.2374 68.45C79.1139 67.7318 81.8206 66.4529 84.2023 64.6867L85.8394 66.8901C88.4626 64.9428 90.6787 62.4999 92.3624 59.6997L90.0134 58.2808ZM64.5882 57.1312C62.5312 55.8917 60.8879 54.07 59.866 51.8962C58.8442 49.7225 58.4896 47.2945 58.8472 44.9192C59.2048 42.5439 60.2585 40.328 61.8751 38.5517C63.4916 36.7755 65.5984 35.5187 67.929 34.9403C70.2596 34.3619 72.7094 34.4878 74.9684 35.3021C77.2275 36.1165 79.1944 37.5827 80.6205 39.5153C82.0465 41.4479 82.8676 43.7602 82.9799 46.1596C83.0923 48.5591 82.4908 50.938 81.2516 52.9955C80.429 54.3617 79.3455 55.5524 78.0628 56.4996C76.7802 57.4469 75.3236 58.1321 73.7762 58.5161C72.2288 58.9002 70.621 58.9755 69.0445 58.7379C67.468 58.5003 65.9537 57.9543 64.5882 57.1312Z" fill="#005CEA"/>
<path d="M44.5664 56.6684C43.7071 55.3665 42.5971 54.2488 41.3013 53.3805L41.5687 52.981L42.0963 52.1893V52.1803C40.6679 51.2196 39.0641 50.55 37.3767 50.2101L37.0894 51.6236C35.5611 51.3118 33.9861 51.3081 32.4564 51.6127L32.1763 50.1956C30.4859 50.5256 28.8771 51.1859 27.4422 52.1387L28.2409 53.3444C26.9383 54.2035 25.8208 55.3146 24.9541 56.6124L23.7525 55.8099C22.7954 57.2404 22.127 58.8442 21.7847 60.5312L23.1959 60.8186C22.8887 62.3481 22.8887 63.9236 23.1959 65.4531L21.7793 65.7333C22.1083 67.4246 22.7685 69.034 23.7217 70.4691L24.927 69.6701C25.7846 70.9718 26.8934 72.089 28.1885 72.9563L27.6211 73.8058L27.3916 74.1547C28.8216 75.1126 30.4248 75.7819 32.1113 76.1249L32.3986 74.7114C33.9287 75.0196 35.505 75.0196 37.0351 74.7114L37.3152 76.1285C39.0038 75.8001 40.6109 75.141 42.0439 74.189L41.2471 72.9816C42.5503 72.1212 43.6689 71.0096 44.5375 69.7117L45.4699 70.3371L45.7373 70.5179C46.6933 69.0909 47.3611 67.4908 47.7032 65.8074L46.2902 65.52C46.6001 63.9886 46.6038 62.411 46.301 60.8782L47.7195 60.5981C47.3861 58.91 46.7256 57.3036 45.7752 55.8695L44.5664 56.6684ZM38.2747 68.5061C37.2203 69.2036 35.9827 69.5727 34.7186 69.5666C33.4544 69.5606 32.2205 69.1796 31.1728 68.4719C30.1251 67.7643 29.3108 66.7617 28.8328 65.591C28.3547 64.4203 28.2345 63.1341 28.4873 61.895C28.7401 60.656 29.3545 59.5197 30.2529 58.63C31.1512 57.7403 32.2932 57.1371 33.5343 56.8967C34.7754 56.6563 36.0599 56.7895 37.2253 57.2794C38.3907 57.7693 39.3847 58.594 40.0816 59.6491C41.0157 61.0634 41.3501 62.7909 41.0113 64.4518C40.6725 66.1127 39.6881 67.571 38.2747 68.5061Z" fill="#1251B3"/>
<path d="M243.169 62.346H213.649C213.027 62.346 212.523 62.8501 212.523 63.4721V80.228C212.523 80.85 213.027 81.3541 213.649 81.3541H243.169C243.791 81.3541 244.295 80.85 244.295 80.228V63.4721C244.295 62.8501 243.791 62.346 243.169 62.346Z" fill="#005CEA"/>
<path d="M244.295 65.9357H212.523V69.2164H244.295V65.9357Z" fill="#5896FA"/>
<path d="M219.802 77.7065H215.129C214.985 77.7065 214.847 77.7636 214.746 77.8653C214.644 77.967 214.587 78.1049 214.587 78.2488C214.587 78.3926 214.644 78.5305 214.746 78.6322C214.847 78.7339 214.985 78.791 215.129 78.791H219.802C219.945 78.791 220.083 78.7339 220.185 78.6322C220.287 78.5305 220.344 78.3926 220.344 78.2488C220.344 78.1049 220.287 77.967 220.185 77.8653C220.083 77.7636 219.945 77.7065 219.802 77.7065Z" fill="#D1F5FF"/>
<path d="M226.983 77.7065H222.313C222.169 77.7065 222.031 77.7636 221.929 77.8653C221.828 77.967 221.771 78.1049 221.771 78.2488C221.771 78.3926 221.828 78.5305 221.929 78.6322C222.031 78.7339 222.169 78.791 222.313 78.791H226.983C227.127 78.791 227.265 78.7339 227.367 78.6322C227.468 78.5305 227.526 78.3926 227.526 78.2488C227.526 78.1049 227.468 77.967 227.367 77.8653C227.265 77.7636 227.127 77.7065 226.983 77.7065Z" fill="#D1F5FF"/>
<path d="M234.177 77.7065H229.497C229.353 77.7065 229.216 77.7636 229.114 77.8653C229.012 77.967 228.955 78.1049 228.955 78.2488C228.955 78.3926 229.012 78.5305 229.114 78.6322C229.216 78.7339 229.353 78.791 229.497 78.791H234.177C234.321 78.791 234.459 78.7339 234.56 78.6322C234.662 78.5305 234.719 78.3926 234.719 78.2488C234.719 78.1049 234.662 77.967 234.56 77.8653C234.459 77.7636 234.321 77.7065 234.177 77.7065Z" fill="#D1F5FF"/>
<path d="M241.353 77.7065H236.682C236.538 77.7065 236.4 77.7636 236.298 77.8653C236.197 77.967 236.14 78.1049 236.14 78.2488C236.14 78.3926 236.197 78.5305 236.298 78.6322C236.4 78.7339 236.538 78.791 236.682 78.791H241.353C241.496 78.791 241.634 78.7339 241.736 78.6322C241.838 78.5305 241.895 78.3926 241.895 78.2488C241.895 78.1049 241.838 77.967 241.736 77.8653C241.634 77.7636 241.496 77.7065 241.353 77.7065Z" fill="#D1F5FF"/>
<path d="M214.914 63.3112C214.757 63.3112 214.606 63.3737 214.495 63.4848C214.384 63.596 214.321 63.7468 214.321 63.9041V64.1137C214.321 64.271 214.384 64.4218 214.495 64.533C214.606 64.6441 214.757 64.7066 214.914 64.7066C214.992 64.7069 215.069 64.6917 215.141 64.662C215.213 64.6323 215.279 64.5887 215.334 64.5336C215.389 64.4785 215.433 64.4131 215.463 64.341C215.493 64.269 215.508 64.1917 215.508 64.1137V63.9041C215.508 63.8261 215.493 63.7488 215.463 63.6768C215.433 63.6047 215.389 63.5393 215.334 63.4842C215.279 63.4291 215.213 63.3855 215.141 63.3558C215.069 63.3261 214.992 63.3109 214.914 63.3112Z" fill="#D1F5FF"/>
<path d="M216.192 64.0089C216.192 64.1939 216.266 64.3714 216.397 64.5023C216.527 64.6331 216.705 64.7066 216.89 64.7066H219.36C219.545 64.7066 219.722 64.6331 219.853 64.5023C219.984 64.3714 220.057 64.1939 220.057 64.0089C220.057 63.8238 219.984 63.6464 219.853 63.5155C219.722 63.3847 219.545 63.3112 219.36 63.3112H216.888C216.703 63.3117 216.526 63.3854 216.396 63.5162C216.266 63.647 216.192 63.8242 216.192 64.0089Z" fill="#D1F5FF"/>
<path d="M219.06 70.9806H215.867C215.355 70.9806 214.94 71.3958 214.94 71.9079V74.6626C214.94 75.1747 215.355 75.5899 215.867 75.5899H219.06C219.572 75.5899 219.987 75.1747 219.987 74.6626V71.9079C219.987 71.3958 219.572 70.9806 219.06 70.9806Z" fill="#5896FA"/>
<path d="M231.478 129.771V127.602C231.478 127.368 231.432 127.135 231.342 126.919C231.252 126.702 231.121 126.506 230.955 126.34C230.789 126.174 230.592 126.043 230.376 125.953C230.159 125.864 229.927 125.818 229.693 125.818H210.696C210.462 125.818 210.23 125.864 210.013 125.953C209.797 126.043 209.6 126.174 209.434 126.34C209.268 126.506 209.137 126.702 209.047 126.919C208.957 127.135 208.911 127.368 208.911 127.602V165.978H258.05V129.771H231.478Z" fill="#1251B3"/>
<path d="M260.094 131.089H211.909L208.911 165.978H257.812L260.094 131.089Z" fill="white"/>
<path d="M258.052 165.978H208.903L214.12 131.523C214.194 131.035 214.44 130.591 214.814 130.269C215.187 129.948 215.664 129.771 216.156 129.771H261.129C261.425 129.771 261.719 129.835 261.988 129.959C262.258 130.083 262.498 130.263 262.691 130.488C262.885 130.713 263.027 130.977 263.109 131.263C263.192 131.548 263.211 131.847 263.167 132.141L258.052 165.978Z" fill="#3383FF"/>
<path d="M271.157 139.053C275.554 134.655 275.554 127.524 271.157 123.125C266.76 118.727 259.632 118.727 255.235 123.125C250.838 127.524 250.838 134.655 255.235 139.053C259.632 143.452 266.76 143.452 271.157 139.053Z" fill="#005CEA"/>
<path d="M263.196 142.764C260.888 142.763 258.632 142.078 256.713 140.795C254.794 139.512 253.298 137.689 252.415 135.555C251.532 133.422 251.301 131.075 251.752 128.81C252.202 126.545 253.314 124.465 254.946 122.833C256.579 121.2 258.658 120.088 260.922 119.638C263.186 119.188 265.532 119.419 267.665 120.303C269.797 121.186 271.62 122.683 272.902 124.603C274.185 126.523 274.869 128.78 274.869 131.089C274.865 134.184 273.634 137.152 271.446 139.341C269.258 141.529 266.291 142.76 263.196 142.764ZM263.196 120.238C261.052 120.238 258.956 120.874 257.173 122.066C255.39 123.258 254.001 124.951 253.18 126.933C252.36 128.915 252.145 131.095 252.563 133.199C252.982 135.303 254.014 137.235 255.53 138.752C257.047 140.269 258.978 141.302 261.081 141.72C263.184 142.139 265.364 141.924 267.345 141.103C269.326 140.282 271.02 138.892 272.211 137.109C273.402 135.325 274.038 133.228 274.038 131.083C274.034 128.208 272.89 125.452 270.858 123.419C268.826 121.386 266.07 120.242 263.196 120.238Z" fill="white"/>
<path d="M257.775 129.059V137.034C257.775 137.921 268.617 137.921 268.617 137.034V129.059H257.775ZM263.738 133.294V135.553C263.738 135.699 263.68 135.838 263.578 135.941C263.475 136.044 263.335 136.102 263.19 136.102C263.044 136.102 262.905 136.044 262.802 135.941C262.699 135.838 262.641 135.699 262.641 135.553V133.281C262.363 133.156 262.137 132.939 261.999 132.667C261.862 132.394 261.822 132.083 261.886 131.785C261.95 131.487 262.115 131.219 262.352 131.028C262.589 130.836 262.885 130.731 263.19 130.731C263.495 130.731 263.791 130.836 264.028 131.028C264.265 131.219 264.429 131.487 264.494 131.785C264.558 132.083 264.518 132.394 264.38 132.667C264.243 132.939 264.016 133.156 263.738 133.281V133.294Z" fill="white"/>
<path d="M267.666 128.482H266.569V127.94C266.569 127.045 266.214 126.187 265.581 125.554C264.949 124.921 264.091 124.565 263.196 124.565C262.301 124.565 261.443 124.921 260.81 125.554C260.178 126.187 259.822 127.045 259.822 127.94V128.482H258.726V127.94C258.726 126.754 259.197 125.617 260.035 124.778C260.873 123.939 262.01 123.468 263.196 123.468C264.382 123.468 265.519 123.939 266.357 124.778C267.195 125.617 267.666 126.754 267.666 127.94V128.482Z" fill="white"/>
<path d="M224.098 41.1416C226.479 41.1416 228.41 39.2107 228.41 36.8288C228.41 34.4469 226.479 32.516 224.098 32.516C221.717 32.516 219.787 34.4469 219.787 36.8288C219.787 39.2107 221.717 41.1416 224.098 41.1416Z" fill="#AAE0FF"/>
<path d="M115.156 53.6492C115.559 51.3017 113.984 49.0717 111.637 48.6683C109.29 48.265 107.061 49.841 106.658 52.1885C106.255 54.536 107.83 56.766 110.177 57.1694C112.523 57.5728 114.753 55.9967 115.156 53.6492Z" fill="#AAE0FF"/>
<path d="M254.326 112.587C255.572 112.587 256.581 111.577 256.581 110.331C256.581 109.085 255.572 108.075 254.326 108.075C253.081 108.075 252.071 109.085 252.071 110.331C252.071 111.577 253.081 112.587 254.326 112.587Z" fill="white"/>
<path d="M20.5164 115.076C20.801 113.863 20.0488 112.649 18.8364 112.364C17.6239 112.079 16.4103 112.832 16.1257 114.045C15.8411 115.257 16.5932 116.472 17.8057 116.756C19.0182 117.041 20.2318 116.289 20.5164 115.076Z" fill="#AAE0FF"/>
<path d="M55.4593 200.665C57.6041 199.63 58.5045 197.052 57.4705 194.907C56.4364 192.761 53.8594 191.861 51.7146 192.895C49.5698 193.929 48.6693 196.507 49.7034 198.653C50.7375 200.798 53.3145 201.699 55.4593 200.665Z" fill="#AAE0FF"/>
<path d="M122.772 10.1223C122.674 10.1223 122.576 10.1029 122.486 10.0653C122.395 10.0276 122.313 9.97249 122.243 9.90298C122.174 9.83347 122.119 9.75096 122.082 9.66018C122.044 9.5694 122.025 9.47213 122.025 9.37395V1.36651C122.025 1.16852 122.104 0.978639 122.244 0.83864C122.384 0.69864 122.574 0.61999 122.772 0.61999C122.87 0.619752 122.967 0.638886 123.058 0.676295C123.149 0.713705 123.231 0.768655 123.301 0.837999C123.37 0.907344 123.425 0.989719 123.463 1.08041C123.5 1.1711 123.52 1.26832 123.52 1.36651V9.36491C123.521 9.46394 123.502 9.56222 123.465 9.65405C123.428 9.74589 123.373 9.82946 123.304 9.89991C123.234 9.97035 123.151 10.0263 123.06 10.0645C122.969 10.1026 122.871 10.1223 122.772 10.1223Z" fill="#AAE0FF"/>
<path d="M118.026 5.36661C118.026 5.26834 118.046 5.17103 118.083 5.08024C118.121 4.98945 118.176 4.90695 118.245 4.83747C118.315 4.76798 118.397 4.71286 118.488 4.67525C118.579 4.63764 118.676 4.61829 118.774 4.61829H126.77C126.868 4.61829 126.965 4.63765 127.056 4.67528C127.147 4.71291 127.229 4.76806 127.298 4.83757C127.368 4.90709 127.423 4.9896 127.46 5.08038C127.497 5.17116 127.517 5.26843 127.516 5.36661C127.516 5.5646 127.438 5.75448 127.298 5.89448C127.158 6.03448 126.968 6.11313 126.77 6.11313H118.774C118.676 6.11337 118.579 6.09423 118.488 6.05682C118.398 6.01941 118.315 5.96446 118.246 5.89512C118.176 5.82577 118.121 5.7434 118.083 5.65271C118.046 5.56202 118.026 5.4648 118.026 5.36661Z" fill="#AAE0FF"/>
<path d="M207.778 112.822C207.68 112.822 207.583 112.802 207.493 112.765C207.402 112.727 207.32 112.672 207.251 112.603C207.181 112.534 207.127 112.451 207.089 112.361C207.052 112.27 207.032 112.173 207.032 112.075V104.077C207.032 103.979 207.051 103.881 207.089 103.791C207.126 103.7 207.181 103.617 207.25 103.548C207.319 103.478 207.402 103.423 207.492 103.385C207.583 103.348 207.68 103.328 207.778 103.328C207.877 103.328 207.974 103.348 208.064 103.385C208.155 103.423 208.237 103.478 208.307 103.548C208.376 103.617 208.431 103.7 208.468 103.791C208.506 103.881 208.525 103.979 208.525 104.077V112.068C208.526 112.167 208.507 112.264 208.47 112.356C208.433 112.447 208.378 112.53 208.309 112.601C208.239 112.671 208.157 112.726 208.066 112.764C207.975 112.802 207.877 112.822 207.778 112.822Z" fill="white"/>
<path d="M203.033 108.075C203.033 107.877 203.112 107.687 203.252 107.547C203.392 107.407 203.582 107.329 203.779 107.329H211.771C211.969 107.329 212.159 107.407 212.299 107.547C212.439 107.687 212.518 107.877 212.518 108.075C212.516 108.272 212.436 108.46 212.297 108.598C212.157 108.737 211.968 108.814 211.771 108.814H203.774C203.578 108.813 203.391 108.735 203.252 108.596C203.114 108.458 203.035 108.271 203.033 108.075Z" fill="white"/>
<path d="M199.649 218.171C199.551 218.171 199.454 218.152 199.363 218.114C199.272 218.077 199.19 218.022 199.121 217.952C199.052 217.883 198.997 217.801 198.959 217.71C198.922 217.62 198.902 217.523 198.902 217.425V209.424C198.902 209.226 198.981 209.036 199.121 208.896C199.261 208.756 199.451 208.678 199.649 208.678C199.847 208.678 200.036 208.756 200.176 208.896C200.316 209.036 200.395 209.226 200.395 209.424V217.425C200.395 217.523 200.376 217.62 200.338 217.71C200.301 217.801 200.246 217.883 200.176 217.952C200.107 218.022 200.025 218.077 199.934 218.114C199.844 218.152 199.747 218.171 199.649 218.171Z" fill="white"/>
<path d="M194.903 213.43C194.903 213.232 194.982 213.042 195.122 212.902C195.262 212.762 195.452 212.683 195.65 212.683H203.64C203.738 212.683 203.835 212.702 203.926 212.74C204.017 212.777 204.099 212.832 204.169 212.901C204.238 212.971 204.293 213.053 204.331 213.144C204.368 213.234 204.388 213.332 204.388 213.43C204.388 213.528 204.368 213.625 204.331 213.716C204.293 213.807 204.238 213.889 204.169 213.958C204.099 214.028 204.017 214.083 203.926 214.12C203.835 214.157 203.738 214.177 203.64 214.176H195.644C195.447 214.175 195.259 214.096 195.12 213.956C194.981 213.816 194.903 213.627 194.903 213.43Z" fill="white"/>
<path d="M133.096 161.244C132.547 161.244 132.011 161.081 131.555 160.776C131.099 160.471 130.743 160.038 130.533 159.531C130.323 159.024 130.269 158.466 130.376 157.928C130.483 157.389 130.747 156.895 131.135 156.507C131.523 156.119 132.018 155.855 132.556 155.748C133.094 155.641 133.652 155.696 134.159 155.907C134.665 156.117 135.098 156.473 135.403 156.929C135.708 157.386 135.87 157.923 135.87 158.471C135.869 159.207 135.576 159.912 135.056 160.432C134.536 160.951 133.831 161.244 133.096 161.244ZM133.096 156.461C132.698 156.461 132.31 156.579 131.98 156.8C131.649 157.021 131.392 157.335 131.24 157.702C131.087 158.069 131.048 158.474 131.125 158.863C131.203 159.253 131.394 159.612 131.675 159.893C131.956 160.174 132.314 160.365 132.704 160.443C133.094 160.52 133.498 160.48 133.865 160.328C134.232 160.176 134.546 159.919 134.767 159.588C134.987 159.258 135.105 158.869 135.105 158.471C135.105 157.938 134.893 157.427 134.516 157.051C134.139 156.674 133.629 156.462 133.096 156.461Z" fill="white"/>
<path d="M191.855 377.552H182.499L181.532 357.202H192.822L191.855 377.552Z" fill="#0E0E0E"/>
<path d="M354.455 377.552H345.1L344.132 357.202H355.423L354.455 377.552Z" fill="#0E0E0E"/>
<path d="M346.298 321.883C345.268 325.085 344.14 328.369 342.914 331.736H187.598C187.598 331.736 167.554 250.123 187.598 235.198C188.182 234.773 188.799 234.397 189.445 234.074C216.44 220.197 324.675 216.94 346.647 234.797C346.815 234.929 346.969 235.066 347.12 235.204C355.219 242.634 362.259 272.313 346.298 321.883Z" fill="#EA7B00"/>
<path d="M246.157 331.736H187.635L193.341 274.536C203.547 278.966 230.715 302.354 246.157 331.736Z" fill="#982C20"/>
<path d="M346.298 321.883C345.269 325.084 344.14 328.369 342.914 331.736H286.502C296.203 313.738 319.728 286.476 342.571 273.928L346.298 321.883Z" fill="#982C20"/>
<path d="M365.761 273.735H344.228C342.478 273.735 340.787 274.372 339.471 275.525C338.156 276.679 337.303 278.272 337.074 280.007L330.208 331.953H204.363L197.496 280.007C197.267 278.272 196.415 276.679 195.099 275.525C193.783 274.371 192.093 273.735 190.343 273.735H168.804C167.749 273.735 166.707 273.966 165.751 274.413C164.795 274.859 163.949 275.51 163.272 276.319C162.595 277.128 162.103 278.076 161.832 279.096C161.56 280.116 161.516 281.183 161.701 282.222L173.656 368.727H360.909L372.864 282.222C373.049 281.183 373.005 280.116 372.733 279.096C372.462 278.076 371.97 277.128 371.293 276.319C370.616 275.51 369.769 274.859 368.814 274.413C367.858 273.966 366.816 273.735 365.761 273.735Z" fill="#EA7B00"/>
<path d="M328.952 303.579C339.086 306.974 337.109 328.435 328.952 331.736H206.022C196.843 329.366 196.066 300.975 209.307 303.111C290.337 318.351 294.263 294.037 328.952 303.579Z" fill="#F2B066"/>
<path d="M235.262 281.826C235.202 286.948 235.487 292.068 236.116 297.152H293.757L297.172 240.85C293.739 220.286 284.374 215.302 269.539 215.302C256.26 215.302 247.417 226.137 242.043 240.641C237.396 253.172 235.339 268.437 235.262 281.826Z" fill="#007880"/>
<path d="M235.262 282.912L256.119 281.647C244.54 277.851 243.619 260.075 255.396 249.013L242.049 240.632C237.396 253.172 235.339 269.525 235.262 282.912Z" fill="#005459"/>
<path d="M231.286 308.787H310.48V281.827H239.143L231.286 308.787Z" fill="#0E0E0E"/>
<path d="M320.599 300.234L299.326 377.553H282.74C287.991 344.656 286.815 323.262 291.755 295.941C296.088 273.511 325.756 279.447 320.599 300.234Z" fill="#0E0E0E"/>
<path d="M293.37 377.552C293.37 377.499 293.37 377.449 293.37 377.398C293.352 376.024 293.607 374.659 294.12 373.384C294.633 372.109 295.395 370.949 296.36 369.971C297.325 368.992 298.475 368.215 299.742 367.685C301.01 367.155 302.37 366.882 303.744 366.882C305.119 366.882 306.479 367.155 307.747 367.685C309.014 368.215 310.164 368.992 311.129 369.971C312.094 370.949 312.856 372.109 313.369 373.384C313.882 374.659 314.137 376.024 314.119 377.398C314.119 377.449 314.119 377.499 314.119 377.552H293.37Z" fill="#B15626"/>
<path d="M305.741 367.212L301.97 366.059C299.48 361.161 288.864 361.768 290.342 367.729C286.186 368.349 283.985 366.274 283.985 366.274L282.74 377.552H305.233L305.741 367.212Z" fill="#B15626"/>
<path d="M227.196 300.234L248.467 377.553H265.054C259.803 344.656 260.98 323.262 256.039 295.941C251.705 273.511 222.039 279.447 227.196 300.234Z" fill="#0E0E0E"/>
<path d="M254.424 377.552C254.424 377.499 254.424 377.449 254.424 377.398C254.442 376.024 254.187 374.659 253.674 373.384C253.16 372.109 252.399 370.949 251.434 369.971C250.469 368.992 249.319 368.215 248.051 367.685C246.784 367.155 245.423 366.882 244.049 366.882C242.675 366.882 241.315 367.155 240.047 367.685C238.779 368.215 237.63 368.992 236.664 369.971C235.699 370.949 234.938 372.109 234.425 373.384C233.912 374.659 233.657 376.024 233.675 377.398C233.675 377.449 233.675 377.499 233.675 377.552H254.424Z" fill="#B15626"/>
<path d="M242.054 367.212L245.825 366.059C248.313 361.161 258.93 361.768 257.452 367.729C261.608 368.349 263.809 366.274 263.809 366.274L265.054 377.552H242.561L242.054 367.212Z" fill="#B15626"/>
<path d="M260.652 217.11C268.422 221.835 269.54 235.86 265.552 241.447L243.352 257.99L265.953 269.632L262.282 281.656C262.282 281.656 238.692 279.736 227.144 267.888C216.057 256.511 243.087 223.093 260.652 217.11Z" fill="#007880"/>
<path d="M276.434 238.385C269.779 230.027 274.374 217.11 282.858 217.491C310.48 227.218 319.007 254.23 310.256 266.355C302.759 276.743 269.781 280.743 269.781 280.743V269.37L292.697 264.417C292.697 264.417 280.879 246.103 276.434 238.385Z" fill="#007880"/>
<path d="M252.228 277.858C251.8 274.05 254.035 269.287 259.757 268.246C269.764 266.438 273.387 271.92 274.334 275.848C274.581 276.871 273.651 277.952 272.791 277.858C271.931 277.764 271.327 277.278 271.181 276.499C271 275.561 270.505 274.398 269.433 273.787C270.467 275.816 270.035 277.851 267.218 277.851L252.228 277.858Z" fill="#F7A594"/>
<path d="M274.833 277.847L282.708 238.341H284.377C283.835 241.064 276.096 280.593 275.854 281.827H252.246L249.668 277.851L274.833 277.847Z" fill="#99C1FF"/>
<path d="M284.37 238.341H342.977L334.31 281.827H275.847L284.37 238.341Z" fill="white"/>
<path d="M267.283 219.942C267.283 224.438 280.754 227.418 285.157 222.694C285.851 221.957 286.304 221.027 286.456 220.027L288.995 208.64L272.914 202.57L272.435 204.058L267.283 219.942Z" fill="#F7A594"/>
<path d="M286.456 220.027L288.995 208.64L273.774 204.539C269.835 216.273 283.892 225.643 286.456 220.027Z" fill="#F4856D"/>
<path d="M271.718 198.199C270.87 209.39 279.71 219.247 287.127 219.745C294.545 220.244 304.759 211.957 305.607 200.766C306.454 189.576 299.553 179.931 290.195 179.222C280.837 178.513 272.563 187.011 271.718 198.199Z" fill="#F7A594"/>
<path d="M284.118 180.07C294.376 173.563 300.019 179.681 305.129 186.163C308.714 190.713 311.253 193.981 315.712 194.658C307.133 205.486 289.971 198.342 284.565 187.493C284.033 193.67 276.755 198.785 271.717 198.194C270.084 191.327 274.843 177.434 284.118 180.07Z" fill="#0E0E0E"/>
<path d="M274.396 202.743C276.83 202.348 278.483 200.054 278.087 197.619C277.692 195.184 275.399 193.53 272.965 193.926C270.531 194.321 268.878 196.615 269.273 199.05C269.668 201.485 271.962 203.138 274.396 202.743Z" fill="#F7A594"/>
</g>
<defs>
<clipPath id="clip0_94_1012">
<rect width="405" height="382" fill="white"/>
</clipPath>
</defs>
</svg>
