<?xml version="1.0" standalone="no"?>
<!DOCTYPE svg PUBLIC "-//W3C//DTD SVG 20010904//EN"
 "http://www.w3.org/TR/2001/REC-SVG-20010904/DTD/svg10.dtd">
<svg version="1.0" xmlns="http://www.w3.org/2000/svg"
 width="64.000000pt" height="64.000000pt" viewBox="0 0 64.000000 64.000000"
 preserveAspectRatio="xMidYMid meet">
<metadata>
Created by potrace 1.14, written by Peter Selinger 2001-2017
</metadata>
<g transform="translate(0.000000,64.000000) scale(0.100000,-0.100000)"
fill="#000000" stroke="none">
<path d="M309 583 c0 -28 -2 -33 -8 -19 -7 18 -8 18 -14 2 -4 -10 -7 -32 -8
-49 0 -26 -2 -28 -8 -12 -8 19 -9 19 -16 -5 -5 -14 -8 -30 -7 -37 2 -7 -6 -9
-18 -6 -29 8 -111 -78 -128 -133 -24 -82 -4 -172 51 -233 33 -36 115 -71 167
-71 52 0 134 35 167 71 55 61 75 151 51 233 -15 50 -100 140 -126 133 -13 -3
-18 3 -20 20 -3 32 -11 45 -23 37 -6 -3 -9 0 -8 7 4 22 -11 60 -22 54 -5 -4
-9 3 -9 14 0 38 -20 33 -21 -6z m58 -105 c-3 -8 -6 -5 -6 6 -1 11 2 17 5 13 3
-3 4 -12 1 -19z m-149 -75 c1 -19 -1 -24 -7 -14 -14 21 -22 -2 -25 -73 -2 -65
-16 -96 -42 -96 -20 0 -17 -18 11 -67 25 -42 27 -43 53 -29 33 17 55 41 76 81
9 17 16 24 16 16 0 -21 -48 -80 -82 -101 -19 -11 -25 -20 -18 -25 20 -12 110
63 110 92 0 23 15 14 33 -19 10 -18 33 -44 52 -57 34 -23 36 -23 55 -6 11 10
17 22 14 27 -3 4 0 7 7 6 6 -2 14 3 16 10 3 6 -2 12 -11 12 -8 0 -18 4 -21 10
-4 7 2 7 19 1 19 -8 26 -6 30 5 10 26 7 44 -8 44 -25 0 -39 30 -41 88 -2 66
-13 105 -26 97 -5 -4 -9 -2 -9 4 0 22 18 19 43 -7 35 -37 67 -111 63 -147 -2
-17 -4 -39 -5 -51 -2 -35 -58 -109 -102 -133 -113 -64 -262 -1 -298 125 -21
73 13 177 71 218 12 9 23 16 23 16 0 0 2 -12 3 -27z m59 -55 c-3 -7 -5 -2 -5
12 0 14 2 19 5 13 2 -7 2 -19 0 -25z m0 -70 c-3 -8 -6 -5 -6 6 -1 11 2 17 5
13 3 -3 4 -12 1 -19z m60 -10 c-3 -7 -5 -2 -5 12 0 14 2 19 5 13 2 -7 2 -19 0
-25z m11 -49 c-3 -8 -7 -3 -11 10 -4 17 -3 21 5 13 5 -5 8 -16 6 -23z m135
-28 c-4 -6 -53 41 -53 50 0 4 13 -4 28 -19 15 -15 26 -29 25 -31z m-99 33 c3
-8 2 -12 -4 -9 -6 3 -10 10 -10 16 0 14 7 11 14 -7z m-194 -18 c0 -2 -7 -7
-16 -10 -8 -3 -12 -2 -9 4 6 10 25 14 25 6z m225 -36 c10 -11 16 -20 13 -20
-3 0 -13 9 -23 20 -10 11 -16 20 -13 20 3 0 13 -9 23 -20z m-230 0 c-3 -5 -12
-10 -18 -10 -7 0 -6 4 3 10 19 12 23 12 15 0z m55 6 c0 -2 -8 -10 -17 -17 -16
-13 -17 -12 -4 4 13 16 21 21 21 13z m195 -60 c6 -4 1 -4 -10 2 -11 6 -29 21
-40 34 -19 22 -19 22 10 -2 17 -14 35 -29 40 -34z"/>
</g>
</svg>
