<svg width="649" height="683" viewBox="0 0 649 683" fill="none" xmlns="http://www.w3.org/2000/svg">
<path d="M510.627 134.197L371.721 1.95197L370.135 4.8209L509.026 137.022L510.627 134.197Z" fill="#667F7D"/>
<path d="M521.118 140.079L518.494 139.473L567.18 277.831H571.043L521.118 140.079Z" fill="#667F7D"/>
<path d="M639.385 660.812C639.385 649.365 476.13 652.796 281.475 652.796C86.8202 652.796 -71 662.066 -71 673.513C-71 684.96 86.8058 694.244 281.475 694.244C476.145 694.244 639.385 672.259 639.385 660.812Z" fill="#EFB237"/>
<g style="mix-blend-mode:multiply" opacity="0.6">
<path d="M613.536 657.755C613.536 654.584 577.105 651.989 532.168 651.989C487.231 651.989 450.8 654.555 450.8 657.755C450.808 657.85 450.843 657.94 450.901 658.015C416.906 655.132 352.146 653.243 277.813 653.243C168.246 653.243 79.4244 657.424 79.4244 662.6C79.4244 667.775 168.246 671.956 277.813 671.956C343.539 671.956 401.797 670.514 437.839 668.121C430.112 669.837 425.628 671.841 425.628 674.003C425.628 680.145 461.858 685.133 506.55 685.133C551.241 685.133 587.485 680.145 587.485 674.003C587.485 669.13 564.663 664.993 532.932 663.479C577.538 663.45 613.536 660.898 613.536 657.755Z" fill="#614E68"/>
</g>
<g style="mix-blend-mode:multiply" opacity="0.6">
<path d="M421.694 663.94C378.602 660.97 326.875 658.462 305.451 663.061C320.416 673.441 413.793 674.162 421.694 663.94Z" fill="#614E68"/>
</g>
<path d="M325.902 290.975L323.164 404.632L327.17 404.729L329.908 291.071L325.902 290.975Z" fill="#605147"/>
<path d="M316.548 307.693L313.79 421.35L317.796 421.447L320.554 307.79L316.548 307.693Z" fill="#605147"/>
<path d="M331.699 323.766L329.426 437.457L333.433 437.537L335.707 323.846L331.699 323.766Z" fill="#605147"/>
<path d="M164.489 274.616L161.427 274.853L169.631 380.99L172.693 380.753L164.489 274.616Z" fill="#605147"/>
<path d="M156.206 291.856L153.144 292.09L161.274 398.233L164.335 397.998L156.206 291.856Z" fill="#605147"/>
<path d="M185.253 304.215L182.168 304.462L190.684 410.915L193.77 410.668L185.253 304.215Z" fill="#605147"/>
<path d="M435.717 591.265L428.768 662.297L441.542 662.816L448.894 591.265H435.717Z" fill="#605147"/>
<path d="M411.641 589.593L404.692 660.625L417.451 661.144L424.818 589.593H411.641Z" fill="#605147"/>
<path d="M383.889 588.252L376.94 659.284L389.699 659.803L397.066 588.252H383.889Z" fill="#605147"/>
<path d="M407.417 359.051L398.06 661.86L403.982 662.043L413.34 359.234L407.417 359.051Z" fill="#3F362C"/>
<path d="M379.022 381.466L370.459 660.126L380.46 660.433L389.022 381.773L379.022 381.466Z" fill="#3F362C"/>
<path d="M372.172 255.846L363.291 251.535L351.7 259.565L342.82 625.332L357.236 625.909L372.172 255.846Z" fill="#7B9B98"/>
<g style="mix-blend-mode:multiply" opacity="0.3">
<path d="M365.886 411.345L372.172 255.846L363.291 251.535L362.917 251.794L355.607 412.037L365.886 411.345Z" fill="#614E68"/>
</g>
<path d="M231.95 199.836L224.525 195.021L217.519 199.836V360.093H231.95V199.836Z" fill="#7B9B98"/>
<g style="mix-blend-mode:multiply" opacity="0.3">
<path d="M232.613 362.097V201.84L225.203 197.025L224.871 197.256V362.097H232.613Z" fill="#614E68"/>
</g>
<path d="M555.409 306.347L555.625 293.675L371.293 0.68335C371.293 0.68335 351.989 9.78032 350.014 10.4867C348.039 11.1932 340.744 34.8078 340.744 34.8078L544.625 304.733L555.409 306.347Z" fill="#D59C24"/>
<path d="M577.891 545.146L482.64 550.437L482.496 562.62L577.545 563.095L577.891 545.146Z" fill="#667F7D"/>
<path d="M574.129 523.377L480.867 535.559L480.737 547.655L573.783 541.153L574.129 523.377Z" fill="#667F7D"/>
<path d="M570.438 502.141L479.137 520.926L478.992 532.95L570.106 519.73L570.438 502.141Z" fill="#667F7D"/>
<g style="mix-blend-mode:overlay" opacity="0.7">
<path d="M479.137 520.926L478.992 532.95L559.568 521.258L568.016 502.646L479.137 520.926Z" fill="#FFF7DB"/>
</g>
<g style="mix-blend-mode:overlay" opacity="0.7">
<path d="M480.867 535.559L480.737 547.655L549.779 542.825L557.621 525.525L480.867 535.559Z" fill="#FFF7DB"/>
</g>
<g style="mix-blend-mode:overlay" opacity="0.7">
<path d="M482.64 550.437L482.496 562.619L540.667 562.922L547.977 546.804L482.64 550.437Z" fill="#FFF7DB"/>
</g>
<path d="M579.463 631.791L549.635 624.727L531.109 645.833L530.965 654.973L573.134 655.233L579.463 631.791Z" fill="#415957"/>
<path d="M521.753 644.06L495.629 625.001L463.322 629.974L468.05 655.463L519.85 654.339L521.753 644.06Z" fill="#415957"/>
<path d="M488.81 607.441L496.437 630.738L519.431 642.329L535.823 644.146L561.528 632.829L568.996 610.468L488.81 607.441Z" fill="#415957"/>
<path d="M132.622 269.037L124.563 263.905L118.234 269.988L142.411 634.819L156.799 633.867L132.622 269.037Z" fill="#667F7D"/>
<g style="mix-blend-mode:multiply" opacity="0.3">
<path d="M141.863 408.577L132.622 269.037L124.563 263.905L123.049 265.346L133.92 412.7L141.863 408.577Z" fill="#614E68"/>
</g>
<path d="M281.832 271.315L276.699 267.249L271.927 271.084L263.71 625.592L273.614 625.808L281.832 271.315Z" fill="#667F7D"/>
<g style="mix-blend-mode:multiply" opacity="0.3">
<path d="M280.265 382.28L282.831 271.315L277.8 267.336L276.027 382.28H280.265Z" fill="#614E68"/>
</g>
<path d="M527.289 233.572L503.054 221.49L503.242 581.549L538.75 580.684L527.289 233.572Z" fill="#D59C24"/>
<path d="M585.604 574.167L552.158 563.571L477.565 588.353L484.255 619.479L577.574 623.458L585.604 574.167Z" fill="#D59C24"/>
<path d="M500.387 214.945L512.338 132.654L516.361 134.831L506.067 215.421L500.387 214.945Z" fill="#D59C24"/>
<path d="M520.268 236.224L513.348 132.928L517.846 133.577L526.481 235.431L520.268 236.224Z" fill="#D59C24"/>
<g style="mix-blend-mode:overlay" opacity="0.4">
<path d="M567.252 585.917L523.67 574.657L516.245 250.598L503.069 244.918L503.242 579.819L477.565 588.353L484.255 619.479L497.201 620.041L488.536 592.015L567.252 585.917Z" fill="#FFF7DB"/>
</g>
<path d="M56.2037 384.729L53.912 386.596L66.1023 401.564L68.3939 399.697L56.2037 384.729Z" fill="#C49C37"/>
<path d="M28.2737 386.418H27.2645V490.723H28.2737V386.418Z" fill="#634228"/>
<path d="M63.6525 425.588H62.2685V427.679H63.6525V425.588Z" fill="url(#paint0_linear_29_2505)"/>
<path d="M74.0901 384.558L67.8332 383.16L60.8699 427.664H74.0901V384.558Z" fill="#FFC61B"/>
<path d="M74.0903 408.721H63.8399L62.528 417.068H74.0903V408.721Z" fill="#C65C2E"/>
<g style="mix-blend-mode:multiply" opacity="0.5">
<path d="M67.1413 426.511L74.0902 424.968V389.878L70.6157 390.209L67.1413 426.511Z" fill="#C49C37"/>
</g>
<path d="M67.0403 379.685L34.0115 381.084V385.25L67.5737 388.033L67.0403 379.685Z" fill="#FFC61B"/>
<path d="M67.5737 388.033L67.271 383.405H34.0115V383.477L34.79 385.322L67.5737 388.033Z" fill="#C49C37"/>
<path d="M64.3588 385.25C64.3588 386.488 64.7257 387.697 65.4132 388.726C66.1007 389.755 67.0779 390.557 68.2212 391.031C69.3645 391.504 70.6226 391.628 71.8363 391.387C73.05 391.145 74.1648 390.549 75.0399 389.674C75.9149 388.799 76.5108 387.685 76.7523 386.471C76.9937 385.257 76.8698 383.999 76.3962 382.856C75.9226 381.712 75.1207 380.735 74.0918 380.048C73.0628 379.36 71.8531 378.993 70.6156 378.993C68.9562 378.993 67.3647 379.652 66.1913 380.826C65.018 381.999 64.3588 383.591 64.3588 385.25Z" fill="#C49C37"/>
<path d="M36.5344 385.25C36.5344 384.081 36.1878 382.938 35.5383 381.966C34.8888 380.994 33.9656 380.237 32.8856 379.789C31.8055 379.342 30.617 379.225 29.4704 379.453C28.3238 379.681 27.2706 380.244 26.444 381.071C25.6173 381.897 25.0544 382.95 24.8263 384.097C24.5982 385.244 24.7153 386.432 25.1626 387.512C25.61 388.592 26.3676 389.515 27.3397 390.165C28.3117 390.814 29.4545 391.161 30.6236 391.161C31.3998 391.161 32.1684 391.008 32.8856 390.711C33.6027 390.414 34.2543 389.979 34.8032 389.43C35.3521 388.881 35.7875 388.229 36.0845 387.512C36.3816 386.795 36.5344 386.026 36.5344 385.25Z" fill="#C49C37"/>
<path d="M90.8281 426.179C90.9042 425.776 90.8894 425.361 90.7846 424.965C90.6799 424.568 90.4878 424.2 90.2225 423.887C89.9504 423.581 89.6144 423.338 89.2383 423.176C88.8621 423.014 88.455 422.937 88.0456 422.95L46.8426 424.738C46.4158 424.759 45.9981 424.868 45.6159 425.059C45.2337 425.251 44.8954 425.519 44.6224 425.848C44.3466 426.173 44.1425 426.554 44.0232 426.963C43.904 427.373 43.8724 427.804 43.9304 428.226L45.0405 436.545L89.3864 433.777L90.8281 426.179Z" fill="#C49C37"/>
<path d="M34.8045 385.25C34.8045 384.423 34.5593 383.615 34.0999 382.927C33.6405 382.24 32.9875 381.704 32.2236 381.388C31.4596 381.071 30.619 380.988 29.808 381.15C28.997 381.311 28.252 381.709 27.6673 382.294C27.0826 382.879 26.6844 383.624 26.5231 384.435C26.3618 385.246 26.4446 386.086 26.761 386.85C27.0774 387.614 27.6133 388.267 28.3008 388.726C28.9884 389.186 29.7967 389.431 30.6236 389.431C31.7324 389.431 32.7959 388.991 33.5799 388.206C34.364 387.422 34.8045 386.359 34.8045 385.25Z" fill="#FFC61B"/>
<path d="M65.6565 385.25C65.6536 386.232 65.942 387.192 66.4852 388.009C67.0284 388.827 67.802 389.465 68.7079 389.842C69.6139 390.22 70.6115 390.32 71.5745 390.13C72.5374 389.941 73.4225 389.47 74.1175 388.777C74.8125 388.084 75.2863 387.2 75.4788 386.238C75.6713 385.275 75.574 384.277 75.199 383.37C74.8241 382.463 74.1884 381.688 73.3726 381.142C72.5567 380.597 71.5973 380.305 70.6158 380.305C69.303 380.305 68.0437 380.826 67.1141 381.753C66.1845 382.68 65.6603 383.937 65.6565 385.25Z" fill="#FFC61B"/>
<path style="mix-blend-mode:overlay" d="M90.828 426.179C90.9042 425.776 90.8894 425.361 90.7846 424.965C90.6798 424.568 90.4878 424.2 90.2225 423.887C89.9504 423.581 89.6144 423.338 89.2382 423.176C88.862 423.014 88.4549 422.937 88.0456 422.95L46.8569 424.738C46.4284 424.76 46.0091 424.87 45.6247 425.061C45.2404 425.252 44.8993 425.52 44.6223 425.848C44.3514 426.176 44.1513 426.557 44.0347 426.966C43.9181 427.376 43.8875 427.805 43.9447 428.226L44.3196 431.11L90.6838 427.059L90.828 426.179Z" fill="url(#paint1_linear_29_2505)"/>
<path d="M56.4115 435.553L53.1769 435.798L53.51 440.197L56.7445 439.952L56.4115 435.553Z" fill="#9B7623"/>
<path d="M83.1359 434.169L79.9037 434.443L80.2767 438.839L83.5089 438.565L83.1359 434.169Z" fill="#9B7623"/>
<path d="M30.1045 487.479C29.7809 487.144 29.3878 486.884 28.9529 486.718C28.518 486.551 28.0519 486.482 27.5873 486.515C27.1227 486.548 26.671 486.682 26.264 486.909C25.857 487.135 25.5046 487.448 25.2316 487.825C24.1792 489.397 25.0586 493.909 28.0141 496.331C30.7965 493.03 31.3443 488.921 30.1045 487.479Z" fill="#9B7623"/>
<path d="M30.1046 496.864C30.1075 496.485 29.9975 496.113 29.7885 495.795C29.5796 495.478 29.2811 495.23 28.931 495.083C28.5809 494.935 28.1949 494.895 27.8221 494.968C27.4492 495.04 27.1062 495.222 26.8366 495.489C26.567 495.757 26.3829 496.098 26.3078 496.471C26.2326 496.843 26.2697 497.229 26.4144 497.58C26.5591 497.932 26.8048 498.232 27.1205 498.443C27.4361 498.655 27.8074 498.767 28.1872 498.767C28.4383 498.769 28.6873 498.722 28.9199 498.627C29.1524 498.532 29.3639 498.392 29.5422 498.215C29.7204 498.038 29.8619 497.828 29.9584 497.596C30.0549 497.364 30.1046 497.116 30.1046 496.864Z" fill="#C49C37"/>
<path d="M31.9355 508.744C27.3654 506.452 29.3982 498.652 28.4322 498.652C27.4663 498.652 26.659 500.93 26.659 503.727C26.6571 504.427 26.7102 505.126 26.8176 505.817C26.8864 506.524 27.0818 507.213 27.3942 507.85V507.994C27.8311 508.853 28.4947 509.576 29.313 510.084C30.1313 510.592 31.0732 510.867 32.0364 510.878C33.5101 510.821 34.9012 510.182 35.9041 509.101C36.907 508.02 37.4396 506.585 37.385 505.111C35.9434 504.145 35.929 509.623 31.9355 508.744Z" fill="#42392B"/>
<g style="mix-blend-mode:multiply" opacity="0.5">
<path d="M89.3862 431.384L44.6511 434.628V437.179L89.3862 433.936V431.384Z" fill="#3D3028"/>
</g>
<path d="M66.6078 385.25C66.6049 386.044 66.8375 386.82 67.2762 387.481C67.7148 388.142 68.3398 388.658 69.0718 388.963C69.8039 389.269 70.6102 389.35 71.3886 389.197C72.167 389.044 72.8825 388.664 73.4444 388.104C74.0064 387.544 74.3896 386.83 74.5454 386.052C74.7012 385.274 74.6226 384.467 74.3197 383.734C74.0168 383.001 73.5031 382.374 72.8437 381.933C72.1843 381.492 71.4089 381.257 70.6156 381.257C69.5552 381.257 68.5379 381.677 67.7867 382.426C67.0355 383.174 66.6116 384.19 66.6078 385.25Z" fill="#604F35"/>
<path d="M27.4087 385.25C27.4058 385.918 27.6012 386.572 27.9702 387.128C28.3391 387.685 28.865 388.12 29.4812 388.377C30.0973 388.635 30.7761 388.704 31.4314 388.575C32.0868 388.447 32.6892 388.126 33.1625 387.655C33.6357 387.184 33.9584 386.583 34.0898 385.928C34.2211 385.273 34.1552 384.594 33.9003 383.977C33.6454 383.36 33.213 382.832 32.6579 382.461C32.1028 382.089 31.45 381.891 30.7822 381.891C29.89 381.891 29.0341 382.245 28.4018 382.874C27.7696 383.504 27.4125 384.358 27.4087 385.25Z" fill="#604F35"/>
<path d="M314.26 366.263L310.18 353.605V353.476H310.094V353.404H309.921L298.272 352.164C295.662 356.979 293.947 362.039 291.583 372.491C290.271 375.375 290.501 394.117 291.583 394.117H294.927C293.327 386.404 293.341 381.632 294.927 373.097L301.141 373.861C302.381 381.545 303.664 386.836 301.141 394.362H304.413C306.59 387.341 305.307 380.435 304.413 371.511C304.053 365.038 305.336 362.371 308.364 359.041L311.045 367.273L314.26 366.263Z" fill="url(#paint2_linear_29_2505)"/>
<g style="mix-blend-mode:multiply" opacity="0.3">
<path d="M291.842 380.882C291.798 385.392 292.479 389.88 293.86 394.174H294.725C293.111 386.461 293.125 381.675 294.725 373.14L300.982 373.904C302.222 381.588 303.52 386.879 300.982 394.405H304.414C306.605 387.398 305.322 380.478 304.414 371.554C304.053 365.081 305.336 362.414 308.393 359.084L311.103 367.316L314.303 366.263L310.267 354.009C309.236 353.655 308.156 353.47 307.066 353.461C297.868 353.461 291.842 366.681 291.842 380.882Z" fill="#614E68"/>
</g>
<path d="M298.214 352.193C295.763 352.899 295.331 354.615 295.98 357.253C296.355 360.915 296.917 363.856 299.238 366.624L301.573 364.101C299.58 360.432 298.432 356.363 298.214 352.193Z" fill="#F9D12B"/>
<path d="M313.633 365.917L311.56 366.536L313.654 373.554L315.726 372.936L313.633 365.917Z" fill="#F4C78C"/>
<path d="M300.926 364.158L299.214 365.479L305.202 373.241L306.914 371.92L300.926 364.158Z" fill="#F4C78C"/>
<path d="M309.517 351.601C309.595 350.693 309.398 349.782 308.95 348.988C308.502 348.194 307.824 347.553 307.006 347.151C306.188 346.748 305.267 346.602 304.365 346.731C303.462 346.86 302.62 347.259 301.948 347.876C301.275 348.492 300.805 349.297 300.598 350.185C300.391 351.073 300.457 352.003 300.788 352.852C301.118 353.702 301.697 354.433 302.45 354.948C303.202 355.463 304.093 355.739 305.005 355.739C305.573 355.764 306.14 355.677 306.675 355.483C307.209 355.288 307.7 354.99 308.119 354.606C308.538 354.222 308.877 353.758 309.117 353.243C309.357 352.727 309.493 352.17 309.517 351.601Z" fill="#F4C78C"/>
<g style="mix-blend-mode:multiply" opacity="0.3">
<path d="M301.934 351.904C301.953 352.713 302.209 353.497 302.67 354.161C303.131 354.825 303.778 355.339 304.529 355.638H305.005C305.573 355.663 306.14 355.576 306.674 355.382C307.209 355.187 307.7 354.89 308.119 354.505C308.538 354.121 308.877 353.658 309.117 353.142C309.357 352.627 309.493 352.069 309.517 351.501C309.501 350.69 309.246 349.902 308.785 349.235C308.323 348.568 307.675 348.053 306.922 347.752H306.446C305.877 347.727 305.308 347.815 304.773 348.01C304.238 348.205 303.746 348.505 303.327 348.89C302.908 349.276 302.569 349.741 302.33 350.258C302.091 350.776 301.956 351.335 301.934 351.904Z" fill="#614E68"/>
</g>
<g style="mix-blend-mode:multiply" opacity="0.5">
<path d="M308.984 353.447C309.327 352.871 309.511 352.214 309.517 351.544C309.501 350.733 309.246 349.945 308.785 349.279C308.323 348.612 307.675 348.096 306.922 347.796C306.318 347.528 305.665 347.391 305.005 347.392C304.435 347.367 303.867 347.454 303.331 347.65C302.796 347.845 302.305 348.144 301.885 348.53C301.466 348.916 301.127 349.381 300.888 349.898C300.649 350.415 300.514 350.975 300.492 351.544C300.497 352.197 300.671 352.838 300.997 353.404C303.595 354.218 306.377 354.233 308.984 353.447Z" fill="#3D3028"/>
</g>
<path d="M310.959 351.356C310.847 349.735 310.103 348.221 308.887 347.143C307.671 346.064 306.08 345.506 304.457 345.59C303.127 345.69 301.874 346.247 300.909 347.167C299.945 348.087 299.329 349.313 299.166 350.636C299.166 354.759 310.959 353.879 310.959 351.356Z" fill="#EA7A2F"/>
<g style="mix-blend-mode:overlay" opacity="0.6">
<path d="M309.171 347.406C308.574 346.766 307.84 346.269 307.023 345.954C306.206 345.64 305.329 345.515 304.457 345.59C303.127 345.69 301.874 346.247 300.909 347.167C299.945 348.087 299.329 349.313 299.166 350.636C299.181 351.028 299.302 351.409 299.515 351.738C299.728 352.068 300.025 352.334 300.377 352.51C301.301 352.438 302.215 352.264 303.101 351.991C304.37 351.676 305.562 351.108 306.606 350.32C307.649 349.532 308.521 348.541 309.171 347.406Z" fill="#FFFAC6"/>
</g>
<path d="M144.66 357.685L146.577 358.161L147.37 362.976L145.828 363.51L144.66 357.685Z" fill="#F4C78C"/>
<path d="M146.138 357.529L144.754 357.542L144.793 361.867L146.177 361.854L146.138 357.529Z" fill="#A06B47"/>
<path d="M147.644 362.385C148.034 365.11 149.475 366.494 153.411 366.494C154.002 367.806 153.743 368.411 152.503 368.844C150.769 368.865 149.085 368.259 147.761 367.139C146.437 366.019 145.561 364.459 145.294 362.746L147.644 362.385Z" fill="url(#paint3_linear_29_2505)"/>
<path d="M149.418 383.462L148.596 365.903L156.857 363.971L158.803 382.713C158.544 389.849 159.221 395.818 161.686 399.681L158.169 400.215C156.208 397.331 155.401 389.979 155.415 382.915L153.209 383.088C152.431 390.137 152.099 395.731 153.555 400.936H149.85C148.953 395.109 148.841 389.189 149.519 383.333L149.418 383.462Z" fill="url(#paint4_linear_29_2505)"/>
<path d="M145.021 364.346C146.03 367.33 147.457 368.296 151.681 367.301C152.589 368.628 152.46 369.392 151.22 370.185C149.348 370.625 147.378 370.345 145.703 369.399C144.028 368.453 142.771 366.912 142.181 365.081L145.021 364.346Z" fill="url(#paint5_linear_29_2505)"/>
<path d="M157.333 361.838C157.483 362.709 157.362 363.605 156.988 364.406C156.613 365.207 156.001 365.874 155.236 366.316C154.471 366.759 153.588 366.956 152.707 366.882C151.826 366.808 150.989 366.465 150.308 365.9C149.628 365.336 149.137 364.576 148.902 363.724C148.666 362.871 148.698 361.967 148.992 361.134C149.286 360.3 149.829 359.576 150.547 359.06C151.265 358.544 152.124 358.261 153.008 358.248C154.055 358.163 155.093 358.491 155.901 359.162C156.709 359.833 157.223 360.793 157.333 361.838Z" fill="#F4C78C"/>
<path d="M146.835 354.358L140.506 354.421L140.548 358.587L146.877 358.524L146.835 354.358Z" fill="#A06B47"/>
<path d="M143.19 358.089L145.295 358.594L144.357 364.923L142.642 365.586L143.19 358.089Z" fill="#F4C78C"/>
<path d="M141.197 355.297L139.813 355.311L139.837 357.675L141.221 357.661L141.197 355.297Z" fill="#A06B47"/>
<path d="M140.531 356.313L136.263 356.356L136.269 356.875L140.536 356.832L140.531 356.313Z" fill="#A06B47"/>
<path d="M147.89 358.694C148.519 357.542 149.574 356.682 150.829 356.296C152.084 355.911 153.44 356.032 154.608 356.633C157.491 357.858 159.25 360.958 158.342 363.106C157.433 365.254 154.68 364.908 151.796 363.683C148.913 362.457 146.981 360.842 147.89 358.694Z" fill="#EA7A2F"/>
<g style="mix-blend-mode:overlay" opacity="0.6">
<path d="M153.728 359.43C154.518 359.577 155.269 359.888 155.932 360.342C156.595 360.797 157.155 361.384 157.578 362.068C157.578 362.068 157.578 362.068 157.578 362.14C156.813 363.957 154.478 363.668 152.027 362.63C150.723 362.205 149.587 361.377 148.783 360.266C149.547 359.271 151.566 358.896 153.728 359.43Z" fill="#FFFAC6"/>
</g>
<g style="mix-blend-mode:multiply" opacity="0.3">
<path d="M153.065 383.808C152.33 390.555 152.056 395.991 153.469 401.108H152.806C151.071 395.458 151.162 389.404 153.065 383.808Z" fill="#614E68"/>
</g>
<path d="M445.004 439.673L238.138 336.248L43.6419 438.78L44.3051 446.147L235.457 488.719L445.898 447.819L445.004 439.673Z" fill="#89CEC8"/>
<path d="M445.898 447.704L239.032 344.263L43.7428 445.916L236.351 496.749L445.898 447.704Z" fill="url(#paint6_linear_29_2505)"/>
<path d="M120.541 441.461L239.248 388.624L363.968 444.806L357.884 481.814L124.606 480.588L120.541 441.461Z" fill="#667F7D"/>
<g style="mix-blend-mode:overlay" opacity="0.4">
<path d="M239.926 404.453L216.513 416.39V429.423L199.285 435.781L199.458 421.061L121.781 453.052L124.174 482.952L237.692 484.928L239.926 404.453Z" fill="#FFFAC6"/>
</g>
<path d="M143.276 414.372L136.933 411.027L127.908 416.015L132.42 484.221L146.823 483.255L143.276 414.372Z" fill="#667F7D"/>
<g style="mix-blend-mode:multiply" opacity="0.3">
<path d="M146.679 480.617L143.276 414.372L136.933 411.027L135.852 411.618L140.451 481.021L146.679 480.617Z" fill="#614E68"/>
</g>
<g style="mix-blend-mode:multiply" opacity="0.3">
<path d="M359.884 481.814L365.968 444.806L241.248 388.624L239.951 481.179L359.884 481.814Z" fill="#614E68"/>
</g>
<g style="mix-blend-mode:multiply" opacity="0.3">
<path d="M252.623 404.006L253.07 430.317L281.154 441.461L281.601 415.15L252.623 404.006Z" fill="#614E68"/>
</g>
<g style="mix-blend-mode:multiply" opacity="0.5">
<path d="M253.07 411.143L252.84 425.631L277.809 434.555L277.146 420.513L253.07 411.143Z" fill="#614E68"/>
</g>
<g style="mix-blend-mode:multiply" opacity="0.3">
<path d="M313.366 424.968L313.813 451.264L341.897 462.409L342.344 436.112L313.366 424.968Z" fill="#614E68"/>
</g>
<path d="M445.004 491.949L238.138 421.84L42.8633 490.738L44.6366 496.302L235.457 525.194L445.898 497.297L445.004 491.949Z" fill="#89CEC8"/>
<path d="M445.898 497.398L239.032 427.29L43.7428 496.187L236.351 530.629L445.898 497.398Z" fill="url(#paint7_linear_29_2505)"/>
<path d="M121.089 497.643L239.032 457.954L358.086 500.973L357.884 538.89L124.606 537.65L121.089 497.643Z" fill="#667F7D"/>
<g style="mix-blend-mode:overlay" opacity="0.4">
<path d="M237.908 490.449L228.551 494.457L228.724 503.741L183.326 513.343L178.309 501.146L170.697 536.756L238.585 547.785L237.908 490.449Z" fill="#FFFAC6"/>
</g>
<path d="M258.001 501.694C257.673 498.244 258.244 494.767 259.659 491.603L253.733 485L255.68 483.385L261.994 488.892L269.275 490.449C266.634 494.951 265.736 500.265 266.752 505.385L268.611 518.072L265.858 518.447L263.868 504.924L260.596 504.419L259.904 517.394L257.121 517.25L257.957 501.723L258.001 501.694Z" fill="url(#paint8_linear_29_2505)"/>
<path d="M263.335 483.861C264.227 482.977 265.424 482.469 266.68 482.443C267.935 482.416 269.153 482.872 270.082 483.717C270.544 484.11 270.921 484.593 271.19 485.138C271.459 485.682 271.613 486.275 271.644 486.882C271.675 487.488 271.582 488.094 271.37 488.663C271.159 489.232 270.833 489.751 270.413 490.19C268.64 492.035 261.605 485.677 263.335 483.861Z" fill="#A35B2B"/>
<path d="M262.845 487.119C262.718 486.298 262.846 485.459 263.211 484.713C263.576 483.967 264.16 483.35 264.886 482.947C265.612 482.543 266.443 482.371 267.27 482.454C268.096 482.537 268.877 482.871 269.508 483.412C270.138 483.952 270.588 484.672 270.797 485.476C271.006 486.28 270.964 487.128 270.677 487.907C270.389 488.686 269.87 489.358 269.189 489.833C268.508 490.309 267.697 490.564 266.867 490.565C265.878 490.636 264.9 490.315 264.147 489.669C263.394 489.024 262.926 488.108 262.845 487.119Z" fill="#F4C78C"/>
<path d="M267.819 486.009C266.6 484.885 265.109 484.1 263.494 483.731C264.395 482.912 265.57 482.459 266.788 482.459C268.006 482.459 269.18 482.912 270.082 483.731C270.532 484.116 270.9 484.587 271.166 485.116C271.431 485.645 271.589 486.221 271.629 486.812C271.67 487.402 271.592 487.995 271.4 488.555C271.209 489.116 270.908 489.632 270.515 490.074C270.008 488.496 269.075 487.089 267.819 486.009Z" fill="#EA7A2F"/>
<g style="mix-blend-mode:multiply" opacity="0.3">
<path d="M258.246 496.187C258.55 494.609 259.034 493.071 259.687 491.602L253.762 485L255.708 483.385L262.023 488.892L263.811 489.281C263.225 488.701 262.889 487.915 262.874 487.09C262.884 486.552 263.033 486.026 263.306 485.562C263.126 485.315 263.028 485.017 263.028 484.711C263.028 484.405 263.126 484.108 263.306 483.861L263.465 483.731C264.348 482.914 265.505 482.457 266.708 482.448H266.824C267.078 482.426 267.334 482.426 267.588 482.448L267.876 482.534C268.072 482.567 268.265 482.615 268.453 482.679C268.618 482.741 268.777 482.818 268.929 482.909C269.044 482.909 269.174 483.01 269.289 483.082C269.562 483.244 269.818 483.432 270.053 483.644C270.291 483.853 270.509 484.085 270.702 484.336C270.774 484.452 270.832 484.567 270.918 484.682C271.005 484.798 271.091 484.956 271.163 485.101C271.235 485.245 271.307 485.475 271.379 485.677C271.415 485.757 271.444 485.838 271.466 485.922C271.529 486.168 271.572 486.419 271.596 486.672C271.596 486.672 271.596 486.744 271.596 486.773C271.676 487.335 271.627 487.907 271.452 488.447C271.277 488.987 270.981 489.479 270.587 489.887C270.313 490.175 269.981 490.838 269.491 490.781C268.322 492.629 267.411 494.627 266.78 496.72C265.044 496.094 263.219 495.743 261.374 495.682C260.314 495.718 259.263 495.888 258.246 496.187Z" fill="#614E68"/>
</g>
<path d="M260.206 487.883L261.562 485.792L269.635 490.665L268.28 492.756L260.206 487.883Z" fill="#F9D12B"/>
<path d="M250.086 478.267L255.521 483.745L254.18 484.971L248.745 479.493L250.086 478.267Z" fill="#F4C78C"/>
<g style="mix-blend-mode:multiply" opacity="0.3">
<path d="M250.706 479.622L255.521 483.745L254.18 484.971L248.745 479.492L250.706 479.622Z" fill="#614E68"/>
</g>
<path d="M254.887 482.059L261.518 486.124L260.524 487.623L253.892 483.558L254.887 482.059Z" fill="#F4C78C"/>
<g style="mix-blend-mode:multiply" opacity="0.3">
<path d="M359.884 538.889L360.086 500.973L241.032 456.844L238.581 534.189L359.884 538.889Z" fill="#614E68"/>
</g>
<path d="M444.557 545.449L239.58 500.973L43.6419 544.454L43.8005 550.293L235.457 568.256L445.566 550.971L444.557 545.449Z" fill="#89CEC8"/>
<g style="mix-blend-mode:multiply" opacity="0.3">
<path d="M154.997 533.527L158.558 518.821L87.887 534.637L86.7769 539.538L154.997 533.527Z" fill="#614E68"/>
</g>
<path d="M445.898 550.942L239.032 507.259L43.7428 550.192L236.351 571.644L445.898 550.942Z" fill="url(#paint9_linear_29_2505)"/>
<path d="M121.089 551.245L242.651 530.312L358.086 551.764L357.884 605.091L124.606 603.866L121.089 551.245Z" fill="#667F7D"/>
<g style="mix-blend-mode:overlay" opacity="0.4">
<path d="M241.252 556.492L187.752 562.172L168.361 592.26L237.907 602.626L241.252 556.492Z" fill="#FFFAC6"/>
</g>
<g style="mix-blend-mode:multiply" opacity="0.3">
<path d="M245.04 530.182L243.252 605.307L360.288 605.971V551.576L245.04 530.182Z" fill="#614E68"/>
</g>
<path d="M444.889 587.921L237.244 564.84L43.9735 587.243L43.6419 592.606L235.457 605.264L445.566 593.097L444.889 587.921Z" fill="#89CEC8"/>
<g style="mix-blend-mode:multiply" opacity="0.3">
<path d="M132.925 585.917C140.292 582.803 142.93 580.554 144.963 575.652L63.8109 584.302L63.364 591.222L132.925 585.917Z" fill="#614E68"/>
</g>
<path d="M445.898 593.053L239.032 573.201L43.7428 592.707L236.581 605.971L445.898 593.053Z" fill="url(#paint10_linear_29_2505)"/>
<path d="M141.705 654.973C141.286 638.725 119.186 608.955 97.0127 609.531C74.8397 610.108 65.2237 639.086 65.6418 655.333C83.8646 656.775 140.825 660.696 141.705 654.973Z" fill="#634228"/>
<path style="mix-blend-mode:overlay" d="M118.681 626.111C119.724 624.118 120.653 622.067 121.464 619.969C114.154 613.64 105.605 609.315 96.9551 609.532C75.6183 610.08 65.9446 636.923 65.5986 653.387C84.3837 659.428 107.148 648.154 118.681 626.111Z" fill="url(#paint11_linear_29_2505)"/>
<path d="M99.3772 596.989L236.884 585.066L382.58 596.398L383.575 661.619L103.601 660.134L99.3772 596.989Z" fill="#526866"/>
<g style="mix-blend-mode:multiply" opacity="0.3">
<path d="M238.884 585.066L243.93 659.471L364.295 662.816L370.322 593.933L238.884 585.066Z" fill="#614E68"/>
</g>
<g style="mix-blend-mode:overlay" opacity="0.4">
<path d="M365.973 26.8353L372.965 3.33603L371.293 0.68335C371.293 0.68335 351.989 9.78032 350.014 10.4867C348.039 11.1932 340.744 34.8078 340.744 34.8078L496.156 240.592L509.521 240.852L365.973 26.8353Z" fill="#FFF7DB"/>
</g>
<path d="M391.386 80.7107H387.839L387.623 439.298L391.112 439.313L391.386 80.7107Z" fill="#D59C24"/>
<path d="M536.487 226.118L521.018 228.684L515.741 260.834L529.134 275.164L545.858 270.925L549.865 242.164L536.487 226.118Z" fill="url(#paint12_linear_29_2505)"/>
<path d="M148.293 460.188C149.865 494.918 149.951 527.846 146.289 549.125C142.627 566.887 141.07 576.589 125.558 583.235C109.007 592.779 85.7677 589.262 81.7598 586.249C75.6615 589.564 58.1596 593.788 46.3811 593.832C45.5633 593.837 44.7536 593.669 44.0058 593.338C43.258 593.007 42.5892 592.52 42.0438 591.911C41.4984 591.301 41.0889 590.583 40.8425 589.803C40.596 589.023 40.5183 588.2 40.6144 587.387C44.3772 553.249 47.5633 527.918 42.8778 490.795C56.6747 493.376 68.2225 493.318 76.0364 478.296C90.136 479.81 100.069 474.533 112.078 464.932C127.23 469.271 135.087 467.368 148.293 460.188Z" fill="#BFBF84"/>
<path style="mix-blend-mode:overlay" d="M75.9643 578.665C79.9722 581.678 103.212 585.196 119.762 575.652C135.275 569.006 136.832 559.303 140.494 541.556C143.795 522.397 144.04 493.779 142.916 462.927C132.694 467.772 118.869 475.903 112.194 464.859C100.112 474.475 86.7769 487.609 76.0797 478.238C68.2081 493.26 49.6538 498.969 42.9211 490.737C47.5633 527.515 47.8084 552.196 44.5214 585.729C55.3484 576.777 69.9381 581.952 75.9643 578.665Z" fill="url(#paint13_linear_29_2505)"/>
<path d="M79.8136 534.219C80.0315 539.46 79.6835 544.709 78.7756 549.875C75.8057 567.319 67.7612 580.583 60.4951 580.352C62.8018 584.677 65.6851 587.258 68.828 587.258C76.3968 587.258 82.5383 572.38 82.5383 554.099C82.6074 547.375 81.6894 540.676 79.8136 534.219Z" fill="#BFBF84"/>
<path d="M148.077 461.63C148.077 460.945 147.874 460.276 147.493 459.706C147.112 459.137 146.571 458.694 145.938 458.432C145.304 458.171 144.608 458.103 143.936 458.238C143.265 458.372 142.648 458.703 142.165 459.189C141.682 459.674 141.353 460.292 141.222 460.964C141.09 461.636 141.16 462.332 141.424 462.964C141.688 463.596 142.134 464.136 142.705 464.514C143.276 464.893 143.946 465.093 144.631 465.09C145.546 465.086 146.423 464.72 147.069 464.072C147.714 463.423 148.077 462.545 148.077 461.63Z" fill="#605147"/>
<path d="M114.529 465.984C114.529 465.3 114.326 464.631 113.946 464.062C113.566 463.493 113.026 463.049 112.393 462.787C111.761 462.525 111.065 462.457 110.394 462.59C109.723 462.724 109.107 463.053 108.623 463.537C108.139 464.021 107.809 464.638 107.676 465.309C107.542 465.98 107.611 466.676 107.873 467.308C108.134 467.94 108.578 468.481 109.147 468.861C109.716 469.241 110.385 469.444 111.069 469.444C111.986 469.44 112.864 469.074 113.512 468.426C114.16 467.778 114.525 466.9 114.529 465.984Z" fill="#605147"/>
<path d="M81.0822 479.363C81.085 478.677 80.8842 478.006 80.5051 477.435C80.126 476.864 79.5858 476.418 78.9529 476.155C78.3201 475.891 77.6232 475.821 76.9507 475.954C76.2782 476.087 75.6604 476.417 75.1756 476.902C74.6908 477.387 74.361 478.004 74.228 478.677C74.0949 479.349 74.1646 480.046 74.4283 480.679C74.692 481.312 75.1377 481.852 75.7089 482.231C76.2801 482.61 76.951 482.811 77.6366 482.808C78.5504 482.808 79.4268 482.445 80.073 481.799C80.7192 481.153 81.0822 480.277 81.0822 479.363Z" fill="#605147"/>
<g style="mix-blend-mode:multiply" opacity="0.3">
<path d="M308.465 489.166L308.912 515.476L338.322 521.704L337.442 500.31L308.465 489.166Z" fill="#614E68"/>
</g>
<g style="mix-blend-mode:multiply" opacity="0.5">
<path d="M308.565 495.207L308.911 515.477L334.097 520.811L333.42 504.765L308.565 495.207Z" fill="#614E68"/>
</g>
<g style="mix-blend-mode:multiply" opacity="0.5">
<path d="M313.813 432.09L313.583 446.594L338.552 455.503L337.875 441.461L313.813 432.09Z" fill="#614E68"/>
</g>
<g style="mix-blend-mode:multiply" opacity="0.5">
<path d="M122.891 660.812L116.201 604.63L142.281 602.626L152.315 661.475L122.891 660.812Z" fill="#614E68"/>
</g>
<g style="mix-blend-mode:multiply" opacity="0.3">
<path d="M124.895 611.997L130.243 660.149L152.315 661.475L141.618 611.319L124.895 611.997Z" fill="#614E68"/>
</g>
<g style="mix-blend-mode:multiply" opacity="0.5">
<path d="M175.05 658.808L168.361 602.626L194.441 600.622L204.475 659.471L175.05 658.808Z" fill="#614E68"/>
</g>
<g style="mix-blend-mode:multiply" opacity="0.3">
<path d="M179.055 609.993L184.403 658.145L206.475 659.471L195.778 609.315L179.055 609.993Z" fill="#614E68"/>
</g>
<path d="M351.931 648.111H319.162V664.157H351.931V648.111Z" fill="#8D8E75"/>
<path d="M355.276 631.387H322.507V647.433H355.276V631.387Z" fill="#8D8E75"/>
<path d="M371.985 616.682H339.216V632.728H371.985V616.682Z" fill="#8D8E75"/>
<path d="M380.678 648.774H347.909V664.82H380.678V648.774Z" fill="#8D8E75"/>
<path d="M388.045 631.387H355.276V647.433H388.045V631.387Z" fill="#8D8E75"/>
<path d="M401.737 618.686H368.968V634.732H401.737V618.686Z" fill="#8D8E75"/>
<path d="M411.785 634.4H391.717V650.446H411.785V634.4Z" fill="#8D8E75"/>
<path d="M404.087 649.437H384.019V665.483H404.087V649.437Z" fill="#8D8E75"/>
<path d="M377.679 652.119H357.611V668.164H377.679V652.119Z" fill="#8D8E75"/>
<path d="M343.901 635.727H327.855V651.773H343.901V635.727Z" fill="#8D8E75"/>
<path d="M327.855 632.382H321.166V648.428H327.855V632.382Z" fill="#AFAF91"/>
<path d="M386.369 633.391H366.301V649.437H386.369V633.391Z" fill="#8D8E75"/>
<path d="M392.049 616.682H371.981V632.728H392.049V616.682Z" fill="#8D8E75"/>
<path d="M398.392 652.119H378.339V668.164H398.392V652.119Z" fill="#8D8E75"/>
<path d="M401.42 636.404H381.352V652.45H401.42V636.404Z" fill="#8D8E75"/>
<path d="M399.07 629.052H379.002V645.098H399.07V629.052Z" fill="#8D8E75"/>
<path d="M418.46 649.106H398.392V665.151H418.46V649.106Z" fill="#8D8E75"/>
<path d="M357.611 651.787H337.543V667.833H357.611V651.787Z" fill="#AFAF91"/>
<path d="M364.301 634.054H344.232V650.1H364.301V634.054Z" fill="#AFAF91"/>
<path d="M370.327 617.345H356.948V632.065H370.327V617.345Z" fill="#AFAF91"/>
<g style="mix-blend-mode:overlay" opacity="0.4">
<path d="M517.961 247.325L515.813 260.315L539.831 256.884L517.961 247.325Z" fill="#FFF7DB"/>
</g>
<g style="mix-blend-mode:multiply" opacity="0.5">
<path d="M536.717 227.012L539.831 256.883L545.627 270.695L550.081 242.611L536.717 227.012Z" fill="#614E68"/>
</g>
<path d="M187.752 649.668H160.1V664.387H187.752V649.668Z" fill="#8D8E75"/>
<path d="M174.142 646.366C170.913 642.33 162.753 643.483 155.934 648.947C149.115 654.411 146.203 662.124 149.432 666.161C152.661 670.197 160.821 669.044 167.64 663.566C174.46 658.087 177.429 650.389 174.142 646.366ZM166.574 662.225C160.994 666.708 154.319 667.66 151.667 664.344C149.014 661.028 151.407 654.743 156.987 650.273C162.566 645.804 169.255 644.853 171.908 648.154C174.561 651.455 172.167 657.756 166.574 662.225Z" fill="#3F362C"/>
<path d="M169.587 644.78C166.357 640.744 158.197 641.897 151.378 647.375C144.559 652.854 141.647 660.538 144.891 664.575C148.135 668.611 156.266 667.458 163.099 661.98C169.933 656.501 172.83 648.817 169.587 644.78ZM162.032 660.639C156.439 665.108 149.764 666.06 147.125 662.758C144.487 659.457 146.851 653.142 152.445 648.673C158.039 644.204 164.699 643.252 167.352 646.554C170.005 649.855 167.612 656.184 162.032 660.653V660.639Z" fill="#3F362C"/>
<g style="mix-blend-mode:multiply" opacity="0.5">
<path d="M190.083 545.781L191.756 570.203L213.496 567.521L211.492 542.782L190.083 545.781Z" fill="#614E68"/>
</g>
<g style="mix-blend-mode:multiply" opacity="0.5">
<path d="M195.533 569.727L213.496 567.521L211.781 546.314L194.106 548.794L195.533 569.727Z" fill="#614E68"/>
</g>
<g style="mix-blend-mode:multiply" opacity="0.5">
<path d="M298.425 478.238L298.757 513.011L248.269 501.983L247.606 460.188L298.425 478.238Z" fill="#614E68"/>
</g>
<g style="mix-blend-mode:multiply" opacity="0.5">
<path d="M293.077 476.566L247.606 460.419L248.269 501.478L293.408 511.339L293.077 476.566Z" fill="#614E68"/>
</g>
<g style="mix-blend-mode:multiply" opacity="0.5">
<path d="M303.442 541.441L304.12 571.529L252.955 566.353L252.508 531.522L303.442 541.441Z" fill="#614E68"/>
</g>
<g style="mix-blend-mode:multiply" opacity="0.5">
<path d="M298.267 540.605L252.508 531.753L252.955 565.849L298.93 570.866L298.267 540.605Z" fill="#614E68"/>
</g>
<g style="mix-blend-mode:multiply" opacity="0.5">
<path d="M305.23 595.273L309.642 659.342L258.26 660.971L252.148 590.141L305.23 595.273Z" fill="#614E68"/>
</g>
<g style="mix-blend-mode:multiply" opacity="0.5">
<path d="M299.982 595.129L252.176 590.372L258.188 660.466L304.423 659.37L299.982 595.129Z" fill="#614E68"/>
</g>
<g style="mix-blend-mode:multiply" opacity="0.5">
<path d="M230.335 461.976L230.638 503.482L180.15 514.77L180.395 477.344L230.335 461.976Z" fill="#614E68"/>
</g>
<g style="mix-blend-mode:multiply" opacity="0.5">
<path d="M230.566 463.346L185.744 475.34L185.412 513.516L230.638 503.41L230.566 463.346Z" fill="#614E68"/>
</g>
<g style="mix-blend-mode:multiply" opacity="0.5">
<path d="M201.285 435.464L218.384 429.524L218.283 407.207L201.53 413.349L201.285 435.464Z" fill="#614E68"/>
</g>
<path d="M335.842 433.834L401.38 411.762L399.376 492.684L335.179 502.718L335.842 433.834Z" fill="#89CEC8"/>
<path style="mix-blend-mode:overlay" d="M335.842 433.834L401.38 411.762L399.376 492.684L335.179 502.718L335.842 433.834Z" fill="url(#paint14_linear_29_2505)"/>
<path d="M403.049 411.1L446.847 449.217L441.498 514.424L401.045 492.352L403.049 411.1Z" fill="#667F7D"/>
<path d="M335.179 502.718L385.998 518.764L439.498 514.424L399.045 492.352L335.179 502.718Z" fill="url(#paint15_linear_29_2505)"/>
<g style="mix-blend-mode:multiply" opacity="0.5">
<path d="M351.888 447.213L349.884 477.301L380.649 471.289L379.308 436.516L351.888 447.213Z" fill="#614E68"/>
</g>
<g style="mix-blend-mode:multiply" opacity="0.8">
<g style="mix-blend-mode:multiply" opacity="0.5">
<path d="M352.825 476.724L380.649 471.289L379.482 440.827L354.569 450.558L352.825 476.724Z" fill="#001525"/>
</g>
</g>
<g style="mix-blend-mode:multiply" opacity="0.5">
<path d="M563.013 627.826L563.907 622.463L493.02 619.349L495.701 626.068L497.648 654.815L519.85 654.339L521.753 644.06L519.258 642.243L519.431 642.33L532.868 643.815L531.109 645.833L530.965 654.973L538.332 655.016L544.733 627.38L563.013 627.826Z" fill="#614E68"/>
</g>
<g style="mix-blend-mode:multiply" opacity="0.6">
<path d="M505.116 573.533L517.456 538.096L517.759 566.512L505.116 573.533Z" fill="#614E68"/>
</g>
<g style="mix-blend-mode:multiply" opacity="0.6">
<path d="M505.116 565.186V514.684L516.029 534.089L505.116 565.186Z" fill="#614E68"/>
</g>
<g style="mix-blend-mode:multiply" opacity="0.6">
<path d="M505.433 499.979V449.477L516.346 468.882L505.433 499.979Z" fill="#614E68"/>
</g>
<g style="mix-blend-mode:multiply" opacity="0.6">
<path d="M505.75 432.768V382.28L516.649 401.671L505.75 432.768Z" fill="#614E68"/>
</g>
<g style="mix-blend-mode:multiply" opacity="0.6">
<path d="M505.562 362.443V316.165L515.568 333.941L505.562 362.443Z" fill="#614E68"/>
</g>
<g style="mix-blend-mode:multiply" opacity="0.6">
<path d="M505.75 508.672L516.966 529.072L516.188 476.566L505.75 508.672Z" fill="#614E68"/>
</g>
<g style="mix-blend-mode:multiply" opacity="0.6">
<path d="M505.116 442.802L516.346 463.187L515.553 410.696L505.116 442.802Z" fill="#614E68"/>
</g>
<g style="mix-blend-mode:multiply" opacity="0.6">
<path d="M504.914 373.63L515.597 393.05L514.847 343.081L504.914 373.63Z" fill="#614E68"/>
</g>
<g style="mix-blend-mode:multiply" opacity="0.6">
<path d="M503.962 304.084L514.645 323.503L513.895 273.521L503.962 304.084Z" fill="#614E68"/>
</g>
<g style="mix-blend-mode:multiply" opacity="0.6">
<path d="M505.433 255.874V291.325L511.906 271.589L505.433 255.874Z" fill="#614E68"/>
</g>
<g opacity="0.5">
<g style="mix-blend-mode:multiply" opacity="0.6">
<path d="M505.058 243.173L504.611 230.501L513.42 243.836L505.058 243.173Z" fill="#614E68"/>
</g>
<g style="mix-blend-mode:multiply" opacity="0.6">
<path d="M503.558 243.202L492.068 227.776L502.938 229.78L503.558 243.202Z" fill="#614E68"/>
</g>
<g style="mix-blend-mode:multiply" opacity="0.6">
<path d="M488.363 222.413L472.519 201.091L486.374 204.897L488.363 222.413Z" fill="#614E68"/>
</g>
<g style="mix-blend-mode:multiply" opacity="0.6">
<path d="M464.45 192.441L440.893 160.666L459.793 167.975L464.45 192.441Z" fill="#614E68"/>
</g>
<g style="mix-blend-mode:multiply" opacity="0.6">
<path d="M428.985 144.937L393.159 96.67L419.225 110.294L428.985 144.937Z" fill="#614E68"/>
</g>
<g style="mix-blend-mode:multiply" opacity="0.6">
<path d="M490.886 225.412L502.377 227.762L488.551 208.328L490.886 225.412Z" fill="#614E68"/>
</g>
<g style="mix-blend-mode:multiply" opacity="0.6">
<path d="M469.852 197.962L484.63 202.302L464.864 174.448L469.852 197.962Z" fill="#614E68"/>
</g>
<g style="mix-blend-mode:multiply" opacity="0.6">
<path d="M435.227 154.568L454.892 162.656L425.121 120.559L435.227 154.568Z" fill="#614E68"/>
</g>
<g style="mix-blend-mode:multiply" opacity="0.6">
<path d="M379.132 81.7487L409.94 98.847L366.632 31.737L379.132 81.7487Z" fill="#614E68"/>
</g>
<g style="mix-blend-mode:multiply" opacity="0.6">
<path d="M348.139 38.4264L370.803 68.7737L362.412 32.6309L348.139 38.4264Z" fill="#614E68"/>
</g>
</g>
<g style="mix-blend-mode:overlay" opacity="0.4">
<path d="M511.416 140.857L502.722 202.042L504.049 205.055L514.414 142.53L511.416 140.857Z" fill="#FFF7DB"/>
</g>
<path d="M522.315 138.666C522.387 133.721 519.676 129.713 516.289 129.713C512.901 129.713 510.075 133.707 510.003 138.652C509.931 143.597 512.641 147.576 516.043 147.576C519.446 147.576 522.243 143.597 522.315 138.666Z" fill="#667F7D"/>
<g style="mix-blend-mode:multiply" opacity="0.5">
<path d="M521.55 138.234C521.55 133.822 520.224 130.247 518.494 130.232C516.764 130.218 515.351 133.808 515.308 138.234C515.265 142.66 516.649 146.221 518.379 146.221C520.109 146.221 521.522 142.674 521.55 138.234Z" fill="#614E68"/>
</g>
<g style="mix-blend-mode:overlay" opacity="0.4">
<path d="M516.433 149.219L522.776 228.122L519.778 229.794L514.761 150.545L516.433 149.219Z" fill="#FFF7DB"/>
</g>
<path d="M93.6825 583.236C93.6825 583.236 109.671 576.503 113.751 559.606C113.751 559.606 117.312 579.228 107.984 584.115C98.6563 589.002 93.6825 583.236 93.6825 583.236Z" fill="#BFBF84"/>
<path d="M111.112 474.893C111.112 474.893 105.764 486.427 122.646 498.076C122.646 498.076 112.41 483.817 111.112 474.893Z" fill="#BFBF84"/>
<path d="M52.6668 499.416C52.6668 499.416 62.0233 512.795 74.5082 490.954C74.5082 490.954 66.4925 503.424 52.6668 499.416Z" fill="#BFBF84"/>
<path d="M99.9249 511.008C99.9249 511.008 113.751 526.621 101.713 562.735C101.713 562.735 104.827 522.613 99.9249 511.008Z" fill="#BFBF84"/>
<path d="M556.214 292.32L566.911 278.278L572.044 277.831L560.409 306.347L556.214 292.32Z" fill="#D59C24"/>
<g style="mix-blend-mode:multiply" opacity="0.3">
<path d="M538.058 276.505L558.112 303.695L549.649 302.801L531.815 277.831L538.058 276.505Z" fill="#614E68"/>
</g>
<path d="M400.18 87.9768L389.54 75.391L381.669 82.0515L392.308 94.6373L400.18 87.9768Z" fill="#966C33"/>
<path d="M92.0534 655.103C92.1377 653.258 91.8231 651.416 91.1312 649.704C90.4392 647.992 89.3862 646.449 88.0439 645.18C86.7015 643.912 85.1014 642.948 83.3527 642.354C81.604 641.76 79.7478 641.55 77.9106 641.738L7.80192 652.292L7.6145 665.05L80.9813 667.328C83.8237 667.309 86.55 666.198 88.5971 664.226C90.6442 662.254 91.8557 659.572 91.9813 656.732L92.0534 655.103Z" fill="url(#paint16_linear_29_2505)"/>
<path d="M84.6433 656.429C84.6761 655.052 84.3915 653.685 83.8115 652.435C83.2315 651.185 82.3717 650.085 81.2986 649.221C78.944 647.326 75.9473 646.417 72.9369 646.683L15.2699 654.036L15.1689 663.306L75.6184 665.295C80.4768 665.295 84.4414 661.922 84.6289 657.64L84.6433 656.429Z" fill="#42392B"/>
<path d="M116.144 552.831L40.0811 612.228L50.908 622.593L122.199 559.448L116.144 552.831Z" fill="#C49C37"/>
<path d="M82.0765 586.945L69.6211 623.077L75.1002 624.966L87.5556 588.833L82.0765 586.945Z" fill="#C49C37"/>
<path d="M49.2789 590.473L23.3431 592.794L33.5935 625.52L59.8464 622.824L49.2789 590.473Z" fill="#C49C37"/>
<path style="mix-blend-mode:overlay" d="M114.471 559.231L112.222 555.887L53.0704 602.078L52.4216 600.103L46.309 598.474L43.9302 593.14L47.5776 590.631L27.8843 592.39L55.8384 606.144L114.471 559.231Z" fill="url(#paint17_linear_29_2505)"/>
<path d="M96.192 573.154L96.002 577.388L141.787 579.443L141.977 575.209L96.192 573.154Z" fill="#C49C37"/>
<path d="M159.019 587.921L119.315 549.543L113.304 558.251L153.872 592.635L159.019 587.921Z" fill="#FFC61B"/>
<path d="M153.872 592.635L156.338 590.386L116.85 553.09L113.361 558.165L114.471 559.231L153.872 592.635Z" fill="#C49C37"/>
<path d="M190.131 602.972C180.731 589.218 168.145 584.792 151.205 587.921L169.745 631.431L177.66 632.8C185.892 622.723 188.703 615.572 190.131 602.972Z" fill="#5B4F33"/>
<g style="mix-blend-mode:overlay" opacity="0.6">
<path d="M185.013 597.22C184.638 596.672 184.234 596.153 183.845 595.619C175.325 587.734 164.642 585.441 151.263 587.921L168.779 629.614L169.716 631.575C177.848 621.483 183.585 609.834 185.013 597.22Z" fill="#D7EED8"/>
</g>
<path d="M72.7063 637.774L70.7744 655.103L48.9042 668.064L-5.51902 664.459L-6.47052 642.748L72.7063 637.774Z" fill="#3A3022"/>
<path d="M64.5894 663.58C64.6245 662.3 64.375 661.028 63.8589 659.857C63.3428 658.685 62.573 657.642 61.6051 656.804C59.5158 654.986 56.8021 654.051 54.0363 654.195L-18.8692 657.597C-24.0159 657.842 -27.9661 661.749 -27.7354 666.391L-27.5913 669.549C-27.3813 671.588 -26.4243 673.478 -24.9045 674.854C-23.3847 676.23 -21.4095 676.995 -19.3593 677.002L50.5619 680.131C57.9145 680.462 64.1137 675.373 64.4164 668.756L64.5894 663.58Z" fill="url(#paint18_linear_29_2505)"/>
<path d="M-5.54791 599.57L-17.6868 603.347C-19.2053 603.818 -20.5136 604.801 -21.3889 606.129C-22.2642 607.456 -22.6524 609.046 -22.4876 610.627L-17.1966 643.815H1.38654L-5.54791 599.57Z" fill="#AA8022"/>
<path d="M-15.4523 630.09L-9.93065 650.72L50.7927 647.894L77.6799 638.495L80.3903 617.446L-7.22031 624.9L-15.4523 630.09Z" fill="#C49C37"/>
<path d="M58.8083 667.444C58.7844 666.513 58.5126 665.605 58.0209 664.815C57.5293 664.024 56.8356 663.379 56.0115 662.946C53.937 661.69 51.5443 661.059 49.1202 661.129L-17.5861 662.571C-22.3003 662.672 -25.8757 665.209 -25.6162 668.337L-25.4432 670.413C-25.2125 673.066 -21.9111 675.257 -17.8167 675.445L46.1648 678.328C52.9118 678.631 58.52 675.344 58.7218 670.976L58.8083 667.444Z" fill="#514735"/>
<path style="mix-blend-mode:overlay" d="M66.8385 626.096L-12.7996 628.331L-15.4523 630.09L-9.93065 650.72L50.7927 647.894L51.8451 647.52L52.0758 631.82L66.8385 626.096Z" fill="url(#paint19_linear_29_2505)"/>
<path d="M-15.0198 591.035L-8.44576 628.244L32.5411 627.177L49.5961 621.814L31.8202 580.64C21.0509 565.978 -16.1155 579.126 -15.0198 591.035Z" fill="#FFC61B"/>
<path d="M33.0456 583.624L31.7626 580.64C21.0509 565.978 -16.1155 579.126 -15.0198 591.035L-14.4864 594.005L13.3956 588.036L33.0456 583.624Z" fill="#3A3022"/>
<path d="M-11.9346 589.478L-6.58596 625.707L23.1702 624.078L10.0366 586.811C-0.213756 581.678 -5.43262 583.48 -11.9346 589.478Z" fill="#8FB7B3"/>
<g style="mix-blend-mode:overlay" opacity="0.6">
<path d="M183.845 595.619C175.325 587.734 164.642 585.441 151.263 587.921L151.696 588.93C163.229 587.488 172.744 590.098 180.443 597.205C180.832 597.739 181.221 598.258 181.61 598.806C180.123 610.071 175.726 620.754 168.851 629.802L169.702 631.575C177.848 621.483 183.585 609.834 185.013 597.22C184.638 596.686 184.234 596.153 183.845 595.619Z" fill="#D7EED8"/>
</g>
<path d="M157.952 589.824C157.991 588.949 157.77 588.082 157.317 587.333C156.863 586.584 156.197 585.987 155.404 585.616C154.611 585.246 153.725 585.119 152.86 585.251C151.994 585.384 151.188 585.771 150.542 586.362C149.896 586.953 149.44 587.723 149.232 588.573C149.024 589.424 149.072 590.317 149.372 591.14C149.671 591.963 150.208 592.678 150.914 593.196C151.62 593.713 152.464 594.01 153.339 594.048C154.51 594.095 155.652 593.677 156.516 592.886C157.38 592.095 157.896 590.994 157.952 589.824Z" fill="#5B4F33"/>
<path d="M123.785 555.469C123.913 554.322 123.694 553.163 123.156 552.142C122.618 551.121 121.786 550.284 120.768 549.741C119.75 549.198 118.592 548.973 117.445 549.095C116.297 549.217 115.212 549.68 114.331 550.425C113.45 551.17 112.812 552.162 112.501 553.273C112.189 554.385 112.219 555.564 112.585 556.658C112.951 557.753 113.637 558.712 114.554 559.412C115.471 560.113 116.577 560.522 117.73 560.587C119.21 560.707 120.678 560.236 121.813 559.277C122.947 558.318 123.656 556.949 123.785 555.469Z" fill="#C49C37"/>
<path d="M123.035 556.175C123.077 555.204 122.83 554.243 122.325 553.412C121.821 552.581 121.081 551.919 120.2 551.508C119.319 551.098 118.337 550.957 117.376 551.105C116.415 551.253 115.52 551.682 114.803 552.338C114.087 552.995 113.58 553.849 113.349 554.793C113.117 555.737 113.171 556.728 113.502 557.642C113.834 558.555 114.429 559.35 115.212 559.925C115.995 560.501 116.932 560.831 117.903 560.875C118.548 560.904 119.193 560.806 119.801 560.585C120.409 560.364 120.967 560.026 121.443 559.59C121.92 559.153 122.306 558.627 122.579 558.041C122.852 557.455 123.007 556.821 123.035 556.175Z" fill="#5B4F33"/>
<path d="M52.0036 666.651C45.4729 663.883 40.8162 667.631 44.9539 673.96C50.2448 676.353 54.887 672.143 52.0036 666.651Z" fill="#3A3022"/>
<g style="mix-blend-mode:overlay" opacity="0.5">
<path d="M57.1649 654.555C56.1439 654.29 55.0909 654.169 54.0364 654.195L-18.8691 657.597C-20.4326 657.641 -21.9605 658.074 -23.3147 658.857C-24.6689 659.64 -25.8067 660.748 -26.6253 662.081L52.6668 658.549L57.1649 654.555Z" fill="#FFEBBE"/>
</g>
<path d="M-3.22691 671.725L-6.84552 661.691L1.55945 655.694L30.3641 654.267L25.6931 661.115L26.9618 671.913L-3.22691 671.725Z" fill="#3A3022"/>
<path d="M-6.81658 669.823L-10.4352 659.789L-2.03022 653.777L26.1401 653.301L22.1034 659.212L23.3577 670.01L-6.81658 669.823Z" fill="#705E42"/>
<g style="mix-blend-mode:multiply" opacity="0.4">
<path d="M30.3786 627.235H32.6132L49.6682 621.872L31.8203 580.64C31.1881 579.779 30.4521 579 29.6289 578.319L13.0785 582.168L30.3786 627.235Z" fill="#514735"/>
</g>
<path style="mix-blend-mode:overlay" d="M11.0168 574.47C-2.1024 576.056 -15.683 583.769 -15.0198 591.035L-8.44577 628.244L3.7508 578.564L11.0168 574.47Z" fill="url(#paint20_linear_29_2505)"/>
<path d="M52.0758 631.82L-11.0119 631.704L52.3785 638.033L52.0758 631.82Z" fill="#C49C37"/>
<path d="M84.7154 594.192C84.7869 593.497 84.648 592.796 84.3166 592.181C83.9852 591.565 83.4766 591.064 82.8567 590.741C82.2368 590.418 81.5342 590.288 80.8399 590.37C80.1457 590.451 79.4918 590.738 78.9631 591.196C78.4343 591.653 78.0551 592.258 77.8745 592.933C77.6938 593.609 77.7202 594.322 77.9502 594.983C78.1801 595.643 78.603 596.218 79.164 596.635C79.7251 597.052 80.3984 597.291 81.0967 597.321C81.9911 597.384 82.8742 597.09 83.5525 596.504C84.2308 595.918 84.6489 595.086 84.7154 594.192Z" fill="#5B4F33"/>
<path d="M17.6052 589.06L32.4401 586.234L46.0927 618.585L31.6039 622.189L17.6052 589.06Z" fill="#8FB7B3"/>
<g style="mix-blend-mode:multiply">
<path d="M22.8099 624.078L18.6434 612.299L9.99339 587.027C8.58984 586.012 6.98046 585.318 5.2791 584.994C-2.11669 582.385 -6.6868 584.374 -12.1652 589.42L-6.83096 625.664H-6.39846L22.8099 624.078ZM-9.28181 590.746C-4.4522 586.306 -0.300172 584.288 5.66836 585.643L8.11921 595.403L-7.94105 599.915L-9.28181 590.746Z" fill="#8FB7B3"/>
</g>
<g style="mix-blend-mode:multiply">
<path d="M32.4401 586.234L17.6052 589.117L18.6144 591.338L31.676 622.261L44.752 618.989L46.1936 618.643L32.4401 586.234ZM19.8975 588.728L31.157 586.623L33.1032 592.073L22.1898 592.448L19.8975 588.728Z" fill="#8FB7B3"/>
</g>
<g style="mix-blend-mode:overlay" opacity="0.3">
<path d="M5.23572 584.937L-4.30817 624.453L3.27504 623.631L7.65773 586.479L5.23572 584.937Z" fill="#FFD9A5"/>
</g>
<g style="mix-blend-mode:overlay" opacity="0.5">
<path d="M50.1583 668.193C46.6839 666.752 44.2042 668.727 46.4099 672.086C49.2356 673.354 51.6721 671.12 50.1583 668.193Z" fill="#FFEBBE"/>
</g>
<path d="M41.0757 654.743L36.9093 659.197L37.7599 661.764L40.2828 661.677L39.4178 659.313L43.7861 654.671L41.0757 654.743Z" fill="#514735"/>
<path d="M50.98 654.123L46.3666 659.63L47.2317 662.182L49.7402 662.095L48.8896 659.745L53.4885 654.238L50.98 654.123Z" fill="#514735"/>
<path d="M32.8437 654.959L28.1727 659.976L29.0233 662.528L31.5318 662.441L30.6812 660.091L35.1648 655.06L32.8437 654.959Z" fill="#514735"/>
<path style="mix-blend-mode:overlay" d="M52.0758 631.82L66.8385 626.096L-14.0683 630.594L52.0758 631.82Z" fill="url(#paint21_linear_29_2505)"/>
<path d="M151.883 593.904L167.842 633.233L166.631 640.729L170.149 640.009L173.335 633.766L175.901 634.761L174.762 640.801L177.992 639.778L182.432 625.174L172.355 629.672L153.872 592.635L151.883 593.904Z" fill="#5B4F33"/>
<path d="M156.655 589.766C156.683 589.148 156.527 588.535 156.206 588.005C155.886 587.475 155.415 587.053 154.854 586.791C154.293 586.528 153.667 586.439 153.055 586.532C152.443 586.626 151.873 586.9 151.417 587.318C150.96 587.736 150.638 588.28 150.491 588.882C150.344 589.483 150.378 590.114 150.59 590.696C150.802 591.278 151.182 591.783 151.682 592.149C152.181 592.515 152.778 592.724 153.397 592.75C154.224 592.786 155.032 592.491 155.643 591.932C156.253 591.372 156.617 590.594 156.655 589.766Z" fill="#C49C37"/>
<path d="M121.593 556.103C121.621 555.417 121.445 554.739 121.088 554.153C120.73 553.567 120.207 553.1 119.585 552.811C118.962 552.522 118.268 552.424 117.59 552.529C116.912 552.634 116.28 552.938 115.774 553.402C115.268 553.865 114.911 554.468 114.747 555.135C114.584 555.801 114.621 556.501 114.855 557.147C115.089 557.792 115.509 558.353 116.061 558.76C116.614 559.167 117.275 559.402 117.96 559.433C118.418 559.455 118.875 559.385 119.306 559.229C119.736 559.073 120.132 558.833 120.47 558.524C120.807 558.214 121.08 557.841 121.273 557.426C121.466 557.01 121.575 556.561 121.593 556.103Z" fill="#C49C37"/>
<path d="M84.1243 594.163C84.1961 593.588 84.0928 593.005 83.828 592.489C83.5632 591.973 83.1491 591.549 82.6398 591.273C82.1305 590.996 81.5496 590.879 80.9728 590.938C80.3961 590.996 79.8504 591.227 79.4068 591.6C78.9633 591.973 78.6425 592.471 78.4863 593.029C78.3302 593.588 78.3459 594.18 78.5315 594.729C78.7171 595.278 79.0638 595.759 79.5266 596.108C79.9893 596.457 80.5466 596.659 81.1256 596.686C81.8555 596.739 82.577 596.504 83.137 596.033C83.6969 595.562 84.0511 594.891 84.1243 594.163Z" fill="#C49C37"/>
<g style="mix-blend-mode:overlay" opacity="0.6">
<path d="M151.667 592.448L167.338 631.474L167.194 641.046L170.207 632.18L151.667 592.448Z" fill="#D7EED8"/>
</g>
<g style="mix-blend-mode:multiply" opacity="0.3">
<path d="M54.887 630.638L52.5083 631.69L52.0613 647.765L54.022 646.568L54.887 630.638Z" fill="#514735"/>
</g>
<g style="mix-blend-mode:multiply" opacity="0.4">
<path d="M323.025 683.187C323.025 679.568 314.13 676.641 303.145 676.641C292.159 676.641 283.278 679.525 283.278 683.187C283.278 686.848 292.174 689.717 303.145 689.717C314.116 689.717 323.025 686.834 323.025 683.187Z" fill="#614E68"/>
</g>
<path d="M296.888 605.192C300.016 601.242 301.213 596.816 299.411 595.389C298.575 594.769 293.457 596.052 290.328 599.988C287.2 603.923 287.012 608.638 287.892 609.791C289.708 611.218 293.759 609.142 296.888 605.192Z" fill="#4F2E26"/>
<path d="M291.86 674.78L291.703 680.228L293.36 680.275L293.517 674.828L291.86 674.78Z" fill="#493A26"/>
<path d="M306.28 670.776L304.609 670.856L304.903 676.947L306.573 676.867L306.28 670.776Z" fill="#493A26"/>
<path d="M308.739 600.809L305.942 599.036L298.849 612.227L302.309 617.23L308.739 600.809Z" fill="#2D4951"/>
<path d="M303.765 672.735L306.763 672.922C306.836 660.636 306.259 648.355 305.033 636.13C304.759 622.391 303.073 614.88 299.526 610.872L290.083 615.197C289.637 615.402 289.272 615.75 289.047 616.187C288.822 616.623 288.75 617.123 288.843 617.605C290.098 623.992 291.222 630.032 290.891 635.626H290.79V636.419V636.909C291.337 647.952 291.381 660.956 290.79 676.022L293.875 676.195C295.461 658.895 296.196 647.923 296.758 641.594C297.196 641.149 297.723 640.801 298.304 640.573C298.885 640.344 299.508 640.24 300.132 640.268C302.177 650.981 303.391 661.835 303.765 672.735Z" fill="url(#paint22_linear_29_2505)"/>
<path d="M294.077 619.364C293.687 617.345 292.419 615.889 291.193 616.12C289.968 616.351 289.362 618.153 289.752 620.171C290.141 622.189 291.395 623.645 292.635 623.429C293.875 623.213 294.452 621.382 294.077 619.364Z" fill="#375860"/>
<path d="M295.014 622.146L300.939 619.595C300.809 616.019 299.843 612.184 298.229 611.492L292.044 614.376C294.74 614.578 294.942 619.551 295.014 622.146Z" fill="#375860"/>
<path d="M290.429 673.602L290.275 676.395L294.507 676.628L294.661 673.836L290.429 673.602Z" fill="#A5722F"/>
<path d="M303.36 670.474L303.238 673.268L307.472 673.454L307.595 670.66L303.36 670.474Z" fill="#A5722F"/>
<path d="M292.044 614.318L292.981 611.406L295.706 611.045L299.901 612.314L299.396 613.554L292.044 614.318Z" fill="#375860"/>
<path d="M295.619 609.272H292.52L293.125 614.087C293.662 614.428 294.297 614.582 294.931 614.525C295.564 614.467 296.161 614.202 296.628 613.77L295.619 609.272Z" fill="#DB9261"/>
<path d="M296.628 613.727L297.897 616.682L294.307 614.635L296.628 613.727Z" fill="#DB9261"/>
<path d="M292.75 611.406L295.259 614.001L294.48 615.918L292.246 613.496L292.75 611.406Z" fill="#457582"/>
<path d="M306.042 597.803L304.904 600.103L308.832 602.047L309.97 599.747L306.042 597.803Z" fill="#457582"/>
<g style="mix-blend-mode:multiply" opacity="0.4">
<path d="M300.088 609.978L299.613 610.872L297.825 611.694L296.066 611.161L295.648 609.286H292.548L292.822 611.521L292.332 613.611L292.087 614.375L290.184 615.255C289.736 615.457 289.369 615.805 289.144 616.242C288.919 616.68 288.849 617.18 288.944 617.663C289.045 618.182 289.146 618.686 289.233 619.176C291.352 619.098 293.412 618.456 295.201 617.317C298.647 615.154 300.68 612.04 300.088 609.978Z" fill="#614E68"/>
</g>
<path d="M300.853 604.947C300.853 602.064 298.978 596.21 295.98 596.21C292.981 596.21 288.57 600.535 288.57 603.419C288.57 606.302 292.448 610.238 295.446 610.238C298.445 610.238 300.896 608.767 300.853 604.947Z" fill="#F7AC74"/>
<path d="M292.88 609.272C292.88 609.272 286.234 610.224 286.594 603.505C286.594 603.505 287.69 597.739 293.096 596.412C293.067 596.441 288.022 604.356 292.88 609.272Z" fill="#754E34"/>
<path d="M291.626 605.754C291.596 605.523 291.498 605.305 291.343 605.13C291.189 604.955 290.986 604.83 290.76 604.772C290.534 604.713 290.295 604.724 290.075 604.803C289.855 604.881 289.664 605.024 289.526 605.212C289.388 605.4 289.309 605.626 289.301 605.859C289.292 606.092 289.353 606.323 289.477 606.521C289.601 606.719 289.781 606.875 289.994 606.97C290.208 607.065 290.445 607.093 290.674 607.052C290.972 607.006 291.24 606.843 291.418 606.6C291.597 606.357 291.671 606.052 291.626 605.754Z" fill="#F7AC74"/>
<path d="M292.52 597.667C291.776 598.905 291.43 600.341 291.528 601.782C291.626 603.223 292.163 604.599 293.068 605.726L292.03 605.855C290.703 605.044 289.687 603.81 289.146 602.352C289.327 601.37 289.723 600.441 290.306 599.63C290.89 598.82 291.646 598.149 292.52 597.667Z" fill="#754E34"/>
<path d="M300.088 604.832C300.082 604.761 300.058 604.693 300.018 604.635C299.977 604.577 299.922 604.53 299.858 604.5C299.794 604.465 299.722 604.446 299.649 604.446C299.576 604.446 299.504 604.465 299.44 604.5C298.46 604.939 297.411 605.203 296.34 605.279C296.232 605.29 296.127 605.324 296.032 605.379C295.938 605.434 295.856 605.508 295.792 605.596C295.735 605.69 295.699 605.796 295.687 605.905C295.674 606.015 295.686 606.125 295.72 606.23L296.008 607.052C296.032 607.122 296.076 607.183 296.136 607.227C296.195 607.27 296.266 607.295 296.34 607.297C297.034 607.363 297.733 607.256 298.375 606.984C299.017 606.712 299.581 606.285 300.016 605.74C300.123 605.6 300.169 605.424 300.146 605.25L300.088 604.832Z" fill="#513420"/>
<path opacity="0.4" d="M299.295 607.643C299.295 607.499 298.935 607.456 298.618 607.557C298.301 607.658 298.084 607.888 298.128 608.032C298.171 608.176 298.488 608.234 298.805 608.119C299.122 608.003 299.339 607.802 299.295 607.643Z" fill="#754E34"/>
<path d="M295.763 602.035C295.619 601.545 295.331 601.199 295.143 601.271C294.956 601.343 294.913 601.775 295.143 602.265C295.374 602.756 295.576 603.102 295.778 603.044C295.98 602.986 295.893 602.525 295.763 602.035Z" fill="#564438"/>
<path d="M299.151 600.853C298.993 600.363 298.704 600.017 298.517 600.089C298.33 600.161 298.301 600.593 298.517 601.083C298.733 601.574 298.964 601.92 299.151 601.862C299.339 601.804 299.31 601.343 299.151 600.853Z" fill="#564438"/>
<path d="M298.416 601.674C298.239 601.477 298.011 601.331 297.756 601.255C297.502 601.179 297.231 601.174 296.975 601.242L296.672 601.328L297.969 603.808C298.04 603.944 298.16 604.047 298.305 604.098C298.449 604.149 298.607 604.143 298.748 604.082L299.425 603.765C299.495 603.733 299.556 603.685 299.604 603.624C299.651 603.564 299.684 603.494 299.699 603.419C299.715 603.344 299.713 603.266 299.696 603.192C299.679 603.117 299.645 603.047 299.598 602.986L298.416 601.674Z" fill="#D67254"/>
<path d="M299.267 605.336L299.195 604.918H299.108C298.284 605.289 297.4 605.509 296.499 605.567C296.348 605.583 296.209 605.655 296.109 605.769L296.311 606.331L299.267 605.336Z" fill="#F7AC74"/>
<path d="M298.935 602.785C298.733 602.511 298.488 602.367 298.373 602.453C298.257 602.54 298.373 602.813 298.546 603.073C298.719 603.332 298.993 603.477 299.108 603.39C299.223 603.304 299.137 603.044 298.935 602.785Z" fill="#F7AC74"/>
<path d="M294.971 599.642L294.149 600.189C294.027 600.267 293.922 600.368 293.84 600.487C293.758 600.606 293.701 600.74 293.673 600.881C293.615 601.166 293.672 601.461 293.832 601.703V601.79L295.562 600.651L294.971 599.642Z" fill="#754E34"/>
<path d="M297.436 598.618L298.229 598.488C298.351 598.471 298.475 598.482 298.592 598.519C298.709 598.557 298.817 598.62 298.906 598.705C299.113 598.892 299.246 599.148 299.281 599.425V599.57L297.609 599.844L297.436 598.618Z" fill="#754E34"/>
<g style="mix-blend-mode:multiply" opacity="0.4">
<path d="M299.815 600.117C298.964 598.013 297.652 596.21 295.98 596.21C295.766 596.214 295.554 596.238 295.345 596.283C292.938 598.2 288.425 602.049 286.695 605.25C286.844 606.338 287.373 607.338 288.188 608.074C289.003 608.81 290.052 609.235 291.15 609.272C291.76 607.166 292.865 605.236 294.372 603.644C295.879 602.051 297.745 600.842 299.815 600.117Z" fill="#614E68"/>
</g>
<path d="M287.849 609.733C288.567 606.522 290.09 603.545 292.275 601.083C294.167 598.661 296.575 596.691 299.324 595.317C289.29 591.799 281.866 599.843 287.849 609.733Z" fill="#EA7A2F"/>
<path d="M306.316 614.592L304.976 611.391C300.982 613.871 297.032 614.736 291.482 616.033C291.02 616.141 290.601 616.384 290.278 616.731C289.954 617.077 289.741 617.512 289.665 617.98C289.551 618.651 289.631 619.341 289.896 619.969C290.075 620.394 290.406 620.739 290.823 620.936C291.241 621.132 291.717 621.168 292.159 621.036C297.157 619.561 301.922 617.392 306.316 614.592Z" fill="#457582"/>
<path d="M305.777 610.704L303.401 611.675L305.059 615.732L307.435 614.761L305.777 610.704Z" fill="#5A93A0"/>
<path d="M291.727 638.668L287.402 640.513L289.449 651.427C290.602 652.047 291.251 651.614 292.116 651.023L291.727 638.668Z" fill="#633F1A"/>
<g style="mix-blend-mode:overlay" opacity="0.6">
<path d="M297.075 595.461C294.921 594.853 292.646 594.814 290.472 595.345C286.061 597.335 284.115 602.554 287.243 608.666C287.951 606.212 289.073 603.896 290.559 601.818C292.227 599.237 294.454 597.064 297.075 595.461Z" fill="#FFFAC6"/>
</g>
<g style="mix-blend-mode:overlay" opacity="0.6">
<path d="M288.324 600.853C288.944 599.569 290.227 598.185 289.68 597.969C289.132 597.753 287.488 598.589 286.796 599.872C286.104 601.155 286.148 602.756 286.695 603.087C287.243 603.419 287.69 602.136 288.324 600.853Z" fill="#FFFAC6"/>
</g>
<g style="mix-blend-mode:overlay" opacity="0.6">
<path d="M291.439 596.686C291.352 596.484 290.992 596.441 290.646 596.585C290.3 596.729 290.098 597.032 290.184 597.234C290.271 597.436 290.631 597.493 290.977 597.335C291.323 597.176 291.568 596.902 291.439 596.686Z" fill="#FFFAC6"/>
</g>
<g style="mix-blend-mode:multiply" opacity="0.4">
<path d="M291.121 605.971C291.114 605.786 291.034 605.611 290.899 605.485C290.764 605.358 290.585 605.289 290.4 605.293C290.308 605.289 290.216 605.304 290.13 605.336C290.044 605.368 289.965 605.417 289.897 605.48C289.83 605.543 289.776 605.619 289.739 605.703C289.702 605.788 289.681 605.878 289.68 605.971C289.681 606.063 289.702 606.155 289.739 606.24C289.776 606.325 289.83 606.402 289.897 606.466C289.964 606.53 290.042 606.581 290.129 606.614C290.215 606.648 290.308 606.664 290.4 606.663C290.587 606.663 290.766 606.591 290.9 606.462C291.035 606.333 291.114 606.157 291.121 605.971Z" fill="#614E68"/>
</g>
<path d="M294.307 636.332L291.049 639.129L291.539 639.706L294.797 636.895L294.307 636.332Z" fill="#633F1A"/>
<path d="M293.024 634.689C292.548 634.689 292.044 634.761 291.583 634.775L291.309 637.168L293.082 637.024L293.024 634.689Z" fill="#604F35"/>
<path d="M296.268 634.17C295.468 634.345 294.66 634.48 293.846 634.573V636.909C294.783 636.794 295.662 636.649 296.499 636.476L296.268 634.17Z" fill="#604F35"/>
<path d="M299.339 633.261C298.576 633.557 297.796 633.807 297.003 634.011L297.234 636.332C298.044 636.134 298.842 635.893 299.627 635.611L299.339 633.261Z" fill="#604F35"/>
<path d="M303.174 634.17C303.649 633.954 304.125 633.708 304.615 633.449V631.07L302.957 631.82L303.174 634.17Z" fill="#604F35"/>
<path d="M302.251 632.079C301.53 632.397 300.809 632.685 300.204 632.944L300.492 635.309C301.146 635.049 301.823 634.761 302.525 634.444L302.251 632.079Z" fill="#604F35"/>
<g style="mix-blend-mode:overlay" opacity="0.6">
<path d="M287.359 640.513L289.406 651.427C289.773 651.652 290.202 651.753 290.631 651.715L289.463 639.619L287.359 640.513Z" fill="#FFFAC6"/>
</g>
<path d="M290.977 639.619L287.906 640.902L288.382 642.013C288.899 642.031 289.415 641.944 289.898 641.758C290.381 641.573 290.822 641.291 291.193 640.931L290.977 639.619Z" fill="#3D250F"/>
<path d="M289.445 637.826L288.037 638.057L288.641 641.756L290.05 641.526L289.445 637.826Z" fill="#756151"/>
<g style="mix-blend-mode:overlay" opacity="0.6">
<path d="M289.016 637.2L288.338 637.331L288.847 639.959L289.526 639.828L289.016 637.2Z" fill="#FFFAC6"/>
</g>
<path d="M289.781 636.448L286.768 636.822L287.142 638.754L290.026 637.875L289.781 636.448Z" fill="#756151"/>
<path d="M286.868 636.361L284.907 636.476C284.801 637.647 285.101 638.818 285.758 639.792L287.474 639.23C287.638 638.741 287.669 638.217 287.563 637.713C287.456 637.208 287.216 636.741 286.868 636.361Z" fill="#756151"/>
<path d="M292.203 638.077C292.203 638.077 291.626 636.145 288.728 636.895L288.93 637.846C289.46 637.647 290.027 637.564 290.591 637.604C291.156 637.644 291.706 637.805 292.203 638.077Z" fill="#756151"/>
<g style="mix-blend-mode:overlay" opacity="0.6">
<path d="M289.838 636.722V636.448L287.229 636.779C287.136 636.634 287.035 636.494 286.926 636.361L284.965 636.476C284.889 637.173 284.973 637.878 285.21 638.538L290.833 636.822C290.509 636.734 290.173 636.7 289.838 636.722Z" fill="#FFFAC6"/>
</g>
<g style="mix-blend-mode:overlay" opacity="0.6">
<path d="M286.58 637.716L285.153 638.048L285.283 638.581L286.71 638.25L286.58 637.716Z" fill="#FFFAC6"/>
</g>
<g style="mix-blend-mode:overlay" opacity="0.6">
<path d="M289.838 636.923L287.301 637.5L287.416 638.033L289.824 637.298L289.838 636.923Z" fill="#FFFAC6"/>
</g>
<path d="M290.574 644.363C290.574 644.171 290.498 643.988 290.362 643.853C290.227 643.718 290.044 643.642 289.853 643.642C289.661 643.642 289.478 643.718 289.343 643.853C289.208 643.988 289.132 644.171 289.132 644.363C289.136 644.553 289.213 644.734 289.347 644.868C289.481 645.003 289.663 645.08 289.853 645.083C290.044 645.083 290.227 645.007 290.362 644.872C290.498 644.737 290.574 644.554 290.574 644.363Z" fill="#633F1A"/>
<path d="M315.211 584.273L313.568 584L306.504 598.589L308.839 599.685L315.211 584.273Z" fill="#F7AC74"/>
<path d="M316.841 599.281C313.568 605.509 310.324 608.133 306.057 611.362L307.21 614.001C311.699 610.179 315.35 605.472 317.936 600.175L316.841 599.281Z" fill="#F7AC74"/>
<path d="M319.09 599.022C319.58 597.739 319.464 596.499 318.83 596.254C318.196 596.009 317.273 596.859 316.783 598.142C316.293 599.425 316.408 600.665 317.057 600.91C317.706 601.155 318.599 600.305 319.09 599.022Z" fill="#F7AC74"/>
<path d="M317.461 596.427C317.259 594.985 316.365 594.221 316.019 594.264C315.673 594.307 316.25 595.144 316.451 596.556C316.653 597.969 316.451 599.44 316.74 599.44C317.028 599.44 317.662 597.84 317.461 596.427Z" fill="#F7AC74"/>
<path d="M318.643 595.72C318.989 594.437 319.075 592.606 318.801 592.534C318.527 592.462 318.369 593.63 318.037 594.913C317.706 596.196 317.634 597.277 317.908 597.349C318.181 597.421 318.297 596.989 318.643 595.72Z" fill="#F7AC74"/>
<path d="M319.739 595.807C320.301 594.61 320.704 592.822 320.445 592.707C320.185 592.592 319.839 593.716 319.277 594.913C318.715 596.109 318.47 597.176 318.729 597.292C318.989 597.407 319.176 597.003 319.739 595.807Z" fill="#F7AC74"/>
<path d="M320.272 597.306C321.18 596.268 322.088 594.596 321.872 594.423C321.656 594.25 320.964 595.259 320.07 596.282C319.176 597.306 318.628 598.301 318.845 598.503C319.061 598.704 319.306 598.33 320.272 597.306Z" fill="#F7AC74"/>
<path d="M315.745 583.87C316.235 582.587 316.12 581.347 315.485 581.102C314.851 580.857 313.928 581.707 313.438 582.99C312.948 584.273 313.063 585.513 313.698 585.758C314.332 586.003 315.255 585.153 315.745 583.87Z" fill="#F7AC74"/>
<path d="M314.116 581.26C313.914 579.819 313.035 579.069 312.674 579.112C312.314 579.155 312.905 579.992 313.107 581.405C313.309 582.817 313.107 584.288 313.395 584.288C313.683 584.288 314.318 582.688 314.116 581.26Z" fill="#F7AC74"/>
<path d="M315.298 580.568C315.644 579.285 315.731 577.454 315.457 577.382C315.183 577.31 315.024 578.492 314.693 579.761C314.361 581.03 314.289 582.125 314.563 582.197C314.837 582.269 314.952 581.837 315.298 580.568Z" fill="#F7AC74"/>
<path d="M316.394 580.655C316.956 579.473 317.36 577.671 317.1 577.555C316.841 577.44 316.495 578.564 315.933 579.761C315.37 580.958 315.125 582.024 315.385 582.14C315.644 582.255 315.832 581.851 316.394 580.655Z" fill="#F7AC74"/>
<path d="M316.87 582.154C317.763 581.116 318.672 579.444 318.455 579.271C318.239 579.098 317.547 580.107 316.653 581.131C315.759 582.154 315.212 583.149 315.428 583.351C315.644 583.553 315.947 583.178 316.87 582.154Z" fill="#F7AC74"/>
<path d="M294.322 685.897C294.322 684.455 293.86 679.208 292.693 679.208C291.525 679.208 290.098 684.455 290.098 685.897C290.098 687.339 290.977 687.123 292.145 687.123C293.313 687.123 294.322 687.324 294.322 685.897Z" fill="#493A26"/>
<path d="M294.322 685.205C294.322 683.763 293.86 678.516 292.693 678.516C291.525 678.516 290.098 683.778 290.098 685.205C290.098 686.632 290.977 686.431 292.145 686.431C293.313 686.431 294.322 686.647 294.322 685.205Z" fill="#C4972A"/>
<g style="mix-blend-mode:overlay" opacity="0.6">
<path d="M292.606 684.052C292.75 683.23 292.448 682.48 291.929 682.38C291.41 682.279 290.862 682.899 290.718 683.72C290.573 684.542 290.876 685.306 291.395 685.393C291.914 685.479 292.462 684.888 292.606 684.052Z" fill="#FFFAC6"/>
</g>
<path d="M293.168 678.242H291.799V680.433H293.168V678.242Z" fill="#493A26"/>
<path d="M293.341 680.981H291.337V681.615H293.341V680.981Z" fill="#493A26"/>
<path d="M309.402 677.42C307.441 677.175 304.932 675.459 304.788 676.656C304.781 676.68 304.781 676.705 304.788 676.728C304.508 677.474 304.38 678.268 304.413 679.064C304.477 679.418 304.67 679.735 304.956 679.954C305.241 680.172 305.598 680.277 305.956 680.246C306.274 680.25 306.587 680.171 306.864 680.015H307.124C309.099 680.275 313.986 680.808 314.145 679.611C314.303 678.415 313.871 677.016 309.402 677.42Z" fill="#493A26"/>
<path d="M309.402 676.742C307.441 676.497 304.932 674.782 304.788 675.978C304.779 676.002 304.779 676.027 304.788 676.05C304.508 676.796 304.38 677.59 304.413 678.386C304.477 678.74 304.67 679.057 304.956 679.276C305.241 679.495 305.598 679.599 305.956 679.568C306.274 679.573 306.587 679.493 306.864 679.337H307.124C309.099 679.582 313.986 680.13 314.145 678.934C314.303 677.737 313.871 676.382 309.402 676.742Z" fill="#C4972A"/>
<path d="M306.316 675.373L305.264 675.33L307.268 676.786L307.686 676.195L306.316 675.373Z" fill="#493A26"/>
<g style="mix-blend-mode:overlay" opacity="0.6">
<path d="M313.136 678.198C313.136 677.896 312.458 677.622 311.579 677.564C310.699 677.506 309.978 677.723 309.949 678.011C309.921 678.299 310.627 678.602 311.506 678.66C312.386 678.717 313.063 678.501 313.136 678.198Z" fill="#FFFAC6"/>
</g>
<path d="M308.233 676.323L307.802 677.424L308.393 677.655L308.824 676.554L308.233 676.323Z" fill="#493A26"/>
<path d="M649 659.5C648.438 637.731 618.811 597.825 589.055 598.589C559.299 599.353 546.454 638.207 547.016 659.99C571.438 661.922 647.803 667.184 649 659.5Z" fill="#634228"/>
<path style="mix-blend-mode:overlay" d="M618.119 620.82C619.523 618.151 620.77 615.402 621.853 612.588C612.064 604.111 600.574 598.301 589.055 598.589C560.467 599.339 547.477 635.251 547.016 657.381C572.144 665.469 602.665 650.36 618.119 620.82Z" fill="url(#paint23_linear_29_2505)"/>
<defs>
<linearGradient id="paint0_linear_29_2505" x1="62.2685" y1="426.626" x2="63.6525" y2="426.626" gradientUnits="userSpaceOnUse">
<stop stop-color="#EAC324"/>
<stop offset="0.99" stop-color="#CB8924"/>
</linearGradient>
<linearGradient id="paint1_linear_29_2505" x1="40.6" y1="427.001" x2="93.5528" y2="427.001" gradientUnits="userSpaceOnUse">
<stop offset="0.01" stop-color="#FFF2C8"/>
<stop offset="0.99" stop-color="#FFAE67"/>
</linearGradient>
<linearGradient id="paint2_linear_29_2505" x1="289.381" y1="373.299" x2="312.897" y2="373.299" gradientUnits="userSpaceOnUse">
<stop stop-color="#EAC324"/>
<stop offset="0.99" stop-color="#CB8924"/>
</linearGradient>
<linearGradient id="paint3_linear_29_2505" x1="153.877" y1="367.351" x2="144.894" y2="363.87" gradientUnits="userSpaceOnUse">
<stop stop-color="#EAC324"/>
<stop offset="0.99" stop-color="#CB8924"/>
</linearGradient>
<linearGradient id="paint4_linear_29_2505" x1="158.621" y1="360.351" x2="152.809" y2="396.21" gradientUnits="userSpaceOnUse">
<stop stop-color="#EAC324"/>
<stop offset="0.99" stop-color="#CB8924"/>
</linearGradient>
<linearGradient id="paint5_linear_29_2505" x1="151.869" y1="368.189" x2="141.44" y2="366.504" gradientUnits="userSpaceOnUse">
<stop stop-color="#EAC324"/>
<stop offset="0.99" stop-color="#CB8924"/>
</linearGradient>
<linearGradient id="paint6_linear_29_2505" x1="121.19" y1="541.903" x2="312.457" y2="394.78" gradientUnits="userSpaceOnUse">
<stop offset="0.02" stop-color="#4F7770"/>
<stop offset="0.89" stop-color="#3F362C"/>
</linearGradient>
<linearGradient id="paint7_linear_29_2505" x1="-2.62147" y1="478.959" x2="399.534" y2="478.959" gradientUnits="userSpaceOnUse">
<stop offset="0.02" stop-color="#4F7770"/>
<stop offset="0.89" stop-color="#3F362C"/>
</linearGradient>
<linearGradient id="paint8_linear_29_2505" x1="263.263" y1="493.895" x2="257.698" y2="514.064" gradientUnits="userSpaceOnUse">
<stop stop-color="#EAC324"/>
<stop offset="0.99" stop-color="#CB8924"/>
</linearGradient>
<linearGradient id="paint9_linear_29_2505" x1="43.7428" y1="539.452" x2="445.898" y2="539.452" gradientUnits="userSpaceOnUse">
<stop offset="0.02" stop-color="#4F7770"/>
<stop offset="0.89" stop-color="#3F362C"/>
</linearGradient>
<linearGradient id="paint10_linear_29_2505" x1="20.5607" y1="589.593" x2="422.716" y2="589.593" gradientUnits="userSpaceOnUse">
<stop offset="0.02" stop-color="#4F7770"/>
<stop offset="0.54" stop-color="#44483F"/>
<stop offset="0.89" stop-color="#3F362C"/>
</linearGradient>
<linearGradient id="paint11_linear_29_2505" x1="41.9436" y1="634.651" x2="126.727" y2="632.475" gradientUnits="userSpaceOnUse">
<stop offset="0.01" stop-color="#FFF2C8"/>
<stop offset="0.99" stop-color="#FFAE67"/>
</linearGradient>
<linearGradient id="paint12_linear_29_2505" x1="515.525" y1="261.237" x2="622.468" y2="193.003" gradientUnits="userSpaceOnUse">
<stop stop-color="#C1552F"/>
<stop offset="1" stop-color="#CCB637"/>
</linearGradient>
<linearGradient id="paint13_linear_29_2505" x1="-1.56895" y1="457.536" x2="166.285" y2="575.234" gradientUnits="userSpaceOnUse">
<stop offset="0.01" stop-color="#FFF2C8"/>
<stop offset="0.72" stop-color="#FFCD94"/>
<stop offset="0.99" stop-color="#FFAE67"/>
</linearGradient>
<linearGradient id="paint14_linear_29_2505" x1="271.803" y1="381.473" x2="408.892" y2="489.137" gradientUnits="userSpaceOnUse">
<stop offset="0.01" stop-color="#FFF2C8"/>
<stop offset="0.72" stop-color="#FFCD94"/>
<stop offset="0.99" stop-color="#FFAE67"/>
</linearGradient>
<linearGradient id="paint15_linear_29_2505" x1="315.731" y1="535.53" x2="429.407" y2="492.727" gradientUnits="userSpaceOnUse">
<stop offset="0.02" stop-color="#4F7770"/>
<stop offset="1" stop-color="#605147"/>
</linearGradient>
<linearGradient id="paint16_linear_29_2505" x1="11.281" y1="651.717" x2="95.5757" y2="655.089" gradientUnits="userSpaceOnUse">
<stop offset="0.02" stop-color="#8E7D5A"/>
<stop offset="0.99" stop-color="#5B4F33"/>
</linearGradient>
<linearGradient id="paint17_linear_29_2505" x1="29.3145" y1="593.64" x2="159.177" y2="564.265" gradientUnits="userSpaceOnUse">
<stop offset="0.01" stop-color="#FFF2C8"/>
<stop offset="0.99" stop-color="#FFAE67"/>
</linearGradient>
<linearGradient id="paint18_linear_29_2505" x1="20.6875" y1="648.671" x2="23.5847" y2="686.345" gradientUnits="userSpaceOnUse">
<stop offset="0.02" stop-color="#8E7D5A"/>
<stop offset="0.99" stop-color="#5B4F33"/>
</linearGradient>
<linearGradient id="paint19_linear_29_2505" x1="126.165" y1="683.459" x2="-43.7392" y2="602.009" gradientUnits="userSpaceOnUse">
<stop offset="0.01" stop-color="#FFF2C8"/>
<stop offset="0.99" stop-color="#FFAE67"/>
</linearGradient>
<linearGradient id="paint20_linear_29_2505" x1="-27.7031" y1="600.008" x2="42.6651" y2="602.823" gradientUnits="userSpaceOnUse">
<stop offset="0.01" stop-color="#FFF2C8"/>
<stop offset="0.99" stop-color="#FFAE67"/>
</linearGradient>
<linearGradient id="paint21_linear_29_2505" x1="15.9024" y1="620.293" x2="-20.7317" y2="599.363" gradientUnits="userSpaceOnUse">
<stop offset="0.01" stop-color="#FFF2C8"/>
<stop offset="0.99" stop-color="#FFAE67"/>
</linearGradient>
<linearGradient id="paint22_linear_29_2505" x1="302.914" y1="616.034" x2="291.957" y2="678.141" gradientUnits="userSpaceOnUse">
<stop stop-color="#EAC324"/>
<stop offset="0.99" stop-color="#CB8924"/>
</linearGradient>
<linearGradient id="paint23_linear_29_2505" x1="516.857" y1="632.606" x2="630.526" y2="629.689" gradientUnits="userSpaceOnUse">
<stop offset="0.01" stop-color="#FFF2C8"/>
<stop offset="0.99" stop-color="#FFAE67"/>
</linearGradient>
</defs>
</svg>
